<?xml version="1.0" encoding="UTF-8"?>
<svg xmlns="http://www.w3.org/2000/svg" xmlns:xlink="http://www.w3.org/1999/xlink" width="40px" height="40px" viewBox="0 0 40 40" version="1.1">
<defs>
<linearGradient id="linear0" gradientUnits="userSpaceOnUse" x1="0" y1="0" x2="1" y2="0" gradientTransform="matrix(-11.139479,32.908287,-32.908287,-11.139479,17.804923,5.353743)">
<stop offset="0" style="stop-color:rgb(6.666667%,29.019608%,54.509804%);stop-opacity:1;"/>
<stop offset="1" style="stop-color:rgb(2.352941%,41.176471%,73.72549%);stop-opacity:1;"/>
</linearGradient>
<linearGradient id="linear1" gradientUnits="userSpaceOnUse" x1="0" y1="0" x2="1" y2="0" gradientTransform="matrix(-2.57669,0.87126,-0.87126,-2.57669,21.284555,20.689901)">
<stop offset="0" style="stop-color:rgb(0%,0%,0%);stop-opacity:0.301961;"/>
<stop offset="0.07" style="stop-color:rgb(0%,0%,0%);stop-opacity:0.2;"/>
<stop offset="0.32" style="stop-color:rgb(0%,0%,0%);stop-opacity:0.101961;"/>
<stop offset="0.62" style="stop-color:rgb(0%,0%,0%);stop-opacity:0.0509804;"/>
<stop offset="1" style="stop-color:rgb(0%,0%,0%);stop-opacity:0;"/>
</linearGradient>
<linearGradient id="linear2" gradientUnits="userSpaceOnUse" x1="0" y1="0" x2="1" y2="0" gradientTransform="matrix(12.22787,32.576602,-32.576602,12.22787,19.867171,4.393826)">
<stop offset="0" style="stop-color:rgb(23.529412%,79.607843%,95.686275%);stop-opacity:1;"/>
<stop offset="1" style="stop-color:rgb(15.686275%,57.254902%,87.45098%);stop-opacity:1;"/>
</linearGradient>
</defs>
<g id="surface1">
<path style=" stroke:none;fill-rule:nonzero;fill:url(#linear0);" d="M 13.894531 2.824219 L 24.621094 2.824219 L 13.488281 35.8125 C 13.25 36.507812 12.601562 36.976562 11.867188 36.976562 L 3.519531 36.976562 C 2.582031 36.976562 1.8125 36.207031 1.8125 35.269531 C 1.8125 35.085938 1.839844 34.898438 1.902344 34.722656 L 12.273438 3.984375 C 12.511719 3.292969 13.160156 2.824219 13.894531 2.820312 Z M 13.894531 2.824219 "/>
<path style=" stroke:none;fill-rule:nonzero;fill:rgb(0%,47.058824%,83.137256%);fill-opacity:1;" d="M 29.480469 24.949219 L 12.472656 24.949219 C 12.039062 24.949219 11.683594 25.304688 11.683594 25.738281 C 11.683594 25.957031 11.777344 26.164062 11.933594 26.3125 L 22.863281 36.515625 C 23.183594 36.8125 23.601562 36.976562 24.039062 36.976562 L 33.667969 36.976562 Z M 29.480469 24.949219 "/>
<path style=" stroke:none;fill-rule:nonzero;fill:url(#linear1);" d="M 13.894531 2.824219 C 13.152344 2.820312 12.496094 3.300781 12.269531 4.007812 L 1.914062 34.695312 C 1.847656 34.878906 1.8125 35.074219 1.8125 35.273438 C 1.8125 36.207031 2.582031 36.976562 3.519531 36.976562 L 12.085938 36.976562 C 12.734375 36.859375 13.273438 36.40625 13.492188 35.78125 L 15.558594 29.695312 L 22.933594 36.578125 C 23.242188 36.832031 23.632812 36.972656 24.03125 36.976562 L 33.628906 36.976562 L 29.417969 24.949219 L 17.152344 24.953125 L 24.660156 2.824219 Z M 13.894531 2.824219 "/>
<path style=" stroke:none;fill-rule:nonzero;fill:url(#linear2);" d="M 27.59375 3.984375 C 27.359375 3.289062 26.710938 2.824219 25.976562 2.824219 L 14.023438 2.824219 C 14.753906 2.824219 15.40625 3.289062 15.640625 3.984375 L 26.015625 34.722656 C 26.074219 34.898438 26.105469 35.082031 26.105469 35.269531 C 26.105469 36.207031 25.335938 36.976562 24.398438 36.976562 L 36.351562 36.976562 C 37.289062 36.976562 38.058594 36.207031 38.058594 35.269531 C 38.058594 35.082031 38.027344 34.898438 37.96875 34.722656 Z M 27.59375 3.984375 "/>
</g>
</svg>
