<svg xmlns="http://www.w3.org/2000/svg" width="36" height="40" viewBox="0 0 36 39"><path d="M17.516 38.953a2.4 2.4 0 0 1-.43-.156c-.23-.113-5.285-2.887-7.461-4.09-.613-.34-1.48-.816-6.04-3.32-1.405-.77-2.675-1.489-2.82-1.594a2.3 2.3 0 0 1-.44-.453c-.356-.531-.333.195-.317-9.973l.012-9.164.164-.336c.097-.203.257-.43.406-.57.242-.23.445-.344 8.656-4.848l3.516-1.93C16.75.325 17.05.165 17.336.08c.355-.106 1.008-.106 1.32.003.25.09.239.082 2.45 1.297 1.699.934 4.539 2.488 7.152 3.918l3.465 1.89c.945.52 2.082 1.141 2.527 1.383.848.461 1.324.844 1.516 1.211.234.442.226.14.226 9.715.004 8.18-.004 9.074-.078 9.317-.094.308-.363.73-.586.914-.195.16.086.003-6.664 3.714L20.926 37.7c-1.043.574-2.024 1.094-2.18 1.156-.351.141-.894.184-1.23.098m0 0" style="stroke:none;fill-rule:nonzero;fill:#fff;fill-opacity:1"/><path d="M17.516 38.953a2.4 2.4 0 0 1-.43-.156c-.23-.113-5.285-2.887-7.461-4.09-.613-.34-1.48-.816-6.04-3.32-1.405-.77-2.675-1.489-2.82-1.594a2.3 2.3 0 0 1-.44-.453c-.356-.531-.333.195-.317-9.973l.012-9.164.164-.336c.097-.203.257-.43.406-.57.242-.23.445-.344 8.656-4.848l3.516-1.93C16.75.325 17.05.165 17.336.08c.355-.106 1.008-.106 1.32.003.25.09.239.082 2.45 1.297 1.699.934 4.539 2.488 7.152 3.918l3.465 1.89c.945.52 2.082 1.141 2.527 1.383.848.461 1.324.844 1.516 1.211.234.442.226.14.226 9.715.004 8.18-.004 9.074-.078 9.317-.094.308-.363.73-.586.914-.195.16.086.003-6.664 3.714L20.926 37.7c-1.043.574-2.024 1.094-2.18 1.156-.351.141-.894.184-1.23.098m2.097-6.555c2.438-.285 4.727-1.234 6.723-2.796a14.5 14.5 0 0 0 1.941-1.883c.325-.399 1.246-1.711 1.246-1.778-.003-.039-5.73-3.128-5.793-3.125-.027 0-.148.16-.273.356-.312.48-1.187 1.34-1.723 1.683-2.347 1.516-5.14 1.516-7.48-.003-.52-.332-1.3-1.082-1.664-1.594a6.43 6.43 0 0 1-.328-7.012c.937-1.601 2.535-2.723 4.453-3.125.523-.11 1.726-.133 2.293-.043 1.531.238 3.008 1.035 3.976 2.149.18.207.399.484.485.613.101.152.187.234.238.219.066-.016 5.656-3.133 5.707-3.18.031-.031-.531-.856-.95-1.387-.437-.566-1.515-1.648-2.077-2.09-2.02-1.586-4.317-2.535-6.903-2.847-.648-.078-2.332-.078-2.98 0-2.52.304-4.73 1.199-6.75 2.734-.578.438-1.621 1.45-2.094 2.027a13.26 13.26 0 0 0-2.844 6.516c-.117.813-.117 2.457 0 3.297.61 4.379 3.336 8.11 7.34 10.035 2.34 1.125 4.832 1.54 7.457 1.234m0 0" style="stroke:none;fill-rule:nonzero;fill:#5c6bc0;fill-opacity:1"/><path d="M17.691 38.96a2.6 2.6 0 0 1-.418-.085c-.078-.031-2.023-1.09-4.324-2.355-2.3-1.266-5.941-3.266-8.09-4.45C2.711 30.887.852 29.844.73 29.75c-.21-.164-.585-.648-.585-.758 0-.027.03-.012.07.04.039.05.101.077.14.066.04-.016 1.403-.774 3.032-1.688l2.96-1.656.145.25c.235.406.801 1.215 1.164 1.656a13.25 13.25 0 0 0 4.426 3.485c5.758 2.82 12.715 1.175 16.594-3.922.297-.391.847-1.227.847-1.29 0-.019-1.21-.69-2.691-1.488-1.484-.797-2.789-1.5-2.902-1.566l-.211-.117-.168.261c-1.512 2.317-4.492 3.45-7.227 2.747-1.258-.325-2.476-1.055-3.289-1.977-.285-.324-.906-1.2-.906-1.281 0-.02.039-.043.09-.059.097-.027 11.226-6.246 11.32-6.324.031-.027.07-.04.082-.024.035.036 5.8-3.199 5.8-3.257 0-.024.02-.043.044-.043.035 0 4.656-2.563 5.695-3.157.211-.125.324-.164.38-.128.042.023.155.195.253.386l.176.344v18.488l-.16.32c-.25.497-.528.731-1.532 1.282-.488.27-1.91 1.055-3.16 1.742-1.254.688-2.836 1.555-3.515 1.93s-2.262 1.246-3.516 1.933c-1.25.692-2.922 1.61-3.715 2.047s-1.516.824-1.61.863c-.238.098-.741.145-1.07.106m0 0" style="stroke:none;fill-rule:nonzero;fill:#3949ab;fill-opacity:1"/><path d="M17.414 38.898c-.297-.093-.164-.02-6.8-3.671-3.38-1.86-6.954-3.82-7.938-4.364C.863 29.871.5 29.625.277 29.253c-.05-.089-.07-.144-.039-.128.043.027 3.871-2.07 5.79-3.168.163-.094.3-.172.312-.172.008 0 .113.164.23.36 1.13 1.867 2.832 3.52 4.77 4.62 3.492 1.989 7.773 2.297 11.543.84 2.605-1.007 4.941-2.921 6.398-5.242.14-.222.258-.41.266-.414.004-.008 1.055.551 2.332 1.242 3.578 1.93 3.754 2.024 3.816 1.989.032-.02.02.03-.02.11-.128.241-.538.573-1.07.866-.574.313-2.73 1.5-4.843 2.66-.785.434-2.086 1.149-2.895 1.594-.805.442-2.023 1.113-2.703 1.488-.684.375-2.152 1.184-3.27 1.797-1.117.617-2.152 1.153-2.296 1.196-.317.093-.903.097-1.184.007m-.05-12.945a9.4 9.4 0 0 1-1.563-.348c-1.031-.363-1.903-.93-2.7-1.761-.46-.48-.972-1.246-.89-1.328.035-.032 3.016-1.707 5.223-2.938.152-.082.261-.129.246-.105-.016.027 1.3.761 2.922 1.632 1.625.872 2.992 1.61 3.035 1.637.066.043.039.106-.207.445a6.69 6.69 0 0 1-4.192 2.672c-.398.078-1.492.133-1.875.094m0 0" style="stroke:none;fill-rule:nonzero;fill:#273493;fill-opacity:1"/></svg>