<?xml version="1.0" encoding="UTF-8"?>
<svg xmlns="http://www.w3.org/2000/svg" xmlns:xlink="http://www.w3.org/1999/xlink" width="50px" height="25px" viewBox="0 0 50 25" version="1.1">
<defs>
<clipPath id="clip1">
  <path d="M 0 6 L 41.667969 6 L 41.667969 13 L 0 13 Z M 0 6 "/>
</clipPath>
<clipPath id="clip2">
  <path d="M 47.519531 19.992188 C 44.089844 19.992188 41.308594 16.621094 41.308594 12.460938 C 41.308594 8.300781 44.089844 4.929688 47.519531 4.929688 C 47.890625 4.929688 48.253906 4.96875 48.605469 5.042969 L 48.605469 0.636719 L 10.0625 0.636719 C 4.742188 0.761719 0.460938 6.023438 0.460938 12.5 C 0.460938 18.976562 4.742188 24.238281 10.0625 24.359375 L 10.0625 24.363281 L 47.519531 24.363281 L 48.605469 19.875 C 48.253906 19.949219 47.890625 19.992188 47.519531 19.992188 Z M 47.519531 19.992188 "/>
</clipPath>
<clipPath id="clip3">
  <path d="M 0 18 L 49 18 L 49 25 L 0 25 Z M 0 18 "/>
</clipPath>
<clipPath id="clip4">
  <path d="M 47.519531 19.992188 C 44.089844 19.992188 41.308594 16.621094 41.308594 12.460938 C 41.308594 8.300781 44.089844 4.929688 47.519531 4.929688 C 47.890625 4.929688 48.253906 4.96875 48.605469 5.042969 L 48.605469 0.636719 L 10.0625 0.636719 C 4.742188 0.761719 0.460938 6.023438 0.460938 12.5 C 0.460938 18.976562 4.742188 24.238281 10.0625 24.359375 L 10.0625 24.363281 L 47.519531 24.363281 L 48.605469 19.875 C 48.253906 19.949219 47.890625 19.992188 47.519531 19.992188 Z M 47.519531 19.992188 "/>
</clipPath>
</defs>
<g id="surface1">
<path style=" stroke:none;fill-rule:nonzero;fill:rgb(71.372551%,87.058824%,39.215687%);fill-opacity:1;" d="M 47.519531 19.992188 C 44.089844 19.992188 41.308594 16.621094 41.308594 12.460938 C 41.308594 8.300781 44.089844 4.929688 47.519531 4.929688 C 47.890625 4.929688 48.253906 4.96875 48.605469 5.042969 L 47.519531 0.636719 L 10.0625 0.636719 C 4.742188 0.761719 0.460938 6.023438 0.460938 12.5 C 0.460938 18.976562 4.742188 24.238281 10.0625 24.359375 L 10.0625 24.363281 L 47.519531 24.363281 L 48.605469 19.875 C 48.253906 19.949219 47.890625 19.992188 47.519531 19.992188 Z M 47.519531 19.992188 "/>
<g clip-path="url(#clip1)" clip-rule="nonzero">
<g clip-path="url(#clip2)" clip-rule="nonzero">
<path style=" stroke:none;fill-rule:nonzero;fill:rgb(66.274512%,80.000001%,32.941177%);fill-opacity:1;" d="M -2.226562 6.488281 L 41.257812 6.488281 L 41.257812 12.453125 L -2.226562 12.453125 Z M -2.226562 6.488281 "/>
</g>
</g>
<g clip-path="url(#clip3)" clip-rule="nonzero">
<g clip-path="url(#clip4)" clip-rule="nonzero">
<path style=" stroke:none;fill-rule:nonzero;fill:rgb(66.274512%,80.000001%,32.941177%);fill-opacity:1;" d="M -2.226562 18.398438 L 48.894531 18.398438 L 48.894531 26.84375 L -2.226562 26.84375 Z M -2.226562 18.398438 "/>
</g>
</g>
<path style="fill:none;stroke-width:49;stroke-linecap:round;stroke-linejoin:round;stroke:rgb(86.666667%,95.686275%,64.313728%);stroke-opacity:1;stroke-miterlimit:10;" d="M 493.542195 184.227402 C 449.601066 184.227402 413.977509 150.600715 413.977509 106.668536 C 413.977509 62.736357 449.601066 30.113451 493.542195 30.113451 " transform="matrix(0.0962758,0,0,0.116746,0.00334616,0)"/>
</g>
</svg>
