<?xml version="1.0" encoding="UTF-8"?>
<svg xmlns="http://www.w3.org/2000/svg" xmlns:xlink="http://www.w3.org/1999/xlink" width="40px" height="40px" viewBox="0 0 40 40" version="1.1">
<g id="surface1">
<path style=" stroke:none;fill-rule:nonzero;fill:rgb(14.901961%,30.19608%,89.411765%);fill-opacity:1;" d="M 37.644531 0 L 34.433594 35.996094 L 19.988281 40 L 5.585938 36 L 2.375 0 Z M 37.644531 0 "/>
<path style=" stroke:none;fill-rule:nonzero;fill:rgb(16.078432%,39.607844%,94.509804%);fill-opacity:1;" d="M 20.011719 36.9375 L 31.679688 33.703125 L 34.425781 2.945312 L 20.011719 2.945312 Z M 20.011719 36.9375 "/>
<path style=" stroke:none;fill-rule:nonzero;fill:rgb(92.156863%,92.156863%,92.156863%);fill-opacity:1;" d="M 20.011719 16.296875 L 9.734375 16.296875 L 10.128906 20.710938 L 20.011719 20.710938 Z M 20.011719 16.296875 "/>
<path style=" stroke:none;fill-rule:nonzero;fill:rgb(92.156863%,92.156863%,92.156863%);fill-opacity:1;" d="M 20.011719 7.359375 L 8.9375 7.359375 L 9.339844 11.773438 L 20.011719 11.773438 Z M 20.011719 7.359375 "/>
<path style=" stroke:none;fill-rule:nonzero;fill:rgb(92.156863%,92.156863%,92.156863%);fill-opacity:1;" d="M 10.328125 22.917969 L 10.945312 29.851562 L 19.988281 32.363281 L 20.011719 32.355469 L 20.011719 27.761719 L 19.992188 27.769531 L 15.074219 26.441406 L 14.757812 22.917969 Z M 10.328125 22.917969 "/>
<path style=" stroke:none;fill-rule:nonzero;fill:rgb(100%,100%,100%);fill-opacity:1;" d="M 25.433594 20.710938 L 24.917969 26.4375 L 19.996094 27.765625 L 19.996094 32.359375 L 29.046875 29.851562 L 29.113281 29.105469 L 30.152344 17.480469 L 30.257812 16.296875 L 31.054688 7.359375 L 19.996094 7.359375 L 19.996094 11.773438 L 26.214844 11.773438 L 25.816406 16.296875 L 19.996094 16.296875 L 19.996094 20.710938 Z M 25.433594 20.710938 "/>
</g>
</svg>
