<svg xmlns="http://www.w3.org/2000/svg" width="40" height="40"><path d="M9.93 8.988q-.716 1.91-1.403 3.832c-.015.051 2.559 3.176 2.68 3.254.02.008.195-.426.395-.969.199-.543.527-1.43.73-1.976.36-.98.363-.992.293-1.074-.04-.047-.633-.75-1.316-1.567-1.512-1.804-1.336-1.617-1.38-1.5m-5.663.664c-.305.801-.848 2.282-1.102 2.993l-.324.906.133.152c.074.086.492.586.93 1.11 1.202 1.43 1.652 1.949 1.667 1.933.008-.008.27-.707.578-1.555.309-.847.633-1.73.723-1.964.14-.368.152-.434.106-.489-.028-.035-.622-.738-1.313-1.566-1.523-1.82-1.355-1.637-1.398-1.52m8.379 3.637c-.457 1.227-1.122 3.078-1.122 3.133 0 .062 2.614 3.183 2.696 3.219.011.004.199-.47.41-1.055.21-.586.531-1.461.71-1.938.177-.48.325-.894.325-.918 0-.066-2.613-3.19-2.695-3.222-.016-.004-.16.347-.324.781m3.218 2.984c-.27.692-.68 1.797-1.004 2.704l-.363 1.027.883 1.062c1.309 1.57 1.816 2.149 1.848 2.11.078-.086 1.418-3.852 1.398-3.934-.008-.043-1.965-2.387-2.54-3.047l-.132-.152zm-4.543.649c-.613 1.601-1.402 3.883-1.363 3.945.023.04.332.41.68.824.351.41.933 1.102 1.293 1.532.363.43.672.785.683.793.032.011.856-2.203 1.215-3.266l.242-.71-.11-.134c-1.976-2.375-2.605-3.082-2.64-2.984m-4.593.844q-.622 1.71-1.254 3.418l-.157.421L6.652 23.2c.735.88 1.352 1.598 1.371 1.602.02.004.079-.102.133-.238.192-.504 1.336-3.641 1.336-3.668 0-.047-2.676-3.239-2.715-3.239-.007 0-.03.047-.05.11m11.695 3.203c-.274.746-.598 1.64-.715 1.988l-.215.637.11.133c.277.332 2.328 2.753 2.449 2.894.074.086.148.145.16.133.023-.024.98-2.621 1.273-3.461l.164-.477-.09-.113c-.421-.523-2.605-3.094-2.628-3.094-.004 0-.235.61-.508 1.36m-4.121-.442c-.028.067-.055.145-.067.176-.27.703-1.316 3.59-1.316 3.633-.004.07 2.633 3.242 2.684 3.227.039-.008.425-1.028 1.054-2.77l.418-1.164-.09-.11c-.289-.355-2.28-2.714-2.445-2.894l-.195-.215zm-4.551.754c-.156.254-1.43 3.887-1.383 3.95a336 336 0 0 0 2.137 2.554c.426.504.531.61.559.555.019-.035.289-.75.597-1.594.512-1.398.75-2.05.82-2.219.043-.113-2.668-3.343-2.73-3.246M.805 23.676a94 94 0 0 0-.715 2c-.012.066.183.324.773 1.023 1.27 1.512 1.871 2.207 1.903 2.207.105 0 1.476-3.863 1.41-3.972-.067-.11-2.625-3.172-2.653-3.172-.011-.004-.335.86-.718 1.914m16.523.34q-.217.551-.418 1.109c-.215.586-.531 1.445-.7 1.914-.17.465-.312.856-.312.871 0 .055 2.653 3.223 2.7 3.223.035 0 .043-.02.757-1.973.305-.836.594-1.617.641-1.726l.082-.207-.394-.477c-.215-.266-.793-.953-1.278-1.531-.488-.574-.922-1.094-.968-1.149q-.078-.095-.11-.054m-4.582.847c-.125.239-1.418 3.785-1.418 3.887 0 .027.156.223.344.441.187.22.652.77 1.027 1.22 1.414 1.69 1.336 1.612 1.403 1.398.027-.082.25-.696.5-1.36.472-1.277.828-2.32.828-2.426 0-.078-.301-.457-1.465-1.835-.488-.579-.953-1.13-1.031-1.227-.137-.16-.153-.168-.188-.098m-4.715 1.121c-.476 1.278-1.273 3.489-1.273 3.536 0 .097 2.68 3.273 2.715 3.214.011-.02.304-.804.648-1.746.348-.941.664-1.812.711-1.933l.078-.223-.11-.145q-.404-.499-.816-.992c-.39-.46-.945-1.125-1.234-1.472-.29-.348-.535-.633-.547-.633-.012-.004-.09.176-.172.394m7.696 2.418c-.012.032-.2.528-.415 1.11-.613 1.625-.937 2.597-.937 2.8q0 .118 1.254 1.594c.266.313.672.797.91 1.074.234.282.441.508.461.508.043 0 .89-2.25 1.21-3.21l.24-.715-.454-.555c-.484-.602-2.008-2.41-2.16-2.567-.07-.074-.094-.086-.11-.039m-5.765 3.97c-.2.554-.52 1.429-.711 1.944-.187.516-.344.95-.344.965s.426.532.942 1.153c.52.617 1.12 1.34 1.34 1.601.218.262.406.477.417.477.028.004.079-.121.856-2.258l.621-1.695-1-1.196c-1.207-1.437-1.687-1.996-1.727-1.996-.015 0-.19.453-.394 1.004m3.887 1.172q-.24.638-.47 1.281c-.14.39-.573 1.555-.663 1.781-.016.047.281.426 1.02 1.31 1.456 1.733 1.663 1.976 1.699 1.94.07-.074 1.453-3.875 1.425-3.933-.027-.063-2.64-3.168-2.675-3.18-.02-.008-.168.356-.336.801" style="stroke:none;fill-rule:evenodd;fill:#2b8454;fill-opacity:1"/><path d="M28.066.137c-.386.074-.773.144-.859.156s-.402.07-.703.125c-.621.113-.55.098-1.168.207-.555.094-.531.078-.379.262a370 370 0 0 0 2.523 3.031c.032.047.079.066.125.05.04-.011.211-.046.383-.077l.645-.121.469-.083c.12-.019 1.726-.304 1.933-.343l.363-.063c.344-.058.356 0-.097-.543l-.446-.531-.214-.254c-.328-.387-.5-.594-1.051-1.258-.672-.812-.496-.746-1.524-.558M17.13 2.91c-.2.043-.535.106-1.133.2-.066.011-.496.09-.957.171-1.078.196-.988.18-1.336.235a1.7 1.7 0 0 0-.305.066c0 .031.168.238 1.68 2.043l.547.652c.16.188.332.395.379.453l.086.114.617-.117c.645-.125 1.898-.352 2.2-.399q.636-.094 1.261-.23c.074-.028-.047-.192-.867-1.157-.153-.18-.301-.363-.453-.546a4 4 0 0 0-.23-.274 11 11 0 0 1-.337-.398c-.824-1.008-.691-.914-1.152-.813m8.437.688c-.086.02-.418.078-.742.132-.32.055-.781.133-1.015.176q-.322.064-.645.117c-.52.082-1.39.239-1.441.254-.059.024-.059.024.914 1.188.363.441.898 1.082 1.183 1.426.29.347.535.632.555.64.016.004.512-.078 1.098-.183.59-.106 1.496-.27 2.02-.36.523-.093.968-.18.991-.195.04-.023-.586-.828-.765-.992a5 5 0 0 1-.27-.317q-.15-.189-.312-.37c-.051-.051-.36-.423-.688-.829-.37-.457-.62-.73-.66-.726-.035.003-.137.02-.223.039m5.41 3.515c-.546.106-1.066.2-1.152.211q-.244.04-.488.086c-.383.07-.371.067-.86.149-.203.03-.41.07-.46.078-.082.02-.067.05.254.441l.37.457c.094.13 1.637 1.957 1.9 2.25.12.133.136.14.276.11.16-.036 1.711-.329 2.094-.395.13-.02.25-.043.274-.047.023-.008.125-.023.234-.039q.675-.104 1.344-.238c.02-.02-.266-.387-.688-.88-.043-.054-.308-.37-.586-.702-.539-.649-.648-.781-.781-.926-.043-.05-.14-.168-.215-.254-.082-.101-.164-.203-.254-.3a.8.8 0 0 1-.129-.169c0-.047-.062-.039-1.132.168m-17.09.899c-.54.093-1.926.34-2.032.363-.043.008-.246.043-.449.082-.941.164-1.074.195-1.07.262.004.035.336.46.742.949.406.484.934 1.117 1.168 1.402s.492.59.57.68l.141.164.64-.121q.488-.095.973-.172c.278-.043.785-.133 1.348-.234.398-.07.793-.153 1.187-.239.008-.007-.132-.183-.312-.394-.184-.211-.406-.48-.504-.598-.102-.125-.203-.25-.312-.37-.235-.27-.516-.606-.598-.716l-.219-.265c-.078-.086-.27-.32-.43-.516-.16-.2-.32-.36-.351-.355-.035 0-.258.035-.492.078m12.52.918c-.45.097-2.587.476-2.864.511-.41.051-.707.149-.648.207.03.032.105.13.171.215.094.125.977 1.196 1.133 1.371.02.028.102.121.176.211s.172.207.215.254c.043.051.27.32.504.602.488.586.39.55 1.12.414.29-.055.716-.133.954-.176s.633-.11.879-.156c.246-.043.492-.086.547-.094 1.195-.203 1.113-.18 1.023-.281a4 4 0 0 1-.183-.23c-.172-.227-.164-.22-.707-.88q-.271-.34-.559-.668a4 4 0 0 1-.191-.222c-.075-.086-.16-.195-.196-.235-.14-.16-.398-.468-.597-.699-.114-.136-.23-.242-.266-.242-.172.027-.34.063-.512.098m-4.496 1.75c-.015.015-.808.16-1.11.203-.066.012-.241.043-.39.074-.148.027-.351.066-.45.078q-.28.046-.565.098c-.215.043-.602.11-.86.156-.773.133-.7.11-.62.227.108.168 1.366 1.691 1.62 1.964.05.055.195.22.317.372.773.933.644.851 1.144.738.129-.027.395-.078.586-.113.934-.16 1.504-.262 1.7-.297 1.195-.215 1.37-.254 1.359-.297-.012-.04-.922-1.164-1.145-1.406-.043-.047-.183-.215-.312-.368l-.606-.722q-.24-.289-.48-.582c-.102-.133-.149-.164-.188-.125m-4.726.86a1 1 0 0 1-.23.038c-.118.016-.302.043-.411.063-.11.023-.469.082-.8.136q-.44.073-.88.157-.204.041-.41.078c-.828.136-1.172.21-1.172.25 0 .027 1.48 1.82 1.793 2.175.078.086.309.356.512.594.324.387.383.438.469.418.133-.027.222-.043.43-.078.292-.043 1.257-.21 1.464-.254.106-.02.258-.047.332-.058.211-.032.278-.043 1.086-.2l.75-.14-.183-.223-.422-.496q-.167-.195-.332-.395c-.055-.062-.16-.195-.242-.289-.079-.093-.34-.41-.579-.699q-.38-.451-.754-.91c-.136-.168-.335-.25-.421-.168m16.566 1.137a4 4 0 0 1-.371.078l-.324.062a4 4 0 0 1-.313.059c-.078.012-.383.066-.672.117-.289.055-.687.121-.883.153-.19.03-.484.082-.644.113-.16.035-.336.062-.395.062-.214 0-.152.102.711 1.117.184.215.395.47.47.563.132.164.39.473.722.86.086.097.261.308.39.46.262.313.25.309.704.22.171-.032.367-.071.43-.08.066-.01.284-.054.487-.093s.485-.09.626-.113l.351-.059c.75-.133 1.336-.23 1.457-.246.387-.05.379-.07-.36-.93l-.238-.292c-.074-.094-.199-.243-.273-.332-.074-.086-.207-.247-.293-.348a19 19 0 0 0-.45-.531 7 7 0 0 0-.222-.258l-.305-.363c-.253-.301-.261-.301-.605-.22m-4.418.778c-.008.008-.312.07-.68.137-.367.066-.707.129-.761.137-.055.011-.36.066-.684.12l-1.035.18c-.246.043-.516.09-.594.102-.082.012-.148.031-.148.047 0 .05 1.133 1.449 1.175 1.449.016 0 .04.031.051.07q.087.134.192.25c.093.102.23.258.304.344.207.25.36.434.446.527l.289.348c.23.281.222.277.5.219a73 73 0 0 1 2.02-.371c.433-.075.827-.145.882-.153.52-.093.848-.148.887-.152.117-.004-.692-1.016-2.547-3.18-.067-.078-.246-.12-.297-.074m-4.664.852c-.43.07-2.262.386-2.441.422-.098.02-.442.082-.762.14-.715.125-.68.102-.488.32l.652.79c.27.332.555.675.633.761s.218.254.316.367l.45.528.39.46.117.145.254-.054c.14-.028.469-.09.723-.133l.547-.098c.043-.008.156-.027.253-.039.098-.016.36-.062.586-.102.227-.039.622-.113.88-.156.679-.12.84-.16.84-.191 0-.035-.208-.309-.49-.652-.105-.13-.265-.32-.35-.426a76 76 0 0 0-.9-1.059l-.448-.555c-.227-.285-.438-.511-.47-.511zm-4.57.812c-.086.02-.246.043-.352.059-.242.031-1.605.261-2.187.37q-1.237.235-1.278.235c-.058 0-.027.059.098.203.066.079.176.207.242.29q.53.65 1.07 1.288c.079.086.211.243.297.348.086.102.184.215.215.25s.098.113.145.172c.086.11.457.54.55.637.028.031.098.043.157.035.058-.012.265-.047.457-.078.195-.031.394-.067.449-.078.055-.012.23-.04.39-.063s.52-.086.801-.137c.278-.054.657-.125.84-.156.875-.152 1.035-.191 1.035-.242 0-.035-1.254-1.57-1.886-2.312-.16-.188-.227-.262-.496-.583-.243-.289-.254-.296-.547-.238m16.699 1.113c-.14.032-.746.145-1.348.25l-1.176.215c-.046.008-.152.028-.234.04-.086.015-.293.05-.465.081-.172.032-.36.063-.418.07-.18.02-.168.044.309.634.254.316.504.628.558.699.098.125.653.785.805.96.117.134.848.993.856 1.005 0 .003.32-.051.703-.125.386-.075.906-.172 1.152-.215s.492-.086.547-.094c.453-.082 1.336-.23 1.445-.246.305-.047.305-.04-.031-.461-.652-.813-1.648-2.016-1.8-2.172q-.072-.074-.141-.156c-.293-.36-.457-.543-.48-.54-.017.005-.142.028-.282.055m-4.707.844-.742.137c-.301.055-.743.133-.977.172-.234.043-.738.129-1.113.199l-.738.129c-.137.023.148.434.87 1.254.114.129.294.34.395.469.106.128.25.304.328.394q.358.416.703.832c.141.164.258.305.266.313.008.011.281-.032.61-.09.706-.13 1.296-.235 1.882-.336l.742-.133c.172-.031.418-.078.547-.102.438-.082.453-.015-.144-.722-.145-.172-.532-.64-.867-1.043-.332-.399-.633-.762-.676-.805-.04-.039-.2-.219-.356-.394-.316-.348-.316-.348-.73-.274m-4.61.824q-1.054.177-2.109.364c-.379.07-.976.175-1.223.218-.386.067-.398.024.274.82.328.391.683.817.793.95s.277.34.379.457c.101.113.304.355.453.531.152.176.324.375.383.438l.113.117.273-.055c.153-.035.38-.078.508-.097.13-.02.332-.051.45-.075.242-.043.304-.054.82-.14.203-.04.426-.074.488-.086.066-.008.438-.078.828-.152.39-.075.723-.133.735-.133q.075.001-.13-.215-.21-.241-.413-.488c-.153-.184-.282-.34-.297-.352-.012-.012-.18-.21-.371-.441-.196-.235-.43-.52-.528-.633q-.215-.252-.426-.516a7 7 0 0 0-.343-.394.5.5 0 0 1-.09-.121c0-.067-.106-.067-.567.003m-4.296.762c-.844.13-3.891.672-3.926.703-.024.024.004.059.449.586.215.254.453.54.527.633.075.094.25.309.391.473.418.484.824.972 1.227 1.468.05.067.105.059 1.043-.097.546-.094 1.046-.176 1.109-.188.117-.02 1.308-.242 1.758-.328.129-.027.246-.058.265-.07.016-.016-.175-.274-.422-.574-.25-.297-.546-.66-.664-.805-.12-.145-.257-.309-.308-.363a7 7 0 0 1-.227-.262q-.96-1.184-1.043-1.188-.089 0-.18.012" style="stroke:none;fill-rule:evenodd;fill:#8cc34c;fill-opacity:1"/><path d="M38.574 20.02c-1.422.253-2.71.488-2.8.511-.036.012-.079.059-.094.106-.012.047-.313.886-.668 1.86-.73 2.019-.727 2.007-.594 1.98.05-.012.586-.102 1.187-.2 1.211-.199 2.836-.511 2.875-.558.016-.016.137-.336.27-.711s.438-1.211.672-1.856c.5-1.359.496-1.347.398-1.343-.043.003-.601.097-1.246.21m-3.476.61c-.086.023-.72.133-1.407.254-1.375.234-1.71.297-2.207.41l-.332.078-.172.438c-.093.242-.332.894-.535 1.453-.199.558-.441 1.234-.539 1.5-.097.27-.172.496-.16.504.04.039 4.09-.649 4.14-.703.02-.02 1.141-3.118 1.27-3.5.067-.2.133-.391.145-.422.023-.063.015-.063-.203-.012m-5.43.96c-.516.095-1.418.259-2.008.356l-1.07.184-.145.375c-.36.93-1.308 3.586-1.285 3.605.008.008.492-.07 1.07-.175 1.38-.25 2.88-.504 2.973-.504.082 0 .094-.028.719-1.739.379-1.035.781-2.195.781-2.25 0-.046.043-.05-1.035.149m-4.55.808c-.528.09-1.446.25-2.04.356l-1.082.195-.262.703c-.625 1.692-1.148 3.168-1.148 3.258 0 .02.082.02.187-.004 1.172-.218 2.809-.511 3.301-.582l.613-.094.16-.41c.09-.226.368-.98.622-1.68.254-.699.508-1.39.562-1.538.106-.274.125-.38.07-.372-.015 0-.456.079-.984.168m12.168 1.942c-.43.082-1.273.23-1.875.328-.601.098-1.129.187-1.172.195-.09.02-.101.047-.98 2.461-.305.836-.551 1.528-.543 1.535.008.012 1.433-.23 3.09-.523l1.058-.188.422-1.132c.36-.97.996-2.766.996-2.82 0-.036-.246 0-.996.144m-4.316.765c-.399.07-1.285.227-1.973.344q-.667.112-1.336.235c-.094.023-.101.039-.676 1.601-.547 1.48-.859 2.403-.816 2.403.02 0 .656-.114 1.414-.25.758-.141 1.57-.282 1.805-.32.234-.036.531-.087.66-.11l.23-.043.305-.82c.172-.45.344-.918.383-1.036.043-.117.226-.636.414-1.148.184-.516.328-.945.324-.961-.008-.012-.336.035-.734.105m-9.63 1.692q-1.458.257-2.917.508c-.067 0-1.473 3.922-1.422 3.972.012.012.324-.035.695-.101q1.47-.283 2.953-.512c.5-.07.387.145 1.352-2.539.23-.633.441-1.219.473-1.3.07-.18.074-.223.007-.22-.023 0-.539.086-1.14.192m12.363 1.933c-.484.094-1.383.254-1.996.356l-1.117.184-.317.843c-.175.465-.457 1.23-.625 1.703-.171.473-.359.98-.414 1.13-.054.148-.093.277-.082.288.028.028 4.11-.664 4.137-.703.055-.07 1.43-3.886 1.43-3.965 0-.023-.164.004-1.016.164m-8.633 1.512c-.226.043-1.148.203-2.047.36l-1.636.28-.114.294c-.324.844-1.32 3.601-1.32 3.656 0 .059 4.082-.652 4.145-.723.011-.015.12-.3.242-.632.12-.332.437-1.211.707-1.954.273-.738.492-1.351.492-1.355 0-.016.035-.02-.469.074m-4.804.817c-.246.043-.88.152-1.407.246-.527.097-1.187.215-1.472.261a5 5 0 0 0-.555.11c-.082.05-1.48 3.93-1.437 3.976.007.008.425-.066.93-.16.933-.176 1.984-.36 2.75-.48l.429-.07.113-.294c.164-.425.403-1.074.887-2.421q.221-.61.45-1.22c.03-.046-.196-.03-.688.052m8.144 1.359c-.32.059-1.176.207-1.894.332-.72.125-1.344.238-1.387.254-.074.031-.195.332-.793 1.957-.281.77-.703 2.012-.691 2.023.007.012.558-.082 1.218-.203.66-.12 1.582-.281 2.043-.36.461-.077.844-.144.848-.148.023-.02.672-1.765 1.02-2.738.214-.601.402-1.125.417-1.164.036-.09-.046-.086-.78.047m4.921 1.785c-.363.07-1.242.227-1.953.348-.707.12-1.3.23-1.313.246-.074.09-1.46 3.906-1.43 3.937.02.02.864-.117 2.098-.336.246-.046.797-.14 1.227-.214.426-.075.785-.145.793-.153.062-.062 1.418-3.828 1.418-3.933 0-.051-.117-.04-.84.105m-10.43.508c-.515.09-1.422.25-2.011.348-.36.058-.72.125-1.078.191-.067.078-1.438 3.926-1.41 3.953.019.02 1.316-.195 2.788-.46l1.336-.243.114-.312c.277-.754 1.043-2.852 1.183-3.235.13-.363.14-.422.082-.418-.035.004-.488.082-1.004.176m-4.336.758c-.468.09-.937.172-1.406.254-1.277.218-1.87.34-1.918.386-.16.164-1.472 3.891-1.367 3.891.313 0 4.031-.664 4.09-.734.012-.016.113-.282.223-.594.109-.313.324-.91.476-1.328.297-.809.703-1.957.703-1.977 0-.031-.246 0-.8.102" style="stroke:none;fill-rule:evenodd;fill:#4c4c4c;fill-opacity:1"/></svg>