<svg xmlns="http://www.w3.org/2000/svg" xmlns:xlink="http://www.w3.org/1999/xlink" width="44" height="35"><defs><clipPath id="b"><path d="M0 0h44v35H0z"/></clipPath><clipPath id="c"><path d="M0 0h44v35H0z"/></clipPath><clipPath id="d"><path d="M0 0h44v35H0z"/></clipPath><clipPath id="e"><path d="M0 0h44v35H0z"/></clipPath><clipPath id="f"><path d="M0 0h44v35H0z"/></clipPath><clipPath id="g"><path d="M0 0h44v35H0z"/></clipPath><clipPath id="h"><path d="M0 0h44v35H0z"/></clipPath><clipPath id="i"><path d="M0 0h44v35H0z"/></clipPath><clipPath id="j"><path d="M0 0h44v35H0z"/></clipPath><clipPath id="k"><path d="M0 0h44v35H0z"/></clipPath><clipPath id="l"><path d="M0 0h44v35H0z"/></clipPath><clipPath id="m"><path d="M0 0h44v35H0z"/></clipPath><clipPath id="n"><path d="M0 0h44v35H0z"/></clipPath><clipPath id="o"><path d="M0 0h44v35H0z"/></clipPath><clipPath id="p"><path d="M0 0h44v35H0z"/></clipPath><mask id="r"><g filter="url(#a)"><path d="M0 0h44v35H0z" style="fill:#000;fill-opacity:.862745;stroke:none"/></g></mask><mask id="t"><g filter="url(#a)"><path d="M0 0h44v35H0z" style="fill:#000;fill-opacity:.996078;stroke:none"/></g></mask><mask id="v"><g filter="url(#a)"><path d="M0 0h44v35H0z" style="fill:#000;fill-opacity:.996078;stroke:none"/></g></mask><mask id="x"><g filter="url(#a)"><path d="M0 0h44v35H0z" style="fill:#000;fill-opacity:.996078;stroke:none"/></g></mask><mask id="z"><g filter="url(#a)"><path d="M0 0h44v35H0z" style="fill:#000;fill-opacity:.996078;stroke:none"/></g></mask><mask id="B"><g filter="url(#a)"><path d="M0 0h44v35H0z" style="fill:#000;fill-opacity:.647059;stroke:none"/></g></mask><mask id="D"><g filter="url(#a)"><path d="M0 0h44v35H0z" style="fill:#000;fill-opacity:.619608;stroke:none"/></g></mask><mask id="F"><g filter="url(#a)"><path d="M0 0h44v35H0z" style="fill:#000;fill-opacity:.552941;stroke:none"/></g></mask><mask id="H"><g filter="url(#a)"><path d="M0 0h44v35H0z" style="fill:#000;fill-opacity:.996078;stroke:none"/></g></mask><mask id="J"><g filter="url(#a)"><path d="M0 0h44v35H0z" style="fill:#000;fill-opacity:.6;stroke:none"/></g></mask><mask id="L"><g filter="url(#a)"><path d="M0 0h44v35H0z" style="fill:#000;fill-opacity:.996078;stroke:none"/></g></mask><mask id="N"><g filter="url(#a)"><path d="M0 0h44v35H0z" style="fill:#000;fill-opacity:.960784;stroke:none"/></g></mask><mask id="P"><g filter="url(#a)"><path d="M0 0h44v35H0z" style="fill:#000;fill-opacity:.619608;stroke:none"/></g></mask><mask id="R"><g filter="url(#a)"><path d="M0 0h44v35H0z" style="fill:#000;fill-opacity:.262745;stroke:none"/></g></mask><mask id="T"><g filter="url(#a)"><path d="M0 0h44v35H0z" style="fill:#000;fill-opacity:.596078;stroke:none"/></g></mask><g id="q" clip-path="url(#b)"><path d="M23.39.277a24.5 24.5 0 0 1-4.667 0 24.5 24.5 0 0 1 4.668 0m0 0" style="stroke:none;fill-rule:evenodd;fill:#a2bef7;fill-opacity:1"/></g><g id="s" clip-path="url(#c)"><path d="M11.39 6.277q-2.42.054-4.78-.109A25 25 0 0 1 9 6.055q1.254 0 2.39.222m0 0" style="stroke:none;fill-rule:evenodd;fill:#89adf5;fill-opacity:1"/></g><g id="u" clip-path="url(#d)"><path d="M17.168 6.055q.017.104.11.168-2.331.083-4.669.054a23.8 23.8 0 0 1 4.559-.222m0 0" style="stroke:none;fill-rule:evenodd;fill:#88adf5;fill-opacity:1"/></g><g id="w" clip-path="url(#e)"><path d="M23.055 6.055c.086.086.195.14.336.168q-2.391.083-4.782.054a22.6 22.6 0 0 1 4.446-.222m0 0" style="stroke:none;fill-rule:evenodd;fill:#88aef5;fill-opacity:1"/></g><g id="y" clip-path="url(#f)"><path d="M17.168 6.055a.32.32 0 0 1 .277.113q.112 2.333 0 4.664-2.403.168-4.836.113V6.277q2.338.029 4.668-.054a.24.24 0 0 1-.109-.168m0 0" style="stroke:none;fill-rule:evenodd;fill:#1f63ed;fill-opacity:1"/></g><g id="A" clip-path="url(#g)"><path d="M.832 11.945q2.197-.057 4.336.11a24 24 0 0 1-4 .054.6.6 0 0 1-.336-.164m0 0" style="stroke:none;fill-rule:evenodd;fill:#83a1f8;fill-opacity:1"/></g><g id="C" clip-path="url(#h)"><path d="M7.168 11.945a70 70 0 0 0 4 .164 29.6 29.6 0 0 1-4.445-.054.51.51 0 0 1 .445-.11m0 0" style="stroke:none;fill-rule:evenodd;fill:#79a6f4;fill-opacity:1"/></g><g id="E" clip-path="url(#i)"><path d="M19.055 11.945h3.777a8.1 8.1 0 0 1-1.941.223l-1.946-.059a.24.24 0 0 0 .11-.164m0 0" style="stroke:none;fill-rule:evenodd;fill:#72a1f7;fill-opacity:1"/></g><g id="G" clip-path="url(#j)"><path d="M13.055 11.945a.36.36 0 0 0 .222.164q1.78.112 3.555 0a.24.24 0 0 0 .113-.164q.314-.035.5.223.112 2.333 0 4.664a25.5 25.5 0 0 1-4.777 0 51 51 0 0 1 0-4.777.48.48 0 0 1 .387-.11m0 0" style="stroke:none;fill-rule:evenodd;fill:#2164ed;fill-opacity:1"/></g><g id="I" clip-path="url(#k)"><path d="M13.055 11.945h3.89a.24.24 0 0 1-.113.164 28 28 0 0 1-3.555 0 .36.36 0 0 1-.222-.164m0 0" style="stroke:none;fill-rule:evenodd;fill:#7aa1f8;fill-opacity:1"/></g><g id="K" clip-path="url(#l)"><path d="M23.5 16.723q-1.13.222-2.39.222-1.191-.03-2.387-.054a42 42 0 0 1-.114-4.282c.07.016.125.051.168.114q.084-.217.055-.446 2.226-.029 4.445.055.224 2.114 0 4.223a.5.5 0 0 0 .223.168m0 0" style="stroke:none;fill-rule:evenodd;fill:#1d63ed;fill-opacity:1"/></g><g id="M" clip-path="url(#m)"><path d="M25.055 11.945q2.23-.054 4.445.11.166 2.331.11 4.668-.33-2.216-.22-4.555c-1.335.016-2.667 0-4-.059a.6.6 0 0 1-.335-.164m0 0" style="stroke:none;fill-rule:evenodd;fill:#5da3f5;fill-opacity:1"/></g><g id="O" clip-path="url(#n)"><path d="M33.723 8.277q3.081 1.865 3.668 5.446a12.3 12.3 0 0 1 4.332-.055 4.76 4.76 0 0 1 2.054 1.055q-.527 2.33-2.609 3.554a.34.34 0 0 1 .11-.332 6.5 6.5 0 0 0 2.277-2.777q.13-.24-.055-.445c-.48-.317-1-.555-1.555-.723a12.2 12.2 0 0 0-4.777-.055 9.6 9.6 0 0 0-.5-2.113 9.34 9.34 0 0 0-3.059-3.5c.028-.043.063-.062.114-.055m0 0" style="stroke:none;fill-rule:evenodd;fill:#5385f1;fill-opacity:1"/></g><g id="Q" clip-path="url(#o)"><path d="M25.39 18.055q-12.443.334-25 .222.183-.333.61-.332 12.029.154 24.39.11m0 0" style="stroke:none;fill-rule:evenodd;fill:#4a80f0;fill-opacity:1"/></g><g id="S" clip-path="url(#p)"><path d="M15.168 34.61c-4.402-.044-8.066-1.672-11-4.887a.27.27 0 0 1 .055-.223 12.75 12.75 0 0 0 5.054 3.723 29 29 0 0 0 5.891 1.386m0 0" style="stroke:none;fill-rule:evenodd;fill:#407aef;fill-opacity:1"/></g><filter id="a" width="100%" height="100%" x="0%" y="0%" filterUnits="objectBoundingBox"><feColorMatrix in="SourceGraphic" values="0 0 0 0 1 0 0 0 0 1 0 0 0 0 1 0 0 0 1 0"/></filter></defs><use xlink:href="#q" mask="url(#r)"/><path d="M18.723.277q2.33.223 4.668 0 .162 2.363.109 4.778-2.392.029-4.777-.055a25 25 0 0 1 0-4.723m0 0" style="stroke:none;fill-rule:evenodd;fill:#2064ed;fill-opacity:1"/><use xlink:href="#s" mask="url(#t)"/><use xlink:href="#u" mask="url(#v)"/><use xlink:href="#w" mask="url(#x)"/><path d="M6.61 6.168c1.574.11 3.167.144 4.78.11v4.667q-2.39.028-4.78-.054a26 26 0 0 1 0-4.723m0 0" style="stroke:none;fill-rule:evenodd;fill:#2164ed;fill-opacity:1"/><use xlink:href="#y" mask="url(#z)"/><path d="M23.055 6.055h.445q.029 2.448-.055 4.89c-1.59.043-3.199.043-4.836 0V6.277q2.391.029 4.782-.054a.63.63 0 0 1-.336-.168m0 0" style="stroke:none;fill-rule:evenodd;fill:#2064ed;fill-opacity:1"/><path d="M33.723 8.277c-.051-.007-.086.012-.114.055a9.34 9.34 0 0 1 3.059 3.5 9.6 9.6 0 0 1 .5 2.113 12.2 12.2 0 0 1 4.777.055 6 6 0 0 1 1.555.723c.125.136.14.285.055.445a6.5 6.5 0 0 1-2.278 2.777.34.34 0 0 0-.109.332q-1.083.592-2.336.832-1.292.142-2.441.114a37.1 37.1 0 0 1-5.5 9.168c-4.262 4.484-9.5 6.558-15.723 6.218a29 29 0 0 1-5.89-1.386c-2-.825-3.684-2.063-5.055-3.723a.27.27 0 0 0-.055.223Q.088 24.767.391 18.277q12.555.112 25-.222 2.941.117 5.832-.446a3.6 3.6 0 0 0 1.445-.664 11.5 11.5 0 0 1-.89-2.445q-.466-3.58 1.667-6.445.165.093.278.222m0 0" style="stroke:none;fill-rule:evenodd;fill:#1d63ed;fill-opacity:1"/><use xlink:href="#A" mask="url(#B)"/><use xlink:href="#C" mask="url(#D)"/><path d="M7.168 11.945c1.371-.02 2.738 0 4.11.055q.165 1.958.113 3.945a.45.45 0 0 1-.223-.168q.116-1.698.11-3.445a93 93 0 0 0-4.555-.055 48 48 0 0 1-.114 4.555c-.074-.777-.109-1.57-.109-2.387q0-1.254.223-2.39a29.6 29.6 0 0 0 4.445.054 70 70 0 0 1-4-.164m0 0" style="stroke:none;fill-rule:evenodd;fill:#4f7df2;fill-opacity:1"/><path d="M19.055 11.945a.24.24 0 0 1-.11.164l1.946.059q1.032 0 1.941-.223.328-.042.613.11c.055 1.554.075 3.113.055 4.668a.5.5 0 0 1-.223-.168 20 20 0 0 0 0-4.223q-2.219-.083-4.445-.055.029.229-.055.446a.26.26 0 0 0-.168-.114q-.087-.563.446-.664m0 0" style="stroke:none;fill-rule:evenodd;fill:#4078f0;fill-opacity:1"/><use xlink:href="#E" mask="url(#F)"/><path d="M.832 11.945c.086.086.195.14.336.164a24 24 0 0 0 4-.054.25.25 0 0 1 .164.113q.111 2.333 0 4.664a54 54 0 0 1-4.832.113q-.029-2.448.055-4.89a.32.32 0 0 1 .277-.11m0 0" style="stroke:none;fill-rule:evenodd;fill:#2063ed;fill-opacity:1"/><path d="M11.39 15.945v1q-2.42.055-4.78-.113.164-2.263.113-4.555c1.52-.02 3.035 0 4.554.055a48 48 0 0 1-.109 3.445.45.45 0 0 0 .223.168m0 0" style="stroke:none;fill-rule:evenodd;fill:#1d63ed;fill-opacity:1"/><use xlink:href="#G" mask="url(#H)"/><use xlink:href="#I" mask="url(#J)"/><use xlink:href="#K" mask="url(#L)"/><path d="M25.055 11.945c.086.086.195.14.336.164 1.332.059 2.664.075 4 .059q-.11 2.339.218 4.555a.25.25 0 0 1-.109.168q-2.39.082-4.777.054-.029-2.448.054-4.89a.32.32 0 0 1 .278-.11m0 0" style="stroke:none;fill-rule:evenodd;fill:#1e63ed;fill-opacity:1"/><use xlink:href="#M" mask="url(#N)"/><use xlink:href="#O" mask="url(#P)"/><use xlink:href="#Q" mask="url(#R)"/><use xlink:href="#S" mask="url(#T)"/></svg>