<svg xmlns="http://www.w3.org/2000/svg" xmlns:xlink="http://www.w3.org/1999/xlink" width="40" height="36" viewBox="0 0 440 400"><defs fill="#2793b0"><mask id="bt" fill="#2793b0"><g filter="url(#a)"><path d="M0 0h440v400H0"/></g></mask><mask id="bv" fill="#2793b0"><g filter="url(#a)"><path fill-opacity="0" d="M0 0h440v400H0"/></g></mask><mask id="bx" fill="#2793b0"><g filter="url(#a)"><path fill-opacity="0" d="M0 0h440v400H0"/></g></mask><mask id="bz" fill="#2793b0"><g filter="url(#a)"><path fill-opacity="0" d="M0 0h440v400H0"/></g></mask><mask id="bB" fill="#2793b0"><g filter="url(#a)"><path fill-opacity="0" d="M0 0h440v400H0"/></g></mask><mask id="bD" fill="#2793b0"><g filter="url(#a)"><path fill-opacity="0" d="M0 0h440v400H0"/></g></mask><mask id="bF" fill="#2793b0"><g filter="url(#a)"><path fill-opacity="0" d="M0 0h440v400H0"/></g></mask><mask id="bH" fill="#2793b0"><g filter="url(#a)"><path fill-opacity="0" d="M0 0h440v400H0"/></g></mask><mask id="bJ" fill="#2793b0"><g filter="url(#a)"><path fill-opacity="0" d="M0 0h440v400H0"/></g></mask><mask id="bL" fill="#2793b0"><g filter="url(#a)"><path fill-opacity="0" d="M0 0h440v400H0"/></g></mask><mask id="bN" fill="#2793b0"><g filter="url(#a)"><path fill-opacity="0" d="M0 0h440v400H0"/></g></mask><mask id="bP" fill="#2793b0"><g filter="url(#a)"><path fill-opacity="0" d="M0 0h440v400H0"/></g></mask><mask id="bR" fill="#2793b0"><g filter="url(#a)"><path fill-opacity="0" d="M0 0h440v400H0"/></g></mask><mask id="bT" fill="#2793b0"><g filter="url(#a)"><path fill-opacity="0" d="M0 0h440v400H0"/></g></mask><mask id="bV" fill="#2793b0"><g filter="url(#a)"><path fill-opacity="0" d="M0 0h440v400H0"/></g></mask><mask id="bX" fill="#2793b0"><g filter="url(#a)"><path fill-opacity="0" d="M0 0h440v400H0"/></g></mask><mask id="bZ" fill="#2793b0"><g filter="url(#a)"><path fill-opacity="0" d="M0 0h440v400H0"/></g></mask><mask id="cb" fill="#2793b0"><g filter="url(#a)"><path fill-opacity="0" d="M0 0h440v400H0"/></g></mask><mask id="cd" fill="#2793b0"><g filter="url(#a)"><path fill-opacity="0" d="M0 0h440v400H0"/></g></mask><mask id="cf" fill="#2793b0"><g filter="url(#a)"><path fill-opacity="0" d="M0 0h440v400H0"/></g></mask><mask id="ch" fill="#2793b0"><g filter="url(#a)"><path fill-opacity="0" d="M0 0h440v400H0"/></g></mask><mask id="cj" fill="#2793b0"><g filter="url(#a)"><path fill-opacity="0" d="M0 0h440v400H0"/></g></mask><mask id="cl" fill="#2793b0"><g filter="url(#a)"><path fill-opacity="0" d="M0 0h440v400H0"/></g></mask><mask id="cn" fill="#2793b0"><g filter="url(#a)"><path fill-opacity="0" d="M0 0h440v400H0"/></g></mask><mask id="cp" fill="#2793b0"><g filter="url(#a)"><path fill-opacity="0" d="M0 0h440v400H0"/></g></mask><mask id="cr" fill="#2793b0"><g filter="url(#a)"><path d="M0 0h440v400H0"/></g></mask><mask id="ct" fill="#2793b0"><g filter="url(#a)"><path fill-opacity="0" d="M0 0h440v400H0"/></g></mask><mask id="cv" fill="#2793b0"><g filter="url(#a)"><path fill-opacity="0" d="M0 0h440v400H0"/></g></mask><mask id="cx" fill="#2793b0"><g filter="url(#a)"><path fill-opacity="0" d="M0 0h440v400H0"/></g></mask><mask id="cz" fill="#2793b0"><g filter="url(#a)"><path fill-opacity="0" d="M0 0h440v400H0"/></g></mask><mask id="cB" fill="#2793b0"><g filter="url(#a)"><path fill-opacity="0" d="M0 0h440v400H0"/></g></mask><mask id="cD" fill="#2793b0"><g filter="url(#a)"><path fill-opacity="0" d="M0 0h440v400H0"/></g></mask><mask id="cF" fill="#2793b0"><g filter="url(#a)"><path fill-opacity="0" d="M0 0h440v400H0"/></g></mask><mask id="cH" fill="#2793b0"><g filter="url(#a)"><path fill-opacity="0" d="M0 0h440v400H0"/></g></mask><mask id="cJ" fill="#2793b0"><g filter="url(#a)"><path d="M0 0h440v400H0"/></g></mask><mask id="cL" fill="#2793b0"><g filter="url(#a)"><path fill-opacity="0" d="M0 0h440v400H0"/></g></mask><mask id="cN" fill="#2793b0"><g filter="url(#a)"><path fill-opacity="0" d="M0 0h440v400H0"/></g></mask><mask id="cP" fill="#2793b0"><g filter="url(#a)"><path fill-opacity="0" d="M0 0h440v400H0"/></g></mask><mask id="cR" fill="#2793b0"><g filter="url(#a)"><path fill-opacity="0" d="M0 0h440v400H0"/></g></mask><mask id="cT" fill="#2793b0"><g filter="url(#a)"><path fill-opacity="0" d="M0 0h440v400H0"/></g></mask><mask id="cV" fill="#2793b0"><g filter="url(#a)"><path fill-opacity="0" d="M0 0h440v400H0"/></g></mask><mask id="cX" fill="#2793b0"><g filter="url(#a)"><path fill-opacity="0" d="M0 0h440v400H0"/></g></mask><mask id="cZ" fill="#2793b0"><g filter="url(#a)"><path fill-opacity="0" d="M0 0h440v400H0"/></g></mask><mask id="db" fill="#2793b0"><g filter="url(#a)"><path fill-opacity="0" d="M0 0h440v400H0"/></g></mask><mask id="dd" fill="#2793b0"><g filter="url(#a)"><path fill-opacity="0" d="M0 0h440v400H0"/></g></mask><mask id="df" fill="#2793b0"><g filter="url(#a)"><path fill-opacity="0" d="M0 0h440v400H0"/></g></mask><mask id="dh" fill="#2793b0"><g filter="url(#a)"><path fill-opacity="0" d="M0 0h440v400H0"/></g></mask><mask id="dj" fill="#2793b0"><g filter="url(#a)"><path fill-opacity="0" d="M0 0h440v400H0"/></g></mask><mask id="dk" fill="#2793b0"><g filter="url(#a)"><path d="M0 0h440v400H0"/></g></mask><mask id="dm" fill="#2793b0"><g filter="url(#a)"><path fill-opacity="0" d="M0 0h440v400H0"/></g></mask><mask id="do" fill="#2793b0"><g filter="url(#a)"><path d="M0 0h440v400H0"/></g></mask><mask id="dq" fill="#2793b0"><g filter="url(#a)"><path fill-opacity="0" d="M0 0h440v400H0"/></g></mask><mask id="ds" fill="#2793b0"><g filter="url(#a)"><path fill-opacity="0" d="M0 0h440v400H0"/></g></mask><mask id="du" fill="#2793b0"><g filter="url(#a)"><path fill-opacity="0" d="M0 0h440v400H0"/></g></mask><mask id="dw" fill="#2793b0"><g filter="url(#a)"><path fill-opacity="0" d="M0 0h440v400H0"/></g></mask><mask id="dy" fill="#2793b0"><g filter="url(#a)"><path fill-opacity="0" d="M0 0h440v400H0"/></g></mask><mask id="dA" fill="#2793b0"><g filter="url(#a)"><path d="M0 0h440v400H0"/></g></mask><mask id="dC" fill="#2793b0"><g filter="url(#a)"><path fill-opacity="0" d="M0 0h440v400H0"/></g></mask><mask id="dE" fill="#2793b0"><g filter="url(#a)"><path fill-opacity="0" d="M0 0h440v400H0"/></g></mask><mask id="dG" fill="#2793b0"><g filter="url(#a)"><path fill-opacity="0" d="M0 0h440v400H0"/></g></mask><mask id="dI" fill="#2793b0"><g filter="url(#a)"><path fill-opacity="0" d="M0 0h440v400H0"/></g></mask><mask id="dK" fill="#2793b0"><g filter="url(#a)"><path fill-opacity="0" d="M0 0h440v400H0"/></g></mask><mask id="dM" fill="#2793b0"><g filter="url(#a)"><path fill-opacity="0" d="M0 0h440v400H0"/></g></mask><mask id="dO" fill="#2793b0"><g filter="url(#a)"><path fill-opacity="0" d="M0 0h440v400H0"/></g></mask><mask id="dQ" fill="#2793b0"><g filter="url(#a)"><path fill-opacity="0" d="M0 0h440v400H0"/></g></mask><mask id="dS" fill="#2793b0"><g filter="url(#a)"><path fill-opacity="0" d="M0 0h440v400H0"/></g></mask><mask id="dU" fill="#2793b0"><g filter="url(#a)"><path fill-opacity="0" d="M0 0h440v400H0"/></g></mask><mask id="dW" fill="#2793b0"><g filter="url(#a)"><path fill-opacity="0" d="M0 0h440v400H0"/></g></mask><mask id="dY" fill="#2793b0"><g filter="url(#a)"><path fill-opacity="0" d="M0 0h440v400H0"/></g></mask><mask id="ea" fill="#2793b0"><g filter="url(#a)"><path fill-opacity="0" d="M0 0h440v400H0"/></g></mask><mask id="ec" fill="#2793b0"><g filter="url(#a)"><path fill-opacity="0" d="M0 0h440v400H0"/></g></mask><mask id="ee" fill="#2793b0"><g filter="url(#a)"><path fill-opacity="0" d="M0 0h440v400H0"/></g></mask><mask id="eg" fill="#2793b0"><g filter="url(#a)"><path fill-opacity="0" d="M0 0h440v400H0"/></g></mask><mask id="ei" fill="#2793b0"><g filter="url(#a)"><path fill-opacity="0" d="M0 0h440v400H0"/></g></mask><mask id="ek" fill="#2793b0"><g filter="url(#a)"><path fill-opacity="0" d="M0 0h440v400H0"/></g></mask><mask id="em" fill="#2793b0"><g filter="url(#a)"><path fill-opacity="0" d="M0 0h440v400H0"/></g></mask><mask id="eo" fill="#2793b0"><g filter="url(#a)"><path fill-opacity="0" d="M0 0h440v400H0"/></g></mask><mask id="eq" fill="#2793b0"><g filter="url(#a)"><path fill-opacity="0" d="M0 0h440v400H0"/></g></mask><mask id="es" fill="#2793b0"><g filter="url(#a)"><path fill-opacity="0" d="M0 0h440v400H0"/></g></mask><mask id="eu" fill="#2793b0"><g filter="url(#a)"><path fill-opacity="0" d="M0 0h440v400H0"/></g></mask><mask id="ew" fill="#2793b0"><g filter="url(#a)"><path fill-opacity="0" d="M0 0h440v400H0"/></g></mask><mask id="ey" fill="#2793b0"><g filter="url(#a)"><path fill-opacity="0" d="M0 0h440v400H0"/></g></mask><mask id="eA" fill="#2793b0"><g filter="url(#a)"><path fill-opacity="0" d="M0 0h440v400H0"/></g></mask><mask id="eC" fill="#2793b0"><g filter="url(#a)"><path fill-opacity="0" d="M0 0h440v400H0"/></g></mask><mask id="eE" fill="#2793b0"><g filter="url(#a)"><path fill-opacity="0" d="M0 0h440v400H0"/></g></mask><mask id="eG" fill="#2793b0"><g filter="url(#a)"><path d="M0 0h440v400H0"/></g></mask><mask id="eI" fill="#2793b0"><g filter="url(#a)"><path fill-opacity="0" d="M0 0h440v400H0"/></g></mask><mask id="eK" fill="#2793b0"><g filter="url(#a)"><path fill-opacity="0" d="M0 0h440v400H0"/></g></mask><mask id="eM" fill="#2793b0"><g filter="url(#a)"><path fill-opacity="0" d="M0 0h440v400H0"/></g></mask><mask id="eO" fill="#2793b0"><g filter="url(#a)"><path fill-opacity="0" d="M0 0h440v400H0"/></g></mask><mask id="eQ" fill="#2793b0"><g filter="url(#a)"><path fill-opacity="0" d="M0 0h440v400H0"/></g></mask><mask id="eS" fill="#2793b0"><g filter="url(#a)"><path fill-opacity="0" d="M0 0h440v400H0"/></g></mask><mask id="eU" fill="#2793b0"><g filter="url(#a)"><path fill-opacity="0" d="M0 0h440v400H0"/></g></mask><mask id="eW" fill="#2793b0"><g filter="url(#a)"><path fill-opacity="0" d="M0 0h440v400H0"/></g></mask><mask id="eY" fill="#2793b0"><g filter="url(#a)"><path fill-opacity="0" d="M0 0h440v400H0"/></g></mask><mask id="fa" fill="#2793b0"><g filter="url(#a)"><path fill-opacity="0" d="M0 0h440v400H0"/></g></mask><mask id="fc" fill="#2793b0"><g filter="url(#a)"><path fill-opacity="0" d="M0 0h440v400H0"/></g></mask><mask id="fe" fill="#2793b0"><g filter="url(#a)"><path fill-opacity="0" d="M0 0h440v400H0"/></g></mask><mask id="fg" fill="#2793b0"><g filter="url(#a)"><path fill-opacity="0" d="M0 0h440v400H0"/></g></mask><mask id="fi" fill="#2793b0"><g filter="url(#a)"><path fill-opacity="0" d="M0 0h440v400H0"/></g></mask><mask id="fk" fill="#2793b0"><g filter="url(#a)"><path fill-opacity="0" d="M0 0h440v400H0"/></g></mask><mask id="fm" fill="#2793b0"><g filter="url(#a)"><path fill-opacity="0" d="M0 0h440v400H0"/></g></mask><mask id="fo" fill="#2793b0"><g filter="url(#a)"><path fill-opacity="0" d="M0 0h440v400H0"/></g></mask><mask id="fq" fill="#2793b0"><g filter="url(#a)"><path fill-opacity="0" d="M0 0h440v400H0"/></g></mask><mask id="fs" fill="#2793b0"><g filter="url(#a)"><path fill-opacity="0" d="M0 0h440v400H0"/></g></mask><mask id="fu" fill="#2793b0"><g filter="url(#a)"><path fill-opacity="0" d="M0 0h440v400H0"/></g></mask><mask id="fw" fill="#2793b0"><g filter="url(#a)"><path fill-opacity="0" d="M0 0h440v400H0"/></g></mask><mask id="fy" fill="#2793b0"><g filter="url(#a)"><path fill-opacity="0" d="M0 0h440v400H0"/></g></mask><mask id="fA" fill="#2793b0"><g filter="url(#a)"><path fill-opacity="0" d="M0 0h440v400H0"/></g></mask><mask id="fC" fill="#2793b0"><g filter="url(#a)"><path fill-opacity="0" d="M0 0h440v400H0"/></g></mask><mask id="fE" fill="#2793b0"><g filter="url(#a)"><path fill-opacity="0" d="M0 0h440v400H0"/></g></mask><mask id="fG" fill="#2793b0"><g filter="url(#a)"><path fill-opacity="0" d="M0 0h440v400H0"/></g></mask><mask id="fI" fill="#2793b0"><g filter="url(#a)"><path fill-opacity="0" d="M0 0h440v400H0"/></g></mask><mask id="fK" fill="#2793b0"><g filter="url(#a)"><path fill-opacity="0" d="M0 0h440v400H0"/></g></mask><mask id="fM" fill="#2793b0"><g filter="url(#a)"><path fill-opacity="0" d="M0 0h440v400H0"/></g></mask><mask id="fO" fill="#2793b0"><g filter="url(#a)"><path fill-opacity="0" d="M0 0h440v400H0"/></g></mask><mask id="fQ" fill="#2793b0"><g filter="url(#a)"><path fill-opacity="0" d="M0 0h440v400H0"/></g></mask><mask id="fS" fill="#2793b0"><g filter="url(#a)"><path fill-opacity="0" d="M0 0h440v400H0"/></g></mask><mask id="fU" fill="#2793b0"><g filter="url(#a)"><path fill-opacity="0" d="M0 0h440v400H0"/></g></mask><mask id="fW" fill="#2793b0"><g filter="url(#a)"><path fill-opacity="0" d="M0 0h440v400H0"/></g></mask><mask id="fY" fill="#2793b0"><g filter="url(#a)"><path fill-opacity="0" d="M0 0h440v400H0"/></g></mask><mask id="ga" fill="#2793b0"><g filter="url(#a)"><path fill-opacity="0" d="M0 0h440v400H0"/></g></mask><clipPath id="b" fill="#2793b0"><path d="M0 0h440v400H0"/></clipPath><clipPath id="c" fill="#2793b0"><path d="M0 0h440v400H0"/></clipPath><clipPath id="d" fill="#2793b0"><path d="M0 0h440v400H0"/></clipPath><clipPath id="e" fill="#2793b0"><path d="M0 0h440v400H0"/></clipPath><clipPath id="f" fill="#2793b0"><path d="M0 0h440v400H0"/></clipPath><clipPath id="g" fill="#2793b0"><path d="M0 0h440v400H0"/></clipPath><clipPath id="j" fill="#2793b0"><path d="M0 0h440v400H0"/></clipPath><clipPath id="l" fill="#2793b0"><path d="M0 0h440v400H0"/></clipPath><clipPath id="n" fill="#2793b0"><path d="M0 0h440v400H0"/></clipPath><clipPath id="p" fill="#2793b0"><path d="M0 0h440v400H0"/></clipPath><clipPath id="r" fill="#2793b0"><path d="M0 0h440v400H0"/></clipPath><clipPath id="s" fill="#2793b0"><path d="M0 0h440v400H0"/></clipPath><clipPath id="t" fill="#2793b0"><path d="M0 0h440v400H0"/></clipPath><clipPath id="x" fill="#2793b0"><path d="M0 0h440v400H0"/></clipPath><clipPath id="A" fill="#2793b0"><path d="M0 0h440v400H0"/></clipPath><clipPath id="B" fill="#2793b0"><path d="M0 0h440v400H0"/></clipPath><clipPath id="C" fill="#2793b0"><path d="M0 0h440v400H0"/></clipPath><clipPath id="E" fill="#2793b0"><path d="M0 0h440v400H0"/></clipPath><clipPath id="F" fill="#2793b0"><path d="M0 0h440v400H0"/></clipPath><clipPath id="G" fill="#2793b0"><path d="M0 0h440v400H0"/></clipPath><clipPath id="I" fill="#2793b0"><path d="M0 0h440v400H0"/></clipPath><clipPath id="M" fill="#2793b0"><path d="M0 0h440v400H0"/></clipPath><clipPath id="N" fill="#2793b0"><path d="M0 0h440v400H0"/></clipPath><clipPath id="P" fill="#2793b0"><path d="M0 0h440v400H0"/></clipPath><clipPath id="Q" fill="#2793b0"><path d="M0 0h440v400H0"/></clipPath><clipPath id="R" fill="#2793b0"><path d="M0 0h440v400H0"/></clipPath><clipPath id="T" fill="#2793b0"><path d="M0 0h440v400H0"/></clipPath><clipPath id="U" fill="#2793b0"><path d="M0 0h440v400H0"/></clipPath><clipPath id="V" fill="#2793b0"><path d="M0 0h440v400H0"/></clipPath><clipPath id="W" fill="#2793b0"><path d="M0 0h440v400H0"/></clipPath><clipPath id="X" fill="#2793b0"><path d="M0 0h440v400H0"/></clipPath><clipPath id="Y" fill="#2793b0"><path d="M0 0h440v400H0"/></clipPath><clipPath id="Z" fill="#2793b0"><path d="M0 0h440v400H0"/></clipPath><clipPath id="aa" fill="#2793b0"><path d="M0 0h440v400H0"/></clipPath><clipPath id="ab" fill="#2793b0"><path d="M0 0h440v400H0"/></clipPath><clipPath id="ad" fill="#2793b0"><path d="M0 0h440v400H0"/></clipPath><clipPath id="af" fill="#2793b0"><path d="M0 0h440v400H0"/></clipPath><clipPath id="ai" fill="#2793b0"><path d="M0 0h440v400H0"/></clipPath><clipPath id="aj" fill="#2793b0"><path d="M0 0h440v400H0"/></clipPath><clipPath id="ak" fill="#2793b0"><path d="M0 0h440v400H0"/></clipPath><clipPath id="an" fill="#2793b0"><path d="M0 0h440v400H0"/></clipPath><clipPath id="ao" fill="#2793b0"><path d="M0 0h440v400H0"/></clipPath><clipPath id="ap" fill="#2793b0"><path d="M0 0h440v400H0"/></clipPath><clipPath id="aq" fill="#2793b0"><path d="M0 0h440v400H0"/></clipPath><clipPath id="ar" fill="#2793b0"><path d="M0 0h440v400H0"/></clipPath><clipPath id="as" fill="#2793b0"><path d="M0 0h440v400H0"/></clipPath><clipPath id="at" fill="#2793b0"><path d="M0 0h440v400H0"/></clipPath><clipPath id="au" fill="#2793b0"><path d="M0 0h440v400H0"/></clipPath><clipPath id="aw" fill="#2793b0"><path d="M0 0h440v400H0"/></clipPath><clipPath id="ax" fill="#2793b0"><path d="M0 0h440v400H0"/></clipPath><clipPath id="aA" fill="#2793b0"><path d="M0 0h440v400H0"/></clipPath><clipPath id="aB" fill="#2793b0"><path d="M0 0h440v400H0"/></clipPath><clipPath id="aC" fill="#2793b0"><path d="M0 0h440v400H0"/></clipPath><clipPath id="aD" fill="#2793b0"><path d="M0 0h440v400H0"/></clipPath><clipPath id="aE" fill="#2793b0"><path d="M0 0h440v400H0"/></clipPath><clipPath id="aF" fill="#2793b0"><path d="M0 0h440v400H0"/></clipPath><clipPath id="aG" fill="#2793b0"><path d="M0 0h440v400H0"/></clipPath><clipPath id="aI" fill="#2793b0"><path d="M0 0h440v400H0"/></clipPath><clipPath id="aK" fill="#2793b0"><path d="M0 0h440v400H0"/></clipPath><clipPath id="aL" fill="#2793b0"><path d="M0 0h440v400H0"/></clipPath><clipPath id="aM" fill="#2793b0"><path d="M0 0h440v400H0"/></clipPath><clipPath id="aO" fill="#2793b0"><path d="M0 0h440v400H0"/></clipPath><clipPath id="aP" fill="#2793b0"><path d="M0 0h440v400H0"/></clipPath><clipPath id="aR" fill="#2793b0"><path d="M0 0h440v400H0"/></clipPath><clipPath id="aT" fill="#2793b0"><path d="M0 0h440v400H0"/></clipPath><clipPath id="aW" fill="#2793b0"><path d="M0 0h440v400H0"/></clipPath><clipPath id="aY" fill="#2793b0"><path d="M0 0h440v400H0"/></clipPath><clipPath id="ba" fill="#2793b0"><path d="M0 0h440v400H0"/></clipPath><clipPath id="bc" fill="#2793b0"><path d="M0 0h440v400H0"/></clipPath><clipPath id="bd" fill="#2793b0"><path d="M0 0h440v400H0"/></clipPath><clipPath id="be" fill="#2793b0"><path d="M0 0h440v400H0"/></clipPath><clipPath id="bf" fill="#2793b0"><path d="M0 0h440v400H0"/></clipPath><clipPath id="bk" fill="#2793b0"><path d="M0 0h440v400H0"/></clipPath><clipPath id="bp" fill="#2793b0"><path d="M0 0h440v400H0"/></clipPath><clipPath id="bq" fill="#2793b0"><path d="M0 0h440v400H0"/></clipPath><clipPath id="br" fill="#2793b0"><path d="M0 0h440v400H0"/></clipPath><g id="bs" clip-path="url(#b)"><path fill-rule="evenodd" d="M50 0h20v30h30q-15 0 0 0v10l20 10h10v10q0-15 0 0h10l10 10h10q15 0 0 0h10v10h10a580 580 0 0 0 20 10v10h-20l-10-10-10 10a1620 1620 0 0 0 20 140l10 20v10q15 0 0 0h10v10h10v10l20 20 10 10h10a490 490 0 0 0 40 20l20 10h-10 20v10h10l20-20h10v-10l10 20h-10v10h40v-10l10 10h30v20h-30l-10 10h-10q15 0 0 0 0-15 0 0h-20q-15 0 0 0h-20v10h-60a380 380 0 0 0-50 0l-10-10h-30l-20-10h-10a1450 1450 0 0 1-30-10v-10h-10v-10h-10v-10h-10l-30-30s0-10 0 0v-10l-30-40-10-20A580 580 0 0 1 0 120l10-30h10V80l10-10h10L30 60h10V40h10V30h10-10zm10 0v10H50zm20 30q0 15 0 0m0 20h10v10H80zM70 60h10zm40 0v10zm-10 0v20-10H90V60zM80 70h10s0 10 0 0zm0 0H70zm60 10h-10zh-10zm0 0h20v10h-20v10a2290 2290 0 0 1-50-10h10q-15 0 0 0h10l-10-10q15 0 0 0h30v10h10zv10zh10zM20 80v10zm70 0h10v10zm0 10q0-15 0 0m100 0q15 0 0 0M80 90v10zm-10 0v10q0-15 0 0zm-10 0v20q15 0 0 0h10v10H60v-10H50v-10zm10 10H60zm-40 0v10h10l10 10H30v-10H20zm120 10v10h-10v20h10q0 15 0 0v70l10-10v10-10 20-10l10 20h-10v10l10 10v20-10h10q0 15 0 0 0 15 0 0v10h10l20 30v10h10v10h10v10h10l10 10h10l10 10 10 10h30v10h-10v-10h-20l-30-10h-10v10h-10v-10h-20 10l-10-10h10-30v-10l20 10v-10l-10-10-10-10h-10l-10-10h-10l-10-30h-10v-10h10v-10h-10v-10h-10v-10q15 0 0 0v10h-20l-10-20 10-10h10v-20h-10v-10h-10v10H90v10-10l-10-10v10-10h10v-10h10v-10h10-10v-10c10 0 0 0 0 0v-10H90c10 0 0 0 0 0v-10 20H80v10q-15 0 0 0l-10 10H60v-10h10v-10h10v-10H70v-10s0 10 0 0h20l10-10h20v-10zm-130 0-10 20v-10zm130 0v20zm-100 0v10zm100 10v10zM10 130h10zm140 0v10zm-80 10H60zm0 0H60zm-10 0h10zm-30 30v-10zm40 0h10zm80 10 10-10zm-80 0v-10zm20-10v10H80zm-30 10h10v10H60zm-30 0 10 10zm70 0 10 10zm50 0v10h10-10zm10 10c-10 0 0 0 0 0m-60 0v10zm-20 0v10zm-50 0v10zm10 0v10zm-10 10h10zm40 0h10zm0 10h10v10zm10 0v10zm20 0v10zm-50 10H40zm50 0v10zm-50 0v10zm-10 10h10zm50 0h10v10l10 10-10-10H80v-10zm-40 0q0 15 0 0m120 0v10zm0 10v10zm-120 0 10 10H50zm80 0 10 10h-10zm10 10h-10zm-80 0v10zm90 0v10zm-40 10h10zv10h10q-15 0 0 0v20-10h-10v-10h-10q15 0 0 0v-10zm50 30h10zm-10 0h10zm-70 10q15 0 0 0m50 0v10h10-20v-10zm30 10v-10zm-70 0h10v10h10-10zs0-10 0 0m130 0q15 0 0 0m-30 20h-10zm-70 0 10 10h-10zm150 30-10 10v-10zm80 10h-10v-10zm-180 0q15 0 0 0m170 0h20zm20 0h10zm50 0q30 0 0 0m-230 0 20 10h-20zm30 10q15 0 0 0m10 0h10zm-10 0h10zm10 0 40 10h-10a2010 2010 0 0 1-30-10m80 10a400 400 0 0 0 10 0zm0 0"/></g><g id="bu" clip-path="url(#c)"><path fill-rule="evenodd" d="M70 10q0-15 0 0m0 0"/></g><g id="bw" clip-path="url(#d)"><path fill-rule="evenodd" d="M70 10v10zm0 0"/></g><g id="bE" clip-path="url(#e)"><path fill-rule="evenodd" d="M100 40V30zm0 0"/></g><g id="bG" clip-path="url(#f)"><path fill-rule="evenodd" d="M40 50q0 15 0 0m0 0"/></g><g id="bK" clip-path="url(#g)"><path fill-rule="evenodd" d="M130 80h10zm0 0"/></g><g id="bO" clip-path="url(#j)"><path fill-rule="evenodd" d="M70 90h10zm0 0"/></g><g id="bS" clip-path="url(#l)"><path fill-rule="evenodd" d="M60 90h10v10H60zm0 0"/></g><g id="bW" clip-path="url(#n)"><path fill-rule="evenodd" d="M70 100q0-15 0 0m0 0"/></g><g id="ce" clip-path="url(#p)"><path fill-rule="evenodd" d="M200 100h-10zm0 0"/></g><g id="cg" clip-path="url(#r)"><path fill-rule="evenodd" d="M160 100q0 15 0 0m0 0"/></g><g id="ci" clip-path="url(#s)"><path fill-rule="evenodd" d="M0 100v10zm0 0"/></g><g id="cm" clip-path="url(#t)"><path fill-rule="evenodd" d="M0 110v10zm0 0"/></g><g id="co" clip-path="url(#x)"><path fill-rule="evenodd" d="M160 120v-10zm0 0"/></g><g id="cq" clip-path="url(#A)"><path fill-rule="evenodd" d="M150 110v30h-10v-20h10zm0 10v10zm0 0"/></g><g id="cs" clip-path="url(#B)"><path fill-rule="evenodd" d="M40 110h10v10zm0 0"/></g><g id="cw" clip-path="url(#C)"><path fill-rule="evenodd" d="M160 120v10zm0 0"/></g><g id="cE" clip-path="url(#E)"><path fill-rule="evenodd" d="M90 130H80zm0 0"/></g><g id="cI" clip-path="url(#F)"><path fill-rule="evenodd" d="M90 130v10h10q0 15 0 0v10s10 0 0 0v10h10-10v10H90v-10H80v-10h10zm0 0"/></g><g id="cK" clip-path="url(#G)"><path fill-rule="evenodd" d="M160 130v20zm0 0"/></g><g id="cM" clip-path="url(#I)"><path fill-rule="evenodd" d="M90 140h10zm0 0"/></g><g id="cO" clip-path="url(#M)"><path fill-rule="evenodd" d="M10 140v10zm0 0"/></g><g id="cS" clip-path="url(#N)"><path fill-rule="evenodd" d="M140 150v20-10l-10-10zm0 0"/></g><g id="cU" clip-path="url(#P)"><path fill-rule="evenodd" d="M160 150v10zm0 0"/></g><g id="cW" clip-path="url(#Q)"><path fill-rule="evenodd" d="M10 150v10zm0 0"/></g><g id="da" clip-path="url(#R)"><path fill-rule="evenodd" d="M10 160v10zm0 0"/></g><g id="dc" clip-path="url(#T)"><path fill-rule="evenodd" d="M160 160v10zm0 0"/></g><g id="de" clip-path="url(#U)"><path fill-rule="evenodd" d="M90 180h10zh10zv-10zm0 0"/></g><g id="dg" clip-path="url(#V)"><path fill-rule="evenodd" d="M20 170v10zm0 0"/></g><g id="di" clip-path="url(#W)"><path fill-rule="evenodd" d="M140 180q0 15 0 0v20-10l10 10h-10v10-10h-10v-20zm0 0"/></g><g id="dl" clip-path="url(#X)"><path fill-rule="evenodd" d="M150 190v-10zm0 0"/></g><g id="dn" clip-path="url(#Y)"><path fill-rule="evenodd" d="m100 180 10 10zh10v10h10-10a300 300 0 0 0 10 10v10h-10v-10h-10zm0 0 10 10zm0 0"/></g><g id="dp" clip-path="url(#Z)"><path fill-rule="evenodd" d="M150 180v10zm0 0"/></g><g id="dv" clip-path="url(#aa)"><path fill-rule="evenodd" d="M90 190v-10zm0 0"/></g><g id="dz" clip-path="url(#ab)"><path fill-rule="evenodd" d="M100 190v10zm0 0"/></g><g id="dD" clip-path="url(#ad)"><path fill-rule="evenodd" d="M70 190v10zm0 0"/></g><g id="dF" clip-path="url(#af)"><path fill-rule="evenodd" d="M90 190h10v10H90zm0 0"/></g><g id="dH" clip-path="url(#ai)"><path fill-rule="evenodd" d="M20 190q0 15 0 0m0 0"/></g><g id="dN" clip-path="url(#aj)"><path fill-rule="evenodd" d="M160 200v10zm0 0"/></g><g id="dP" clip-path="url(#ak)"><path fill-rule="evenodd" d="M100 200h10v10h-10zm0 0"/></g><g id="dR" clip-path="url(#an)"><path fill-rule="evenodd" d="M40 200v20zm0 0"/></g><g id="dT" clip-path="url(#ao)"><path fill-rule="evenodd" d="M70 210h10zm0 0"/></g><g id="dV" clip-path="url(#ap)"><path fill-rule="evenodd" d="M160 210v10zm0 0"/></g><g id="dX" clip-path="url(#aq)"><path fill-rule="evenodd" d="M150 210h10zm0 0"/></g><g id="dZ" clip-path="url(#ar)"><path fill-rule="evenodd" d="M120 230h-10q15 0 0 0zm0 0"/></g><g id="eb" clip-path="url(#as)"><path fill-rule="evenodd" d="M130 230v10zm0 0"/></g><g id="ed" clip-path="url(#at)"><path fill-rule="evenodd" d="M170 230v20l-10-10v-10zm0 0"/></g><g id="eh" clip-path="url(#au)"><path fill-rule="evenodd" d="M130 240h10zm0 0"/></g><g id="en" clip-path="url(#aw)"><path fill-rule="evenodd" d="M60 260h10v10H60zm0 0"/></g><g id="ep" clip-path="url(#ax)"><path fill-rule="evenodd" d="M100 260v10zm0 0"/></g><g id="er" clip-path="url(#aA)"><path fill-rule="evenodd" d="M140 270h10zm0 0"/></g><g id="et" clip-path="url(#aB)"><path fill-rule="evenodd" d="M190 270v10h-10 10-10zm0 0"/></g><g id="ev" clip-path="url(#aC)"><path fill-rule="evenodd" d="M200 280q0-15 0 0m0 0"/></g><g id="ex" clip-path="url(#aD)"><path fill-rule="evenodd" d="M190 290v-10zm0 0"/></g><g id="ez" clip-path="url(#aE)"><path fill-rule="evenodd" d="M200 290h-10zm0 0"/></g><g id="eF" clip-path="url(#aF)"><path fill-rule="evenodd" d="m200 290 10 10v10h-10zm0 0"/></g><g id="eJ" clip-path="url(#aG)"><path fill-rule="evenodd" d="M210 310h10zm0 0"/></g><g id="eR" clip-path="url(#aI)"><path fill-rule="evenodd" d="M250 340h10zm0 0"/></g><g id="eX" clip-path="url(#aK)"><path fill-rule="evenodd" d="M360 360h20zm0 0"/></g><g id="fb" clip-path="url(#aL)"><path fill-rule="evenodd" d="M410 360q30 0 0 0m0 0"/></g><g id="ff" clip-path="url(#aM)"><path fill-rule="evenodd" d="M380 360q15 0 0 0m0 0"/></g><g id="fh" clip-path="url(#aO)"><path fill-rule="evenodd" d="M430 380h10zm0 0"/></g><g id="fl" clip-path="url(#aP)"><path fill-rule="evenodd" d="M420 380h10zm0 0"/></g><g id="fp" clip-path="url(#aR)"><path fill-rule="evenodd" d="M410 380q15 0 0 0m0 0"/></g><g id="ft" clip-path="url(#aT)"><path fill-rule="evenodd" d="M380 390h10zm0 0"/></g><g id="fD" clip-path="url(#aW)"><path fill-rule="evenodd" d="M230 390h-10zm0 0"/></g><g id="fF" clip-path="url(#aY)"><path fill-rule="evenodd" d="M350 400v-10zm0 0"/></g><g id="fH" clip-path="url(#ba)"><path fill-rule="evenodd" d="M360 390q0 15 0 0m0 0"/></g><g id="fJ" clip-path="url(#bc)"><path fill-rule="evenodd" d="M240 400h-10zm0 0"/></g><g id="fN" clip-path="url(#bd)"><path fill-rule="evenodd" d="M350 400h10zm0 0"/></g><g id="fP" clip-path="url(#be)"><path fill-rule="evenodd" d="M250 400q-15 0 0 0m0 0"/></g><g id="fR" clip-path="url(#bf)"><path fill-rule="evenodd" d="M340 400h10zm0 0"/></g><g id="fT" clip-path="url(#bk)"><path fill-rule="evenodd" d="M250 400h10zm0 0"/></g><g id="fV" clip-path="url(#bp)"><path fill-rule="evenodd" d="M330 400h10zm0 0"/></g><g id="fX" clip-path="url(#bq)"><path fill-rule="evenodd" d="M260 400h10zm0 0"/></g><g id="fZ" clip-path="url(#br)"><path fill-rule="evenodd" d="M320 400h10zm0 0"/></g><filter id="a" width="1000%" height="1000%" x="0%" y="0%" fill="#2793b0" filterUnits="objectBoundingBox"><feColorMatrix in="SourceGraphic" values="0 0 0 0 1 0 0 0 0 1 0 0 0 0 1 0 0 0 1 0"/></filter></defs><g fill="#2793b0"><use xlink:href="#bs" mask="url(#bt)"/><use xlink:href="#bu" mask="url(#bv)"/><use xlink:href="#bw" mask="url(#bx)"/><use xlink:href="#by" mask="url(#bz)"/><use xlink:href="#bA" mask="url(#bB)"/><use xlink:href="#bC" mask="url(#bD)"/><use xlink:href="#bE" mask="url(#bF)"/><use xlink:href="#bG" mask="url(#bH)"/><use xlink:href="#bI" mask="url(#bJ)"/><use xlink:href="#bK" mask="url(#bL)"/><use xlink:href="#bM" mask="url(#bN)"/><use xlink:href="#bO" mask="url(#bP)"/><use xlink:href="#bQ" mask="url(#bR)"/><use xlink:href="#bS" mask="url(#bT)"/><use xlink:href="#bU" mask="url(#bV)"/><use xlink:href="#bW" mask="url(#bX)"/><use xlink:href="#bY" mask="url(#bZ)"/><use xlink:href="#ca" mask="url(#cb)"/><use xlink:href="#cc" mask="url(#cd)"/><use xlink:href="#ce" mask="url(#cf)"/><use xlink:href="#cg" mask="url(#ch)"/><use xlink:href="#ci" mask="url(#cj)"/><use xlink:href="#ck" mask="url(#cl)"/><use xlink:href="#cm" mask="url(#cn)"/><use xlink:href="#co" mask="url(#cp)"/><use xlink:href="#cq" mask="url(#cr)"/><use xlink:href="#cs" mask="url(#ct)"/><use xlink:href="#cu" mask="url(#cv)"/><use xlink:href="#cw" mask="url(#cx)"/><use xlink:href="#cy" mask="url(#cz)"/><use xlink:href="#cA" mask="url(#cB)"/><use xlink:href="#cC" mask="url(#cD)"/><use xlink:href="#cE" mask="url(#cF)"/><use xlink:href="#cG" mask="url(#cH)"/><use xlink:href="#cI" mask="url(#cJ)"/><use xlink:href="#cK" mask="url(#cL)"/><use xlink:href="#cM" mask="url(#cN)"/><use xlink:href="#cO" mask="url(#cP)"/><use xlink:href="#cQ" mask="url(#cR)"/><use xlink:href="#cS" mask="url(#cT)"/><use xlink:href="#cU" mask="url(#cV)"/><use xlink:href="#cW" mask="url(#cX)"/><use xlink:href="#cY" mask="url(#cZ)"/><use xlink:href="#da" mask="url(#db)"/><use xlink:href="#dc" mask="url(#dd)"/><use xlink:href="#de" mask="url(#df)"/><use xlink:href="#dg" mask="url(#dh)"/><use xlink:href="#di" mask="url(#dj)"/><use xlink:href="#di" mask="url(#dk)"/><use xlink:href="#dl" mask="url(#dm)"/><use xlink:href="#dn" mask="url(#do)"/><use xlink:href="#dp" mask="url(#dq)"/><use xlink:href="#dr" mask="url(#ds)"/><use xlink:href="#dt" mask="url(#du)"/><use xlink:href="#dv" mask="url(#dw)"/><use xlink:href="#dx" mask="url(#dy)"/><use xlink:href="#dz" mask="url(#dA)"/><use xlink:href="#dB" mask="url(#dC)"/><use xlink:href="#dD" mask="url(#dE)"/><use xlink:href="#dF" mask="url(#dG)"/><use xlink:href="#dH" mask="url(#dI)"/><use xlink:href="#dJ" mask="url(#dK)"/><use xlink:href="#dL" mask="url(#dM)"/><use xlink:href="#dN" mask="url(#dO)"/><use xlink:href="#dP" mask="url(#dQ)"/><use xlink:href="#dR" mask="url(#dS)"/><use xlink:href="#dT" mask="url(#dU)"/><use xlink:href="#dV" mask="url(#dW)"/><use xlink:href="#dX" mask="url(#dY)"/><use xlink:href="#dZ" mask="url(#ea)"/><use xlink:href="#eb" mask="url(#ec)"/><use xlink:href="#ed" mask="url(#ee)"/><use xlink:href="#ef" mask="url(#eg)"/><use xlink:href="#eh" mask="url(#ei)"/><use xlink:href="#ej" mask="url(#ek)"/><use xlink:href="#el" mask="url(#em)"/><use xlink:href="#en" mask="url(#eo)"/><use xlink:href="#ep" mask="url(#eq)"/><use xlink:href="#er" mask="url(#es)"/><use xlink:href="#et" mask="url(#eu)"/><use xlink:href="#ev" mask="url(#ew)"/><use xlink:href="#ex" mask="url(#ey)"/><use xlink:href="#ez" mask="url(#eA)"/><use xlink:href="#eB" mask="url(#eC)"/><use xlink:href="#eD" mask="url(#eE)"/><use xlink:href="#eF" mask="url(#eG)"/><use xlink:href="#eH" mask="url(#eI)"/><use xlink:href="#eJ" mask="url(#eK)"/><use xlink:href="#eL" mask="url(#eM)"/><use xlink:href="#eN" mask="url(#eO)"/><use xlink:href="#eP" mask="url(#eQ)"/><use xlink:href="#eR" mask="url(#eS)"/><use xlink:href="#eT" mask="url(#eU)"/><use xlink:href="#eV" mask="url(#eW)"/><use xlink:href="#eX" mask="url(#eY)"/><use xlink:href="#eZ" mask="url(#fa)"/><use xlink:href="#fb" mask="url(#fc)"/><use xlink:href="#fd" mask="url(#fe)"/><use xlink:href="#ff" mask="url(#fg)"/><use xlink:href="#fh" mask="url(#fi)"/><use xlink:href="#fj" mask="url(#fk)"/><use xlink:href="#fl" mask="url(#fm)"/><use xlink:href="#fn" mask="url(#fo)"/><use xlink:href="#fp" mask="url(#fq)"/><use xlink:href="#fr" mask="url(#fs)"/><use xlink:href="#ft" mask="url(#fu)"/><use xlink:href="#fv" mask="url(#fw)"/><use xlink:href="#fx" mask="url(#fy)"/><use xlink:href="#fz" mask="url(#fA)"/><use xlink:href="#fB" mask="url(#fC)"/><use xlink:href="#fD" mask="url(#fE)"/><use xlink:href="#fF" mask="url(#fG)"/><use xlink:href="#fH" mask="url(#fI)"/><use xlink:href="#fJ" mask="url(#fK)"/><use xlink:href="#fL" mask="url(#fM)"/><use xlink:href="#fN" mask="url(#fO)"/><use xlink:href="#fP" mask="url(#fQ)"/><use xlink:href="#fR" mask="url(#fS)"/><use xlink:href="#fT" mask="url(#fU)"/><use xlink:href="#fV" mask="url(#fW)"/><use xlink:href="#fX" mask="url(#fY)"/><use xlink:href="#fZ" mask="url(#ga)"/></g></svg>