<?xml version="1.0" encoding="UTF-8"?>
<svg xmlns="http://www.w3.org/2000/svg" xmlns:xlink="http://www.w3.org/1999/xlink" width="40px" height="40px" viewBox="0 0 40 40" version="1.1">
<defs>
<clipPath id="clip1">
  <path d="M 0 0.0507812 L 39.949219 0.0507812 L 39.949219 40 L 0 40 Z M 0 0.0507812 "/>
</clipPath>
</defs>
<g id="surface1">
<g clip-path="url(#clip1)" clip-rule="nonzero">
<path style=" stroke:none;fill-rule:nonzero;fill:rgb(94.117647%,23.529412%,18.039216%);fill-opacity:1;" d="M 39.199219 18.246094 L 21.753906 0.804688 C 20.75 -0.203125 19.121094 -0.203125 18.113281 0.804688 L 14.492188 4.425781 L 19.085938 9.019531 C 20.191406 8.644531 21.410156 8.929688 22.230469 9.753906 C 23.058594 10.582031 23.339844 11.808594 22.957031 12.917969 L 27.386719 17.34375 C 28.492188 16.960938 29.722656 17.242188 30.550781 18.070312 C 31.746094 19.265625 31.746094 21.203125 30.550781 22.398438 C 29.355469 23.59375 27.414062 23.59375 26.21875 22.398438 C 25.34375 21.527344 25.082031 20.210938 25.554688 19.070312 L 21.421875 14.941406 L 21.421875 25.808594 C 22.308594 26.246094 22.925781 27.082031 23.085938 28.054688 C 23.246094 29.027344 22.929688 30.019531 22.230469 30.71875 C 21.035156 31.914062 19.097656 31.914062 17.902344 30.71875 C 16.707031 29.523438 16.707031 27.582031 17.902344 26.386719 C 18.1875 26.101562 18.53125 25.875 18.90625 25.71875 L 18.90625 14.75 C 18.152344 14.441406 17.550781 13.839844 17.238281 13.089844 C 16.929688 12.335938 16.929688 11.488281 17.242188 10.734375 L 12.714844 6.207031 L 0.753906 18.164062 C -0.25 19.167969 -0.25 20.796875 0.753906 21.804688 L 18.195312 39.246094 C 19.203125 40.25 20.832031 40.25 21.835938 39.246094 L 39.199219 21.886719 C 40.203125 20.878906 40.203125 19.25 39.199219 18.246094 "/>
</g>
</g>
</svg>
