<?xml version="1.0" encoding="UTF-8"?>
<svg xmlns="http://www.w3.org/2000/svg" xmlns:xlink="http://www.w3.org/1999/xlink" width="40px" height="40px" viewBox="0 0 40 40" version="1.1">
<g id="surface1">
<path style=" stroke:none;fill-rule:nonzero;fill:rgb(12.54902%,53.333336%,100%);fill-opacity:1;" d="M 8.332031 0 C 3.742188 0 0 3.742188 0 8.332031 C 0 12.355469 2.867188 15.722656 6.667969 16.5 L 6.667969 28.332031 C 6.667969 32.011719 9.691406 35 13.332031 35 L 13.394531 35 C 13.800781 37.820312 16.238281 40 19.167969 40 C 22.378906 40 25 37.378906 25 34.167969 C 25 30.953125 22.378906 28.332031 19.167969 28.332031 C 16.238281 28.332031 13.800781 30.511719 13.394531 33.332031 L 13.332031 33.332031 C 10.601562 33.332031 8.332031 31.097656 8.332031 28.332031 L 8.332031 19.929688 C 9.421875 21.042969 10.914062 21.667969 12.46875 21.667969 L 13.394531 21.667969 C 13.800781 24.488281 16.238281 26.667969 19.167969 26.667969 C 22.09375 26.667969 24.53125 24.488281 24.9375 21.667969 L 28.394531 21.667969 C 28.800781 24.488281 31.238281 26.667969 34.167969 26.667969 C 37.378906 26.667969 40 24.046875 40 20.832031 C 40 17.621094 37.378906 15 34.167969 15 C 31.238281 15 28.800781 17.179688 28.394531 20 L 24.9375 20 C 24.53125 17.179688 22.097656 15 19.167969 15 C 16.238281 15 13.800781 17.179688 13.394531 20 L 12.46875 20 C 10.460938 20 8.785156 18.566406 8.410156 16.664062 C 12.96875 16.621094 16.667969 12.898438 16.667969 8.332031 C 16.667969 3.742188 12.925781 0 8.332031 0 Z M 8.332031 1.667969 C 10.101562 1.664062 11.800781 2.363281 13.050781 3.617188 C 14.300781 4.867188 15.003906 6.5625 15 8.332031 C 15.003906 10.101562 14.300781 11.800781 13.050781 13.050781 C 11.800781 14.300781 10.101562 15.003906 8.332031 15 C 6.5625 15.003906 4.867188 14.300781 3.617188 13.050781 C 2.363281 11.800781 1.664062 10.101562 1.667969 8.332031 C 1.664062 6.5625 2.363281 4.867188 3.617188 3.617188 C 4.867188 2.363281 6.5625 1.664062 8.332031 1.667969 Z M 6.703125 4.023438 C 5.835938 4.027344 5 4.726562 5 5.675781 L 5 11.003906 C 5 12.265625 6.472656 13.085938 7.546875 12.417969 L 11.804688 9.777344 C 12.824219 9.144531 12.828125 7.589844 11.816406 6.949219 L 7.554688 4.265625 C 7.300781 4.105469 7.003906 4.019531 6.703125 4.023438 Z M 6.667969 5.675781 L 10.929688 8.359375 L 6.667969 11.003906 Z M 19.167969 16.667969 C 20.273438 16.664062 21.335938 17.101562 22.117188 17.882812 C 22.898438 18.664062 23.335938 19.726562 23.332031 20.832031 C 23.335938 21.9375 22.898438 23 22.117188 23.78125 C 21.335938 24.566406 20.273438 25.003906 19.167969 25 C 18.0625 25.003906 17 24.566406 16.214844 23.785156 C 15.433594 23 14.996094 21.9375 15 20.832031 C 14.996094 19.726562 15.433594 18.664062 16.21875 17.882812 C 17 17.101562 18.0625 16.664062 19.167969 16.667969 Z M 34.167969 16.667969 C 35.273438 16.664062 36.335938 17.101562 37.117188 17.882812 C 37.898438 18.664062 38.335938 19.726562 38.332031 20.832031 C 38.335938 21.9375 37.898438 23 37.117188 23.78125 C 36.335938 24.566406 35.273438 25.003906 34.167969 25 C 33.0625 25.003906 32 24.566406 31.214844 23.785156 C 30.433594 23 29.996094 21.9375 30 20.832031 C 29.996094 19.726562 30.433594 18.664062 31.21875 17.882812 C 32 17.101562 33.0625 16.664062 34.167969 16.667969 Z M 20.863281 18.839844 C 20.644531 18.839844 20.429688 18.925781 20.273438 19.082031 L 18.304688 21.050781 L 17.652344 20.398438 C 17.324219 20.074219 16.796875 20.074219 16.472656 20.398438 C 16.148438 20.726562 16.148438 21.253906 16.476562 21.578125 L 17.71875 22.816406 C 18.042969 23.140625 18.570312 23.140625 18.894531 22.816406 L 21.453125 20.261719 C 21.777344 19.9375 21.777344 19.410156 21.453125 19.082031 C 21.296875 18.925781 21.085938 18.839844 20.863281 18.839844 Z M 35.863281 18.839844 C 35.644531 18.839844 35.429688 18.925781 35.273438 19.082031 L 33.304688 21.050781 L 32.652344 20.398438 C 32.324219 20.074219 31.796875 20.074219 31.472656 20.398438 C 31.148438 20.726562 31.148438 21.253906 31.476562 21.578125 L 32.71875 22.816406 C 33.042969 23.140625 33.570312 23.140625 33.894531 22.816406 L 36.453125 20.261719 C 36.777344 19.9375 36.777344 19.410156 36.453125 19.082031 C 36.296875 18.925781 36.085938 18.839844 35.863281 18.839844 Z M 19.167969 30 C 20.273438 29.996094 21.335938 30.433594 22.117188 31.21875 C 22.898438 32 23.335938 33.0625 23.332031 34.167969 C 23.335938 35.273438 22.898438 36.335938 22.117188 37.117188 C 21.335938 37.898438 20.273438 38.335938 19.167969 38.332031 C 18.0625 38.335938 17 37.898438 16.21875 37.117188 C 15.433594 36.335938 14.996094 35.273438 15 34.167969 C 14.996094 33.0625 15.433594 32 16.214844 31.214844 C 17 30.433594 18.0625 29.996094 19.167969 30 Z M 17.5 32.917969 C 16.816406 32.917969 16.25 33.480469 16.25 34.167969 C 16.25 34.851562 16.816406 35.417969 17.5 35.417969 C 18.183594 35.417969 18.75 34.851562 18.75 34.167969 C 18.75 33.480469 18.183594 32.917969 17.5 32.917969 Z M 20.832031 32.917969 C 20.148438 32.917969 19.582031 33.480469 19.582031 34.167969 C 19.582031 34.851562 20.148438 35.417969 20.832031 35.417969 C 21.519531 35.417969 22.082031 34.851562 22.082031 34.167969 C 22.082031 33.480469 21.519531 32.917969 20.832031 32.917969 Z M 17.5 33.75 C 17.734375 33.75 17.917969 33.933594 17.917969 34.167969 C 17.917969 34.402344 17.734375 34.582031 17.5 34.582031 C 17.265625 34.582031 17.082031 34.402344 17.082031 34.167969 C 17.082031 33.933594 17.265625 33.75 17.5 33.75 Z M 20.832031 33.75 C 21.066406 33.75 21.25 33.933594 21.25 34.167969 C 21.25 34.402344 21.066406 34.582031 20.832031 34.582031 C 20.597656 34.582031 20.417969 34.402344 20.417969 34.167969 C 20.417969 33.933594 20.597656 33.75 20.832031 33.75 Z M 20.832031 33.75 "/>
<path style=" stroke:none;fill-rule:nonzero;fill:rgb(47.450981%,72.156864%,100%);fill-opacity:1;" d="M 34.167969 28.332031 C 31.234375 28.332031 28.796875 30.519531 28.394531 33.34375 C 28.367188 33.339844 28.335938 33.339844 28.308594 33.339844 L 27.464844 33.367188 C 27.007812 33.382812 26.644531 33.765625 26.660156 34.226562 C 26.675781 34.6875 27.0625 35.046875 27.519531 35.03125 L 28.363281 35.003906 C 28.375 35.003906 28.382812 35.003906 28.394531 35.003906 C 28.804688 37.820312 31.238281 40 34.167969 40 C 37.378906 40 40 37.378906 40 34.167969 C 40 30.953125 37.378906 28.332031 34.167969 28.332031 Z M 34.167969 30 C 35.273438 29.996094 36.335938 30.433594 37.117188 31.21875 C 37.898438 32 38.335938 33.0625 38.332031 34.167969 C 38.335938 35.273438 37.898438 36.335938 37.117188 37.117188 C 36.335938 37.898438 35.273438 38.335938 34.167969 38.332031 C 33.0625 38.335938 32 37.898438 31.21875 37.117188 C 30.433594 36.335938 29.996094 35.273438 30 34.167969 C 29.996094 33.0625 30.433594 32 31.214844 31.214844 C 32 30.433594 33.0625 29.996094 34.167969 30 Z M 34.167969 30 "/>
</g>
</svg>
