<svg xmlns="http://www.w3.org/2000/svg" xmlns:xlink="http://www.w3.org/1999/xlink" width="60" height="37"><defs><linearGradient id="c" x1=".737" x2=".082" y1=".041" y2=".5" gradientTransform="matrix(59.94922 0 0 4.0039 .008 32.89)" gradientUnits="userSpaceOnUse"><stop offset="0" style="stop-color:#959595;stop-opacity:1"/><stop offset="1" style="stop-color:#ccc;stop-opacity:1"/></linearGradient><clipPath id="b"><path d="M0 0h60v37H0z"/></clipPath><filter id="a" width="100%" height="100%" x="0%" y="0%" filterUnits="objectBoundingBox"><feColorMatrix in="SourceGraphic" values="0 0 0 0 1 0 0 0 0 1 0 0 0 0 1 0 0 0 1 0"/></filter><mask id="e"><g filter="url(#a)"><path d="M0 0h60v37H0z" style="fill:#000;fill-opacity:.262745;stroke:none"/></g></mask><g id="d" clip-path="url(#b)"><path d="M59.957 34.746c0 1.188-13.418 2.149-29.973 2.149-16.554 0-29.976-.961-29.976-2.149 0-.766 5.715-1.473 14.988-1.855 9.274-.383 20.7-.383 29.973 0 9.273.382 14.988 1.09 14.988 1.855m0 0" style="stroke:none;fill-rule:nonzero;fill:url(#c)"/></g></defs><use xlink:href="#d" mask="url(#e)"/><path d="M25.934 35.613c-.582-.187-.582-.27-.051-1.914.535-1.64.289-3.164-.7-4.363-1.343-1.629-1.992-3.02-2.199-4.719-.18-1.46-.234-1.574-.82-1.691-.394-.074-.937.078-2.234.625-1.887.797-2.336 1.144-2.782 2.164-.234.535-.261.855-.128 1.473.16.757.824 1.972 1.074 1.976.066 0 .43.25.804.559.63.507.672.597.493 1.011-.383.899-1.297 1.993-1.668 1.993-.207 0-1.055-.602-1.985-1.407-1.828-1.586-1.906-1.746-2.093-4.343-.227-3.102.527-4.551 3.882-7.461l2.106-1.828.133-1.11c.136-1.14-.059-3.86-.387-5.36-.192-.886-.832-1.734-1.442-1.902-.66-.187-1.05.196-1.554 1.536-.543 1.445-1.063 1.949-2.008 1.949-.586 0-1.137-.383-1.516-1.055-.273-.48-.43-3.375-.27-4.894.079-.735.087-1.477.013-1.649-.118-.285-1.137-.894-3.54-2.125-.437-.226-.945-.527-1.128-.672-.188-.144-.668-.41-1.07-.59C5.948 1.41 3.57 0 3.792 0 4.215 0 6 .555 6.949.984c.582.262 1.137.473 1.235.473.101 0 1.218.367 2.488.813s2.43.808 2.578.808c.352 0 .406-.308.293-1.648-.05-.61-.047-1.106.004-1.106.055 0 .289.117.52.262.706.437 2.23.707 4.019.707 1.71.004 3.945.348 4.797.738 1.222.563 2.644 2.324 4.445 5.508 1.254 2.215 2.598 3.152 4.527 3.152.778 0 2.86-.324 5.676-.886 2.32-.465 5.387-.57 6.578-.223 1.45.418 3.371 1.543 4.957 2.902 1.485 1.274 1.715 1.555 2.63 3.246 1.085 2.012 2.288 4.88 3.359 8.004.152.446.472 1.196.715 1.668.64 1.254.609 1.328-.56 1.328-1.265 0-1.862-.199-2.69-.914-.797-.687-1.008-1.105-2.254-4.535-.637-1.758-1.262-2.812-1.657-2.812-.273 0-.824 1.883-.824 2.812 0 .664.406 1.555 1.465 3.203 1.719 2.676 2.621 6.457 2.262 9.457l-.157 1.297-1.144.047c-1.805.078-1.785.102-1.785-2.508 0-2.777-.188-3.379-1.399-4.5-.504-.465-1.632-1.785-2.507-2.937-.875-1.149-1.715-2.09-1.868-2.09-.34 0-.511.945-.53 2.941-.013 1.317-.063 1.54-.446 1.946-1.04 1.101-1.77 3.101-2.219 6.09-.102.66-.187.78-.61.878-.624.141-2.347.165-2.495.036-.13-.114.097-1.91.605-4.844.195-1.113.406-2.61.469-3.32.117-1.27-.14-3.649-.446-4.13-.128-.199-.77-.242-3.785-.253-1.996-.008-4.187-.074-4.863-.149l-1.238-.133v.555c0 .594.152 1.117 1.156 4.028.355 1.023.871 2.585 1.145 3.472l.496 1.606-.422 1.308c-.23.719-.57 1.582-.758 1.918-.332.586-.371.606-1.3.594-.528-.008-1.192-.09-1.477-.18m0 0" style="stroke:none;fill-rule:nonzero;fill:#499848;fill-opacity:1"/></svg>