<?xml version="1.0" encoding="UTF-8"?>
<svg xmlns="http://www.w3.org/2000/svg" xmlns:xlink="http://www.w3.org/1999/xlink" width="40px" height="40px" viewBox="0 0 40 40" version="1.1">
<g id="surface1">
<path style=" stroke:none;fill-rule:nonzero;fill:rgb(89.411765%,30.19608%,14.901961%);fill-opacity:1;" d="M 5.574219 36.003906 L 2.363281 0 L 37.636719 0 L 34.421875 35.996094 L 19.976562 40 Z M 5.574219 36.003906 "/>
<path style=" stroke:none;fill-rule:nonzero;fill:rgb(94.509804%,39.607844%,16.078432%);fill-opacity:1;" d="M 31.671875 33.703125 L 34.417969 2.945312 L 20 2.945312 L 20 36.941406 Z M 31.671875 33.703125 "/>
<path style=" stroke:none;fill-rule:nonzero;fill:rgb(92.156863%,92.156863%,92.156863%);fill-opacity:1;" d="M 19.984375 7.359375 L 8.925781 7.359375 L 10.117188 20.710938 L 20 20.710938 L 20 16.296875 L 14.15625 16.296875 L 13.753906 11.777344 L 20 11.777344 L 20 7.359375 Z M 20 27.75 L 19.980469 27.753906 L 15.0625 26.425781 L 14.75 22.90625 L 10.316406 22.90625 L 10.933594 29.839844 L 19.980469 32.339844 L 20 32.332031 Z M 20 27.75 "/>
<path style=" stroke:none;fill-rule:nonzero;fill:rgb(100%,100%,100%);fill-opacity:1;" d="M 19.984375 20.710938 L 25.421875 20.710938 L 24.921875 26.4375 L 19.996094 27.765625 L 19.996094 32.359375 L 29.050781 29.851562 L 30.261719 16.296875 L 20 16.296875 Z M 30.941406 8.546875 L 31.046875 7.359375 L 19.984375 7.359375 L 19.984375 11.773438 L 30.648438 11.773438 L 30.734375 10.78125 Z M 30.941406 8.546875 "/>
</g>
</svg>
