<?xml version="1.0" encoding="UTF-8"?>
<svg xmlns="http://www.w3.org/2000/svg" xmlns:xlink="http://www.w3.org/1999/xlink" width="35px" height="40px" viewBox="0 0 35 39" version="1.1">
<defs>
<filter id="alpha" filterUnits="objectBoundingBox" x="0%" y="0%" width="100%" height="100%">
  <feColorMatrix type="matrix" in="SourceGraphic" values="0 0 0 0 1 0 0 0 0 1 0 0 0 0 1 0 0 0 1 0"/>
</filter>
<mask id="mask0">
  <g filter="url(#alpha)">
<rect x="0" y="0" width="35" height="39" style="fill:rgb(0%,0%,0%);fill-opacity:0.984314;stroke:none;"/>
  </g>
</mask>
<clipPath id="clip1">
  <rect x="0" y="0" width="35" height="39"/>
</clipPath>
<g id="surface6" clip-path="url(#clip1)">
<path style=" stroke:none;fill-rule:nonzero;fill:rgb(92.156863%,92.156863%,92.156863%);fill-opacity:0.921569;" d="M 5.921875 27.789062 L 5.910156 23.683594 C 5.910156 23.683594 10.222656 24.875 12.667969 25.488281 L 12.707031 7.535156 L 16.1875 7.535156 L 16.1875 30.507812 Z M 5.921875 27.789062 "/>
</g>
</defs>
<g id="surface1">
<path style=" stroke:none;fill-rule:nonzero;fill:rgb(83.137256%,72.156864%,18.82353%);fill-opacity:1;" d="M 3.246094 35.054688 L 0 0.00390625 L 35 0.015625 L 31.777344 35.027344 L 17.472656 38.988281 Z M 29.140625 33.140625 L 31.859375 3.121094 L 17.527344 3.121094 L 17.636719 36.234375 Z M 16.1875 7.519531 L 12.707031 7.519531 L 12.667969 25.488281 L 5.910156 23.683594 L 5.921875 27.789062 L 16.1875 30.507812 Z M 16.1875 7.519531 "/>
<use xlink:href="#surface6" mask="url(#mask0)"/>
<path style=" stroke:none;fill-rule:nonzero;fill:rgb(99.215686%,84.705883%,23.529412%);fill-opacity:1;" d="M 17.527344 3.105469 L 31.859375 3.105469 L 29.140625 33.128906 L 17.527344 36.21875 Z M 28.40625 28.097656 L 29.347656 16.871094 L 22.386719 17.636719 L 22.386719 11.640625 L 29.8125 11.613281 L 30.109375 7.519531 L 18.90625 7.574219 L 19.054688 22.480469 L 25.824219 21.339844 L 25.730469 24.660156 L 18.90625 26.4375 L 18.972656 30.507812 Z M 28.40625 28.097656 "/>
</g>
</svg>
