<?xml version="1.0" encoding="UTF-8"?>
<svg xmlns="http://www.w3.org/2000/svg" xmlns:xlink="http://www.w3.org/1999/xlink" width="40px" height="40px" viewBox="0 0 40 40" version="1.1">
<g id="surface1">
<rect x="0" y="0" width="40" height="40" style="fill:rgb(100%,100%,100%);fill-opacity:1;stroke:none;"/>
<path style=" stroke:none;fill-rule:nonzero;fill:rgb(81.568629%,0%,0%);fill-opacity:1;" d="M 39.332031 39.332031 L 0.667969 39.332031 L 0.667969 0.667969 L 39.332031 0.667969 Z M 39.332031 39.332031 "/>
<path style=" stroke:none;fill-rule:nonzero;fill:rgb(100%,100%,100%);fill-opacity:1;" d="M 11.222656 30.507812 C 11.222656 30.535156 11.238281 30.578125 11.257812 30.597656 L 11.921875 31.257812 C 11.941406 31.277344 11.984375 31.296875 12.011719 31.296875 L 14.277344 31.296875 C 14.304688 31.296875 14.347656 31.277344 14.367188 31.257812 L 15.027344 30.597656 C 15.050781 30.574219 15.066406 30.535156 15.066406 30.507812 L 15.066406 23.320312 C 15.066406 23.289062 15.082031 23.25 15.105469 23.230469 L 17.980469 20.480469 C 18.003906 20.460938 18.035156 20.464844 18.050781 20.488281 L 25.320312 31.253906 C 25.335938 31.277344 25.375 31.296875 25.402344 31.296875 L 28.613281 31.296875 C 28.640625 31.296875 28.675781 31.277344 28.6875 31.25 L 29.269531 30.121094 C 29.285156 30.09375 29.28125 30.054688 29.265625 30.03125 L 20.761719 17.703125 C 20.746094 17.679688 20.75 17.644531 20.769531 17.625 L 28.589844 9.839844 C 28.609375 9.816406 28.628906 9.777344 28.628906 9.75 L 28.628906 9.605469 C 28.628906 9.574219 28.617188 9.53125 28.605469 9.503906 L 28.15625 8.464844 C 28.144531 8.4375 28.109375 8.417969 28.082031 8.417969 L 24.910156 8.417969 C 24.878906 8.417969 24.839844 8.433594 24.820312 8.453125 L 15.105469 18.207031 C 15.082031 18.226562 15.066406 18.21875 15.066406 18.191406 L 15.066406 9.246094 C 15.066406 9.214844 15.050781 9.175781 15.03125 9.152344 L 14.382812 8.457031 C 14.363281 8.433594 14.320312 8.417969 14.292969 8.417969 L 12.011719 8.417969 C 11.984375 8.417969 11.941406 8.433594 11.921875 8.457031 L 11.257812 9.175781 C 11.238281 9.195312 11.222656 9.238281 11.222656 9.265625 Z M 11.222656 30.507812 "/>
</g>
</svg>
