<?xml version="1.0" encoding="UTF-8"?>
<!DOCTYPE svg PUBLIC "-//W3C//DTD SVG 1.1//EN" "http://www.w3.org/Graphics/SVG/1.1/DTD/svg11.dtd">
<svg xmlns="http://www.w3.org/2000/svg" version="1.1" width="51px" height="40px" style="shape-rendering:geometricPrecision; text-rendering:geometricPrecision; image-rendering:optimizeQuality; fill-rule:evenodd; clip-rule:evenodd" xmlns:xlink="http://www.w3.org/1999/xlink">
<g><path style="opacity:0.884" fill="#f83023" d="M 13.5,1.5 C 13.7709,3.3797 13.1042,4.71304 11.5,5.5C 9.90097,5.23219 8.56764,5.56552 7.5,6.5C 6.39514,5.39952 5.06181,4.73286 3.5,4.5C 3.5743,2.5891 4.5743,1.42244 6.5,1C 9.03851,0.204191 11.3718,0.370858 13.5,1.5 Z"/></g>
<g><path style="opacity:0.884" fill="#85b2c0" d="M 50.5,3.5 C 50.5,6.16667 50.5,8.83333 50.5,11.5C 45.6756,16.8246 40.6756,21.9913 35.5,27C 29.9227,28.2231 26.9227,26.0564 26.5,20.5C 26.2948,17.7715 27.1282,15.4382 29,13.5C 33.1733,9.65946 37.0066,5.49279 40.5,1C 44.4204,-0.0203552 47.7537,0.812978 50.5,3.5 Z M 43.5,3.5 C 47.3955,6.27407 47.3955,9.27407 43.5,12.5C 41.8333,11.5 40.5,10.1667 39.5,8.5C 40.8569,6.81439 42.1902,5.14772 43.5,3.5 Z M 32.5,15.5 C 38.8391,17.8325 39.0058,20.4992 33,23.5C 29.8696,21.182 29.7029,18.5154 32.5,15.5 Z"/></g>
<g><path style="opacity:0.962" fill="#25b24c" d="M 13.5,1.5 C 15.8881,2.21873 17.3881,3.88539 18,6.5C 18.4955,8.4727 18.6621,10.4727 18.5,12.5C 13.4531,13.9177 11.4531,17.251 12.5,22.5C 9.52425,20.6581 6.19092,19.6581 2.5,19.5C 2.99255,17.1944 3.32588,14.861 3.5,12.5C 5.91176,12.3059 6.91176,10.9726 6.5,8.5C 6.83333,8.5 7.16667,8.5 7.5,8.5C 8.60093,9.59832 9.93426,9.76498 11.5,9C 12.6843,7.85453 12.6843,6.68787 11.5,5.5C 13.1042,4.71304 13.7709,3.3797 13.5,1.5 Z"/></g>
<g><path style="opacity:0.984" fill="#dc7079" d="M 2.5,5.5 C 2.5,4.83333 2.83333,4.5 3.5,4.5C 5.06181,4.73286 6.39514,5.39952 7.5,6.5C 7.5,7.16667 7.5,7.83333 7.5,8.5C 7.16667,8.5 6.83333,8.5 6.5,8.5C 5.16667,7.5 3.83333,6.5 2.5,5.5 Z"/></g>
<g><path style="opacity:0.861" fill="#fec81f" d="M 2.5,5.5 C 3.83333,6.5 5.16667,7.5 6.5,8.5C 6.91176,10.9726 5.91176,12.3059 3.5,12.5C 2.88258,12.6107 2.38258,12.944 2,13.5C -0.134187,10.5082 0.03248,7.8415 2.5,5.5 Z"/></g>
<g><path style="opacity:1" fill="#aea183" d="M 11.5,5.5 C 12.6843,6.68787 12.6843,7.85453 11.5,9C 9.93426,9.76498 8.60093,9.59832 7.5,8.5C 7.5,7.83333 7.5,7.16667 7.5,6.5C 8.56764,5.56552 9.90097,5.23219 11.5,5.5 Z"/></g>
<g><path style="opacity:0.99" fill="#b2ce19" d="M 18.5,12.5 C 22.0644,16.0914 24.3977,20.4248 25.5,25.5C 25.5,27.5 25.5,29.5 25.5,31.5C 24.5,31.5 23.5,31.5 22.5,31.5C 17.4487,30.3226 14.1154,27.3226 12.5,22.5C 11.4531,17.251 13.4531,13.9177 18.5,12.5 Z"/></g>
<g><path style="opacity:0.926" fill="#71d681" d="M 2.5,19.5 C 6.19092,19.6581 9.52425,20.6581 12.5,22.5C 14.1154,27.3226 17.4487,30.3226 22.5,31.5C 22.5,31.8333 22.5,32.1667 22.5,32.5C 21.5,32.5 20.5,32.5 19.5,32.5C 18.5,32.5 17.5,32.5 16.5,32.5C 15.5,32.5 14.5,32.5 13.5,32.5C 12.3951,31.3995 11.0618,30.7329 9.5,30.5C 5.42509,28.033 3.09175,24.3663 2.5,19.5 Z"/></g>
<g><path style="opacity:0.903" fill="#1dab44" d="M 25.5,25.5 C 28.5011,27.667 31.5011,29.8337 34.5,32C 33.3913,33.8613 31.7247,34.6947 29.5,34.5C 27.0678,34.1136 24.7345,33.4469 22.5,32.5C 22.5,32.1667 22.5,31.8333 22.5,31.5C 23.5,31.5 24.5,31.5 25.5,31.5C 25.5,29.5 25.5,27.5 25.5,25.5 Z"/></g>
<g><path style="opacity:0.723" fill="#fbb703" d="M 9.5,30.5 C 11.0618,30.7329 12.3951,31.3995 13.5,32.5C 15.0433,34.5567 16.0433,34.5567 16.5,32.5C 17.5,32.5 18.5,32.5 19.5,32.5C 19.7118,34.3841 20.7118,35.7174 22.5,36.5C 22.2907,37.086 21.9574,37.586 21.5,38C 17.1843,38.8041 13.0177,38.3041 9,36.5C 6.06936,38.4727 5.06936,37.8061 6,34.5C 7.01127,33.6634 8.17793,33.33 9.5,33.5C 9.5,32.5 9.5,31.5 9.5,30.5 Z M 13.5,32.5 C 14.5,32.5 15.5,32.5 16.5,32.5C 16.0433,34.5567 15.0433,34.5567 13.5,32.5 Z"/></g>
</svg>
