<svg xmlns="http://www.w3.org/2000/svg" xmlns:xlink="http://www.w3.org/1999/xlink" width="40" height="40"><defs><clipPath id="b"><path d="M0 0h40v40H0z"/></clipPath><filter id="a" width="100%" height="100%" x="0%" y="0%" filterUnits="objectBoundingBox"><feColorMatrix in="SourceGraphic" values="0 0 0 0 1 0 0 0 0 1 0 0 0 0 1 0 0 0 1 0"/></filter><mask id="d"><g filter="url(#a)"><path d="M0 0h40v40H0z" style="fill:#000;fill-opacity:.8;stroke:none"/></g></mask><g id="c" clip-path="url(#b)"><path d="M90 90h18c.229-1.652.229-3.34 0-4.992Zm0 0" style="fill-rule:nonzero;fill:#44c;fill-opacity:1;stroke-width:1;stroke-linecap:butt;stroke-linejoin:miter;stroke:gray;stroke-opacity:1;stroke-miterlimit:4" transform="scale(.22222)"/><path d="m90 90 33.996-42.996a54.7 54.7 0 0 0-14.994-7.998Zm0 0" style="fill-rule:nonzero;fill:#bc3;fill-opacity:1;stroke-width:1;stroke-linecap:butt;stroke-linejoin:miter;stroke:gray;stroke-opacity:1;stroke-miterlimit:4" transform="scale(.22222)"/><path d="M90 90 74.004 18a74.1 74.1 0 0 0-31.008 14.994Zm0 0" style="fill-rule:nonzero;fill:#d93;fill-opacity:1;stroke-width:1;stroke-linecap:butt;stroke-linejoin:miter;stroke:gray;stroke-opacity:1;stroke-miterlimit:4" transform="scale(.22222)"/><path d="M90 90 31.992 61.998A65.04 65.04 0 0 0 27 101.004Zm0 0" style="fill-rule:nonzero;fill:#db3;fill-opacity:1;stroke-width:1;stroke-linecap:butt;stroke-linejoin:miter;stroke:gray;stroke-opacity:1;stroke-miterlimit:4" transform="scale(.22222)"/><path d="m90 90-32.994 15.996a38.6 38.6 0 0 0 1.986 5.01Zm0 0" style="fill-rule:nonzero;fill:#3bb;fill-opacity:1;stroke-width:1;stroke-linecap:butt;stroke-linejoin:miter;stroke:gray;stroke-opacity:1;stroke-miterlimit:4" transform="scale(.22222)"/><path d="m90 90-10.002 45a46.3 46.3 0 0 0 18 0Zm0 0" style="fill-rule:nonzero;fill:#3c9;fill-opacity:1;stroke-width:1;stroke-linecap:butt;stroke-linejoin:miter;stroke:gray;stroke-opacity:1;stroke-miterlimit:4" transform="scale(.22222)"/><path d="m90 90 46.002 58.008a74.6 74.6 0 0 0 12.006-12.006Zm0 0" style="fill-rule:nonzero;fill:#d73;fill-opacity:1;stroke-width:1;stroke-linecap:butt;stroke-linejoin:miter;stroke:gray;stroke-opacity:1;stroke-miterlimit:4" transform="scale(.22222)"/></g></defs><path d="M177.996 90c0-48.604-39.392-87.996-87.996-87.996S2.004 41.396 2.004 90 41.396 177.996 90 177.996 177.996 138.604 177.996 90Zm0 0" style="fill-rule:nonzero;fill:#fff;fill-opacity:1;stroke-width:2;stroke-linecap:butt;stroke-linejoin:miter;stroke:gray;stroke-opacity:1;stroke-miterlimit:4" transform="scale(.22222)"/><path d="M156.006 90c0-36.457-29.549-66.006-66.006-66.006S23.994 53.543 23.994 90 53.543 156.006 90 156.006 156.006 126.457 156.006 90Zm0 0" style="fill-rule:nonzero;fill:#fff;fill-opacity:1;stroke-width:2;stroke-linecap:butt;stroke-linejoin:miter;stroke:gray;stroke-opacity:1;stroke-miterlimit:4" transform="scale(.22222)"/><path d="M133.998 90c0-24.293-19.705-43.998-43.998-43.998S46.002 65.707 46.002 90 65.707 133.998 90 133.998 133.998 114.293 133.998 90Zm0 0" style="fill-rule:nonzero;fill:#fff;fill-opacity:1;stroke-width:2;stroke-linecap:butt;stroke-linejoin:miter;stroke:gray;stroke-opacity:1;stroke-miterlimit:4" transform="scale(.22222)"/><path d="M112.008 90c0-12.146-9.862-22.008-22.008-22.008S67.992 77.854 67.992 90 77.854 112.008 90 112.008s22.008-9.862 22.008-22.008ZM90 2.004v175.992m61.998-25.998L28.002 28.002m123.996 0L28.002 151.998M177.996 90H2.004" style="fill-rule:nonzero;fill:#fff;fill-opacity:1;stroke-width:2;stroke-linecap:butt;stroke-linejoin:miter;stroke:gray;stroke-opacity:1;stroke-miterlimit:4" transform="scale(.22222)"/><use xlink:href="#c" mask="url(#d)"/></svg>