<?xml version="1.0" encoding="UTF-8"?>
<svg xmlns="http://www.w3.org/2000/svg" xmlns:xlink="http://www.w3.org/1999/xlink" width="40px" height="40px" viewBox="0 0 40 40" version="1.1">
<g id="surface1">
<path style=" stroke:none;fill-rule:nonzero;fill:rgb(0%,32.941177%,41.960785%);fill-opacity:1;" d="M 36.820312 30.65625 C 34.644531 30.605469 32.960938 30.820312 31.546875 31.417969 C 31.136719 31.582031 30.484375 31.582031 30.429688 32.097656 C 30.648438 32.316406 30.675781 32.671875 30.867188 32.96875 C 31.191406 33.511719 31.761719 34.246094 32.28125 34.628906 C 32.851562 35.0625 33.421875 35.496094 34.019531 35.878906 C 35.082031 36.53125 36.277344 36.910156 37.308594 37.5625 C 37.90625 37.945312 38.503906 38.433594 39.101562 38.839844 C 39.402344 39.058594 39.59375 39.410156 39.972656 39.546875 L 39.972656 39.464844 C 39.78125 39.222656 39.730469 38.867188 39.539062 38.597656 C 39.265625 38.324219 38.996094 38.078125 38.722656 37.808594 C 37.933594 36.746094 36.957031 35.824219 35.894531 35.0625 C 35.027344 34.464844 33.121094 33.648438 32.769531 32.644531 C 32.769531 32.644531 32.742188 32.617188 32.714844 32.589844 C 33.3125 32.535156 34.019531 32.316406 34.589844 32.152344 C 35.515625 31.910156 36.359375 31.964844 37.308594 31.71875 C 37.746094 31.609375 38.179688 31.472656 38.613281 31.335938 L 38.613281 31.09375 C 38.125 30.605469 37.773438 29.953125 37.253906 29.488281 C 35.867188 28.292969 34.347656 27.125 32.769531 26.144531 C 31.925781 25.601562 30.839844 25.25 29.941406 24.785156 C 29.617188 24.625 29.074219 24.542969 28.882812 24.269531 C 28.394531 23.671875 28.121094 22.882812 27.765625 22.175781 C 26.980469 20.679688 26.21875 19.023438 25.539062 17.445312 C 25.050781 16.386719 24.75 15.324219 24.152344 14.347656 C 21.351562 9.726562 18.308594 6.925781 13.632812 4.179688 C 12.625 3.609375 11.429688 3.363281 10.152344 3.066406 C 9.472656 3.039062 8.792969 2.984375 8.113281 2.957031 C 7.679688 2.765625 7.242188 2.25 6.863281 2.003906 C 5.3125 1.027344 1.316406 -1.09375 0.175781 1.707031 C -0.558594 3.472656 1.261719 5.214844 1.886719 6.109375 C 2.351562 6.734375 2.949219 7.441406 3.273438 8.148438 C 3.464844 8.613281 3.519531 9.101562 3.710938 9.589844 C 4.144531 10.785156 4.550781 12.117188 5.121094 13.234375 C 5.421875 13.804688 5.75 14.402344 6.128906 14.917969 C 6.347656 15.21875 6.726562 15.351562 6.808594 15.84375 C 6.429688 16.386719 6.402344 17.203125 6.183594 17.882812 C 5.203125 20.953125 5.585938 24.757812 6.972656 27.015625 C 7.40625 27.695312 8.4375 29.191406 9.824219 28.621094 C 11.050781 28.128906 10.777344 26.582031 11.128906 25.222656 C 11.210938 24.894531 11.15625 24.675781 11.320312 24.460938 C 11.320312 24.488281 11.320312 24.515625 11.320312 24.515625 C 11.703125 25.277344 12.082031 26.011719 12.433594 26.769531 C 13.277344 28.101562 14.746094 29.488281 15.96875 30.414062 C 16.621094 30.902344 17.136719 31.746094 17.953125 32.042969 L 17.953125 31.964844 L 17.898438 31.964844 C 17.738281 31.71875 17.492188 31.609375 17.273438 31.417969 C 16.785156 30.929688 16.242188 30.332031 15.859375 29.789062 C 14.71875 28.265625 13.714844 26.582031 12.816406 24.839844 C 12.382812 24 12 23.074219 11.648438 22.230469 C 11.484375 21.90625 11.484375 21.414062 11.210938 21.253906 C 10.804688 21.851562 10.207031 22.367188 9.90625 23.101562 C 9.390625 24.269531 9.335938 25.710938 9.144531 27.207031 C 9.039062 27.234375 9.089844 27.207031 9.039062 27.261719 C 8.167969 27.042969 7.867188 26.144531 7.542969 25.382812 C 6.726562 23.453125 6.589844 20.355469 7.296875 18.125 C 7.488281 17.554688 8.304688 15.761719 7.976562 15.21875 C 7.8125 14.699219 7.269531 14.402344 6.972656 13.996094 C 6.617188 13.476562 6.238281 12.824219 5.992188 12.253906 C 5.339844 10.730469 5.015625 9.046875 4.308594 7.523438 C 3.980469 6.816406 3.410156 6.082031 2.949219 5.429688 C 2.433594 4.695312 1.859375 4.179688 1.453125 3.3125 C 1.316406 3.011719 1.125 2.523438 1.34375 2.195312 C 1.398438 1.980469 1.507812 1.898438 1.726562 1.84375 C 2.078125 1.542969 3.085938 1.925781 3.4375 2.085938 C 4.441406 2.496094 5.285156 2.875 6.128906 3.445312 C 6.507812 3.71875 6.917969 4.234375 7.40625 4.371094 L 7.976562 4.371094 C 8.847656 4.5625 9.824219 4.425781 10.640625 4.667969 C 12.082031 5.132812 13.386719 5.8125 14.554688 6.546875 C 18.117188 8.800781 21.054688 12.011719 23.039062 15.84375 C 23.363281 16.46875 23.5 17.039062 23.796875 17.691406 C 24.371094 19.023438 25.078125 20.382812 25.648438 21.6875 C 26.21875 22.964844 26.761719 24.269531 27.578125 25.332031 C 27.984375 25.902344 29.617188 26.199219 30.351562 26.5 C 30.894531 26.742188 31.738281 26.960938 32.226562 27.261719 C 33.148438 27.832031 34.074219 28.484375 34.945312 29.109375 C 35.378906 29.433594 36.738281 30.113281 36.820312 30.65625 Z M 36.820312 30.65625 "/>
<path style=" stroke:none;fill-rule:nonzero;fill:rgb(0%,32.941177%,41.960785%);fill-opacity:1;" d="M 9.089844 7.035156 C 8.628906 7.035156 8.304688 7.089844 7.976562 7.171875 C 7.976562 7.171875 7.976562 7.199219 7.976562 7.226562 L 8.03125 7.226562 C 8.25 7.660156 8.628906 7.960938 8.902344 8.339844 C 9.117188 8.773438 9.308594 9.210938 9.527344 9.644531 C 9.554688 9.617188 9.582031 9.589844 9.582031 9.589844 C 9.960938 9.316406 10.152344 8.882812 10.152344 8.230469 C 9.988281 8.039062 9.960938 7.851562 9.824219 7.660156 C 9.664062 7.386719 9.308594 7.253906 9.089844 7.035156 Z M 9.089844 7.035156 "/>
</g>
</svg>
