<svg xmlns="http://www.w3.org/2000/svg" width="42" height="42"><path d="M39.914 19.047c0 9.73-8.934 17.621-19.957 17.621S0 28.778 0 19.047 8.934 1.43 19.957 1.43c11.023-.008 19.957 7.886 19.957 17.617" style="stroke:none;fill-rule:nonzero;fill:#008cc1;fill-opacity:1"/><path d="M8.848 13.27c0 .777-.715 1.41-1.594 1.41-.883 0-1.598-.633-1.598-1.41 0-.778.715-1.407 1.598-1.407.887 0 1.594.63 1.594 1.407M9.117 17.137c0 .777-.715 1.41-1.594 1.41-.878 0-1.597-.633-1.597-1.41 0-.778.719-1.41 1.597-1.41.88 0 1.594.625 1.594 1.41M10.094 21.234c0 .778-.715 1.407-1.594 1.407s-1.598-.63-1.598-1.407.72-1.41 1.598-1.41c.879-.008 1.594.625 1.594 1.41M12.281 24.902c0 .778-.719 1.41-1.597 1.41-.88 0-1.594-.632-1.594-1.41 0-.773.715-1.406 1.594-1.406.879-.008 1.597.621 1.597 1.406M29.367 30.035c0 .777-.719 1.406-1.597 1.406-.88 0-1.594-.628-1.594-1.406s.715-1.41 1.594-1.41c.878 0 1.597.633 1.597 1.41M32.266 27.004c0 .777-.715 1.41-1.594 1.41-.883 0-1.598-.633-1.598-1.41s.715-1.41 1.598-1.41c.879 0 1.594.633 1.594 1.41M23.855 5.578c0 .777-.718 1.41-1.597 1.41-.88 0-1.594-.633-1.594-1.41 0-.773.715-1.406 1.594-1.406s1.597.633 1.597 1.406M19.656 4.281c0 .778-.715 1.41-1.593 1.41-.88 0-1.598-.632-1.598-1.41s.719-1.406 1.598-1.406c.878 0 1.593.629 1.593 1.406" style="stroke:none;fill-rule:nonzero;fill:#fff;fill-opacity:1"/><path d="M30.969 5.46c5.875 0 10.636 4.204 10.636 9.388 0 5.187-4.761 9.39-10.636 9.39-5.871 0-10.633-4.203-10.633-9.39 0-5.184 4.762-9.387 10.633-9.387" style="stroke:none;fill-rule:nonzero;fill:#66b245;fill-opacity:1"/><path d="M30.969 24.488c-6.02 0-10.918-4.324-10.918-9.64 0-5.313 4.898-9.641 10.918-9.641 6.023 0 10.922 4.328 10.922 9.64 0 5.317-4.899 9.641-10.922 9.641m0-18.777c-5.707 0-10.348 4.102-10.348 9.137 0 5.039 4.64 9.14 10.348 9.14 5.71 0 10.351-4.101 10.351-9.14 0-5.036-4.64-9.137-10.351-9.137m0 0" style="stroke:none;fill-rule:nonzero;fill:#fff;fill-opacity:1"/><path d="M16.398 26.313c4.809 0 8.704 3.437 8.704 7.683 0 4.242-3.895 7.68-8.704 7.68-4.804 0-8.703-3.438-8.703-7.68 0-4.246 3.899-7.684 8.703-7.684" style="stroke:none;fill-rule:nonzero;fill:#66b245;fill-opacity:1"/><path d="M16.398 41.93c-4.953 0-8.988-3.563-8.988-7.934 0-4.375 4.035-7.934 8.988-7.934 4.957 0 8.989 3.56 8.989 7.934 0 4.371-4.032 7.934-8.989 7.934m0-15.367c-4.64 0-8.418 3.335-8.418 7.433 0 4.094 3.778 7.43 8.418 7.43 4.641 0 8.418-3.336 8.418-7.43 0-4.098-3.777-7.434-8.418-7.434m0 0" style="stroke:none;fill-rule:nonzero;fill:#fff;fill-opacity:1"/><path d="M9.234.29c3.204 0 5.801 2.292 5.801 5.12s-2.597 5.121-5.8 5.121c-3.204 0-5.801-2.293-5.801-5.12 0-2.829 2.597-5.122 5.8-5.122" style="stroke:none;fill-rule:nonzero;fill:#66b245;fill-opacity:1"/><path d="M9.234 10.781c-3.355 0-6.086-2.41-6.086-5.37 0-2.966 2.73-5.376 6.086-5.376s6.086 2.41 6.086 5.375c0 2.961-2.73 5.371-6.086 5.371m0-10.242C6.191.54 3.72 2.723 3.72 5.41c0 2.684 2.472 4.867 5.515 4.867S14.75 8.094 14.75 5.41c0-2.687-2.473-4.87-5.516-4.87m0 0" style="stroke:none;fill-rule:nonzero;fill:#fff;fill-opacity:1"/></svg>