<svg xmlns="http://www.w3.org/2000/svg" xmlns:xlink="http://www.w3.org/1999/xlink" width="40" height="38"><defs><clipPath id="b"><path d="M0 0h40v38H0z"/></clipPath><clipPath id="c"><path d="M0 0h40v38H0z"/></clipPath><clipPath id="d"><path d="M0 0h40v38H0z"/></clipPath><clipPath id="e"><path d="M0 0h40v38H0z"/></clipPath><clipPath id="f"><path d="M0 0h40v38H0z"/></clipPath><clipPath id="g"><path d="M0 0h40v38H0z"/></clipPath><mask id="i"><g filter="url(#a)"><path d="M0 0h40v38H0z" style="fill:#000;fill-opacity:.976471;stroke:none"/></g></mask><mask id="k"><g filter="url(#a)"><path d="M0 0h40v38H0z" style="fill:#000;fill-opacity:.968627;stroke:none"/></g></mask><mask id="m"><g filter="url(#a)"><path d="M0 0h40v38H0z" style="fill:#000;fill-opacity:.996078;stroke:none"/></g></mask><mask id="o"><g filter="url(#a)"><path d="M0 0h40v38H0z" style="fill:#000;fill-opacity:.980392;stroke:none"/></g></mask><mask id="q"><g filter="url(#a)"><path d="M0 0h40v38H0z" style="fill:#000;fill-opacity:.996078;stroke:none"/></g></mask><mask id="s"><g filter="url(#a)"><path d="M0 0h40v38H0z" style="fill:#000;fill-opacity:.956863;stroke:none"/></g></mask><g id="h" clip-path="url(#b)"><path d="M18.8-.04h3.516q2.474.175 4.711 1.321 1.772 1.29 2.114 3.48a23.6 23.6 0 0 1-.04 8.4 2.4 2.4 0 0 1-.078-.88H20.56v2.239h2.875v4.082q-3.597-.024-7.188-.16v-6.16h-2.633v6.558a3.95 3.95 0 0 0-1.918.879q-.118-3.699-.078-7.438H9.301q.021 3.398-.04 6.797a346 346 0 0 0-2.995-6.637 15.6 15.6 0 0 0-3.114-.16 115 115 0 0 0 0 12.16H5.31q.16-4.003.32-8c.387 1.063.84 2.106 1.355 3.118.075.183.13.367.16.562q.563.803.801 1.758.3.363.477.8a4.2 4.2 0 0 0 .8 1.68q.141.112.317.082-.235 1.71-.476 3.438-.093.135-.16.281a9.17 9.17 0 0 1-5.11-1.558 3.3 3.3 0 0 1-.559-.641.4.4 0 0 0-.32-.082.24.24 0 0 0-.078-.238A9.43 9.43 0 0 1 .28 20.84a12 12 0 0 1-.32-1.68v-2.879a12.4 12.4 0 0 1 1.355-4.242q.706-.803 1.438-1.559.508-.303 1.039-.601.499-.148.957-.36a932 932 0 0 1 17.168-.12v-.72H10.82q-.04-2.441.078-4.878.064-.744.32-1.442.587-.498 1.278-.879a21.4 21.4 0 0 1 6.305-1.52m-4.148 2.56q1.431.04 2.235 1.199.234.549.398 1.12a3.7 3.7 0 0 1-1.039 1.763q-1.378.854-2.633-.16-.984-.896-.68-2.243.106-.331.282-.64.392-.275.719-.637.38-.205.718-.402m0 0" style="stroke:none;fill-rule:evenodd;fill:#144e5a;fill-opacity:1"/></g><g id="j" clip-path="url(#c)"><path d="M37.246 12.281H35.57c-.09.461-.304.864-.64 1.2-.172.437-.41.84-.72 1.199a4 4 0 0 0-.16.48q-.659 1.101-1.355 2.16a82 82 0 0 0-.238-5.039h-1.996a11.6 11.6 0 0 0 .238-2.48q2.877 0 5.348 1.437.674.439 1.2 1.043m0 0" style="stroke:none;fill-rule:evenodd;fill:#154f5b;fill-opacity:1"/></g><g id="l" clip-path="url(#d)"><path d="M16.246 18.441V22.2h4.152v2.242h-6.785v-12.16h2.633zm0 0" style="stroke:none;fill-rule:evenodd;fill:#329797;fill-opacity:1"/></g><g id="n" clip-path="url(#e)"><path d="M38.203 13.32A14.6 14.6 0 0 1 39.961 17v6.238a11.5 11.5 0 0 1-1.559 3.282 12 12 0 0 1-1.754 1.52 8 8 0 0 1-1.078.32q-8.821.276-17.644.242v.636q5.591-.075 11.137.16a53 53 0 0 1-.083 5.043q-.073.576-.277 1.118a4.6 4.6 0 0 1-.8.68q-1.635.796-3.391 1.241-1.707.317-3.395.48h-3.512a17 17 0 0 1-3.593-.722 10.2 10.2 0 0 1-1.836-1.039 5.03 5.03 0 0 1-1.278-2.48 36 36 0 0 1-.359-1.598 31.6 31.6 0 0 1 .281-7.68h.797v-2.48q.234-.685.797-1.2a.4.4 0 0 0 .082-.32q.506-.334 1.117-.562v4.562h6.785V22.2h-4.152v-2.8q3.597.006 7.188.16v4.882h2.554c.16-1.707.211-3.437.16-5.203q.101-.039.079-.16.45-.035.878-.2a3.8 3.8 0 0 0 1.118-.597q.321-.48.8-.8.482-1.018.957-2v8.96h2.477c.156-1.359.211-2.746.156-4.16q.124-.281.242-.562h.317q.5 1.088 1.039 2.16.583.808 1.039 1.68c.148.28.258.578.32.882 1.063.024 2.13 0 3.192-.082a47 47 0 0 1-2.075-3.757q-.16-.164-.32-.32a33 33 0 0 1-1.199-2.36c.434-.797.887-1.582 1.36-2.363q.475-.316.558-.88.557-.596.797-1.359zM24.23 30.52q2.097.24 2.477 2.32-.13.586-.398 1.12a3.6 3.6 0 0 0-.641.642q-1.367.836-2.633-.16c-.828-.88-.933-1.837-.32-2.883l.637-.637q.456-.222.878-.402m0 0" style="stroke:none;fill-rule:evenodd;fill:#144e5a;fill-opacity:1"/></g><g id="p" clip-path="url(#f)"><path d="M26.148 14.52v3.601a10 10 0 0 1-.16-1.8q.001-.945.16-1.801m0 0" style="stroke:none;fill-rule:evenodd;fill:#216e75;fill-opacity:1"/></g><g id="r" clip-path="url(#g)"><path d="M26.148 14.52h2.633a7.3 7.3 0 0 1-1.195 2.718 3.5 3.5 0 0 1-.8.64c-.161.056-.317.11-.477.161a3.7 3.7 0 0 0-.082 1.04q.022.12-.079.16V14.52m0 0" style="stroke:none;fill-rule:evenodd;fill:#144d58;fill-opacity:1"/></g><filter id="a" width="100%" height="100%" x="0%" y="0%" filterUnits="objectBoundingBox"><feColorMatrix in="SourceGraphic" values="0 0 0 0 1 0 0 0 0 1 0 0 0 0 1 0 0 0 1 0"/></filter></defs><use xlink:href="#h" mask="url(#i)"/><use xlink:href="#j" mask="url(#k)"/><path d="M3.152 12.281v12.16a116 116 0 0 1 0-12.16m0 0" style="stroke:none;fill-rule:evenodd;fill:#2e8b8c;fill-opacity:1"/><path d="M3.152 12.281c1.055-.05 2.09.004 3.114.16a346 346 0 0 1 2.996 6.637q.06-3.398.039-6.797h2.316q-.04 3.74.078 7.438a16.5 16.5 0 0 0-.078 2.242v2.48H9.54a.39.39 0 0 1-.317-.082 4.2 4.2 0 0 1-.801-1.68 3 3 0 0 0-.477-.8 5.3 5.3 0 0 0-.8-1.758 2.6 2.6 0 0 0-.16-.562 28 28 0 0 1-1.356-3.118.7.7 0 0 0-.238-.32q-.123 4.16-.082 8.32H3.152zm0 0" style="stroke:none;fill-rule:evenodd;fill:#329898;fill-opacity:1"/><use xlink:href="#l" mask="url(#m)"/><path d="M29.102 13.16v1.36h-2.9539999999999997a10 10 0 0 0-.16 1.8q.001.945.16 1.801v1.117a43 43 0 0 0-.16 5.203h-2.554V14.52h-2.875V12.28h8.464q-.04.463.079.88M30.46 12.281h1.997q-.04 2.68.078 5.36a.47.47 0 0 0 .16-.32c.465-.708.914-1.426 1.356-2.16q.065-.247.16-.481.462-.541.719-1.2c.336-.335.55-.738.64-1.199h3.114c-.13.36-.29.703-.48 1.04h-.321q-.24.76-.797 1.359a1.23 1.23 0 0 1-.559.879 60 60 0 0 0-1.359 2.363q.55 1.2 1.2 2.36.16.156.32.32a47 47 0 0 0 2.074 3.757c-1.063.082-2.13.106-3.192.082a3.3 3.3 0 0 0-.32-.882 13.6 13.6 0 0 0-1.04-1.68 65 65 0 0 1-1.038-2.16h-.317q-.118.281-.242.562a27 27 0 0 0-.156 4.16H29.98v-12.16zm0 0" style="stroke:none;fill-rule:evenodd;fill:#329898;fill-opacity:1"/><path d="M32.457 12.281q.195 2.496.238 5.04a.47.47 0 0 1-.16.32 91 91 0 0 1-.078-5.36m0 0" style="stroke:none;fill-rule:evenodd;fill:#277d81;fill-opacity:1"/><use xlink:href="#n" mask="url(#o)"/><use xlink:href="#p" mask="url(#q)"/><use xlink:href="#r" mask="url(#s)"/><path d="M5.629 16.441q-.16 3.997-.32 8-.041-4.16.082-8.32a.7.7 0 0 1 .238.32M26.148 19.238c.051 1.766 0 3.496-.16 5.203-.05-1.761 0-3.496.16-5.203m0 0" style="stroke:none;fill-rule:evenodd;fill:#216e75;fill-opacity:1"/><path d="M32.613 20.281c.055 1.414 0 2.801-.156 4.16-.055-1.418 0-2.804.156-4.16m0 0" style="stroke:none;fill-rule:evenodd;fill:#287e82;fill-opacity:1"/></svg>