<?xml version="1.0" encoding="UTF-8"?>
<svg xmlns="http://www.w3.org/2000/svg" xmlns:xlink="http://www.w3.org/1999/xlink" width="31px" height="40px" viewBox="0 0 31 39" version="1.1">
<g id="surface1">
<path style=" stroke:none;fill-rule:nonzero;fill:rgb(0%,63.921571%,87.843138%);fill-opacity:1;" d="M 22.765625 24.65625 C 22.765625 24.65625 34.667969 16.070312 29.847656 10.519531 C 24.257812 4.074219 8.59375 17.738281 6.882812 14.957031 C 5.167969 12.183594 20.78125 5.523438 22.476562 4.414062 C 22.660156 4.296875 22.714844 4.0625 22.660156 3.800781 L 24.46875 3.597656 L 23.339844 3.042969 L 23.632812 1.9375 L 22.316406 2.9375 C 21.832031 2.074219 20.992188 1.144531 20.515625 0.816406 C 18.808594 -0.285156 15.691406 -0.0195312 11.160156 2.203125 C 6.625 4.421875 -3.886719 11.351562 1.492188 19.121094 C 6.316406 26.050781 20.164062 14.140625 22.476562 16.0625 C 24.457031 17.726562 9.160156 27.992188 9.160156 27.992188 C 9.160156 27.992188 15.65625 27.992188 15.683594 27.992188 C 14.558594 30.765625 9.160156 38.8125 9.160156 38.8125 L 28.789062 24.941406 C 26.730469 24.640625 22.765625 24.65625 22.765625 24.65625 Z M 17.429688 1.648438 C 18.125 1.59375 18.730469 2.125 18.78125 2.800781 C 18.835938 3.484375 18.292969 4.074219 17.605469 4.125 C 16.90625 4.175781 16.300781 3.648438 16.25 2.972656 C 16.191406 2.285156 16.730469 1.699219 17.429688 1.648438 Z M 17.429688 1.648438 "/>
</g>
</svg>
