<?xml version="1.0" encoding="UTF-8"?>
<svg xmlns="http://www.w3.org/2000/svg" xmlns:xlink="http://www.w3.org/1999/xlink" width="px" height="40px" viewBox="0 0 37 39" version="1.1">
<g id="surface1">
<path style=" stroke:none;fill-rule:nonzero;fill:rgb(30.19608%,67.058825%,81.176472%);fill-opacity:1;" d="M 27.683594 26.515625 L 27.691406 35.128906 L 19.929688 38.945312 L 19.929688 30.335938 Z M 37 21.914062 L 37 30.554688 L 30.378906 33.808594 L 30.375 25.207031 Z M 27.671875 14.984375 L 27.683594 23.511719 L 19.929688 27.300781 L 19.929688 18.777344 Z M 37 10.417969 L 37 18.890625 L 30.375 22.207031 L 30.367188 13.667969 Z M 18.75 9.417969 L 25.679688 12.863281 L 18.492188 16.417969 L 11.695312 13.054688 Z M 9.113281 4.628906 L 15.722656 7.914062 L 8.648438 11.546875 L 1.863281 8.191406 Z M 28.003906 4.675781 L 35.121094 8.191406 L 28.753906 11.339844 L 21.8125 7.890625 Z M 18.535156 0 L 24.941406 3.164062 L 18.796875 6.394531 L 12.195312 3.113281 Z M 18.535156 0 "/>
<path style=" stroke:none;fill-rule:nonzero;fill:rgb(30.19608%,46.666667%,81.176472%);fill-opacity:1;" d="M 17.191406 18.777344 L 11.964844 16.1875 L 11.964844 27.375 C 11.964844 27.375 5.570312 13.976562 4.976562 12.773438 C 4.902344 12.621094 4.585938 12.449219 4.503906 12.40625 C 3.359375 11.816406 0 10.140625 0 10.140625 L 0 29.90625 L 4.648438 32.351562 L 4.648438 22.019531 C 4.648438 22.019531 10.972656 33.992188 11.039062 34.121094 C 11.101562 34.253906 11.738281 35.515625 12.414062 35.957031 C 13.320312 36.546875 17.191406 38.839844 17.191406 38.839844 Z M 17.191406 18.777344 "/>
</g>
</svg>
