<?xml version="1.0" encoding="UTF-8"?>
<svg xmlns="http://www.w3.org/2000/svg" xmlns:xlink="http://www.w3.org/1999/xlink" width="74px" height="30px" viewBox="0 0 74 30" version="1.1">
<defs>
<filter id="alpha" filterUnits="objectBoundingBox" x="0%" y="0%" width="100%" height="100%">
  <feColorMatrix type="matrix" in="SourceGraphic" values="0 0 0 0 1 0 0 0 0 1 0 0 0 0 1 0 0 0 1 0"/>
</filter>
<mask id="mask0">
  <g filter="url(#alpha)">
<rect x="0" y="0" width="74" height="30" style="fill:rgb(0%,0%,0%);fill-opacity:0.929412;stroke:none;"/>
  </g>
</mask>
<clipPath id="clip1">
  <rect x="0" y="0" width="74" height="30"/>
</clipPath>
<g id="surface5" clip-path="url(#clip1)">
<path style=" stroke:none;fill-rule:evenodd;fill:rgb(55.686277%,55.686277%,55.686277%);fill-opacity:1;" d="M 33.324219 2.574219 C 34.515625 2.316406 35.445312 2.6875 36.109375 3.695312 C 36.257812 8.171875 36.257812 12.648438 36.109375 17.125 C 35.300781 22.003906 32.441406 24.691406 27.527344 25.1875 C 21.179688 24.292969 18.394531 20.636719 19.167969 14.214844 C 20.886719 9.453125 24.265625 7.402344 29.308594 8.058594 C 30.257812 8.242188 31.152344 8.578125 31.984375 9.066406 C 32.171875 7.429688 32.28125 5.789062 32.320312 4.140625 C 32.519531 3.53125 32.855469 3.007812 33.324219 2.574219 Z M 26.636719 11.753906 C 30.414062 11.855469 32.234375 13.796875 32.097656 17.574219 C 30.65625 21.039062 28.242188 21.972656 24.851562 20.375 C 22.382812 18.050781 22.230469 15.589844 24.40625 12.984375 C 25.136719 12.507812 25.878906 12.097656 26.636719 11.753906 Z M 26.636719 11.753906 "/>
</g>
<mask id="mask1">
  <g filter="url(#alpha)">
<rect x="0" y="0" width="74" height="30" style="fill:rgb(0%,0%,0%);fill-opacity:0.956863;stroke:none;"/>
  </g>
</mask>
<clipPath id="clip2">
  <rect x="0" y="0" width="74" height="30"/>
</clipPath>
<g id="surface8" clip-path="url(#clip2)">
<path style=" stroke:none;fill-rule:evenodd;fill:rgb(63.529414%,27.058825%,53.333336%);fill-opacity:1;" d="M 8.804688 7.949219 C 12.980469 7.5625 16.0625 9.207031 18.054688 12.875 C 19.675781 17.382812 18.601562 21.078125 14.824219 23.957031 C 11.589844 25.625 8.394531 25.546875 5.238281 23.730469 C 1.347656 20.234375 0.640625 16.164062 3.121094 11.53125 C 4.601562 9.625 6.496094 8.429688 8.804688 7.949219 Z M 9.472656 11.753906 C 13.363281 12.035156 15.109375 14.125 14.710938 18.023438 C 12.960938 21.398438 10.46875 22.109375 7.242188 20.148438 C 4.804688 17.472656 4.953125 14.933594 7.691406 12.539062 C 8.316406 12.292969 8.910156 12.03125 9.472656 11.753906 Z M 9.472656 11.753906 "/>
</g>
<mask id="mask2">
  <g filter="url(#alpha)">
<rect x="0" y="0" width="74" height="30" style="fill:rgb(0%,0%,0%);fill-opacity:0.92549;stroke:none;"/>
  </g>
</mask>
<clipPath id="clip3">
  <rect x="0" y="0" width="74" height="30"/>
</clipPath>
<g id="surface11" clip-path="url(#clip3)">
<path style=" stroke:none;fill-rule:evenodd;fill:rgb(56.078434%,56.078434%,56.078434%);fill-opacity:1;" d="M 43.796875 7.949219 C 49.015625 7.527344 52.320312 9.839844 53.71875 14.886719 C 54.132812 21.074219 51.273438 24.507812 45.136719 25.1875 C 39.230469 24.441406 36.445312 21.085938 36.777344 15.113281 C 37.671875 11.265625 40.011719 8.878906 43.796875 7.949219 Z M 44.691406 11.753906 C 47.824219 11.917969 49.609375 13.558594 50.039062 16.679688 C 49.566406 19.464844 47.933594 21.035156 45.136719 21.378906 C 40.820312 20.175781 39.667969 17.5625 41.679688 13.542969 C 42.550781 12.679688 43.550781 12.082031 44.691406 11.753906 Z M 44.691406 11.753906 "/>
</g>
<mask id="mask3">
  <g filter="url(#alpha)">
<rect x="0" y="0" width="74" height="30" style="fill:rgb(0%,0%,0%);fill-opacity:0.92549;stroke:none;"/>
  </g>
</mask>
<clipPath id="clip4">
  <rect x="0" y="0" width="74" height="30"/>
</clipPath>
<g id="surface14" clip-path="url(#clip4)">
<path style=" stroke:none;fill-rule:evenodd;fill:rgb(56.078434%,56.078434%,56.078434%);fill-opacity:1;" d="M 61.40625 7.949219 C 66.257812 7.566406 69.488281 9.65625 71.101562 14.214844 C 71.996094 19.398438 70.027344 22.941406 65.195312 24.851562 C 59.726562 25.855469 56.125 23.730469 54.386719 18.46875 C 53.730469 12.914062 56.070312 9.40625 61.40625 7.949219 Z M 62.074219 11.753906 C 65.328125 11.8125 67.1875 13.453125 67.648438 16.679688 C 67.1875 19.414062 65.59375 20.984375 62.855469 21.378906 C 60.019531 20.957031 58.421875 19.3125 58.0625 16.457031 C 58.453125 14.050781 59.789062 12.484375 62.074219 11.753906 Z M 62.074219 11.753906 "/>
</g>
</defs>
<g id="surface1">
<use xlink:href="#surface5" mask="url(#mask0)"/>
<use xlink:href="#surface8" mask="url(#mask1)"/>
<use xlink:href="#surface11" mask="url(#mask2)"/>
<use xlink:href="#surface14" mask="url(#mask3)"/>
</g>
</svg>
