<?xml version="1.0" encoding="UTF-8"?>
<svg xmlns="http://www.w3.org/2000/svg" xmlns:xlink="http://www.w3.org/1999/xlink" width="40px" height="37px" viewBox="0 0 39 37" version="1.1">
<defs>
<filter id="alpha" filterUnits="objectBoundingBox" x="0%" y="0%" width="100%" height="100%">
  <feColorMatrix type="matrix" in="SourceGraphic" values="0 0 0 0 1 0 0 0 0 1 0 0 0 0 1 0 0 0 1 0"/>
</filter>
<mask id="mask0">
  <g filter="url(#alpha)">
<rect x="0" y="0" width="39" height="37" style="fill:rgb(0%,0%,0%);fill-opacity:0.988235;stroke:none;"/>
  </g>
</mask>
<clipPath id="clip1">
  <rect x="0" y="0" width="39" height="37"/>
</clipPath>
<g id="surface5" clip-path="url(#clip1)">
<path style=" stroke:none;fill-rule:evenodd;fill:rgb(99.607843%,0%,0%);fill-opacity:1;" d="M 18.507812 0.0234375 C 22.359375 -0.195312 25.308594 1.34375 27.351562 4.644531 C 28.738281 7.265625 28.929688 9.976562 27.917969 12.773438 C 27.113281 14.75 25.808594 16.273438 24.003906 17.34375 C 23.042969 15.761719 22.121094 14.148438 21.246094 12.507812 C 22.796875 11.414062 23.324219 9.929688 22.824219 8.058594 C 22.050781 6.273438 20.707031 5.488281 18.792969 5.703125 C 16.976562 6.183594 15.984375 7.378906 15.820312 9.285156 C 15.898438 10.679688 16.511719 11.753906 17.660156 12.507812 C 16.761719 14.121094 15.847656 15.726562 14.925781 17.320312 C 14.796875 17.304688 14.671875 17.257812 14.546875 17.175781 C 11.496094 15.027344 10.101562 12.050781 10.375 8.25 C 10.914062 4.554688 12.871094 1.996094 16.246094 0.578125 C 16.988281 0.316406 17.742188 0.132812 18.507812 0.0234375 Z M 18.507812 0.0234375 "/>
</g>
<mask id="mask1">
  <g filter="url(#alpha)">
<rect x="0" y="0" width="39" height="37" style="fill:rgb(0%,0%,0%);fill-opacity:0.988235;stroke:none;"/>
  </g>
</mask>
<clipPath id="clip2">
  <rect x="0" y="0" width="39" height="37"/>
</clipPath>
<g id="surface8" clip-path="url(#clip2)">
<path style=" stroke:none;fill-rule:evenodd;fill:rgb(0%,99.607843%,0%);fill-opacity:1;" d="M 8.9375 18.308594 C 10.6875 18.28125 12.320312 18.707031 13.839844 19.582031 C 12.929688 21.222656 12.003906 22.851562 11.058594 24.464844 C 9.445312 23.644531 7.972656 23.855469 6.648438 25.089844 C 5.386719 26.664062 5.320312 28.285156 6.460938 29.953125 C 7.828125 31.410156 9.390625 31.675781 11.152344 30.746094 C 12.242188 29.992188 12.808594 28.941406 12.851562 27.59375 C 14.691406 27.59375 16.527344 27.59375 18.367188 27.59375 C 18.300781 30.882812 16.964844 33.472656 14.359375 35.363281 C 11.460938 37.195312 8.441406 37.421875 5.304688 36.039062 C 2.003906 34.257812 0.273438 31.449219 0.117188 27.617188 C 0.257812 23.949219 1.878906 21.207031 4.976562 19.390625 C 6.226562 18.742188 7.546875 18.382812 8.9375 18.308594 Z M 8.9375 18.308594 "/>
</g>
<mask id="mask2">
  <g filter="url(#alpha)">
<rect x="0" y="0" width="39" height="37" style="fill:rgb(0%,0%,0%);fill-opacity:0.988235;stroke:none;"/>
  </g>
</mask>
<clipPath id="clip3">
  <rect x="0" y="0" width="39" height="37"/>
</clipPath>
<g id="surface11" clip-path="url(#clip3)">
<path style=" stroke:none;fill-rule:evenodd;fill:rgb(0%,0%,99.607843%);fill-opacity:1;" d="M 25.253906 19.558594 C 26.195312 21.164062 27.125 22.785156 28.035156 24.417969 C 26.230469 25.75 25.800781 27.449219 26.738281 29.519531 C 27.886719 31.171875 29.402344 31.664062 31.289062 30.984375 C 32.988281 30.058594 33.65625 28.621094 33.292969 26.679688 C 33.007812 25.710938 32.449219 24.957031 31.621094 24.417969 C 32.515625 22.78125 33.433594 21.164062 34.378906 19.558594 C 37.605469 21.617188 39.113281 24.601562 38.90625 28.507812 C 38.398438 32.359375 36.378906 34.996094 32.847656 36.421875 C 29.023438 37.582031 25.730469 36.710938 22.964844 33.800781 C 20.566406 30.765625 20.082031 27.429688 21.503906 23.792969 C 22.335938 21.988281 23.585938 20.578125 25.253906 19.558594 Z M 25.253906 19.558594 "/>
</g>
</defs>
<g id="surface1">
<use xlink:href="#surface5" mask="url(#mask0)"/>
<use xlink:href="#surface8" mask="url(#mask1)"/>
<use xlink:href="#surface11" mask="url(#mask2)"/>
</g>
</svg>
