<svg xmlns="http://www.w3.org/2000/svg" xmlns:xlink="http://www.w3.org/1999/xlink" width="40px" height="41px" viewBox="0 0 40 40" version="1.1">
<g id="surface1">
<path style=" stroke:none;fill-rule:nonzero;fill:#8954e5;fill-opacity:1;" d="M 37.347656 16.371094 C 38.265625 13.648438 37.949219 10.664062 36.480469 8.1875 C 34.269531 4.386719 29.828125 2.429688 25.488281 3.351562 C 23.558594 1.203125 20.785156 -0.015625 17.878906 0 C 13.445312 -0.0117188 9.507812 2.808594 8.144531 6.976562 C 5.296875 7.554688 2.835938 9.316406 1.398438 11.8125 C -0.828125 15.601562 -0.320312 20.378906 2.652344 23.628906 C 1.734375 26.355469 2.050781 29.339844 3.519531 31.816406 C 5.730469 35.617188 10.171875 37.570312 14.511719 36.648438 C 16.4375 38.796875 19.214844 40.019531 22.121094 40 C 26.558594 40.011719 30.492188 37.1875 31.859375 33.015625 C 34.707031 32.441406 37.167969 30.679688 38.605469 28.183594 C 40.828125 24.394531 40.320312 19.617188 37.347656 16.367188 Z M 22.121094 37.386719 C 20.347656 37.390625 18.628906 36.773438 17.265625 35.652344 C 17.328125 35.617188 17.433594 35.5625 17.503906 35.519531 L 25.566406 30.917969 C 25.980469 30.6875 26.234375 30.253906 26.230469 29.785156 L 26.230469 18.554688 L 29.640625 20.5 C 29.675781 20.515625 29.699219 20.550781 29.703125 20.589844 L 29.703125 29.890625 C 29.699219 34.027344 26.308594 37.378906 22.121094 37.386719 Z M 5.816406 30.507812 C 4.925781 28.988281 4.605469 27.210938 4.910156 25.484375 C 4.972656 25.519531 5.078125 25.585938 5.152344 25.625 L 13.214844 30.226562 C 13.625 30.460938 14.128906 30.460938 14.539062 30.226562 L 24.386719 24.609375 L 24.386719 28.496094 C 24.386719 28.539062 24.371094 28.578125 24.339844 28.601562 L 16.1875 33.25 C 12.554688 35.316406 7.917969 34.089844 5.820312 30.507812 Z M 3.695312 13.121094 C 4.578125 11.601562 5.980469 10.4375 7.644531 9.832031 C 7.644531 9.902344 7.640625 10.023438 7.640625 10.109375 L 7.640625 19.3125 C 7.636719 19.777344 7.890625 20.210938 8.300781 20.445312 L 18.148438 26.058594 L 14.738281 28 C 14.703125 28.023438 14.660156 28.027344 14.621094 28.011719 L 6.46875 23.359375 C 2.847656 21.285156 1.601562 16.707031 3.691406 13.121094 Z M 31.695312 19.558594 L 21.851562 13.941406 L 25.261719 12 C 25.292969 11.976562 25.335938 11.972656 25.375 11.988281 L 33.527344 16.636719 C 37.160156 18.710938 38.402344 23.296875 36.304688 26.878906 C 35.417969 28.398438 34.019531 29.5625 32.355469 30.167969 L 32.355469 20.6875 C 32.359375 20.222656 32.109375 19.789062 31.699219 19.554688 L 31.695312 19.554688 Z M 35.089844 14.515625 C 35.03125 14.476562 34.925781 14.414062 34.851562 14.375 L 26.785156 9.773438 C 26.378906 9.539062 25.871094 9.539062 25.460938 9.773438 L 15.613281 15.386719 L 15.613281 11.5 C 15.613281 11.460938 15.632812 11.421875 15.664062 11.398438 L 23.816406 6.75 C 27.445312 4.683594 32.089844 5.914062 34.179688 9.503906 C 35.066406 11.015625 35.386719 12.789062 35.085938 14.515625 Z M 13.761719 21.445312 L 10.351562 19.5 C 10.316406 19.484375 10.292969 19.449219 10.285156 19.40625 L 10.285156 10.109375 C 10.289062 5.96875 13.691406 2.613281 17.882812 2.613281 C 19.65625 2.613281 21.371094 3.230469 22.734375 4.347656 C 22.671875 4.382812 22.566406 4.441406 22.496094 4.484375 L 14.429688 9.082031 C 14.015625 9.3125 13.765625 9.746094 13.765625 10.214844 L 13.761719 21.441406 Z M 15.613281 17.5 L 20 15 L 24.382812 17.5 L 24.382812 22.5 L 20 25 L 15.613281 22.5 Z M 15.613281 17.5 "/>
</g>
</svg>