<svg xmlns="http://www.w3.org/2000/svg" xmlns:xlink="http://www.w3.org/1999/xlink" width="px" height="40px" viewBox="-3 -3 31 45" version="1.1"><g id="deeditor_bgCarrier" stroke-width="0">
    <rect id="dee_c_e" x="-3" y="-3" width="31" height="45" rx="0" fill="#8e83c2" strokewidth="0"/>
  </g>
<g id="surface1">
<path style=" stroke:none;fill-rule:nonzero;fill:#130754;fill-opacity:1;" d="M 6.980469 2.300781 L 11.328125 2.300781 L 11.328125 11.132812 L 6.980469 11.132812 Z M 6.980469 20.445312 L 11.328125 20.445312 L 11.328125 29.277344 L 6.980469 29.277344 Z M 0 9.5625 L 4.347656 9.5625 L 4.347656 38.925781 L 0 38.925781 Z M 13.816406 27.734375 L 18.164062 27.734375 L 18.164062 36.566406 L 13.816406 36.566406 Z M 13.816406 9.574219 L 18.164062 9.574219 L 18.164062 18.40625 L 13.816406 18.40625 Z M 20.652344 0 L 25 0 L 25 29.363281 L 20.652344 29.363281 Z M 20.652344 0 "/>
<path style=" stroke:none;fill-rule:nonzero;fill:rgb(100%,79.215688%,0%);fill-opacity:1;" d="M 6.980469 13.710938 L 11.328125 13.710938 L 11.328125 17.878906 L 6.980469 17.878906 Z M 6.980469 13.710938 "/>
<path style=" stroke:none;fill-rule:nonzero;fill:rgb(90.588236%,1.568628%,53.333336%);fill-opacity:1;" d="M 13.816406 20.988281 L 18.164062 20.988281 L 18.164062 25.152344 L 13.816406 25.152344 Z M 13.816406 20.988281 "/>
</g>
</svg>