<svg xmlns="http://www.w3.org/2000/svg" width="40" height="40"><path d="M18 1v1zh-2a14 14 0 0 1 2 0m0 0" style="stroke:none;fill-rule:evenodd;fill:#555f3f;fill-opacity:1"/><path d="M21 1a4.03 4.03 0 0 1 2 0l-1 1V1Zm0 0" style="stroke:none;fill-rule:evenodd;fill:#c46423;fill-opacity:1"/><path d="M24 1h1c-.55 0-1 .45-1 1Zm0 0" style="stroke:none;fill-rule:evenodd;fill:#ba6f29;fill-opacity:1"/><path d="M16 1h1v2q.43.57 1 1v1h-1l-2-2-1-2Zm0 0" style="stroke:none;fill-rule:evenodd;fill:#2c351a;fill-opacity:1"/><path d="M21 1h1v2l-1-1Zm0 0" style="stroke:none;fill-rule:evenodd;fill:#c43c1f;fill-opacity:1"/><path d="M18 1h2c.035.332.035.668 0 1a1 1 0 0 1-1 0V1a1.12 1.12 0 0 1-2 1V1zv1Zm0 0" style="stroke:none;fill-rule:evenodd;fill:#7d234b;fill-opacity:1"/><path d="m25 1 1 1v1l-1-1h-1c0-.55.45-1 1-1m0 0" style="stroke:none;fill-rule:evenodd;fill:#c44f18;fill-opacity:1"/><path d="M23 1a10 10 0 0 1-1 2V1Zm0 0" style="stroke:none;fill-rule:evenodd;fill:#62293b;fill-opacity:1"/><path d="M23 1h1v1l-1 1h-1c.406-.629.742-1.297 1-2m0 0" style="stroke:none;fill-rule:evenodd;fill:#762327;fill-opacity:1"/><path d="m14 1 1 2-2 1-1-1V2Zm0 0" style="stroke:none;fill-rule:evenodd;fill:#4b5033;fill-opacity:1"/><path d="M21 4a2 2 0 0 1-1 0h-2a5 5 0 0 1-1-1l1-1Zm0 0" style="stroke:none;fill-rule:evenodd;fill:#323a31;fill-opacity:1"/><path d="M20 1h1a7 7 0 0 0 0 1h-1v1h-1 2v1l-3-2-1 1V2a1.12 1.12 0 0 0 2-1v2l1-1a4.8 4.8 0 0 0 0-1m0 0" style="stroke:none;fill-rule:evenodd;fill:#65222d;fill-opacity:1"/><path d="M19 2c.309.18.691.18 1 0l-1 1Zm0 0" style="stroke:none;fill-rule:evenodd;fill:#41382a;fill-opacity:1"/><path d="M21 1v1l1 1V2v1h-2V2h1a7 7 0 0 1 0-1m0 0" style="stroke:none;fill-rule:evenodd;fill:#982b28;fill-opacity:1"/><path d="M24 2h1v1h-2Zm0 0" style="stroke:none;fill-rule:evenodd;fill:#602932;fill-opacity:1"/><path d="M26 2a1 1 0 0 1 1 0l-1 1Zm0 0" style="stroke:none;fill-rule:evenodd;fill:#c0553b;fill-opacity:1"/><path d="M26 3a1 1 0 0 0-1 0h-2 2V2Zm0 0" style="stroke:none;fill-rule:evenodd;fill:#882c2a;fill-opacity:1"/><path d="m28 3 1 2a5 5 0 0 1-1-1l-1-1Zm0 0" style="stroke:none;fill-rule:evenodd;fill:#cfc6b1;fill-opacity:1"/><path d="M26 3v1l-1-1a1 1 0 0 1 1 0m0 0" style="stroke:none;fill-rule:evenodd;fill:#583930;fill-opacity:1"/><path d="m12 3 1 1v2a1 1 0 0 0-1 0V5l1-1a4 4 0 0 1-1 0Zm0 0" style="stroke:none;fill-rule:evenodd;fill:#394524;fill-opacity:1"/><path d="M23 3h2l-1 1Zm0 0" style="stroke:none;fill-rule:evenodd;fill:#c66b15;fill-opacity:1"/><path d="M22 3h1v1Zm0 0" style="stroke:none;fill-rule:evenodd;fill:#815c2e;fill-opacity:1"/><path d="M27 2c.445.2.8.555 1 1h-1l1 1h-2V3Zm0 0" style="stroke:none;fill-rule:evenodd;fill:#ac9a7f;fill-opacity:1"/><path d="m25 3 1 1v1l-2-1Zm0 0" style="stroke:none;fill-rule:evenodd;fill:#d5502b;fill-opacity:1"/><path d="m23 3 1 1a3 3 0 0 0-1 0l1 1a1 1 0 0 1-1 0l-1-1Zm0 0" style="stroke:none;fill-rule:evenodd;fill:#bb3914;fill-opacity:1"/><path d="M21 3h1v1l1 1c.086.328.086.672 0 1V5a2 2 0 0 1-1 0l-1-1Zm0 0" style="stroke:none;fill-rule:evenodd;fill:#8e0d3d;fill-opacity:1"/><path d="M20 4c.055.332.055.668 0 1l-1 1a1 1 0 0 0-1 0V4Zm0 0" style="stroke:none;fill-rule:evenodd;fill:#672041;fill-opacity:1"/><path d="M24 4v1l-1-1a3 3 0 0 1 1 0m0 0" style="stroke:none;fill-rule:evenodd;fill:#e47e13;fill-opacity:1"/><path d="m26 4 1 1c0 .55-.45 1-1 1Zm0 0" style="stroke:none;fill-rule:evenodd;fill:#bd6693;fill-opacity:1"/><path d="m21 4 1 1c.328.086.672.086 1 0v1h-1a2 2 0 0 0-2-1Zm0 0" style="stroke:none;fill-rule:evenodd;fill:#c22372;fill-opacity:1"/><path d="M26 4h2c.285.379.621.715 1 1v1l-2-1Zm0 0" style="stroke:none;fill-rule:evenodd;fill:#556226;fill-opacity:1"/><path d="m24 4 2 1h-1v1h-1V5v1h-2 1a2 2 0 0 0 0-1c.309.18.691.18 1 0Zm0 0" style="stroke:none;fill-rule:evenodd;fill:#74092d;fill-opacity:1"/><path d="M18 5v1l-1-1Zm0 0" style="stroke:none;fill-rule:evenodd;fill:#b06392;fill-opacity:1"/><path d="m21 4-1 1a2 2 0 0 1 2 1h-1v2a9 9 0 0 0-1 0l-1-1a3 3 0 0 0 0-1h-1a1 1 0 0 1 1 0l1-1a3 3 0 0 0 0-1c.328.086.672.086 1 0m0 0" style="stroke:none;fill-rule:evenodd;fill:#5d1b2d;fill-opacity:1"/><path d="M25 6h-1c-.55 0-1 .45-1 1 0-.55-.45-1-1-1h2V5v1Zm0 0" style="stroke:none;fill-rule:evenodd;fill:#b13a6e;fill-opacity:1"/><path d="M26 5v1h-1l1 1a1 1 0 0 1-1 0v1a3 3 0 0 0-1 0h-1l-1-2c.55 0 1 .45 1 1 0-.55.45-1 1-1h1V5Zm0 0" style="stroke:none;fill-rule:evenodd;fill:#75233d;fill-opacity:1"/><path d="M22 6v2h-1V6Zm0 0" style="stroke:none;fill-rule:evenodd;fill:#372c14;fill-opacity:1"/><path d="M26 6a1 1 0 0 0 0 1l-1-1Zm0 0" style="stroke:none;fill-rule:evenodd;fill:#bf4586;fill-opacity:1"/><path d="M26 6h1l-1 1a1 1 0 0 1 0-1m0 0" style="stroke:none;fill-rule:evenodd;fill:#cc88ae;fill-opacity:1"/><path d="m27 5 2 1v1l-1-1a1 1 0 0 0-1 0h-1c.55 0 1-.45 1-1m0 0" style="stroke:none;fill-rule:evenodd;fill:#394617;fill-opacity:1"/><path d="M29 7v2l-2-1h2l-1-1V6Zm0 0" style="stroke:none;fill-rule:evenodd;fill:#495b23;fill-opacity:1"/><path d="m22 6 1 2h1v1h-2Zm0 0" style="stroke:none;fill-rule:evenodd;fill:#562417;fill-opacity:1"/><path d="M26 7v2l-1-1V7c.309.18.691.18 1 0m0 0" style="stroke:none;fill-rule:evenodd;fill:#9c4c1c;fill-opacity:1"/><path d="M25 8h-1a3 3 0 0 1 1 0m0 0" style="stroke:none;fill-rule:evenodd;fill:#c6767f;fill-opacity:1"/><path d="M26 6h1l2 2h-2l-1-1 1-1Zm0 0" style="stroke:none;fill-rule:evenodd;fill:#63753a;fill-opacity:1"/><path d="M12 2v2q.5.065 1 0l-1 1v2h-1 5l1 1 1-1-2-1a2.98 2.98 0 0 0 0-2l2 2h1c.055.332.055.668 0 1l1 1c-.734.18-1.418.52-2 1h-7V8a24.4 24.4 0 0 1 0-4Zm2 2v1l1 1c1-1 0-2-1-2m0 0" style="stroke:none;fill-rule:evenodd;fill:#272e1a;fill-opacity:1"/><path d="m16 6 2 1-1 1-1-1h-3Zm0 0" style="stroke:none;fill-rule:evenodd;fill:#333917;fill-opacity:1"/><path d="M13 6v1h-2 1V6a1 1 0 0 1 1 0m0 0" style="stroke:none;fill-rule:evenodd;fill:#465624;fill-opacity:1"/><path d="M24 8h1zv1h-1 1Zm0 0" style="stroke:none;fill-rule:evenodd;fill:#91440a;fill-opacity:1"/><path d="m26 7 1 1v1a1 1 0 0 0-1 0zv1Zm0 0" style="stroke:none;fill-rule:evenodd;fill:#c87117;fill-opacity:1"/><path d="M20 8a9 9 0 0 1 1 0zv1h-2a5 5 0 0 1 2-1m0 0" style="stroke:none;fill-rule:evenodd;fill:#7e470f;fill-opacity:1"/><path d="M21 8h1v2q0-1.5 0 0a2 2 0 0 0-1 0V9l-1-1Zm0 0" style="stroke:none;fill-rule:evenodd;fill:#904c04;fill-opacity:1"/><path d="M24 8h1v1h-1Zm0 0" style="stroke:none;fill-rule:evenodd;fill:#e0b108;fill-opacity:1"/><path d="m25 8 1 1h-1Zm0 0" style="stroke:none;fill-rule:evenodd;fill:#ae8c74;fill-opacity:1"/><path d="m20 8 1 1h-1Zm0 0" style="stroke:none;fill-rule:evenodd;fill:#26220c;fill-opacity:1"/><path d="m27 8 2 1h-1a1 1 0 0 0-1 0Zm0 0" style="stroke:none;fill-rule:evenodd;fill:#6e7e47;fill-opacity:1"/><path d="M27 9h-1a1 1 0 0 1 1 0m0 0" style="stroke:none;fill-rule:evenodd;fill:#eda228;fill-opacity:1"/><path d="M23 9h4a3 3 0 0 0 0 1h-1v1h1-3l1-1-1 1-1-1h1-1Zm0 0" style="stroke:none;fill-rule:evenodd;fill:#be5319;fill-opacity:1"/><path d="M28 9h1v4l-1-1v-2h-1V9a1 1 0 0 1 1 0m0 0" style="stroke:none;fill-rule:evenodd;fill:#4c5a27;fill-opacity:1"/><path d="M23 9v1h1-2V9Zm0 0" style="stroke:none;fill-rule:evenodd;fill:#e29607;fill-opacity:1"/><path d="M27 9v1a3 3 0 0 1 0-1m0 0" style="stroke:none;fill-rule:evenodd;fill:#ac3842;fill-opacity:1"/><path d="M22 10h-1a2 2 0 0 1 1 0q0-1.5 0 0m0 0" style="stroke:none;fill-rule:evenodd;fill:#b66905;fill-opacity:1"/><path d="M20 9h1v3-1 1h-2v-2h1Zm0 0" style="stroke:none;fill-rule:evenodd;fill:#783307;fill-opacity:1"/><path d="M21 10h1v1a1 1 0 0 0-1 0Zm0 0" style="stroke:none;fill-rule:evenodd;fill:#41220f;fill-opacity:1"/><path d="m23 10 1 1h-1v1a1 1 0 0 0 0-1 4 4 0 0 0-1 0v-1Zm0 0" style="stroke:none;fill-rule:evenodd;fill:#752b04;fill-opacity:1"/><path d="M27 10h1v1a1 1 0 0 1-1 0h-1v-1Zm0 0" style="stroke:none;fill-rule:evenodd;fill:#d77f22;fill-opacity:1"/><path d="m30 10 5 1 2 1a16 16 0 0 1-4 0h-2l-1 1Zm0 0" style="stroke:none;fill-rule:evenodd;fill:#5274c1;fill-opacity:1"/><path d="M12 10v2h1a6.9 6.9 0 0 1-2 0 1 1 0 0 0 0-1Zm0 0" style="stroke:none;fill-rule:evenodd;fill:#cf3d26;fill-opacity:1"/><path d="m12 10-1 1h-1c0 .55.45 1 1 1H7v-1c.332.043.668.043 1 0a9 9 0 0 0-3 0h1Zm0 0" style="stroke:none;fill-rule:evenodd;fill:#e07017;fill-opacity:1"/><path d="M21 11a1 1 0 0 1 1 0 4 4 0 0 1 1 0c.18.309.18.691 0 1h1v-1 1h-1v1c-.55 0-1-.45-1-1v2-1h-1v1-2q0 1.5 0 0zv1Zm0 0" style="stroke:none;fill-rule:evenodd;fill:#923f05;fill-opacity:1"/><path d="M24 11v1h-1v-1Zm0 0" style="stroke:none;fill-rule:evenodd;fill:#372f10;fill-opacity:1"/><path d="m5 11 1 1H5a4 4 0 0 0 0 1Zm0 0" style="stroke:none;fill-rule:evenodd;fill:#b95046;fill-opacity:1"/><path d="m24 11 1 1h-1zl1-1Zm0 0" style="stroke:none;fill-rule:evenodd;fill:#d18209;fill-opacity:1"/><path d="M27 11v1h1-1a2 2 0 0 1 0-1h-1Zm0 0" style="stroke:none;fill-rule:evenodd;fill:#ebbc06;fill-opacity:1"/><path d="M11 11c.18.309.18.691 0 1-.55 0-1-.45-1-1Zm0 0" style="stroke:none;fill-rule:evenodd;fill:#f2980e;fill-opacity:1"/><path d="M12 11h2v1l-1 1h1v1l-1-1v-1h-1Zm0 0" style="stroke:none;fill-rule:evenodd;fill:#af294d;fill-opacity:1"/><path d="M16 11c.55 0 1 .45 1 1v-1h1a2.98 2.98 0 0 1 0 2c.25.41.59.75 1 1h-2a2 2 0 0 1-1 0 4.03 4.03 0 0 1 0-2h-1v-1Zm0 0" style="stroke:none;fill-rule:evenodd;fill:#b7286b;fill-opacity:1"/><path d="M7 12H5h1l-1-1a9 9 0 0 1 3 0 4 4 0 0 1-1 0Zm0 0" style="stroke:none;fill-rule:evenodd;fill:#b93007;fill-opacity:1"/><path d="M28 11v2l-1-1s-1 0 0 0v-1a2 2 0 0 0 0 1h1-1v-1c.309.18.691.18 1 0m0 0" style="stroke:none;fill-rule:evenodd;fill:#ca8810;fill-opacity:1"/><path d="M5 11v1l-1 1H3v-1a3 3 0 0 1 2-1m0 0" style="stroke:none;fill-rule:evenodd;fill:#bc3521;fill-opacity:1"/><path d="M12 11v-1h3l1 1h-1v1h1l-2 2v-1c.2-.445.555-.8 1-1v-1h-1v1-1Zm0 0" style="stroke:none;fill-rule:evenodd;fill:#be3c7f;fill-opacity:1"/><path d="M26 11h1v1h-1Zm0 0" style="stroke:none;fill-rule:evenodd;fill:#3f3b1e;fill-opacity:1"/><path d="M5 12h2v1a5.9 5.9 0 0 0-2 0 4 4 0 0 1 0-1m0 0" style="stroke:none;fill-rule:evenodd;fill:#e36527;fill-opacity:1"/><path d="M14 13h-1l1-1v-1h1v1c-.445.2-.8.555-1 1m0 0" style="stroke:none;fill-rule:evenodd;fill:#c41472;fill-opacity:1"/><path d="m24 12-1 1v-1Zm0 0" style="stroke:none;fill-rule:evenodd;fill:#dfb209;fill-opacity:1"/><path d="M26 11v1l-1 1a1 1 0 0 1 0-1v-1q0 1.5 0 0Zm0 0" style="stroke:none;fill-rule:evenodd;fill:#822719;fill-opacity:1"/><path d="M7 12h1v1-1Zm0 0" style="stroke:none;fill-rule:evenodd;fill:#971d0e;fill-opacity:1"/><path d="M24 11h1q0 1.5 0 0v1a1 1 0 0 0 0 1l1-1c-.27.39-.61.73-1 1h-1v1h-2v-2c0 .55.45 1 1 1l1-1h1Zm0 0" style="stroke:none;fill-rule:evenodd;fill:#5e2d1a;fill-opacity:1"/><path d="M10 12v1a6 6 0 0 0-1 0H8l-1-1Zm0 0" style="stroke:none;fill-rule:evenodd;fill:#bb2f0e;fill-opacity:1"/><path d="m27 12 1 1a12 12 0 0 0-2 0c.25-.41.59-.75 1-1m0 0" style="stroke:none;fill-rule:evenodd;fill:#393a1b;fill-opacity:1"/><path d="m28 12 1 1a1 1 0 0 1-1 0Zm0 0" style="stroke:none;fill-rule:evenodd;fill:#e4bb13;fill-opacity:1"/><path d="m37 12 1 2h-5l-1-1a4.03 4.03 0 0 0-2 0l1-1h2c1.328.168 2.672.168 4 0m0 0" style="stroke:none;fill-rule:evenodd;fill:#668ad1;fill-opacity:1"/><path d="M7 12h1v1a1 1 0 0 1-1 0Zm0 0" style="stroke:none;fill-rule:evenodd;fill:#794b1c;fill-opacity:1"/><path d="m10 13-1 1c-.25-.41-.59-.75-1-1h1a6 6 0 0 1 1 0m0 0" style="stroke:none;fill-rule:evenodd;fill:#e56627;fill-opacity:1"/><path d="M11 12a6.9 6.9 0 0 0 2 0l-1 1h-2v1a2 2 0 0 0-1 0l1-1v-1Zm0 0" style="stroke:none;fill-rule:evenodd;fill:#980c30;fill-opacity:1"/><path d="M5 12v1a5.9 5.9 0 0 1 2 0c.309.18.691.18 1 0 .41.25.75.59 1 1l-1-1-1 1a4.8 4.8 0 0 0 0-1H4Zm0 0" style="stroke:none;fill-rule:evenodd;fill:#a0252e;fill-opacity:1"/><path d="M29 13v1h-1 1l-1-1c.309.18.691.18 1 0m0 0" style="stroke:none;fill-rule:evenodd;fill:#de925b;fill-opacity:1"/><path d="M22 14h-1v-1h1Zm0 0" style="stroke:none;fill-rule:evenodd;fill:#efb70c;fill-opacity:1"/><path d="M27 12c-1 0 0 0 0 0-.41.25-.75.59-1 1v2h1v1l-1-1h-1v-1h-1v-1h1c.39-.27.73-.61 1-1Zm0 0" style="stroke:none;fill-rule:evenodd;fill:#a33a2d;fill-opacity:1"/><path d="M3 12v1h1l-1 1a9 9 0 0 1 3 0v1H5v1H3a7 7 0 0 0 0 1v1H2v-1h1l-1-1a6 6 0 0 1-1 0v-1h1l1-1H2a2 2 0 0 1 1-2m0 0" style="stroke:none;fill-rule:evenodd;fill:#600e27;fill-opacity:1"/><path d="m28 13 1 1h-2v2-1h-1 1l-1-1v-1q.5-.024 1 0Zm0 0" style="stroke:none;fill-rule:evenodd;fill:#95462f;fill-opacity:1"/><path d="M13 12v1l1 1h-1l-1-1a1 1 0 0 0 0 1h-2v-1h2Zm0 0" style="stroke:none;fill-rule:evenodd;fill:#c5116b;fill-opacity:1"/><path d="M15 13h1l-1 1s0 1 0 0Zm0 0" style="stroke:none;fill-rule:evenodd;fill:#7d1637;fill-opacity:1"/><path d="M28 14v1l-1-1Zm0 0" style="stroke:none;fill-rule:evenodd;fill:#40411f;fill-opacity:1"/><path d="M25 15c-.41-.25-.75-.59-1-1h1Zm0 0" style="stroke:none;fill-rule:evenodd;fill:#e1b220;fill-opacity:1"/><path d="m26 14 1 1h-1Zm0 0" style="stroke:none;fill-rule:evenodd;fill:#db9f18;fill-opacity:1"/><path d="M3 13h4q.053.5 0 1l1-1 1 1a2 2 0 0 1 1 0h2a1 1 0 0 1 0-1l1 1v1h-2v1q.459.541 1 1v1a2 2 0 0 0-1 0v-2l-1-1v-1l-1 1H8v-1a4 4 0 0 1-1 0H6v1H5h1v-1a9 9 0 0 0-3 0l1-1Zm0 0" style="stroke:none;fill-rule:evenodd;fill:#790c24;fill-opacity:1"/><path d="M8 15H6v-1h1c.332.043.668.043 1 0Zm0 0" style="stroke:none;fill-rule:evenodd;fill:#cb3552;fill-opacity:1"/><path d="M10 15H9l1-1Zm0 0" style="stroke:none;fill-rule:evenodd;fill:#b50a51;fill-opacity:1"/><path d="M21 13v1h2v1h-1l-1 1 1 1h1a2 2 0 0 1 0-1h1v1h1v2l1-1a2 2 0 0 0 0 1h-8q1.5.075 3 0a2 2 0 0 1 0-1 16.7 16.7 0 0 1 0-3 2 2 0 0 0 0-1h-2Zm0 0" style="stroke:none;fill-rule:evenodd;fill:#2e3215;fill-opacity:1"/><path d="M23 14h1v1h-1Zm0 0" style="stroke:none;fill-rule:evenodd;fill:#eac316;fill-opacity:1"/><path d="M2 14h1l-1 1H1Zm0 0" style="stroke:none;fill-rule:evenodd;fill:#6f2a23;fill-opacity:1"/><path d="M24 14c.25.41.59.75 1 1h1v1a1.98 1.98 0 0 1-1-1v1h-1l-1-1h1Zm0 0" style="stroke:none;fill-rule:evenodd;fill:#5f361b;fill-opacity:1"/><path d="M28 14h1v3h-1v-1q.468-.531 1-1h-1Zm0 0" style="stroke:none;fill-rule:evenodd;fill:#e2b330;fill-opacity:1"/><path d="M38 14v1a12 12 0 0 0-2 0 5 5 0 0 0-3-1h-2l-1 1v-2a4.03 4.03 0 0 1 2 0l1 1Zm0 0" style="stroke:none;fill-rule:evenodd;fill:#7f9fe0;fill-opacity:1"/><path d="M16 12a4.03 4.03 0 0 0 0 2v1a4.8 4.8 0 0 0-1 0l1 1h-1l-1-1v-1l1-1v1c0 1 0 0 0 0l1-1h-1Zm0 0" style="stroke:none;fill-rule:evenodd;fill:#a63b66;fill-opacity:1"/><path d="m13 14 1 1c.445.2.8.555 1 1v1l-1-1a3 3 0 0 0-1 0Zm0 0" style="stroke:none;fill-rule:evenodd;fill:#c22681;fill-opacity:1"/><path d="M12 15h1v1h-1Zm0 0" style="stroke:none;fill-rule:evenodd;fill:#a9346c;fill-opacity:1"/><path d="M38 15a8 8 0 0 1 1 2h-9q1.5.075 3 0v-1h2l-3-1h-2l1-1h2c1.082 0 2.133.352 3 1a12 12 0 0 1 2 0m0 0" style="stroke:none;fill-rule:evenodd;fill:#8dadea;fill-opacity:1"/><path d="M18 14v1zc-.2.445-.555.8-1 1q0 1.5 0 0h-1v1h1-2a1.98 1.98 0 0 0-1-1l-1-1h1v1l1 1h1l-1-1a4.8 4.8 0 0 1 1 0v-1c.328.086.672.086 1 0Zm0 0" style="stroke:none;fill-rule:evenodd;fill:#861843;fill-opacity:1"/><path d="m27 14 1 1h1q-.532.469-1 1h-1Zm0 0" style="stroke:none;fill-rule:evenodd;fill:#eac20a;fill-opacity:1"/><path d="M30 10v5h2l3 1h-2v1q-1.5.075-3 0Zm0 0" style="stroke:none;fill-rule:evenodd;fill:#9db9f2;fill-opacity:1"/><path d="M19 16h-1v-1Zm0 0" style="stroke:none;fill-rule:evenodd;fill:#a22d61;fill-opacity:1"/><path d="M26 16h-1v-1c.2.445.555.8 1 1m0 0" style="stroke:none;fill-rule:evenodd;fill:#903124;fill-opacity:1"/><path d="M18 15v1h-3v1c.25-.41.59-.75 1-1h1-1v-1h1q0 1.5 0 0c.445-.2.8-.555 1-1Zm0 0" style="stroke:none;fill-rule:evenodd;fill:#b23674;fill-opacity:1"/><path d="M27 16h-1v1-2Zm0 0" style="stroke:none;fill-rule:evenodd;fill:#c9940b;fill-opacity:1"/><path d="m10 15 1 1a3 3 0 0 0-1 0H9a1 1 0 0 0 0-1Zm0 0" style="stroke:none;fill-rule:evenodd;fill:#aa3605;fill-opacity:1"/><path d="M12 15v1h1a3 3 0 0 1 1 0l1 1h-1l-1-1-1 1-1-2Zm0 0" style="stroke:none;fill-rule:evenodd;fill:#7f1644;fill-opacity:1"/><path d="M18 15v1a2 2 0 0 1-1 0h1Zm0 0" style="stroke:none;fill-rule:evenodd;fill:#d02790;fill-opacity:1"/><path d="M6 15h1q1.5 0 0 0h1a2 2 0 0 0 0 1 1 1 0 0 1-1 0v1l-1-1H5v-1Zm0 0" style="stroke:none;fill-rule:evenodd;fill:#8d3005;fill-opacity:1"/><path d="M23 15h1zl1 1h-1a2 2 0 0 0 0 1h-1v-1h-1l1-1Zm0 0" style="stroke:none;fill-rule:evenodd;fill:#7c391d;fill-opacity:1"/><path d="m5 16-2 1a7 7 0 0 1 0-1Zm0 0" style="stroke:none;fill-rule:evenodd;fill:#7f2d05;fill-opacity:1"/><path d="M5 16h1l1 1a3 3 0 0 0-2-1v1l1 1-1 1v-2 1a3 3 0 0 0-1 0l-1-1Zm0 0" style="stroke:none;fill-rule:evenodd;fill:#b95e07;fill-opacity:1"/><path d="m11 15 1 2a8.6 8.6 0 0 1-1-1Zm0 0" style="stroke:none;fill-rule:evenodd;fill:#cd5ba1;fill-opacity:1"/><path d="m19 16-2 1 1-1h-1c.328.086.672.086 1 0Zm0 0" style="stroke:none;fill-rule:evenodd;fill:#cd689a;fill-opacity:1"/><path d="M28 16v1h1-1a1 1 0 0 1-1 0v-1Zm0 0" style="stroke:none;fill-rule:evenodd;fill:#965c0d;fill-opacity:1"/><path d="M29 15c.55 0 1 .45 1 1s-.45 1-1 1Zm0 0" style="stroke:none;fill-rule:evenodd;fill:#a49a69;fill-opacity:1"/><path d="M15 10h4v2h2v1l-2 1h2c.086.328.086.672 0 1a16.7 16.7 0 0 0 0 3 2 2 0 0 0 0 1q-1.5.075-3 0a1 1 0 0 0 0-1h1l-1-1h1a1 1 0 0 1 0-1l-1-1v-1h1c-.41-.25-.75-.59-1-1a2.98 2.98 0 0 0 0-2h-1v1c0-.55-.45-1-1-1Zm0 0" style="stroke:none;fill-rule:evenodd;fill:#212511;fill-opacity:1"/><path d="M21 16h1v1Zm0 0" style="stroke:none;fill-rule:evenodd;fill:#cf8e64;fill-opacity:1"/><path d="M25 16v1a1 1 0 0 1-1 0v-1Zm0 0" style="stroke:none;fill-rule:evenodd;fill:#d19e18;fill-opacity:1"/><path d="M27 16v1h-1v-1Zm0 0" style="stroke:none;fill-rule:evenodd;fill:#e4c20b;fill-opacity:1"/><path d="M19 16a1 1 0 0 0 0 1h-1a3 3 0 0 0 0 1 2 2 0 0 0 0-1l-1 1a1 1 0 0 1-1 0h1v-1Zm0 0" style="stroke:none;fill-rule:evenodd;fill:#aa3f75;fill-opacity:1"/><path d="m9 18 1 1H7v-2h1a1 1 0 0 0 0 1Zm0 0" style="stroke:none;fill-rule:evenodd;fill:#e2b305;fill-opacity:1"/><path d="M17 16h1l-1 1v1-1a1 1 0 0 0-1 0 2 2 0 0 0-1 0v-1Zm0 0" style="stroke:none;fill-rule:evenodd;fill:#801846;fill-opacity:1"/><path d="m25 17 1 1-1 1zh-1c.309.18.691.18 1 0m0 0" style="stroke:none;fill-rule:evenodd;fill:#713c12;fill-opacity:1"/><path d="M28 17v1l-1-1c.309.18.691.18 1 0m0 0" style="stroke:none;fill-rule:evenodd;fill:#e7bb26;fill-opacity:1"/><path d="M7 17v2l-1-2v1l-1-1v-1a3 3 0 0 1 2 1m0 0" style="stroke:none;fill-rule:evenodd;fill:#651e0e;fill-opacity:1"/><path d="M8 15h1c.18.309.18.691 0 1h1a3 3 0 0 1 1 0v2h-1v-1a1 1 0 0 1-1 0s0 1 0 0v-1c-.55 0-1 .45-1 1h1v1H8a1 1 0 0 1 0-1H7v-1c.309.18.691.18 1 0a2 2 0 0 1 0-1m0 0" style="stroke:none;fill-rule:evenodd;fill:#cc7f05;fill-opacity:1"/><path d="M10 18H9v-1H8c0-.55.45-1 1-1v1c0 1 0 0 0 0 .309.18.691.18 1 0Zm0 0" style="stroke:none;fill-rule:evenodd;fill:#e9a505;fill-opacity:1"/><path d="M15 17a2 2 0 0 1 1 0 1 1 0 0 1 1 0v1h-1Zm0 0" style="stroke:none;fill-rule:evenodd;fill:#c73392;fill-opacity:1"/><path d="M19 17h-1l1 1h-1a3 3 0 0 1 0-1Zm0 0" style="stroke:none;fill-rule:evenodd;fill:#c981a0;fill-opacity:1"/><path d="M1 16c.332.027.668.027 1 0v2H1v1Zm0 0" style="stroke:none;fill-rule:evenodd;fill:#521628;fill-opacity:1"/><path d="M25 16h1v1h1l1 1-1-1a5.1 5.1 0 0 0 0 2h-1a2 2 0 0 1 0-1l-1-1Zm0 0" style="stroke:none;fill-rule:evenodd;fill:#403b24;fill-opacity:1"/><path d="M15 16h1c-.41.25-.75.59-1 1l2 2h-1v-1c-.39.27-.73.61-1 1l-2 1v-1h-1v-2l1-1 1 1h1Zm0 0" style="stroke:none;fill-rule:evenodd;fill:#6d1f37;fill-opacity:1"/><path d="M14 18h-1zc0-.55.45-1 1-1Zm0 0" style="stroke:none;fill-rule:evenodd;fill:#a63a77;fill-opacity:1"/><path d="m28 18-1 1a5.1 5.1 0 0 1 0-2Zm0 0" style="stroke:none;fill-rule:evenodd;fill:#566136;fill-opacity:1"/><path d="M30 17h9v3l-2-1c-.55 0-1 .45-1 1q0-1.5 0 0c-.55 0-1-.45-1-1a8.1 8.1 0 0 0-3 0v-1l-1 1-1-1h-1q0 1.5 0 0Zm0 0" style="stroke:none;fill-rule:evenodd;fill:#79a2e9;fill-opacity:1"/><path d="M11 18a2 2 0 0 1 1 0v1h1l-1 1a2 2 0 0 1 0-1 2 2 0 0 0-1 0h-1l-1-1Zm0 0" style="stroke:none;fill-rule:evenodd;fill:#c4670f;fill-opacity:1"/><path d="M18 18c.18.309.18.691 0 1a1 1 0 0 1-1 0l-1-1c.309.18.691.18 1 0l1-1c.086.328.086.672 0 1m0 0" style="stroke:none;fill-rule:evenodd;fill:#6a284a;fill-opacity:1"/><path d="m5 19-1-1a3 3 0 0 1 1 0v-1Zm0 0" style="stroke:none;fill-rule:evenodd;fill:#ea9c06;fill-opacity:1"/><path d="M13 20h-2v-1h-1 1a2 2 0 0 1 1 0 2 2 0 0 0 0 1Zm0 0" style="stroke:none;fill-rule:evenodd;fill:#dd9605;fill-opacity:1"/><path d="m3 17 2 2 1-1 1 1H5l-2 1v1l-1-2v-1h1Zm0 0" style="stroke:none;fill-rule:evenodd;fill:#782716;fill-opacity:1"/><path d="M17 19h-2c.27-.39.61-.73 1-1v1Zm0 0" style="stroke:none;fill-rule:evenodd;fill:#856266;fill-opacity:1"/><path d="M7 19v1H5v-1zl-1-1v-1Zm0 0" style="stroke:none;fill-rule:evenodd;fill:#4c2317;fill-opacity:1"/><path d="M10 19h1v1a1 1 0 0 0-1 0l-1-1Zm0 0" style="stroke:none;fill-rule:evenodd;fill:#f0cb06;fill-opacity:1"/><path d="M9 19c-.27.39-.61.73-1 1q1.5 0 0 0l1 1H8v-2Zm0 0" style="stroke:none;fill-rule:evenodd;fill:#4a290b;fill-opacity:1"/><path d="M7 19h1zl1 1H7Zm0 0" style="stroke:none;fill-rule:evenodd;fill:#7d280c;fill-opacity:1"/><path d="M39 18v2h-2v1h-1l-1-1h-3q-1 .053-2 0h-1a1 1 0 0 1-1 0v-1l1-1q0 1.5 0 0h1l1 1 1-1v1a8.1 8.1 0 0 1 3 0c0 .55.45 1 1 1q0-1.5 0 0c0-.55.45-1 1-1l2 1Zm0 0" style="stroke:none;fill-rule:evenodd;fill:#89b0f0;fill-opacity:1"/><path d="M1 18v1zl1 2a1 1 0 0 0 0 1l1 1-1 1a1 1 0 0 0 0 1H1Zm0 0" style="stroke:none;fill-rule:evenodd;fill:#4a1e2b;fill-opacity:1"/><path d="M2 18v1l1 2v1l-1-1a1 1 0 0 1 0-1l-1-2Zm0 0" style="stroke:none;fill-rule:evenodd;fill:#571d23;fill-opacity:1"/><path d="M5 19v1a1 1 0 0 0 0 1h1l-1 1v-1c-.55 0-1 .45-1 1l-1-1v-1Zm0 0" style="stroke:none;fill-rule:evenodd;fill:#9f4909;fill-opacity:1"/><path d="M7 20v1zH6l-1 1a1 1 0 0 1 0-1Zm0 0" style="stroke:none;fill-rule:evenodd;fill:#b24b2f;fill-opacity:1"/><path d="m9 19 1 1c0 .55-.45 1-1 1v1l-1 1v-2h1l-1-1q1.5 0 0 0c.39-.27.73-.61 1-1m0 0" style="stroke:none;fill-rule:evenodd;fill:#602517;fill-opacity:1"/><path d="M11 20a2 2 0 0 0-1 0 1 1 0 0 1 1 0m0 0" style="stroke:none;fill-rule:evenodd;fill:#766745;fill-opacity:1"/><path d="m10 20 1 1-2 1v-1c.55 0 1-.45 1-1m0 0" style="stroke:none;fill-rule:evenodd;fill:#a64e05;fill-opacity:1"/><path d="M11 20h1l-1 1-1-1a2 2 0 0 1 1 0m0 0" style="stroke:none;fill-rule:evenodd;fill:#963b1a;fill-opacity:1"/><path d="m8 20-2 2a2.01 2.01 0 0 1 0-2h1v1Zm0 0" style="stroke:none;fill-rule:evenodd;fill:#96151b;fill-opacity:1"/><path d="M28 19v1c.309.18.691.18 1 0h1q1 .053 2 0h3l1 1h2l-1-1h2a9 9 0 0 1 0 2h-6a8.2 8.2 0 0 1-2 0h-1a4.03 4.03 0 0 0-2 0h-2v-1h-2c0 1 0 0 0 0h-4q-3-.03-6 0v-1h11Zm0 0" style="stroke:none;fill-rule:evenodd;fill:#9bbef6;fill-opacity:1"/><path d="M5 22a1 1 0 0 1 0-1Zm0 0" style="stroke:none;fill-rule:evenodd;fill:#372e1a;fill-opacity:1"/><path d="m11 21-1 1H9Zm0 0" style="stroke:none;fill-rule:evenodd;fill:#e69d0e;fill-opacity:1"/><path d="M6 20a2.01 2.01 0 0 0 0 2l2-2v2H7l-1-1H5Zm0 0" style="stroke:none;fill-rule:evenodd;fill:#ce3f32;fill-opacity:1"/><path d="M5 21a1 1 0 0 0 0 1H4c0-.55.45-1 1-1m0 0" style="stroke:none;fill-rule:evenodd;fill:#a55174;fill-opacity:1"/><path d="m3 21 1 1v1h1c-.25.41-.59.75-1 1v-1H3a1 1 0 0 1 0-1Zm0 0" style="stroke:none;fill-rule:evenodd;fill:#63210e;fill-opacity:1"/><path d="M5 22a1 1 0 0 1-1 0Zm0 0" style="stroke:none;fill-rule:evenodd;fill:#e5b0b4;fill-opacity:1"/><path d="M14 21h10s0 1 0 0h2v1h2a4.03 4.03 0 0 1 2 0h1a8.2 8.2 0 0 0 2 0h3a212 212 0 0 0-13 0H12Zm0 0" style="stroke:none;fill-rule:evenodd;fill:#a8c6f7;fill-opacity:1"/><path d="M8 22v1c-.41.25-.75.59-1 1H6c.39-.27.73-.61 1-1a2 2 0 0 1 0-1Zm0 0" style="stroke:none;fill-rule:evenodd;fill:#3a3319;fill-opacity:1"/><path d="M9 22h1l-1 2H8a2 2 0 0 1-1 0c.25-.41.59-.75 1-1Zm0 0" style="stroke:none;fill-rule:evenodd;fill:#824008;fill-opacity:1"/><path d="M12 22h27l-6 1H15a24 24 0 0 1-3-1m0 0" style="stroke:none;fill-rule:evenodd;fill:#b4c9f1;fill-opacity:1"/><path d="m6 21 1 1a2 2 0 0 0 0 1c-.27.39-.61.73-1 1v1l-2-1c.41-.25.75-.59 1-1H4v-1c.309.18.691.18 1 0Zm0 0" style="stroke:none;fill-rule:evenodd;fill:#702b08;fill-opacity:1"/><path d="m31 23-15 1-1-1Zm0 0" style="stroke:none;fill-rule:evenodd;fill:#9dabd5;fill-opacity:1"/><path d="M31 23h2l-1 1q-4.5-.093-9 0l-1 1a4 4 0 0 1-2-1h-3a1 1 0 0 1-1 0Zm0 0" style="stroke:none;fill-rule:evenodd;fill:#a59aaa;fill-opacity:1"/><path d="M12 22c.977.398 1.98.734 3 1l1 1c.309.18.691.18 1 0h-1v1h-1v-1h-2l1 1h-3v-1a3 3 0 0 1 1-2m0 0" style="stroke:none;fill-rule:evenodd;fill:#9c7c6d;fill-opacity:1"/><path d="M32 24h-5v1a4 4 0 0 0-1 0h-4l1-1Zm0 0" style="stroke:none;fill-rule:evenodd;fill:#b49997;fill-opacity:1"/><path d="M39 22a10 10 0 0 1-1 3h-1a35 35 0 0 0-3-1l1 1h-1 2l-1 1v-1l-3-1v1l-1-1h1l1-1Zm0 0" style="stroke:none;fill-rule:evenodd;fill:#b98f73;fill-opacity:1"/><path d="M9 24v1l-1 1a1 1 0 0 1 0-1 4 4 0 0 0-1 0v-1c.328.086.672.086 1 0Zm0 0" style="stroke:none;fill-rule:evenodd;fill:#63260b;fill-opacity:1"/><path d="M17 24h3c-.39.27-.73.61-1 1q.5.053 1 0h-1a303 303 0 0 0-8 0v9a79 79 0 0 1 0-9h3l-1-1h2v1h1v-1Zm0 0" style="stroke:none;fill-rule:evenodd;fill:#b09180;fill-opacity:1"/><path d="M3 23h1v1l2 1v-1h1v1a1 1 0 0 1-1 0v1H5a8.2 8.2 0 0 1 0-2H3Zm0 0" style="stroke:none;fill-rule:evenodd;fill:#582520;fill-opacity:1"/><path d="M20 24c.559.516 1.25.863 2 1h4a4 4 0 0 1 1 0h-1q-3 .175-6 0a4.8 4.8 0 0 1-1 0c.27-.39.61-.73 1-1m0 0" style="stroke:none;fill-rule:evenodd;fill:#907872;fill-opacity:1"/><path d="m19 25-8 1v-1Zm0 0" style="stroke:none;fill-rule:evenodd;fill:#876b5e;fill-opacity:1"/><path d="M9 25v1H8Zm0 0" style="stroke:none;fill-rule:evenodd;fill:#4e192c;fill-opacity:1"/><path d="M3 22a1 1 0 0 0 0 1v1h2a8.2 8.2 0 0 0 0 2h1v2h1l-1 1c-2 0-3-1-4-3l-1-2h1a1 1 0 0 1 0-1Zm0 0" style="stroke:none;fill-rule:evenodd;fill:#2c3514;fill-opacity:1"/><path d="M19 25h1q3 .175 6 0c0 .55-.45 1-1 1a20 20 0 0 0-4 0h-6a6.7 6.7 0 0 1-1 1 8.2 8.2 0 0 0-2 0l-1 1v-2Zm0 0" style="stroke:none;fill-rule:evenodd;fill:#48443e;fill-opacity:1"/><path d="M29 24h-1v1a8.2 8.2 0 0 0 2 0v1l1-1h-1c1.043.188 2.055.523 3 1a2 2 0 0 0-1 0h-5l-1 1-1-1c.55 0 1-.45 1-1h1v-1Zm0 0" style="stroke:none;fill-rule:evenodd;fill:#bb9478;fill-opacity:1"/><path d="M21 26h3l-1 1h1c-.445.2-.8.555-1 1 .664.066 1.336.066 2 0v1h-4v-1c.328.086.672.086 1 0h1l-7-1a5.9 5.9 0 0 0-2 0 6.7 6.7 0 0 0 1-1Zm0 0" style="stroke:none;fill-rule:evenodd;fill:#97795f;fill-opacity:1"/><path d="M7 25a4 4 0 0 1 1 0 1 1 0 0 0 0 1h1v3a6 6 0 0 1 0-1Zm0 0" style="stroke:none;fill-rule:evenodd;fill:#34391b;fill-opacity:1"/><path d="M29 24h2l1 1v-1l3 1v1l1-1h-2 1l-1-1c1.352.254 2.688.59 4 1l-2 4H20h5c2 0 2 0 1-1h-1c-.664.066-1.336.066-2 0 .2-.445.555-.8 1-1h-1l1-1h-3a20 20 0 0 1 4 0l1 1 1-1h3a24 24 0 0 1 2 0 2 2 0 0 1 1 0 11 11 0 0 0-3-1h1l-1 1v-1a8.2 8.2 0 0 1-2 0v-1Zm0 0" style="stroke:none;fill-rule:evenodd;fill:#a98769;fill-opacity:1"/><path d="m7 25 2 3a6 6 0 0 0 0 1H6l1-1H6v-3c.309.18.691.18 1 0m0 0" style="stroke:none;fill-rule:evenodd;fill:#4e232d;fill-opacity:1"/><path d="M14 27a1 1 0 0 1-1 0h2l-2 1h2q1.5.105 3 0h2-1 1l1 1q-3 .117-6 0a2 2 0 0 0-1 0h-3v-1l1-1a8.2 8.2 0 0 1 2 0m0 0" style="stroke:none;fill-rule:evenodd;fill:#97765d;fill-opacity:1"/><path d="M14 27a5.9 5.9 0 0 1 2 0l6 1a2 2 0 0 1-1 0v1l-1-1h-1 1-2q-1.5.105-3 0h-2l2-1h-2c.309.18.691.18 1 0m0 0" style="stroke:none;fill-rule:evenodd;fill:#a68266;fill-opacity:1"/><path d="M25 28h1c1 1 1 1-1 1Zm0 0" style="stroke:none;fill-rule:evenodd;fill:#5f4837;fill-opacity:1"/><path d="M21 29h3-4v1h-3a1 1 0 0 0-1 0h-1v1a2 2 0 0 0-1 0h-1a1 1 0 0 0 0-1q-.95.602-2 1v-2h3a2 2 0 0 1 1 0Zm0 0" style="stroke:none;fill-rule:evenodd;fill:#8c6f54;fill-opacity:1"/><path d="M16 30v1l1-1v1h-1v1q1.5 0 0 0a1 1 0 0 1-1 0v1a1 1 0 0 1 0-1c-.957.453-1.965.79-3 1h1-2v-2q1.05-.398 2-1c.18.309.18.691 0 1h1a2 2 0 0 1 1 0v-1Zm0 0" style="stroke:none;fill-rule:evenodd;fill:#ba9c7d;fill-opacity:1"/><path d="M20 30h9v5l-2 2 1-1h-2c1-2 1-3-1-3h-1a3 3 0 0 1-1 0h-1a9 9 0 0 0-2 0l-1 1q-1.5-.105-3 0v-1c0 .55-.45 1-1 1a9 9 0 0 0-3-1 13.2 13.2 0 0 0 3-1 1 1 0 0 0 0 1v-1c.309.18.691.18 1 0q1.5 0 0 0v-1h1v-1l-1 1v-1a1 1 0 0 1 1 0Zm0 0" style="stroke:none;fill-rule:evenodd;fill:#cbad8c;fill-opacity:1"/><path d="M11 32v1h1l1 1v1l-1-1a1 1 0 0 0 0 1h1q-.5.018-1 0h-1c2 0 2 1 0 0a2 2 0 0 1 0-1Zm0 0" style="stroke:none;fill-rule:evenodd;fill:#594835;fill-opacity:1"/><path d="m24 33-1 2 3 1h2l-1 1-3 1h1v-1 1-1l-1 1v-1c-.445.2-.8.555-1 1v-1a9 9 0 0 0-2-1h-1v-1h-5l2-1h-2c.55 0 1-.45 1-1v1q1.5-.105 3 0l1-1a9 9 0 0 1 2 0h1q.5.082 1 0m0 0" style="stroke:none;fill-rule:evenodd;fill:#b69979;fill-opacity:1"/><path d="M13 33c.707.25 1.379.586 2 1h2l-2 1h5v1h1c.707.25 1.379.586 2 1v1c.2-.445.555-.8 1-1v1l1-1v1-1 1h-1l-2 1h-4q1.5 0 0 0v-1 1-1a1 1 0 0 0-1 0h-1v-2 1l-1-1h1l-1-1v1a1.98 1.98 0 0 0-1-1l-1-1q1.5 0 0 0l-1-1h-1Zm0 0" style="stroke:none;fill-rule:evenodd;fill:#967b60;fill-opacity:1"/><path d="m18 39-6-2-1-2c2 1 2 0 0 0h1q.5.018 1 0h-1a1 1 0 0 1 0-1l1 1v-1q1.5 0 0 0l1 1c.445.2.8.555 1 1v-1l1 1h-1l1 1v-1 2h1a1 1 0 0 1 1 0zv-1zq1.5 0 0 0m0 0" style="stroke:none;fill-rule:evenodd;fill:#806853;fill-opacity:1"/></svg>