<svg xmlns="http://www.w3.org/2000/svg" xmlns:xlink="http://www.w3.org/1999/xlink" width="42px" height="42px" viewBox="0 0 42 42" version="1.1">
<g id="surface1">
<path style=" stroke:none;fill-rule:nonzero;fill:#459fc6;fill-opacity:1;" d="M 17.824219 37.105469 C 19.3125 37.105469 20.519531 38.179688 20.519531 39.503906 C 20.519531 40.828125 19.3125 41.902344 17.824219 41.902344 C 16.332031 41.902344 15.125 40.828125 15.125 39.503906 C 15.125 38.179688 16.332031 37.105469 17.824219 37.105469 Z M 32.789062 32.730469 L 35.453125 33.433594 L 33.335938 39.78125 C 33.152344 40.335938 32.558594 40.703125 31.910156 40.664062 L 31.257812 40.621094 L 31.242188 40.632812 L 24.449219 40.210938 L 24.640625 37.746094 L 29.203125 38.019531 L 26.214844 34.191406 L 28.5 32.78125 L 31.488281 36.617188 Z M 3.777344 28.34375 L 6.546875 28.515625 L 6.222656 32.570312 L 10.523438 29.914062 L 12.113281 31.941406 L 7.804688 34.601562 L 12.203125 35.753906 L 11.414062 38.125 L 4.242188 36.246094 C 3.613281 36.082031 3.199219 35.550781 3.246094 34.972656 Z M 21.679688 24.890625 L 26.6875 30.261719 L 24.429688 31.921875 L 21.453125 28.726562 L 20.484375 33.640625 L 17.601562 33.191406 L 18.566406 28.269531 L 14.558594 30.371094 L 13.070312 28.128906 L 19.808594 24.597656 C 20.429688 24.273438 21.222656 24.398438 21.679688 24.890625 Z M 35.683594 21.285156 L 38.183594 20.078125 L 41.828125 26.027344 C 42.144531 26.546875 42.015625 27.195312 41.511719 27.585938 L 40.996094 27.980469 L 35.738281 32.050781 L 33.871094 30.140625 L 37.40625 27.40625 L 32.140625 26.5625 L 32.644531 24.074219 L 37.90625 24.917969 Z M 6.199219 15.066406 L 8.082031 16.960938 L 4.59375 19.695312 L 9.871094 20.511719 L 9.382812 23.007812 L 4.101562 22.1875 L 6.371094 25.832031 L 3.878906 27.058594 L 0.179688 21.109375 C -0.144531 20.589844 -0.0195312 19.941406 0.480469 19.550781 Z M 24.03125 13.109375 L 29.019531 18.464844 L 26.761719 20.125 L 23.785156 16.925781 L 22.820312 21.84375 L 19.933594 21.394531 L 20.898438 16.492188 L 16.902344 18.574219 L 15.421875 16.328125 L 21.558594 13.128906 L 21.5625 13.109375 L 21.589844 13.109375 L 22.164062 12.8125 C 22.78125 12.492188 23.574219 12.617188 24.03125 13.109375 Z M 30.460938 10.472656 L 31.550781 8.136719 L 38.605469 10.738281 C 39.222656 10.964844 39.578125 11.542969 39.464844 12.128906 L 39.34375 12.707031 L 38.140625 18.800781 L 35.335938 18.363281 L 36.144531 14.28125 L 31.464844 16.582031 L 30.085938 14.367188 L 34.777344 12.066406 Z M 17.015625 5.867188 L 17.136719 8.394531 L 12.476562 8.574219 L 15.992188 12.144531 L 13.847656 13.808594 L 10.328125 10.234375 L 9.507812 14.316406 L 6.707031 13.871094 L 8.046875 7.199219 C 8.164062 6.613281 8.722656 6.183594 9.386719 6.15625 L 10.046875 6.132812 L 10.0625 6.121094 Z M 26.550781 0.476562 L 31.515625 5.867188 L 29.25 7.515625 L 26.304688 4.316406 L 25.308594 9.226562 L 22.425781 8.765625 L 23.421875 3.84375 L 19.398438 5.9375 L 17.921875 3.6875 L 24.679688 0.179688 C 25.300781 -0.144531 26.09375 -0.0195312 26.550781 0.476562 Z M 26.550781 0.476562 "/>
</g>
</svg>