<svg xmlns="http://www.w3.org/2000/svg" xmlns:xlink="http://www.w3.org/1999/xlink" width="40" height="39"><defs><clipPath id="b"><path d="M0 0h40v39H0z"/></clipPath><clipPath id="c"><path d="M0 0h40v39H0z"/></clipPath><clipPath id="d"><path d="M0 0h40v39H0z"/></clipPath><clipPath id="e"><path d="M0 0h40v39H0z"/></clipPath><clipPath id="f"><path d="M0 0h40v39H0z"/></clipPath><clipPath id="g"><path d="M0 0h40v39H0z"/></clipPath><mask id="i"><g filter="url(#a)"><path d="M0 0h40v39H0z" style="fill:#000;fill-opacity:.964706;stroke:none"/></g></mask><mask id="k"><g filter="url(#a)"><path d="M0 0h40v39H0z" style="fill:#000;fill-opacity:.988235;stroke:none"/></g></mask><mask id="m"><g filter="url(#a)"><path d="M0 0h40v39H0z" style="fill:#000;fill-opacity:.988235;stroke:none"/></g></mask><mask id="o"><g filter="url(#a)"><path d="M0 0h40v39H0z" style="fill:#000;fill-opacity:.984314;stroke:none"/></g></mask><mask id="q"><g filter="url(#a)"><path d="M0 0h40v39H0z" style="fill:#000;fill-opacity:.988235;stroke:none"/></g></mask><mask id="s"><g filter="url(#a)"><path d="M0 0h40v39H0z" style="fill:#000;fill-opacity:.988235;stroke:none"/></g></mask><g id="h" clip-path="url(#b)"><path d="M2.375 5.34q.35-.018.46.308-.35.019-.46-.308m0 0" style="stroke:none;fill-rule:evenodd;fill:#da518a;fill-opacity:1"/></g><g id="j" clip-path="url(#c)"><path d="M14.023 11.375q2.513-.487 3.45 1.855a873 873 0 0 1 0 23.063q-.937 2.38-3.45 1.777-1.334-.416-1.761-1.777a873 873 0 0 1 0-23.063q.467-1.361 1.761-1.855m0 0" style="stroke:none;fill-rule:evenodd;fill:#272c32;fill-opacity:1"/></g><g id="l" clip-path="url(#d)"><path d="M35.172 11.375q2.386-.451 3.45 1.703.15 11.684 0 23.367-1.06 2.219-3.45 1.625-1.434-.44-1.762-1.933a849 849 0 0 1 0-22.75c.242-.992.832-1.664 1.762-2.012m0 0" style="stroke:none;fill-rule:evenodd;fill:#272c32;fill-opacity:1"/></g><g id="n" clip-path="url(#e)"><path d="M2.375 16.02a.87.87 0 0 1 .46.152v.156c-.233.012-.386-.094-.46-.308m0 0" style="stroke:none;fill-rule:evenodd;fill:#de4d88;fill-opacity:1"/></g><g id="p" clip-path="url(#f)"><path d="M3.45 22.055q2.512-.488 3.448 1.855c.102 4.13.102 8.254 0 12.383q-.936 2.38-3.449 1.777c-.894-.28-1.484-.875-1.761-1.777a242 242 0 0 1 0-12.383q.461-1.358 1.761-1.855m0 0" style="stroke:none;fill-rule:evenodd;fill:#272c32;fill-opacity:1"/></g><g id="r" clip-path="url(#g)"><path d="M24.598 22.055q2.384-.453 3.449 1.703.151 6.34 0 12.687c-.707 1.461-1.86 2.004-3.45 1.625q-1.334-.416-1.761-1.777a252 252 0 0 1 0-12.383q.462-1.358 1.762-1.855m0 0" style="stroke:none;fill-rule:evenodd;fill:#282c32;fill-opacity:1"/></g><filter id="a" width="100%" height="100%" x="0%" y="0%" filterUnits="objectBoundingBox"><feColorMatrix in="SourceGraphic" values="0 0 0 0 1 0 0 0 0 1 0 0 0 0 1 0 0 0 1 0"/></filter></defs><path d="M35.785.695c.41-.023.82 0 1.227.078q.21.065.304.235h-.457v4.797h.457c-.105.14-.261.191-.457.152h-1.226q-.07-2.649.152-5.262m0 0" style="stroke:none;fill-rule:evenodd;fill:#88d6f4;fill-opacity:1"/><path d="M3.45.852h.612v5.105H3.45a.88.88 0 0 1-.613-.309q-.11-.326-.461-.308-1.073-1.176-.687-2.785Q2.09 1.179 3.449.852m0 0" style="stroke:none;fill-rule:evenodd;fill:#f73674;fill-opacity:1"/><path d="M15.098.695c2.004.332 2.793 1.516 2.375 3.563q-.978 2.425-3.45 1.699h1.227a47 47 0 0 0-.152-5.262m0 0" style="stroke:none;fill-rule:evenodd;fill:#ca75a7;fill-opacity:1"/><path d="M25.672.695v5.262h-1.074a.88.88 0 0 1-.614-.309 8 8 0 0 0 .309-2.242 8 8 0 0 0-.309-2.246q.196-.339.614-.387c.355-.078.71-.101 1.074-.078m0 0" style="stroke:none;fill-rule:evenodd;fill:#ae9fc8;fill-opacity:1"/><path d="M25.672.695c.406-.011.762.09 1.07.313q-.074 2.36.156 4.64a.77.77 0 0 1-.613.387c-.594.125-1.156.102-1.687-.078h1.074zm0 0" style="stroke:none;fill-rule:evenodd;fill:#a9a5cd;fill-opacity:1"/><path d="M35.785.695a47 47 0 0 0-.152 5.262h1.226q-1.404.45-2.605-.465a29 29 0 0 1-.152-4.023q.639-.786 1.683-.774m0 0" style="stroke:none;fill-rule:evenodd;fill:#8ccfef;fill-opacity:1"/><path d="M3.45.852Q3.823.7 4.292.695a2.3 2.3 0 0 1 1.3.313c.15 1.531.2 3.082.153 4.64q-.192.34-.613.387a3.14 3.14 0 0 1-1.684-.078h.614V.852zm0 0" style="stroke:none;fill-rule:evenodd;fill:#f13f7b;fill-opacity:1"/><path d="M15.098.695q.222 2.614.152 5.262h-1.227a.88.88 0 0 1-.613-.309 7.9 7.9 0 0 0 .305-2.242q0-1.213-.305-2.246.193-.339.613-.387c.356-.078.711-.101 1.075-.078m0 0" style="stroke:none;fill-rule:evenodd;fill:#d36a9e;fill-opacity:1"/><path d="M13.41 1.16q.305 1.033.305 2.246 0 1.21-.305 2.242-.89-.393-1.148-1.39-.293-1.416.457-2.633.264-.382.691-.465m0 0" style="stroke:none;fill-rule:evenodd;fill:#d4669b;fill-opacity:1"/><path d="M23.984 1.16q.304 1.033.309 2.246a8 8 0 0 1-.309 2.242q-1.261-.767-1.226-2.32 0-.933.539-1.703.259-.382.687-.465m0 0" style="stroke:none;fill-rule:evenodd;fill:#b199c3;fill-opacity:1"/><path d="M26.742 1.008q1.448.673 1.38 2.32.158 1.618-1.224 2.32a35 35 0 0 1-.156-4.64m0 0" style="stroke:none;fill-rule:evenodd;fill:#a5aad1;fill-opacity:1"/><path d="M5.594 1.008c.988.469 1.445 1.265 1.379 2.398q.098 1.551-1.227 2.242a37 37 0 0 0-.152-4.64m0 0" style="stroke:none;fill-rule:evenodd;fill:#ea4782;fill-opacity:1"/><path d="M37.316 1.008q1.971 1.13 1.305 3.402a2.48 2.48 0 0 1-1.305 1.395h-.457V1.008zm0 0" style="stroke:none;fill-rule:evenodd;fill:#83dcf9;fill-opacity:1"/><path d="M34.102 1.469a29 29 0 0 0 .152 4.023c-.914-.914-1.14-2-.691-3.25.109-.32.285-.578.539-.773m0 0" style="stroke:none;fill-rule:evenodd;fill:#90c6e8;fill-opacity:1"/><use xlink:href="#h" mask="url(#i)"/><use xlink:href="#j" mask="url(#k)"/><use xlink:href="#l" mask="url(#m)"/><path d="M4.52 11.375q.163.21.46.156v5.106H3.45a.9.9 0 0 1-.614-.309v-.156c.023-1.395 0-2.785-.078-4.18a.6.6 0 0 1-.535.313q.873-1.095 2.297-.93m0 0" style="stroke:none;fill-rule:evenodd;fill:#f63775;fill-opacity:1"/><path d="M25.672 11.375v5.262h-1.074a.9.9 0 0 1-.614-.309 8 8 0 0 0 .309-2.246 8 8 0 0 0-.309-2.242q.72-.593 1.688-.465m0 0" style="stroke:none;fill-rule:evenodd;fill:#ae9fc8;fill-opacity:1"/><path d="M25.672 11.375c.61-.004 1.117.203 1.531.617a.43.43 0 0 1-.383-.152 22 22 0 0 0 .078 4.488.77.77 0 0 1-.613.387 3.2 3.2 0 0 1-1.687-.078h1.074zm0 0" style="stroke:none;fill-rule:evenodd;fill:#a9a5cd;fill-opacity:1"/><path d="M4.52 11.375c.496-.023.902.129 1.226.465v4.488q-.192.34-.613.387a3.2 3.2 0 0 1-1.684-.078H4.98V11.53q-.298.054-.46-.156m0 0" style="stroke:none;fill-rule:evenodd;fill:#ee427e;fill-opacity:1"/><path d="M23.984 11.84q.304 1.032.309 2.242a8 8 0 0 1-.309 2.246q-.89-.398-1.148-1.394-.294-1.414.46-2.63.26-.381.688-.464m0 0" style="stroke:none;fill-rule:evenodd;fill:#b199c3;fill-opacity:1"/><path d="M27.203 11.992q1.048.767.918 2.09.127 1.566-1.223 2.246a22 22 0 0 1-.078-4.488q.153.176.383.152m0 0" style="stroke:none;fill-rule:evenodd;fill:#a5aad1;fill-opacity:1"/><path d="M5.746 11.84q1.325.69 1.227 2.242c.066 1.04-.344 1.785-1.227 2.246zm0 0" style="stroke:none;fill-rule:evenodd;fill:#eb4782;fill-opacity:1"/><path d="M2.836 16.172a.87.87 0 0 0-.461-.152q-1.194-1.435-.535-3.25c.129-.168.258-.32.383-.465a.6.6 0 0 0 .535-.313c.078 1.395.101 2.785.078 4.18m0 0" style="stroke:none;fill-rule:evenodd;fill:#f83573;fill-opacity:1"/><use xlink:href="#n" mask="url(#o)"/><use xlink:href="#p" mask="url(#q)"/><use xlink:href="#r" mask="url(#s)"/></svg>