<svg xmlns="http://www.w3.org/2000/svg" width="58" height="30"><path d="M20.3.969h.966a6 6 0 0 1 .968 0V8.71v-.969l-.968-.969.968.97h-.968V3.87v.969q.023-.487 0-.969Zm0 0" style="stroke:none;fill-rule:evenodd;fill:#67acfe;fill-opacity:1"/><path d="M18.367.969h1.934v1.933a.97.97 0 0 1-.969 0l-.965.97a.97.97 0 0 1 0-.97Zm0 0" style="stroke:none;fill-rule:evenodd;fill:#72b1fb;fill-opacity:1"/><path d="M38.668 1.934c.32-.012.645-.012.965 0v5.808l-.965-1.937Zm0 0" style="stroke:none;fill-rule:evenodd;fill:#2488fe;fill-opacity:1"/><path d="M30.934 8.71V6.774l-.97-.968v.968-3.87c.056.32.056.648 0 .968v-.969V4.84 1.934H29h.965q.487-.03.969 0Zm0 0" style="stroke:none;fill-rule:evenodd;fill:#469afe;fill-opacity:1"/><path d="M35.766 1.934c.324-.024.644-.024.968 0v4.84l-.968-1.934V3.87a7 7 0 0 0 0-.969Zm0 0" style="stroke:none;fill-rule:evenodd;fill:#2e8efe;fill-opacity:1"/><path d="M29 1.934v3.87h-.965a7 7 0 0 1-.969 0h-.964.964v-3.87h.97V4.84Zm0 0" style="stroke:none;fill-rule:evenodd;fill:#529ffd;fill-opacity:1"/><path d="M38.668 1.934v3.87l.965 1.938V1.934v8.71a1.9 1.9 0 0 1-.965 0 .97.97 0 0 0 0-.968c-.059-.64-.059-1.29 0-1.934v.969Zm0 0" style="stroke:none;fill-rule:evenodd;fill:#298afd;fill-opacity:1"/><path d="M17.398 1.934v8.71c0-11.613-.964-11.613-.964 0V7.743v.969h-.97a7 7 0 0 1 0-1.938 6 6 0 0 0 0-.968q-.105-1.933 0-3.871Zm0 0" style="stroke:none;fill-rule:evenodd;fill:#7fb8fd;fill-opacity:1"/><path d="M42.535 2.902v8.711-1.937q0 1.453 0 0a1.94 1.94 0 0 0-.969 0V7.742v.969-1.938l-.964 6.774V2.902l.964-.968q.481-.03.97 0Zm0 0" style="stroke:none;fill-rule:evenodd;fill:#1b82fc;fill-opacity:1"/><path d="M11.602 3.871a4.8 4.8 0 0 1 1.933-.969v4.84h-.969v-3.87Zm0 0" style="stroke:none;fill-rule:evenodd;fill:#8cbffd;fill-opacity:1"/><path d="M45.434 5.805v.968H43.5v-3.87.968l.965-.969q.487-.045.969 0Zm0 0" style="stroke:none;fill-rule:evenodd;fill:#107cfb;fill-opacity:1"/><path d="m29 1.934-.965 2.906V1.934h-.969v3.87h-.964c.203-1.316.527-2.609.964-3.87V.969q.481-.036.97 0Zm0 0" style="stroke:none;fill-rule:evenodd;fill:#609fec;fill-opacity:1"/><path d="M35.766 1.934v.968c.023.325.023.645 0 .97v.968l.968 1.933v.97a6 6 0 0 1-.968 0v-.97l-.965-4.84Zm0 0" style="stroke:none;fill-rule:evenodd;fill:#3390fd;fill-opacity:1"/><path d="m20.3.969.966 2.902q.023.482 0 .969V3.87v3.871h.968l-.968-.969.968.97v.968V.969h.965V8.71a.97.97 0 0 1-.965 0c-.324.02-.644.02-.968 0H20.3Zm0 0" style="stroke:none;fill-rule:evenodd;fill:#6dadf8;fill-opacity:1"/><path d="M48.332 3.871v1.934za5.7 5.7 0 0 0-1.934 0 .97.97 0 0 1 .97 0q.482-.083.964 0m0 0" style="stroke:none;fill-rule:evenodd;fill:#2984ea;fill-opacity:1"/><path d="M48.332 3.871v2.902h-.965a.97.97 0 0 1-.969 0V3.871c.641-.11 1.297-.11 1.934 0v1.934Zm0 0" style="stroke:none;fill-rule:evenodd;fill:#0776fa;fill-opacity:1"/><path d="M19.332 3.871c.176.3.176.668 0 .969v5.805-2.903.969-.969c0 .969 0 0 0 0v-.969a1.9 1.9 0 0 0-.965 0h.965l-.965-.968a8 8 0 0 1 0-.965c.297-.348.621-.668.965-.969m0 0" style="stroke:none;fill-rule:evenodd;fill:#74b3fe;fill-opacity:1"/><path d="M32.867 1.934v.968c.024.325.024.645 0 .97v2.901h.965a6 6 0 0 0 0 1.938v-.969 6.774-2.903 1.934-2.902.968l-.965-.968v-.97a.96.96 0 0 1-.969 0l.97-6.773Zm0 0" style="stroke:none;fill-rule:evenodd;fill:#4097fe;fill-opacity:1"/><path d="M9.668 4.84h1.934v6.773c-.645.055-1.293.055-1.934 0Zm0 0" style="stroke:none;fill-rule:evenodd;fill:#99c6fc;fill-opacity:1"/><path d="M50.266 4.84h.968v9.676V4.84v9.676a6 6 0 0 1-.968 0H49.3v-4.84h.965c.054-.32.054-.645 0-.965l.968.965V6.773a.97.97 0 0 0 0-.968v1.937a6.8 6.8 0 0 0-.968-1.937zm0 0" style="stroke:none;fill-rule:evenodd;fill:#0c79fd;fill-opacity:1"/><path d="M49.3 4.84a.95.95 0 0 1 .966 0v.965c.425.59.75 1.246.968 1.937V5.805c.172.3.172.672 0 .968v2.903l-.968-.965q.081.482 0 .965H49.3v4.84Zm0 0" style="stroke:none;fill-rule:evenodd;fill:#0475fa;fill-opacity:1"/><path d="M17.398 1.934h-1.933a36 36 0 0 0 0 3.87 6 6 0 0 1 0 .97 7 7 0 0 0 0 1.937h.969v-.969 2.903c0-11.614.964-11.614.964 0l-.964.968q-.481.048-.97 0v-9.68Zm0 0" style="stroke:none;fill-rule:evenodd;fill:#86bbfa;fill-opacity:1"/><path d="M33.832 7.742v.969a6 6 0 0 1 0-1.938h-.965v-4.84c.32-.03.645-.03.965 0Zm0 0" style="stroke:none;fill-rule:evenodd;fill:#3b93fe;fill-opacity:1"/><path d="M39.633 1.934v8.71zc-.32-.012-.645-.012-.965 0Zm0 0" style="stroke:none;fill-rule:evenodd;fill:#388aed;fill-opacity:1"/><path d="m19.332 3.871.969.969v10.644l-.969-1.937v-.965.965-1.934a1.94 1.94 0 0 0 0-.968 10 10 0 0 0-.965-.97 20 20 0 0 1 0-1.933v2.903V4.84q-.03.482 0 .965.441.528.965.968h-.965c.317-.082.649-.082.965 0v.97s0 .968 0 0v.968-.969 2.903c.035-1.934.035-3.872 0-5.805a.96.96 0 0 0 0-.969m0 0" style="stroke:none;fill-rule:evenodd;fill:#78b5fd;fill-opacity:1"/><path d="M42.535 2.902c.09 3.547.09 7.098 0 10.645-.285.36-.61.687-.969.969l-.964-.97.964-6.773v1.938-.969 1.934c.317-.082.649-.082.97 0q0 1.453 0 0v1.937Zm0 0" style="stroke:none;fill-rule:evenodd;fill:#2487fc;fill-opacity:1"/><path d="M38.668 1.934V8.71v-.969 1.934c.172.3.172.672 0 .969h-.969V1.934Zm0 0" style="stroke:none;fill-rule:evenodd;fill:#2e8bf9;fill-opacity:1"/><path d="m26.102 13.547-.97-11.613v5.808zh-.97q-.482.035-.964 0V.969c.32-.02.645-.02.965 0a.96.96 0 0 1 .969 0Zm0 0" style="stroke:none;fill-rule:evenodd;fill:#66a9fa;fill-opacity:1"/><path d="M24.168.969v.965a2.9 2.9 0 0 0 0 .968c.129.641.129 1.297 0 1.938h.965v.965q.059.487 0 .968v2.903a7 7 0 0 1 0-.965v2.902q.035.482 0 .969.087-1.453 0-2.906c-.32.054-.645.054-.965 0Zm0 0" style="stroke:none;fill-rule:evenodd;fill:#61a8fe;fill-opacity:1"/><path d="M25.133 8.71q-.036.483 0 .966V6.773q.059-.481 0-.968V4.84h-.965a4.9 4.9 0 0 0 0-1.938 2.9 2.9 0 0 1 0-.968V.969c.32-.035.645-.035.965 0Zm0 0" style="stroke:none;fill-rule:evenodd;fill:#5ba6fe;fill-opacity:1"/><path d="M29 6.773v3.872l-.965-3.872v8.711-.968a17 17 0 0 1-.969-1.934v-1.937q0 2.906 0 0V6.773q.481-.03.97 0Zm0 0" style="stroke:none;fill-rule:evenodd;fill:#59a4fe;fill-opacity:1"/><path d="m47.367 6.773.965.97q0 2.9 0 0v1.933c-.32.023-.645.023-.965 0h-.969V7.742Zm0 0" style="stroke:none;fill-rule:evenodd;fill:#0a77f9;fill-opacity:1"/><path d="m53.168 14.516-.969-.97V7.743h.969v.969a4.7 4.7 0 0 0 0 1.934v2.902-.965l-.969.965Zm0 0" style="stroke:none;fill-rule:evenodd;fill:#0d7afd;fill-opacity:1"/><path d="M54.133 7.742v6.774h-.965l-.969-.97.969-.964v.965-2.902a4.7 4.7 0 0 1 0-1.934v-.969h-.969c.64-.11 1.293-.11 1.934 0m0 0" style="stroke:none;fill-rule:evenodd;fill:#117dfd;fill-opacity:1"/><path d="M30.934 8.71q.023.483 0 .966h-.97V2.902v.97a2.9 2.9 0 0 0 0-.97v3.871-.968l.97.968Zm0 0" style="stroke:none;fill-rule:evenodd;fill:#4b9dfe;fill-opacity:1"/><path d="M44.465 7.742h.969v5.805q-.481.035-.97 0H43.5V7.742Zm0 0" style="stroke:none;fill-rule:evenodd;fill:#1780fd;fill-opacity:1"/><path d="M19.332 13.547v3.871-.965l-.965-.969V7.742v1.934q.518.451.965.969c.082.316.082.652 0 .968zv-.965Zm0 0" style="stroke:none;fill-rule:evenodd;fill:#7fb9fe;fill-opacity:1"/><path d="M12.566 8.71a.97.97 0 0 1 0 .966.97.97 0 0 1 0-.965l.97.965v5.808a3.7 3.7 0 0 1 0-.968v-.97a.97.97 0 0 0-.97 0c.067-.64.067-1.288 0-1.933V9.676h-.964c0-.531.43-.965.964-.965m0 0" style="stroke:none;fill-rule:evenodd;fill:#92c2fd;fill-opacity:1"/><path d="M34.8 8.71h.966c.316-.081.652-.081.968 0v7.743-2.906l-.968-.965a.97.97 0 0 0 0 .965v-.965a3.7 3.7 0 0 0 0-.969q0 1.453 0 0Zm0 0" style="stroke:none;fill-rule:evenodd;fill:#3993fe;fill-opacity:1"/><path d="M8.7 9.676v8.71-1.933h-.966v.965-2.902h-.968V8.71q.508.46.968.965Zm0 0" style="stroke:none;fill-rule:evenodd;fill:#a9cffd;fill-opacity:1"/><path d="M32.867 9.676v.969l.965.968v-.968 2.902-1.934 2.903h.969-.969c-.32.027-.645.027-.965 0h-.969a26 26 0 0 1 0-2.903v2.903-4.84Zm0 0" style="stroke:none;fill-rule:evenodd;fill:#479bfd;fill-opacity:1"/><path d="M21.266 9.676h.968v7.742-1.934l-.968-.968v-1.934.965c.043-.32.043-.645 0-.965q-.407-1.01-.965-1.937c.43-.192.773-.54.965-.97m0 0" style="stroke:none;fill-rule:evenodd;fill:#72b2fe;fill-opacity:1"/><path d="M11.602 9.676c.316.082.648.082.964 0v1.937a9.4 9.4 0 0 1 0 1.934.97.97 0 0 1 .97 0v.969c-.044.32-.044.648 0 .968V9.676l-.97-.965a.97.97 0 0 0 0 .965.97.97 0 0 0 0-.965h.97l.964.965v6.777h-1.934Zm0 0" style="stroke:none;fill-rule:evenodd;fill:#98c4fb;fill-opacity:1"/><path d="M29 6.773h-.965a8 8 0 0 0-.969 0v8.711l-.964 4.84c.25-4.523.574-9.039.964-13.55q.481-.036.97 0Zm0 0" style="stroke:none;fill-rule:evenodd;fill:#6aa5ec;fill-opacity:1"/><path d="M57.035 13.547h-1.933v-2.902q0 4.353 0 0h.964a2.9 2.9 0 0 1 .97 0Zm0 0" style="stroke:none;fill-rule:evenodd;fill:#1881fd;fill-opacity:1"/><path d="M57.035 13.547v-2.902a2.9 2.9 0 0 0-.969 0h-.964q0 4.353 0 0h.964a6 6 0 0 1 .97 0Zm0 0" style="stroke:none;fill-rule:evenodd;fill:#2f85ec;fill-opacity:1"/><path d="M29 13.547v-1.934h1.934a50 50 0 0 1 0 4.84v-.969l-.97-1.937c.177.3.177.668 0 .969v-.97.97-2.903Zm0 0" style="stroke:none;fill-rule:evenodd;fill:#52a0fd;fill-opacity:1"/><path d="M46.398 10.645h1.934v2.902h-.965a22 22 0 0 0-.969-2.902m0 0" style="stroke:none;fill-rule:evenodd;fill:#127efd;fill-opacity:1"/><path d="M27.066 10.645q0 2.906 0 0v1.937q.424.996.97 1.934v.968-.968 4.84-.97q0 1.455 0 0c-.2-.698-.528-1.355-.97-1.933Zm0 0" style="stroke:none;fill-rule:evenodd;fill:#61a8fe;fill-opacity:1"/><path d="M39.633 15.484c-.32.024-.645.024-.965 0h-.969.969v-2.902h.965c.015.32.015.645 0 .965Zm0 0" style="stroke:none;fill-rule:evenodd;fill:#3390fc;fill-opacity:1"/><path d="M8.7 9.676h-.966q-.46-.506-.968-.965v5.805h.968v2.902-.965H8.7v1.934c.02.324.02.644 0 .968h-.965q-.484.03-.968 0a255 255 0 0 1 0-10.644h.968Zm0 0" style="stroke:none;fill-rule:evenodd;fill:#b1d3fc;fill-opacity:1"/><path d="M15.465 12.582h1.933v1.934l-.964.968q-.481.06-.97 0Zm0 0" style="stroke:none;fill-rule:evenodd;fill:#8bbefb;fill-opacity:1"/><path d="M36.734 8.71v13.548a7 7 0 0 0 0 .969v-1.938a1.93 1.93 0 0 1-.968-.965v-1.937q-.428-1.472-.965-2.903V8.711l.965 2.902q0 1.453 0 0 .064.482 0 .969v.965a.97.97 0 0 1 0-.965l.968.965q.024.487 0 .969v1.937q.064-3.874 0-7.742a1.94 1.94 0 0 0-.968 0H34.8zs.965 0 0 0m0 0" style="stroke:none;fill-rule:evenodd;fill:#4397fc;fill-opacity:1"/><path d="M11.602 22.258v-2.903l-.97.97v-1.938 1.937l-.964-2.906v-.965 1.934-5.805c.32-.02.645-.02.965 0h.969Zm0 0" style="stroke:none;fill-rule:evenodd;fill:#a4cbfc;fill-opacity:1"/><path d="m29 13.547.965-1.934v2.903-.97.97a.96.96 0 0 0 0-.97l.969 1.938v.97a50 50 0 0 0 0-4.84h-.97v-.97q.489-.029.97 0v.97q.532.434.964.968a37 37 0 0 0 0 4.836l-.964.969H29Zm0 0" style="stroke:none;fill-rule:evenodd;fill:#57a2fa;fill-opacity:1"/><path d="M19.332 3.871q-.518.449-.965.969v10.644l.965.97v.964-3.871l.969 1.937v2.903a.97.97 0 0 1-.969 0c-.32.02-.645.02-.965 0l-.969-10.645q.424-1.471.97-2.902V3.87Zm0 0" style="stroke:none;fill-rule:evenodd;fill:#84b9f9;fill-opacity:1"/><path d="M25.133 14.516v5.808a2.9 2.9 0 0 1 0-.969h-.965a.97.97 0 0 0 .965 0l-.965-.968v-2.903a.97.97 0 0 0-.969 0l.969-.968c.32-.04.645-.04.965 0m0 0" style="stroke:none;fill-rule:evenodd;fill:#6eaffd;fill-opacity:1"/><path d="M29 10.645v9.68a.97.97 0 0 1-.965 0q-.487.028-.969 0h-.964l.964-4.84v.968c.442.578.77 1.235.97 1.934q0 1.452 0 0v.968V6.773Zm0 0" style="stroke:none;fill-rule:evenodd;fill:#66aafc;fill-opacity:1"/><path d="M3.867 15.484c.32-.054.645-.054.965 0l.969.97v5.804h-.969a3.86 3.86 0 0 0 0-1.934 1.94 1.94 0 0 1 0-.969v-.968h-.965v-1.934a.97.97 0 0 1 0-.969h.965Zm0 0" style="stroke:none;fill-rule:evenodd;fill:#bbd8fc;fill-opacity:1"/><path d="M3.867 15.484h.965za.97.97 0 0 0 0 .97v.964q.018.487 0 .969h.965v.968a1.94 1.94 0 0 0 0 .97 3.86 3.86 0 0 1 0 1.933h.969-.969q-.482.082-.965 0Zm0 0" style="stroke:none;fill-rule:evenodd;fill:#c0dbfc;fill-opacity:1"/><path d="M20.3 10.645q.56.927.966 1.937v5.805-1.934c-.055.64-.055 1.29 0 1.934q0 1.452 0 0h.968v1.937V9.676h-.968 1.933v10.648h-.965c-.324.02-.644.02-.968 0H20.3Zm0 0" style="stroke:none;fill-rule:evenodd;fill:#7cb4f8;fill-opacity:1"/><path d="M22.234 17.418v2.906-1.937h-.968q0 1.452 0 0a11.4 11.4 0 0 1 0-1.934v1.934-5.805c.043.32.043.645 0 .965v-.965 1.934l.968.968Zm0 0" style="stroke:none;fill-rule:evenodd;fill:#79b6fe;fill-opacity:1"/><path d="m25.133 14.516.969.968v4.84h-.97q-.482.03-.964 0l-.969-4.84a.97.97 0 0 1 .969 0v2.903l.965.968a.97.97 0 0 1-.965 0h.965a2.9 2.9 0 0 0 0 .97 50 50 0 0 0 0-5.81m0 0" style="stroke:none;fill-rule:evenodd;fill:#74b0f9;fill-opacity:1"/><path d="M13.535 17.418h.965l-.965 5.809-.969-.97v-4.839Zm0 0" style="stroke:none;fill-rule:evenodd;fill:#9ec9fd;fill-opacity:1"/><path d="M9.668 16.453v1.934zv.965l.965 2.906v-1.937 1.937l.969-.969v2.903l-.97.969a9 9 0 0 1-.964-.97Zm0 0" style="stroke:none;fill-rule:evenodd;fill:#abd0fc;fill-opacity:1"/><path d="m15.465 15.484 1.933.97v8.706l-.964.969q-.481.035-.97 0Zm0 0" style="stroke:none;fill-rule:evenodd;fill:#98c5fb;fill-opacity:1"/><path d="M15.465 16.453q.487-.035.969 0v6.774-1.938.969-.969h-.97a8 8 0 0 1 0-.965Zm0 0" style="stroke:none;fill-rule:evenodd;fill:#91c2fd;fill-opacity:1"/><path d="M13.535 17.418h-.969v4.84l.97.969.964-5.809v5.809l-.965.968q-.487.03-.969 0v-6.777Zm0 0" style="stroke:none;fill-rule:evenodd;fill:#a4cbfa;fill-opacity:1"/><path d="M32.867 15.484c.32-.015.645-.015.965 0V26.13c-.32.023-.645.023-.965 0l-.969-.969v-8.707Zm0 0" style="stroke:none;fill-rule:evenodd;fill:#5c9ff0;fill-opacity:1"/><path d="M33.832 23.227v-.97q-.059-.481 0-.968h-.965a6.7 6.7 0 0 1 0-1.934v-3.87c.32-.028.645-.028.965 0Zm0 0" style="stroke:none;fill-rule:evenodd;fill:#4f9ffe;fill-opacity:1"/><path d="M18.367 19.355h.965a.97.97 0 0 1 .969 0q.099 1.936 0 3.872a.97.97 0 0 1-.969.968h-.965Zm0 0" style="stroke:none;fill-rule:evenodd;fill:#8cbffc;fill-opacity:1"/><path d="M29.965 19.355h.969l.964 2.903c0 .535-.43.969-.964.969q-.481.03-.97 0a.97.97 0 0 1-.964-.97v-2.902Zm0 0" style="stroke:none;fill-rule:evenodd;fill:#5fa7fc;fill-opacity:1"/><path d="M6.766 20.324h1.933v3.871h-.965q-.484.024-.968 0a25.6 25.6 0 0 1 0-3.87m0 0" style="stroke:none;fill-rule:evenodd;fill:#b8d7fc;fill-opacity:1"/><path d="M32.867 19.355a6.7 6.7 0 0 0 0 1.934h.965q-.059.487 0 .969v3.87c-.32.028-.645.028-.965 0Zm0 0" style="stroke:none;fill-rule:evenodd;fill:#59a5fe;fill-opacity:1"/><path d="M35.766 18.387v4.84s0 .968 0 0v.968c.32.04.648.04.968 0v-5.808 5.808a3.1 3.1 0 0 1-.968 0 .97.97 0 0 1-.965-.968v-7.743Zm0 0" style="stroke:none;fill-rule:evenodd;fill:#519cf4;fill-opacity:1"/><path d="M35.766 18.387v.968q0-1.452 0 0v.97c.195.429.539.773.968.964v1.938a7 7 0 0 1 0-.97v1.938c-.32.04-.648.04-.968 0v-.968c0 .968 0 0 0 0Zm0 0" style="stroke:none;fill-rule:evenodd;fill:#4c9efe;fill-opacity:1"/><path d="M3.867 23.227h1.934v5.804a3.86 3.86 0 0 1-1.934 0Zm0 0" style="stroke:none;fill-rule:evenodd;fill:#cae0fd;fill-opacity:1"/><path d="M21.266 24.195h.968a.95.95 0 0 1 .965 0v4.836h-.965a2.9 2.9 0 0 1-.968 0l-.965-4.836a.95.95 0 0 1 .965 0m0 0" style="stroke:none;fill-rule:evenodd;fill:#89bdfb;fill-opacity:1"/><path d="m18.367 24.195.965.965h.969v1.938l-.969.968c-.32.032-.645.032-.965 0a1.95 1.95 0 0 1-.969-.968l.97-1.938a.97.97 0 0 1 0-.965m0 0" style="stroke:none;fill-rule:evenodd;fill:#93c2fc;fill-opacity:1"/><path d="M39.633 24.195v4.836c-.32.02-.645.02-.965 0h-.969v-4.836h.969c.32.016.645.016.965 0m0 0" style="stroke:none;fill-rule:evenodd;fill:#4c9dfd;fill-opacity:1"/><path d="M35.766 25.16h.968v2.906a.97.97 0 0 1 0 .965 2.9 2.9 0 0 1-.968 0l-.965-.965V25.16Zm0 0" style="stroke:none;fill-rule:evenodd;fill:#58a2f9;fill-opacity:1"/><path d="M39.633 24.195c-.32.016-.645.016-.965 0h-.969v4.836h.969c.32.02.645.02.965 0zv4.836h-1.934v-4.836h.969c.32-.035.645-.035.965 0m0 0" style="stroke:none;fill-rule:evenodd;fill:#559bec;fill-opacity:1"/><path d="M24.168 26.129c.32-.02.645-.02.965 0l.969 2.902h-1.934c-.07-.965-.07-1.937 0-2.902m0 0" style="stroke:none;fill-rule:evenodd;fill:#80b8fb;fill-opacity:1"/><path d="M42.535 27.098v1.933a6 6 0 0 1-.969 0 5.6 5.6 0 0 1-.964-.965V26.13a.97.97 0 0 1 .964 0h.97Zm0 0" style="stroke:none;fill-rule:evenodd;fill:#4599fc;fill-opacity:1"/><path d="M42.535 27.098v1.933h-.969q.481.042.97 0Zm0 0" style="stroke:none;fill-rule:evenodd;fill:#4e95e9;fill-opacity:1"/></svg>