<svg xmlns="http://www.w3.org/2000/svg" width="42" height="42"><path d="M41.836 25.148c-.25-.742-.91-1.253-1.762-1.378-.402-.06-.863-.036-1.41.074-.95.191-1.656.261-2.168.277 1.941-3.18 3.52-6.805 4.43-10.219 1.469-5.515.683-8.03-.235-9.168C38.261 1.727 34.72.11 30.441.06c-2.28-.028-4.28.41-5.328.722A20.5 20.5 0 0 0 22 .508c-2.059-.035-3.875.402-5.43 1.297-.86-.285-2.238-.68-3.832-.934C8.992.273 5.973.738 3.762 2.25 1.086 4.082-.152 7.266.074 11.715c.074 1.41.887 5.707 2.172 9.777.734 2.344 1.524 4.285 2.336 5.781 1.152 2.118 2.387 3.364 3.77 3.813.777.25 2.187.426 3.671-.773.188.222.438.44.77.644.422.258.941.473 1.457.598 1.86.449 3.602.336 5.09-.297.008.258.015.504.023.715.008.343.02.68.032.992.09 2.129.238 3.785.68 4.941.023.063.058.16.093.262.219.656.586 1.754 1.527 2.613.973.887 2.149 1.16 3.223 1.16.543 0 1.059-.066 1.508-.16 1.613-.336 3.441-.847 4.765-2.676 1.25-1.726 1.86-4.328 1.97-8.425q.021-.175.038-.332l.028-.22.296.024.075.008c1.64.07 3.648-.265 4.879-.82.976-.438 4.093-2.035 3.359-4.192" style="stroke:none;fill-rule:nonzero;fill:#000;fill-opacity:1"/><path d="M39.031 25.566c-4.879.977-5.215-.625-5.215-.625 5.153-7.414 7.305-16.82 5.446-19.12C34.195-.462 25.418 2.507 25.27 2.585l-.047.008a18 18 0 0 0-3.254-.328c-2.207-.036-3.883.558-5.153 1.496 0 0-15.656-6.254-14.93 7.863.157 3.004 4.442 22.727 9.552 16.77a94 94 0 0 1 3.671-4.02 4.86 4.86 0 0 0 3.098.766l.086-.07c-.027.269-.016.534.035.847-1.316 1.426-.93 1.676-3.562 2.203-2.664.531-1.098 1.477-.079 1.727 1.243.3 4.106.726 6.043-1.903l-.078.301c.516.399.88 2.606.817 4.606-.059 2-.102 3.37.304 4.441.407 1.074.813 3.484 4.274 2.766 2.89-.598 4.39-2.157 4.598-4.754.148-1.844.484-1.575.503-3.223l.27-.781c.309-2.504.047-3.313 1.828-2.934l.434.035c1.312.059 3.027-.203 4.035-.66 2.168-.972 3.453-2.601 1.316-2.176" style="stroke:none;fill-rule:nonzero;fill:#336791;fill-opacity:1"/><path d="M17.73 12.969c-.437-.059-.835-.004-1.039.144a.36.36 0 0 0-.156.246c-.027.176.102.368.18.47.219.284.543.48.863.523q.066.006.137.007c.531 0 1.015-.402 1.058-.699.055-.37-.503-.617-1.043-.691m14.567.011c-.043-.293-.574-.375-1.082-.304-.508.066-1 .289-.957.582.031.226.453.613.953.613q.064-.001.129-.008c.336-.047.578-.25.695-.37.18-.18.281-.384.262-.513" style="stroke:none;fill-rule:nonzero;fill:#fff;fill-opacity:1"/><path d="M40.656 25.457c-.187-.547-.785-.723-1.781-.523-2.953.59-4.012.183-4.36-.067 2.297-3.39 4.184-7.492 5.204-11.316.484-1.813.75-3.492.773-4.863.024-1.508-.242-2.614-.785-3.29-2.2-2.722-5.426-4.183-9.332-4.226-2.687-.027-4.957.637-5.395.824-.93-.223-1.937-.36-3.035-.375-2.02-.035-3.761.434-5.203 1.387a24.5 24.5 0 0 0-4.226-1.074c-3.426-.532-6.145-.13-8.09 1.207-2.317 1.59-3.387 4.437-3.18 8.457.07 1.351.867 5.511 2.121 9.496 1.649 5.242 3.446 8.21 5.332 8.82.223.074.477.121.758.121.688 0 1.531-.3 2.41-1.324a86 86 0 0 1 3.324-3.645 5.5 5.5 0 0 0 2.395.622q-.001.033.004.062-.217.251-.422.508c-.578.71-.7.86-2.559 1.23-.527.106-1.933.387-1.953 1.34-.023 1.043 1.66 1.485 1.852 1.527a8 8 0 0 0 1.926.243c1.496 0 2.808-.473 3.859-1.395-.031 3.719.129 7.387.59 8.504.375.914 1.297 3.148 4.207 3.148.43 0 .898-.05 1.418-.156 3.035-.633 4.355-1.933 4.867-4.804.273-1.536.742-5.2.96-7.165.466.141 1.067.207 1.716.207 1.347 0 2.906-.28 3.883-.718 1.097-.496 3.082-1.707 2.722-2.762m-7.238-13.281c-.008.582-.09 1.11-.18 1.656-.093.594-.191 1.203-.215 1.945-.023.723.07 1.473.16 2.2.18 1.468.368 2.976-.355 4.468a6 6 0 0 1-.32-.64c-.09-.211-.285-.547-.555-1.02-1.047-1.824-3.508-6.097-2.25-7.844.375-.52 1.328-1.05 3.715-.765m-2.895-9.828c3.5.074 6.27 1.343 8.23 3.773 1.505 1.863-.151 10.34-4.944 17.652-.047-.058-.098-.117-.145-.18l-.062-.07c1.238-1.984.996-3.945.78-5.687-.089-.711-.171-1.387-.152-2.02.024-.671.114-1.25.204-1.804.109-.688.218-1.395.191-2.235a1 1 0 0 0 .02-.312c-.079-.805-1.024-3.207-2.95-5.38-1.054-1.187-2.59-2.519-4.687-3.417.902-.18 2.137-.352 3.515-.32M10.938 27.96c-.965 1.129-1.637.914-1.856.844-1.434-.465-3.094-3.399-4.559-8.055-1.27-4.027-2.007-8.078-2.066-9.215-.187-3.59.711-6.094 2.668-7.437 3.184-2.188 8.418-.88 10.52-.215q-.049.04-.09.086c-3.453 3.379-3.371 9.152-3.364 9.504 0 .136.012.332.028.597.062.97.172 2.778-.125 4.825-.274 1.902.332 3.761 1.66 5.105q.206.209.43.395a88 88 0 0 0-3.246 3.566m3.687-4.77c-1.07-1.082-1.555-2.59-1.332-4.136.312-2.16.195-4.043.133-5.055-.008-.14-.016-.266-.02-.363.504-.434 2.84-1.649 4.508-1.278.758.168 1.223.672 1.414 1.536 1 4.468.133 6.332-.562 7.828-.141.308-.278.601-.395.902l-.09.234c-.226.59-.437 1.137-.566 1.657-1.14 0-2.246-.473-3.09-1.325m.176 6.028a2.6 2.6 0 0 1-.805-.336c.145-.067.406-.156.86-.246 2.187-.438 2.523-.746 3.261-1.657.172-.207.363-.44.63-.73.394-.43.573-.355.901-.227.266.11.528.43.633.786.047.168.106.488-.078.738-1.543 2.09-3.789 2.062-5.402 1.672M26.254 39.55c-2.68.558-3.625-.766-4.25-2.281-.402-.977-.602-5.383-.461-10.25a.6.6 0 0 0-.027-.188 2 2 0 0 0-.075-.344c-.207-.707-.718-1.3-1.328-1.547-.242-.097-.687-.277-1.226-.144.117-.453.312-.969.527-1.527l.09-.235c.101-.265.23-.539.363-.828.73-1.566 1.727-3.715.645-8.562-.407-1.817-1.758-2.704-3.809-2.497-1.226.125-2.351.606-2.914.88q-.18.091-.332.171c.156-1.828.746-5.246 2.961-7.41 1.39-1.36 3.246-2.035 5.504-1.996 4.453.07 7.308 2.285 8.922 4.133 1.386 1.59 2.14 3.191 2.441 4.054-2.258-.222-3.793.211-4.57 1.29-1.695 2.347.926 6.898 2.183 9.09.23.398.43.745.493.894.41.96.941 1.605 1.328 2.074.117.145.234.285.32.406-.684.192-1.91.633-1.797 2.84-.09 1.106-.734 6.29-1.058 8.121-.43 2.418-1.348 3.32-3.93 3.856m11.172-12.399c-.7.317-1.867.551-2.98.602-1.227.058-1.852-.133-1.997-.25-.07-1.375.457-1.516 1.016-1.668.09-.023.172-.047.258-.074q.074.058.168.117c.984.633 2.746.7 5.23.203l.027-.004c-.336.3-.91.711-1.722 1.074m0 0" style="stroke:none;fill-rule:nonzero;fill:#fff;fill-opacity:1"/></svg>