<svg xmlns="http://www.w3.org/2000/svg" width="34" height="40"><path d="M22.973 39.96h-.43a69 69 0 0 0 1.574-4.796 6.54 6.54 0 0 1-3.508-1.41 6.6 6.6 0 0 1-.43 2.258 7.7 7.7 0 0 1-1.359 1.55q-5.016 1.776-9.593-.914-1.7-1.417-1.72-3.597H5.935a38 38 0 0 1-.43 6.91h-.43q.4-3.51.43-7.05a5.2 5.2 0 0 1-2.434-.919q-4.815-3.698-2.078-9.101a8.8 8.8 0 0 1 2.793-2.47.65.65 0 0 0 .145-.35 63 63 0 0 1-.645-2.962 1.3 1.3 0 0 0-.715-.707q-.967-1.81-.43-3.808a15.8 15.8 0 0 1 2.575-4.656 30 30 0 0 1 3.297-5.926Q9.528.065 12.02.039q1.496.076 2.933.492a44 44 0 0 1 3.582 2.258 4.79 4.79 0 0 0 3.438 0q3.856-2.085 7.73 0a6.04 6.04 0 0 1 1.934 2.89q.884 4.424 2.148 8.747c.442 1.836.203 3.574-.719 5.222q-2.53 1.278-3.648 3.88 3.462 3.439 1.645 7.968-2.046 3.88-6.516 3.809a44 44 0 0 1-1.574 4.656m0 0" style="stroke:none;fill-rule:evenodd;fill:#181712;fill-opacity:1"/><path d="M12.95.602q-.437-.035-.86.07.772.128.144.566-4.126 1.738-4.941 6.137-.106 2.971.144 5.926c-1.257 1.344-1.664 2.898-1.218 4.652q.035.433-.07.848A51 51 0 0 0 2.71 15.84q-.703-1.84 0-3.668c.7-1.438 1.508-2.8 2.434-4.094A22.6 22.6 0 0 1 8.44 2.152C9.641.72 11.141.2 12.95.602m0 0" style="stroke:none;fill-rule:evenodd;fill:#edca02;fill-opacity:1"/><path d="M12.95.602a8.6 8.6 0 0 1 2.577.636c.875.766 1.836 1.43 2.864 1.973.836.293 1.691.41 2.578.355q-.305.2-.715.141a419 419 0 0 1-1.074 4.23 66 66 0 0 0-.36 4.376q.808.075 1.575.351a.34.34 0 0 1-.286.07 31 31 0 0 0-4.582-.562c1.32-2.172 1.633-4.473.93-6.914q-1.37-3.693-5.227-2.89C8.723 3.901 7.55 6.136 7.723 9.065q.087 2.636 1.933 4.516-2.267.991-3.222 3.242a2.7 2.7 0 0 0-.215 1.13c-.446-1.755-.04-3.31 1.218-4.653a49 49 0 0 1-.144-5.926q.815-4.399 4.941-6.137.628-.438-.144-.566.426-.106.86-.07m0 0" style="stroke:none;fill-rule:evenodd;fill:#f9de2c;fill-opacity:1"/><path d="M20.54 11.605q-1.02-4.294 2.433-7.546a8 8 0 0 0 2.004-1.48c-.239-.087-.477-.184-.715-.282q5.736-1.113 7.23 4.371a137 137 0 0 0 2.004 8.465 8.4 8.4 0 0 1-.285 3.246 3.04 3.04 0 0 1-.93 1.34 34 34 0 0 0-4.582 2.328q1.735-3.762-1.574-6.352c2.277-1.41 3.473-3.457 3.578-6.136q-.011-2.544-1.504-4.582-3.482-2.82-6.3.703-1.759 2.707-1.36 5.925m0 0" style="stroke:none;fill-rule:evenodd;fill:#fadc26;fill-opacity:1"/><path d="M24.262 2.297q.333.14.715.281a8 8 0 0 1-2.004 1.48q-3.453 3.253-2.434 7.547.294.585.43 1.27-.073.07-.145.14a4 4 0 0 1-.715-.28.33.33 0 0 0 .286-.07 6.4 6.4 0 0 0-1.575-.352q.107-2.193.36-4.376c.367-1.41.722-2.82 1.074-4.23q.41.059.715-.14 1.665-.597 3.293-1.27m0 0" style="stroke:none;fill-rule:evenodd;fill:#eecc04;fill-opacity:1"/><path d="M11.66 2.578q3.761-.147 4.656 3.527a10.1 10.1 0 0 1-.574 4.938c-.172.457-.437.86-.789 1.2-1.613.148-3.2.503-4.723 1.058a3.14 3.14 0 0 1-1.648-1.977q-1.653-4.687 1.934-8.113.613-.292 1.144-.633m0 0" style="stroke:none;fill-rule:evenodd;fill:#fcfcfc;fill-opacity:1"/><path d="M28.559 3.566q.721-.27 1.214.422.307.536.145 1.13a4.3 4.3 0 0 0-1.36-1.552m0 0" style="stroke:none;fill-rule:evenodd;fill:#fffdf4;fill-opacity:1"/><path d="M17.246 3.988q.635.201.86.848-1.03.253-.86-.848m0 0" style="stroke:none;fill-rule:evenodd;fill:#fffdf3;fill-opacity:1"/><path d="M24.547 4.129q3.287-.269 4.367 2.82 1.324 4.545-2.074 7.832a2.5 2.5 0 0 1-1.004.492 22.6 22.6 0 0 0-4.293-2.117c-.742-1.96-.766-3.937-.074-5.922q.868-2.232 3.078-3.105m0 0" style="stroke:none;fill-rule:evenodd;fill:#fcfcfc;fill-opacity:1"/><path d="M13.379 9.633c1.812-.028 2.289.75 1.434 2.324-1.653.54-2.344-.05-2.079-1.762q.3-.333.645-.562m0 0" style="stroke:none;fill-rule:evenodd;fill:#060606;fill-opacity:1"/><path d="M22.398 10.617c1.77.145 2.2.965 1.29 2.469q-2.344.657-2.075-1.762.387-.38.785-.707m0 0" style="stroke:none;fill-rule:evenodd;fill:#070707;fill-opacity:1"/><path d="M11.66 23.879q-.234-.187 0-.352-4.664-2.647-2.648-7.547.673-.876 1.504-1.625a44 44 0 0 1 2.863-1.48c3.71-.496 7.242.09 10.598 1.766 1.293.8 2.43 1.828 3.363 3.03q1.676 3.383-1.36 5.716c-3.093 1.82-6.437 2.433-10.023 1.832a13.5 13.5 0 0 1-4.297-1.34m0 0" style="stroke:none;fill-rule:evenodd;fill:#fce12c;fill-opacity:1"/><path d="M13.379 12.875q-1.459.688-2.863 1.48c-.551.493-1.055 1.04-1.504 1.625q-2.016 4.9 2.648 7.547-.234.165 0 .352c-2.281-.91-3.93-2.461-4.937-4.656-.32-1.93.324-3.461 1.93-4.582a10.7 10.7 0 0 1 4.726-1.766m0 0" style="stroke:none;fill-rule:evenodd;fill:#eac90e;fill-opacity:1"/><path d="M25.121 16.121c.758.3 1.375.883 1.719 1.621q-.234.663-.645.07-.587-.813-1.074-1.69m7.875 0c.16.883-.008 1.727-.5 2.54q-.275.445-.789.421.744-1.437 1.29-2.96m0 0" style="stroke:none;fill-rule:evenodd;fill:#fffdf2;fill-opacity:1"/><path d="M11.375 17.25q1.301-.053 2.578.21 1.156.354 1.074 1.481-.303.404-.789.567-.31-.978-1.289-1.34a14 14 0 0 0-2.289-.285c.246-.215.488-.426.715-.633m0 0" style="stroke:none;fill-rule:evenodd;fill:#cfb302;fill-opacity:1"/><path d="M3.93 17.39q1.386.98 2.433 2.329a10.2 10.2 0 0 0-1.863.492 14.7 14.7 0 0 1-.57-2.82m0 0" style="stroke:none;fill-rule:evenodd;fill:#9e870c;fill-opacity:1"/><path d="M20.395 18.238c1.168-.082 2.195.25 3.078.985.23.734-.032 1.16-.785 1.27q-.062-.944-1.004-1.2a8.4 8.4 0 0 0-2.434-.422c.313-.316.71-.535 1.145-.633m0 0" style="stroke:none;fill-rule:evenodd;fill:#ceb201;fill-opacity:1"/><path d="M6.363 20.21c-.12.864.07 1.638.574 2.33a7.5 7.5 0 0 1-1.003.28q.351.106.714.07c.72-.14 1.004.141.86.848q-.72-.035-1.43.07a3.5 3.5 0 0 0-.144 1.34 5.3 5.3 0 0 0-1.649.141 8 8 0 0 0 0 2.117q.662.2 1.363.14-.035.712.07 1.411a3.43 3.43 0 0 0 2.15.14c.03-.456.1-.906.214-1.34q.784-.105 1.574-.07c.086-.703.11-1.41.07-2.113a1.73 1.73 0 0 0-.93-.144q.059-.522.286-.985 4.816 2.531 10.313 2.254-1.25 5.554 4.152 7.41c4.176.371 6.465-1.484 6.871-5.574q-.11-3.614-3.438-5.078.211-.35.575-.566c3.629 2.093 4.605 5.058 2.937 8.89q-2.418 3.593-6.805 3.032a7.57 7.57 0 0 1-4.152-2.68 4.7 4.7 0 0 0-1-.422q-1.575-.073-3.152-.145-2.702-.445-5.367-1.054c-1.286.062-2.07.722-2.364 1.972-2.89.422-5.058-.609-6.515-3.101-1.54-3.95-.414-6.89 3.363-8.82a4.1 4.1 0 0 1 1.863-.352m0 0" style="stroke:none;fill-rule:evenodd;fill:#c7cbc8;fill-opacity:1"/><path d="M6.363 20.21c.137-.015.27.04.36.142q.304.532.715.988.105.699.07 1.41-.48-.059-.86.14-.363.035-.714-.07a7.5 7.5 0 0 0 1.003-.28q-.755-1.036-.574-2.33m0 0" style="stroke:none;fill-rule:evenodd;fill:#949795;fill-opacity:1"/><path d="M30.133 21.059a.34.34 0 0 1 .285.07 18 18 0 0 0-1.504 2.187 3.7 3.7 0 0 0-1.074-.636c.687-.64 1.46-1.188 2.293-1.621m0 0" style="stroke:none;fill-rule:evenodd;fill:#ccae00;fill-opacity:1"/><path d="M8.082 26.277a7.9 7.9 0 0 1-.145-2.117q-.07-.995.145-1.973c.363.29.7.594 1 .918a43 43 0 0 0-1 3.172m0 0" style="stroke:none;fill-rule:evenodd;fill:#f7f7f7;fill-opacity:1"/><path d="M19.824 25.855a.74.74 0 0 0-.144.422c-.094.141-.192.282-.285.422q-5.497.277-10.313-2.254-.017-.314.29-.425c1.03.93 1.105.835.214-.282q-.164-.24.07-.422a15.54 15.54 0 0 0 7.446 2.47q1.358.105 2.722.07m0 0" style="stroke:none;fill-rule:evenodd;fill:#949795;fill-opacity:1"/><path d="M26.98 23.457q3.328 1.464 3.438 5.078c-.406 4.09-2.695 5.945-6.871 5.574q-5.402-1.856-4.152-7.41.141-.21.285-.422c.043.164.16.258.36.282q1.422-.165 2.788-.563c-.797.5-1.558 1.067-2.289 1.692q-.691 1.284.574 2.046c.586.141 1.203.04 1.715-.28.313-.212.621-.427.934-.638.07-.37.093-.75.07-1.128q.21.947.145 1.976-1.435.78-.79 2.258.655.768 1.649.492a38 38 0 0 0 4.078-2.75c.43-1.437-.121-2.117-1.644-2.047q-1.227.743-2.434 1.48c.055-.476.148-.949.285-1.41q1.605-.25 1.219-1.972-.205-.673-.79-.426.048-1.44 1.43-1.832m0 0" style="stroke:none;fill-rule:evenodd;fill:#495f65;fill-opacity:1"/><path d="M24.547 28.395c-.094-.141-.192-.282-.285-.422a52 52 0 0 1-.07-3.106q.569-.404 1.214-.492a50 50 0 0 0-.86 4.02m0 0" style="stroke:none;fill-rule:evenodd;fill:#f2f2f2;fill-opacity:1"/><path d="M25.121 27.688v-.282q.515.024.79-.422a2.3 2.3 0 0 0 0-1.129 1 1 0 0 0-.36-.28v-.286q.584-.247.789.426.386 1.721-1.219 1.973m0 0" style="stroke:none;fill-rule:evenodd;fill:#cabeba;fill-opacity:1"/><path d="M23.688 25.574q-.434.217-.86.422-1.365.398-2.789.563c-.2-.024-.316-.118-.36-.282a.74.74 0 0 1 .145-.422 9.4 9.4 0 0 0 3.723-.707c.121.106.176.27.14.426m0 0" style="stroke:none;fill-rule:evenodd;fill:#334448;fill-opacity:1"/><path d="M6.219 24.02q.65.064 1.289.21-.421.104-.86.075v1.55H4.93v.422q1.219.06 2.437.141c-.086.82.012 1.594.285 2.328q-.784.106-1.574.07.037-.782-.074-1.55a4.3 4.3 0 0 0-1.504-.141q.051-.779.145-1.55h1.574Zm0 0" style="stroke:none;fill-rule:evenodd;fill:#1e2a30;fill-opacity:1"/><path d="M25.55 25.574a1 1 0 0 1 .36.281 2.3 2.3 0 0 1 0 1.13q-.274.445-.789.421c.09-.625.23-1.234.43-1.832m0 0" style="stroke:none;fill-rule:evenodd;fill:#b50c0a;fill-opacity:1"/><path d="M23.688 25.574q.191 1.043.144 2.113.035.571-.07 1.13c-.313.21-.621.425-.934.636a2.24 2.24 0 0 1-1.715.281q-1.265-.762-.574-2.047a19 19 0 0 1 2.29-1.69q.426-.206.858-.423m0 0" style="stroke:none;fill-rule:evenodd;fill:#cac7c3;fill-opacity:1"/><path d="M7.938 24.16c-.047.707 0 1.422.144 2.117q-.13.275-.215.567a8.6 8.6 0 0 1 .07-2.684m0 0" style="stroke:none;fill-rule:evenodd;fill:#969696;fill-opacity:1"/><path d="M13.379 27.125q.965-.072.789.848c-.586.367-1.184.722-1.79 1.054q-.983.2-.644-.773c.586-.32 1.137-.7 1.645-1.129m0 0" style="stroke:none;fill-rule:evenodd;fill:#0e0f0f;fill-opacity:1"/><path d="M21.543 27.266q1.8.168 1.215 1.832-1.494 1.013-2.074-.703c.113-.48.425-.895.859-1.13m0 0" style="stroke:none;fill-rule:evenodd;fill:#bf0f0c;fill-opacity:1"/><path d="M13.379 27.547q.4-.047.36.281c-.532.36-1.079.688-1.65.988q-.285-.21 0-.421.698-.375 1.29-.848m0 0" style="stroke:none;fill-rule:evenodd;fill:#2c3b41;fill-opacity:1"/><path d="M16.816 27.547q1.014-.063.715.848-.82.578-1.718 1.058-.862.206-.786-.637a13 13 0 0 1 1.79-1.27m0 0" style="stroke:none;fill-rule:evenodd;fill:#181c1d;fill-opacity:1"/><path d="M29.559 27.406q.364.145.43.567l-.141.14c-.22-.105-.407-.152-.575-.14q.146-.293.286-.567m0 0" style="stroke:none;fill-rule:evenodd;fill:#a6b1b4;fill-opacity:1"/><path d="M23.977 29.664v.422q-.922.66-.36 1.695c1.38.614 1.996.192 1.863-1.27-.199-.269-.472-.464-.789-.566-.027-.289.024-.582.145-.847q1.214-.744 2.434-1.48c1.523-.071 2.074.609 1.644 2.046a38 38 0 0 1-4.078 2.75q-.994.276-1.648-.492-.646-1.478.789-2.258m0 0" style="stroke:none;fill-rule:evenodd;fill:#cdc7c4;fill-opacity:1"/><path d="M26.98 27.973q1.757-.283 1.649 1.41-.71 1.113-1.863.422-.505-1.01.214-1.832m0 0" style="stroke:none;fill-rule:evenodd;fill:#be0908;fill-opacity:1"/><path d="M24.262 27.973c.093.14.191.28.285.422a1.4 1.4 0 0 1-.215.562q-.106-.486-.07-.984m0 0" style="stroke:none;fill-rule:evenodd;fill:#777;fill-opacity:1"/><path d="M24.691 29.945q.474.152.79.567c.132 1.46-.485 1.883-1.864 1.27q-.562-1.036.36-1.696.139.258.285.566.258-.35.43-.707m0 0" style="stroke:none;fill-rule:evenodd;fill:#b90a08;fill-opacity:1"/><path d="M16.531 32.063a46 46 0 0 1-5.3.07q-1.94.985-1.075 3.031.944 1.612 2.793 2.047c1.832.484 3.766.46 5.586-.07-.535.3-1.117.515-1.719.636-2.543.391-4.93-.03-7.16-1.273q-2.726-2.08-1.074-5.008a6 6 0 0 1 .645-.492 6.2 6.2 0 0 1 1.863 0q2.639.931 5.441 1.058m0 0" style="stroke:none;fill-rule:evenodd;fill:#eac700;fill-opacity:1"/><path d="M16.531 32.063c.715-.024 1.434 0 2.145.07 1.433.707 1.887 1.808 1.363 3.316a2.96 2.96 0 0 1-1.504 1.692c-1.82.53-3.754.554-5.586.07q-1.85-.436-2.793-2.047-.866-2.046 1.074-3.031a46 46 0 0 0 5.301-.07m0 0" style="stroke:none;fill-rule:evenodd;fill:#fde22c;fill-opacity:1"/><path d="M21.828 31.781h.57v.703h-.57Zm0 0" style="stroke:none;fill-rule:evenodd;fill:#a6b1b4;fill-opacity:1"/><path d="M18.535 32.91q1.06.445.715 1.55-.43-.637-.86-1.269c.051-.097.102-.191.145-.28m0 0" style="stroke:none;fill-rule:evenodd;fill:#fffdf0;fill-opacity:1"/><path d="M18.82 37.563q-.43 1.201-.86 2.398H5.505c.351-2.285.496-4.598.43-6.91h1.574q.019 2.18 1.719 3.597 4.577 2.69 9.593.914m0 0" style="stroke:none;fill-rule:evenodd;fill:#a88f0c;fill-opacity:1"/><path d="M22.543 39.96h-4.582q.43-1.195.86-2.398c.523-.453.98-.976 1.359-1.55q.414-1.09.43-2.258a6.54 6.54 0 0 0 3.507 1.41 69 69 0 0 1-1.574 4.797m0 0" style="stroke:none;fill-rule:evenodd;fill:#d8b800;fill-opacity:1"/></svg>