<?xml version="1.0" encoding="UTF-8"?>
<svg xmlns="http://www.w3.org/2000/svg" xmlns:xlink="http://www.w3.org/1999/xlink" width="40px" height="40px" viewBox="0 0 40 40" version="1.1">
<defs>
<filter id="alpha" filterUnits="objectBoundingBox" x="0%" y="0%" width="100%" height="100%">
  <feColorMatrix type="matrix" in="SourceGraphic" values="0 0 0 0 1 0 0 0 0 1 0 0 0 0 1 0 0 0 1 0"/>
</filter>
<mask id="mask0">
  <g filter="url(#alpha)">
<rect x="0" y="0" width="40" height="40" style="fill:rgb(0%,0%,0%);fill-opacity:0.960784;stroke:none;"/>
  </g>
</mask>
<clipPath id="clip1">
  <rect x="0" y="0" width="40" height="40"/>
</clipPath>
<g id="surface5" clip-path="url(#clip1)">
<path style=" stroke:none;fill-rule:evenodd;fill:rgb(2.352941%,0.784314%,0.392157%);fill-opacity:1;" d="M 16.40625 -0.15625 C 18.699219 -0.15625 20.988281 -0.15625 23.28125 -0.15625 C 32.238281 1.925781 37.761719 7.449219 39.84375 16.40625 C 39.84375 18.699219 39.84375 20.988281 39.84375 23.28125 C 37.761719 32.238281 32.238281 37.761719 23.28125 39.84375 C 20.988281 39.84375 18.699219 39.84375 16.40625 39.84375 C 7.449219 37.761719 1.925781 32.238281 -0.15625 23.28125 C -0.15625 20.988281 -0.15625 18.699219 -0.15625 16.40625 C 1.925781 7.449219 7.449219 1.925781 16.40625 -0.15625 Z M 16.40625 -0.15625 "/>
</g>
</defs>
<g id="surface1">
<use xlink:href="#surface5" mask="url(#mask0)"/>
<path style=" stroke:none;fill-rule:evenodd;fill:rgb(98.431373%,37.254903%,37.254903%);fill-opacity:1;" d="M 30.78125 27.03125 C 30.949219 27.011719 31.054688 26.910156 31.09375 26.71875 C 29.964844 26.410156 28.820312 26.304688 27.65625 26.40625 C 26.898438 26.308594 26.167969 26.414062 25.46875 26.71875 C 25.917969 27.441406 25.707031 27.910156 24.84375 28.125 C 18.429688 28.480469 15.460938 25.410156 15.9375 18.90625 C 20.042969 21.640625 23.898438 21.328125 27.5 17.96875 C 29.492188 13.84375 28.609375 10.457031 24.84375 7.8125 C 21.183594 6.277344 18.003906 6.957031 15.3125 9.84375 C 15.15625 7.191406 15.9375 4.847656 17.65625 2.8125 C 26.734375 2.414062 32.929688 6.425781 36.25 14.84375 C 38.261719 25.773438 34.042969 33.015625 23.59375 36.5625 C 13.1875 37.8125 6.363281 33.488281 3.125 23.59375 C 1.859375 14.765625 5.140625 8.308594 12.96875 4.21875 C 13.074219 4.324219 13.175781 4.425781 13.28125 4.53125 C 11.792969 8.148438 11.691406 11.796875 12.96875 15.46875 C 12.265625 19.832031 13.046875 23.894531 15.3125 27.65625 C 18.679688 31.226562 22.636719 32.0625 27.1875 30.15625 C 27.449219 30.46875 27.707031 30.78125 27.96875 31.09375 C 29.027344 29.828125 29.964844 28.472656 30.78125 27.03125 Z M 30.78125 27.03125 "/>
<path style=" stroke:none;fill-rule:evenodd;fill:rgb(97.647059%,37.254903%,37.254903%);fill-opacity:1;" d="M 19.53125 10.15625 C 22.992188 9.488281 25.078125 10.839844 25.78125 14.21875 C 25.679688 16.039062 24.742188 17.132812 22.96875 17.5 C 20.496094 18.109375 18.359375 17.535156 16.5625 15.78125 C 15.9375 14.84375 15.9375 13.90625 16.5625 12.96875 C 17.3125 11.746094 18.304688 10.808594 19.53125 10.15625 Z M 19.53125 10.15625 "/>
<path style=" stroke:none;fill-rule:evenodd;fill:rgb(47.450981%,17.647059%,17.647059%);fill-opacity:1;" d="M 27.65625 26.40625 C 28.820312 26.304688 29.964844 26.410156 31.09375 26.71875 C 31.054688 26.910156 30.949219 27.011719 30.78125 27.03125 C 29.738281 26.824219 28.699219 26.613281 27.65625 26.40625 Z M 27.65625 26.40625 "/>
</g>
</svg>
