<svg xmlns="http://www.w3.org/2000/svg" width="42" height="42"><path d="M20.2 9.867c-1.43-2.144-1.74-5.008-1.805-6.183-3.63.785-7.239 2.191-7.028 3.23.024.129.192.285.461.438l-.426.765c-.52-.293-.812-.629-.894-1.031-.235-1.176 1.094-2.234 4.062-3.246 2.028-.692 4.07-1.102 4.157-1.121l.523-.102v.531c0 .04.023 3.754 1.676 6.235ZM21.656 37.625h-.218c-7.168 0-15.145-2.25-16.086-6.02-.579-2.3 1.304-4.843 5.433-7.351l.457.75c-3.719 2.254-5.508 4.523-5.043 6.39.817 3.27 8.38 5.31 15.008 5.356.79-1.18 5.027-8.102 2.61-17.39l.843-.22c2.758 10.579-2.816 18.231-2.87 18.31Zm0 0" style="stroke:none;fill-rule:nonzero;fill:#cfd8dc;fill-opacity:1"/><path d="M8.691 34.395c-.472 0-.707-.055-.746-.063a.44.44 0 0 1-.316-.309.43.43 0 0 1 .113-.425c.063-.063 6.297-6.309 7.14-11.356l.86.14c-.722 4.345-5 9.298-6.699 11.122 1.7-.098 5.984-.895 14.207-5.496-6.418-.703-7.434-5.84-7.445-5.899l.863-.156c.039.215 1.07 5.258 8.086 5.258h.008a.436.436 0 0 1 .219.816c-9.829 5.696-14.598 6.364-16.29 6.368m0 0" style="stroke:none;fill-rule:nonzero;fill:#cfd8dc;fill-opacity:1"/><path d="M12.707 36.488a.43.43 0 0 1-.406-.285.434.434 0 0 1 .152-.508c.031-.023 1.586-1.172 3.242-3.699A18 18 0 0 1 13.773 31c-.773-.469-1.363-.969-1.8-1.48-2.25.593-4.325.828-6.149.671l.074-.87c1.641.14 3.508-.055 5.532-.56-1.375-2.35-.114-4.687-.094-4.718l.762.426c-.059.105-1.106 2.074.218 4.054 1.926-.554 3.98-1.37 6.11-2.433a28 28 0 0 0 1.07-5.492.44.44 0 0 1 .215-.336.44.44 0 0 1 .402-.02c.028.012 2.856 1.305 4.903 2.149.148.058.254.199.27.359a.43.43 0 0 1-.188.406 55 55 0 0 1-5.934 3.535 23.7 23.7 0 0 1-2.148 4.895c3.238 1.21 6.05 1.227 6.086 1.227a.439.439 0 0 1 .21.82C19.34 35.84 13.017 36.46 12.75 36.488zm3.84-4.14c-.91 1.41-1.805 2.425-2.473 3.086 1.746-.258 4.813-.82 7.356-1.871a20.7 20.7 0 0 1-4.883-1.215m-3.625-3.094c.344.34.773.676 1.305.996.64.387 1.296.715 1.941.992a23 23 0 0 0 1.875-3.996 37 37 0 0 1-5.121 2.008m7.379-7.965a30 30 0 0 1-.797 4.242 55 55 0 0 0 4.43-2.648 205 205 0 0 1-3.633-1.594M15.684 9.273a.46.46 0 0 1-.286-.101c-1.406-1.207-3.066-3.66-3.136-3.766a.44.44 0 0 1 .039-.539.446.446 0 0 1 .535-.09c.008.004.82.34 6.312 1.254.16.028.29.137.344.285.051.153.02.32-.09.438-1.539 1.71-3.48 2.46-3.562 2.492a.4.4 0 0 1-.156.027m-1.993-3.37c.551.742 1.348 1.745 2.075 2.421a9.8 9.8 0 0 0 2.402-1.57c-2.262-.387-3.64-.664-4.477-.852m0 0" style="stroke:none;fill-rule:nonzero;fill:#cfd8dc;fill-opacity:1"/><path d="M19.113 21.352a.5.5 0 0 1-.175-.04.43.43 0 0 1-.258-.445c.254-2.406-3.438-3.37-3.477-3.379a.438.438 0 0 1-.2-.734c.18-.18 4.497-4.461 9.911-6.809a.44.44 0 0 1 .453.059.45.45 0 0 1 .153.43c-1.04 5.023-5.875 10.539-6.079 10.77a.45.45 0 0 1-.328.148m-2.965-4.477c1.036.39 2.852 1.29 3.309 2.938 1.27-1.583 3.977-5.227 4.984-8.696-3.836 1.848-7.07 4.633-8.293 5.758m0 0" style="stroke:none;fill-rule:nonzero;fill:#b71c1c;fill-opacity:1"/><path d="m11.445 24.816-.418-.77c1.649-.89 3.536-2.523 5.082-4.425a33 33 0 0 0-2.093 1.54l-.559-.673c.035-.027 1.543-1.265 4.05-2.82.692-1.105 1.22-2.246 1.493-3.336q.07-.28.117-.539c-1.683-.602-3.238-.957-4.305-1.11a.436.436 0 0 1-.258-.73c.075-.082 1.852-1.984 4.071-3.031a.44.44 0 0 1 .508.098c.058.066 1.262 1.414.957 4.207 1.008.394 2.05.87 3.055 1.441 2.414-1.086 5.152-2.063 8.074-2.652a.45.45 0 0 1 .422.148c.101.121.129.29.07.438-1.137 2.918-4.188 6.03-4.316 6.164a.45.45 0 0 1-.336.129.45.45 0 0 1-.32-.165c-.977-1.234-2.259-2.253-3.641-3.082a47 47 0 0 0-4.973 2.668c-1.77 2.758-4.437 5.29-6.68 6.5m12.61-9.593c1.129.726 2.18 1.582 3.05 2.578.723-.785 2.461-2.774 3.45-4.742-2.32.53-4.516 1.304-6.5 2.164m-4.106-1.118c-.027.145-.062.29-.097.438A11.2 11.2 0 0 1 19 16.785a49 49 0 0 1 3.164-1.66c-.73-.39-1.48-.727-2.215-1.02m-4.156-2.14c.973.187 2.168.5 3.45.95.132-1.614-.305-2.602-.567-3.04-1.207.629-2.262 1.512-2.883 2.09m0 0" style="stroke:none;fill-rule:nonzero;fill:#b71c1c;fill-opacity:1"/><path d="M15.793 16.188c0 3.832-3.191 6.878-5.496 9.101-.383.375-1.688.438-1.688.438.325-.336.692-.684 1.086-1.059 2.188-2.121 5.223-5.016 5.223-8.48 0-4.106-1.652-5.723-2.957-7.016-.578-.59-1.066-1.149-1.363-1.832l.27-.113c.296.132.64.28.902.394.21.305.488.606.812.926 1.34 1.34 3.211 3.18 3.211 7.64m0 0" style="stroke:none;fill-rule:nonzero;fill:#b71c1c;fill-opacity:1"/><path d="M37.566 17.32s-.527.075-.675.094c-7.664.848-15.575 3.05-20.098 4.863-1.637.657-3.336 1.453-4.883 2.344-.012.012-.02.012-.035.02-.91.523-3.125 1.609-4.918 2.562 2.625-2.789 7.543-4.941 9.5-5.73 4.438-1.778 12.059-3.922 19.559-4.84-.883-1.031-3.047-3.219-7.297-4.848-2.485-.96-6.266-1.504-9.602-1.984-5.3-.762-8.32-1.27-8.61-2.715a1.36 1.36 0 0 1 .114-.856c.29.473.703.805.973.997.133.09.226.14.261.16l.008.008c1.246.656 4.594 1.136 7.387 1.539 3.379.488 7.203 1.043 9.781 2.03 6.012 2.317 8.086 5.634 8.172 5.774zm0 0" style="stroke:none;fill-rule:nonzero;fill:#b71c1c;fill-opacity:1"/></svg>