<?xml version="1.0" encoding="UTF-8"?>
<svg xmlns="http://www.w3.org/2000/svg" xmlns:xlink="http://www.w3.org/1999/xlink" width="60px" height="20px" viewBox="0 0 59 20" version="1.1">
<g id="surface1">
<path style=" stroke:none;fill-rule:nonzero;fill:rgb(99.215686%,65.490198%,1.176471%);fill-opacity:1;" d="M 19.605469 1.867188 C 21.101562 0.367188 23.554688 -0.667969 25.535156 0.507812 C 25.96875 0.765625 26.375 1.09375 26.714844 1.46875 C 27.757812 2.632812 28.078125 4.25 28.085938 5.769531 C 28.101562 8.800781 27.007812 12.253906 24.105469 13.722656 C 22.996094 14.28125 21.753906 14.484375 20.519531 14.429688 C 19.820312 14.398438 19.121094 14.257812 18.425781 14.25 L 18.359375 14.246094 L 18.359375 19.613281 L 16.050781 19.613281 L 16.050781 0.371094 L 18.359375 0.371094 L 18.359375 3.453125 L 18.390625 3.453125 C 18.640625 2.867188 19.160156 2.3125 19.605469 1.867188 Z M 19.769531 4.214844 C 19.574219 4.441406 19.390625 4.679688 19.210938 4.921875 L 19.089844 5.082031 C 18.832031 5.429688 18.53125 5.832031 18.390625 6.226562 C 18.285156 6.523438 18.359375 6.953125 18.359375 7.265625 L 18.359375 12.175781 L 18.457031 12.195312 C 20.046875 12.519531 21.652344 12.722656 23.101562 11.792969 C 25.09375 10.523438 25.71875 8.027344 25.566406 5.800781 L 25.5625 5.734375 C 25.484375 4.679688 25.253906 3.613281 24.46875 2.84375 C 22.921875 1.320312 20.859375 2.949219 19.769531 4.214844 Z M 30.152344 0.371094 C 30.25 0.714844 30.453125 1.027344 30.601562 1.347656 C 30.960938 2.136719 31.347656 2.914062 31.726562 3.695312 C 32.789062 5.898438 33.847656 8.101562 34.890625 10.3125 C 35.210938 11 35.546875 11.683594 35.875 12.367188 L 36.011719 12.660156 C 36.15625 12.964844 36.433594 13.332031 36.480469 13.667969 C 36.503906 13.828125 36.375 14.027344 36.3125 14.175781 L 36.308594 14.1875 C 36.125 14.640625 35.914062 15.078125 35.660156 15.496094 L 35.5625 15.664062 C 35.335938 16.042969 35.101562 16.425781 34.800781 16.75 L 34.757812 16.796875 C 34.523438 17.046875 34.273438 17.292969 33.984375 17.480469 C 32.710938 18.292969 31.296875 18.105469 29.910156 17.785156 L 29.910156 19.828125 L 30.007812 19.839844 C 31.59375 20.042969 33.199219 20.136719 34.683594 19.394531 C 36.191406 18.636719 37.101562 17.136719 37.851562 15.679688 C 39.222656 13.019531 40.246094 10.164062 41.398438 7.402344 L 41.445312 7.292969 C 42.078125 5.78125 42.695312 4.265625 43.328125 2.75 C 43.535156 2.253906 43.738281 1.753906 43.949219 1.257812 C 44.070312 0.976562 44.234375 0.675781 44.289062 0.371094 L 42.648438 0.371094 C 42.480469 0.371094 42.164062 0.3125 42.019531 0.402344 C 41.847656 0.515625 41.773438 0.921875 41.695312 1.105469 C 41.421875 1.738281 41.175781 2.386719 40.914062 3.027344 C 40.1875 4.792969 39.460938 6.558594 38.75 8.332031 C 38.4375 9.109375 37.976562 9.921875 37.78125 10.742188 L 37.722656 10.742188 L 37.273438 9.796875 L 36.484375 8.179688 L 34.023438 3.117188 L 33.0625 1.164062 L 32.65625 0.402344 L 31.976562 0.371094 Z M 0 7.476562 C 0.277344 7.707031 0.683594 7.84375 1.003906 8.003906 L 9.269531 12.152344 C 10.097656 12.566406 10.917969 12.988281 11.742188 13.40625 L 12.097656 13.585938 C 12.507812 13.789062 12.984375 14.136719 13.433594 14.21875 L 13.433594 12.722656 L 13.402344 12.125 L 12.707031 11.738281 L 10.941406 10.855469 L 6.292969 8.507812 L 4.253906 7.476562 L 6.292969 6.464844 L 10.914062 4.160156 L 12.707031 3.261719 L 13.402344 2.882812 L 13.433594 2.292969 L 13.433594 0.769531 C 12.964844 0.851562 12.464844 1.21875 12.035156 1.433594 L 3.039062 5.945312 C 2.03125 6.453125 0.972656 6.90625 0 7.476562 Z M 45.59375 0.769531 L 45.59375 2.261719 C 45.59375 2.421875 45.539062 2.722656 45.625 2.859375 C 45.738281 3.035156 46.113281 3.140625 46.292969 3.230469 L 48.027344 4.101562 C 49.558594 4.867188 51.085938 5.648438 52.617188 6.417969 C 53.296875 6.761719 54.011719 7.265625 54.746094 7.476562 L 54.746094 7.539062 C 53.957031 7.765625 53.167969 8.292969 52.433594 8.660156 L 47.996094 10.886719 C 47.460938 11.152344 46.933594 11.449219 46.386719 11.6875 L 46.363281 11.695312 C 46.15625 11.78125 45.742188 11.914062 45.625 12.09375 C 45.539062 12.234375 45.59375 12.53125 45.59375 12.691406 L 45.59375 14.21875 L 47.265625 13.402344 L 56.144531 8.949219 L 59 7.507812 C 58.695312 7.199219 58.113281 7.023438 57.722656 6.828125 L 46.660156 1.28125 C 46.316406 1.109375 45.960938 0.875 45.59375 0.769531 Z M 45.59375 0.769531 "/>
</g>
</svg>
