<svg xmlns="http://www.w3.org/2000/svg" width="35" height="40"><path d="M17.246.047a3 3 0 0 0-.367.203c-.129.078-.399.238-.598.348-.203.113-.476.265-.613.343-.133.075-.285.16-.336.184-.047.02-.195.117-.316.219-.207.16-.23.207-.23.453 0 .21.042.328.183.504.101.129.18.254.18.293 0 .035.019.07.05.086.047.015.121.125.692.96.488.731.617.852.879.852.25 0 .351-.12.687-.808C18.898.723 18.828.906 18.648.676c-.164-.23-.812-.63-1.066-.66a.7.7 0 0 0-.336.03M20.145 1.855c-.141.16-.36.586-1.555 3.063-.25.52-.496 1.016-.543 1.11-.184.34-.125.511.512 1.433.324.484.62.922.652.976.039.055.074.114.094.133.035.032 1.164 1.7 1.343 1.98.254.4 1.13 1.66 1.239 1.778.09.102.195.14.386.14.286 0 .32-.038.567-.5.09-.175.25-.476.355-.66.207-.37.477-.863.793-1.453.117-.214.262-.476.325-.578.066-.105.187-.328.273-.492.086-.172.281-.523.434-.793.148-.265.312-.57.367-.668.047-.105.187-.347.3-.55.114-.2.336-.614.489-.922.273-.543.281-.567.187-.747-.066-.12-.328-.32-.86-.636-.429-.258-.796-.465-.823-.465-.032 0-.094-.035-.137-.078a.8.8 0 0 0-.23-.145c-.086-.043-.262-.14-.399-.219-.133-.074-.434-.246-.672-.378-.23-.133-.48-.274-.55-.317a3 3 0 0 0-.212-.117c-.05-.023-.257-.145-.46-.266-.739-.445-1.426-.793-1.567-.793-.086 0-.215.075-.308.164M12.586 2.637c-.043.047-.098.09-.129.09s-.324.16-.648.351c-.329.195-.641.371-.692.399-.097.043-.18.097-1.012.593-.273.168-.511.301-.53.301-.024 0-.348.188-.727.414-.38.23-.735.43-.782.457a1 1 0 0 0-.183.102 29 29 0 0 1-1.102.629 3 3 0 0 0-.21.12c-.071.044-.352.2-.63.36-.277.164-.726.418-1.003.578-.282.164-.563.32-.63.364a4 4 0 0 1-.242.14c-.07.04-.203.117-.308.184a7 7 0 0 1-.457.254 2 2 0 0 0-.305.183.7.7 0 0 1-.183.106c-.086.035-.196.09-.247.125-.34.226-1.03.61-1.09.61-.038 0-.07.023-.07.054s-.047.066-.101.094a.7.7 0 0 0-.203.097c-.047.028-.27.156-.489.285-.629.352-.605.297-.61 1.606 0 .879.017 1.168.09 1.308.052.098.38.52.739.938.356.422.746.883.867 1.031.13.145.258.297.29.332.034.04.28.332.55.649.266.316.5.59.523.605.02.02.25.293.512.61l.7.828c.12.136.273.312.34.398.363.43 1.144 1.355 1.468 1.734.2.239.434.512.512.61.086.097.316.37.52.605.206.239.456.532.554.66.105.125.262.266.355.317.157.086.196.086.372 0 .152-.074.25-.203.421-.567.13-.261.258-.52.286-.566.03-.05.496-.98 1.027-2.07 1.594-3.235 3.129-6.332 4.418-8.926.672-1.344 1.215-2.469 1.215-2.5 0-.04.043-.098.09-.14.171-.145.082-.696-.153-.915a137 137 0 0 1-1.344-1.976c-.27-.422-.886-1.297-.996-1.418-.152-.168-.652-.196-.773-.043M27.8 6.18c-.136.11-.183.187-.464.718a9 9 0 0 1-.29.516c-.066.117-.218.39-.339.61-.117.218-.234.417-.258.456-.023.032-.14.239-.258.457q-.38.706-.718 1.27c-.086.16-.18.324-.203.371-.024.05-.09.172-.153.277-.12.192-.383.676-.73 1.31-.117.218-.235.417-.258.456-.05.066-.344.594-.55.992-.075.137-.161.274-.188.29-.137.081-.051.468.175.8.122.18.258.375.286.43.039.055.074.117.093.133.02.02.14.195.274.398.136.2.258.375.277.395.035.035.856 1.242.945 1.386.036.055.133.203.23.325.095.12.169.25.169.285 0 .039.015.074.047.086.05.02.117.117.691.96.215.317.41.587.434.598.031.012.047.047.047.086 0 .031.117.211.265.402.145.188.285.387.305.438.023.047.305.46.617.914.645.926 2.113 3.055 2.203 3.215.04.055.074.113.094.133.016.015.14.187.273.39.133.192.336.426.446.508.175.137.215.14.386.074.22-.09.395-.316.645-.82.098-.203.289-.562.418-.793.125-.238.316-.578.406-.762.098-.18.278-.496.387-.699.195-.348.226-.406.305-.598.03-.07.191-.359.671-1.226l.38-.695.14-.27V10.11l-.133-.199c-.129-.176-.625-.492-1.945-1.23-.113-.059-.254-.14-.305-.168a38 38 0 0 0-1.097-.63 4 4 0 0 1-.278-.163 3 3 0 0 0-.273-.164c-.047-.024-.285-.16-.524-.305-.238-.145-.472-.262-.508-.262a.065.065 0 0 1-.066-.062c0-.035-.031-.059-.07-.059-.035 0-.266-.117-.504-.262a8 8 0 0 0-.527-.304c-.047-.031-.157-.086-.243-.133-.21-.125-.57-.117-.726.012M16.816 8.523c-.058.079-.687 1.344-1.933 3.915-.363.734-.68 1.382-.715 1.43a1 1 0 0 0-.094.183c-.023.047-.347.719-.726 1.492-.38.766-.953 1.945-1.282 2.617-1.375 2.805-2.125 4.34-2.296 4.676-.305.602-.282.68.5 1.594.375.433.726.847.78.918.669.785 1.7 2.011 1.915 2.257.14.172.336.348.426.387.25.11.507-.031.683-.37.082-.153.207-.388.281-.52.13-.22.36-.641.704-1.274.23-.43.597-1.09.707-1.277.062-.102.183-.32.27-.488.085-.168.206-.387.269-.485.105-.176.425-.754.707-1.281.433-.79.71-1.29.765-1.367a7 7 0 0 0 .211-.395 9 9 0 0 1 .27-.488c.055-.106.226-.402.375-.672.144-.266.316-.582.383-.7.195-.35.476-.863.613-1.124.07-.133.137-.258.156-.274.024-.02.098-.152.18-.304.078-.153.195-.371.265-.489.137-.238.364-.644.602-1.082.082-.16.223-.414.32-.574.246-.414.223-.625-.109-1.078a4 4 0 0 1-.273-.398c0-.02-.16-.25-.348-.512-.344-.477-.824-1.152-.985-1.383a21 21 0 0 0-.593-.848 18 18 0 0 1-.559-.82 2 2 0 0 0-.094-.152c-.03-.035-.187-.258-.355-.489-.48-.68-.492-.691-.738-.699-.121 0-.25.035-.282.074M.191 15.762l-.187.187v6.942c0 8.035-.098 7.086.77 7.597.285.164.55.305.578.305.03 0 .054.023.054.059 0 .03.032.062.07.062.036 0 .34.164.676.363.332.203.63.368.653.368.03 0 .086.043.129.09.105.128.507.117.625-.02.046-.055.457-.844.898-1.746.445-.907.828-1.688.867-1.735.028-.047.07-.132.09-.183.02-.047.063-.133.094-.184a294.398 294.398 0 0 1 1.02-2.066c1.085-2.18 1.066-2.09.5-2.746a26 26 0 0 1-.641-.758c-.137-.164-.278-.32-.305-.356-.039-.039-.172-.207-.309-.375a6 6 0 0 0-.273-.332c-.055-.05-.8-.925-1.07-1.25-.133-.164-.274-.32-.305-.359-.035-.035-.172-.207-.305-.371a9 9 0 0 0-.273-.332 27 27 0 0 1-.703-.817c-.137-.164-.278-.328-.305-.367-.039-.035-.367-.425-.727-.86-1.19-1.417-1.265-1.472-1.62-1.116M22.156 16.406a2.6 2.6 0 0 0-.304.446c-.082.152-.211.37-.278.484-.066.117-.183.324-.254.457-.168.3-.453.816-.66 1.187-.082.153-.246.45-.367.672a7 7 0 0 1-.258.453c-.047.07-.445.793-.598 1.098-.054.098-.109.195-.128.211-.016.02-.098.152-.176.305-.203.39-.672 1.25-1.235 2.254-.175.316-.367.656-.414.761-.054.098-.109.196-.129.211-.02.02-.097.153-.175.305-.157.313-.516.977-.688 1.25l-.305.547c-.109.203-.28.504-.37.683-.184.32-.258.461-.75 1.375l-.297.543.113.207c.066.114.394.547.742.954.352.41.734.867.855 1.011.258.297.325.383 1.118 1.32.32.368.687.805.82.97.133.156.273.32.312.359.028.035.293.34.575.676.28.335.523.62.547.636.02.02.148.168.277.336.133.164.254.317.273.336s.207.238.422.488c.219.246.442.493.488.528.165.14.551.093.875-.102.157-.097.317-.183.348-.183s.098-.036.14-.075c.048-.043.177-.129.294-.195.426-.223.648-.352.824-.469.102-.058.227-.133.273-.156.051-.023.336-.187.641-.371.3-.184.602-.355.672-.383a1.4 1.4 0 0 0 .215-.117c.238-.152 1.226-.73 1.258-.73.085 0 .457-.336.53-.481.348-.656.673-1.254.868-1.621.129-.238.313-.578.41-.762.098-.18.274-.496.387-.699.113-.2.223-.402.242-.445.02-.035.043-.11.063-.149.015-.039.128-.238.242-.441.11-.2.289-.516.386-.7.805-1.523.758-1.406.676-1.6a4 4 0 0 0-.34-.536 3 3 0 0 1-.261-.395c0-.02-.117-.191-.266-.379a47 47 0 0 1-1.262-1.84c-.039-.035-.105-.132-.68-.96-.214-.309-.413-.614-.452-.668a4 4 0 0 0-.223-.325c-.102-.12-.172-.25-.172-.285s-.02-.074-.043-.086c-.055-.023-.152-.156-.832-1.156-.543-.805-.79-1.156-.836-1.207a45 45 0 0 1-.945-1.387 1 1 0 0 0-.094-.132c-.043-.043-.195-.262-.816-1.18-.293-.434-.602-.836-.668-.899-.196-.164-.422-.136-.61.051M34.25 24.887a1.5 1.5 0 0 0-.29.375c-.128.25-.241.457-.683 1.25-.324.59-.66 1.261-.66 1.32 0 .05.305.555.442.738.273.36.78 1.078.879 1.235.12.218.425.437.597.437.063 0 .192-.078.29-.176l.175-.175v-4.75l-.176-.188c-.21-.219-.355-.238-.574-.066M8.621 25.39c-.133.067-.305.286-.41.532l-1.195 2.433-1.614 3.258c-.25.5-.453.957-.453 1.012 0 .164.215.383.528.535.164.086.464.25.664.371.203.121.41.239.457.262.05.023.257.14.46.254.2.117.422.246.489.273.066.04.207.117.305.184.105.066.226.14.273.164.05.02.203.11.336.195.496.305 1.016.543 1.133.512.176-.047.406-.305.558-.621.082-.152.246-.45.368-.664.128-.207.234-.395.234-.418 0-.02.078-.164.176-.324.097-.157.28-.473.41-.707.129-.23.273-.504.336-.602.058-.102.183-.324.27-.488.081-.168.238-.442.34-.61.495-.832.554-1.086.3-1.386-.063-.075-.29-.34-.496-.59a63 63 0 0 0-1-1.18c-.07-.074-1.211-1.437-1.406-1.676-.286-.359-.75-.797-.832-.797a.6.6 0 0 0-.23.079M31.605 29.86c-.125.062-.25.214-.375.437-.097.191-.28.52-.394.738-.293.543-.324.711-.172.957.102.168.152.2.348.2a1.2 1.2 0 0 0 .476-.153c.133-.086.285-.172.336-.195.164-.074.703-.407.781-.489.149-.136.153-.418.012-.699-.367-.73-.664-.96-1.012-.797M13.75 31.668c-.078.043-.23.242-.34.437a41 41 0 0 1-.77 1.395 7 7 0 0 0-.269.488c-.086.164-.207.383-.27.485-.109.191-.468.836-.718 1.297-.25.468-.13.84.347 1.046.086.032.239.118.336.184.102.066.227.14.274.164.05.023.398.227.77.445.374.227.722.426.765.446.047.023.25.14.45.254.202.117.421.246.488.273.07.04.21.117.308.184.102.066.223.14.274.164.046.023.27.148.48.28.215.13.453.263.52.294.074.027.183.09.25.125.613.398.94.453 1.328.238.109-.058.422-.238.687-.39.277-.157.617-.344.766-.426.554-.29.62-.656.195-1.106a15 15 0 0 1-.469-.55 7 7 0 0 0-.277-.333c-.031-.023-.297-.343-.977-1.132-.085-.098-.37-.438-.636-.754-.266-.317-.516-.61-.547-.649-.04-.035-.18-.199-.313-.359a93 93 0 0 0-1.07-1.246c-.016-.02-.23-.27-.469-.559-.445-.531-.734-.781-.886-.781a1 1 0 0 0-.227.086m0 0" style="stroke:none;fill-rule:nonzero;fill:#208fea;fill-opacity:1"/></svg>