<?xml version="1.0" encoding="UTF-8"?>
<svg xmlns="http://www.w3.org/2000/svg" xmlns:xlink="http://www.w3.org/1999/xlink" width="42px" height="42px" viewBox="0 0 42 42" version="1.1">
<defs>
<linearGradient id="linear0" gradientUnits="userSpaceOnUse" x1="0.129594" y1="0.120394" x2="0.796388" y2="0.782009" gradientTransform="matrix(31.054688,0,0,31.261719,0.0234375,0.0117187)">
<stop offset="0" style="stop-color:rgb(21.960784%,49.411765%,72.156863%);stop-opacity:1;"/>
<stop offset="1" style="stop-color:rgb(21.176471%,41.176471%,58.039216%);stop-opacity:1;"/>
</linearGradient>
<linearGradient id="linear1" gradientUnits="userSpaceOnUse" x1="0.191275" y1="0.205792" x2="0.907415" y2="0.88429" gradientTransform="matrix(31.054688,0,0,31.261719,10.867188,10.59375)">
<stop offset="0" style="stop-color:rgb(100%,87.843137%,32.156863%);stop-opacity:1;"/>
<stop offset="1" style="stop-color:rgb(100%,76.470588%,19.215686%);stop-opacity:1;"/>
</linearGradient>
</defs>
<g id="surface1">
<path style=" stroke:none;fill-rule:nonzero;fill:url(#linear0);" d="M 20.820312 0.0117188 C 10.1875 0.0117188 10.851562 4.644531 10.851562 4.644531 L 10.863281 9.441406 L 21.011719 9.441406 L 21.011719 10.878906 L 6.828125 10.878906 C 6.828125 10.878906 0.0234375 10.105469 0.0234375 20.878906 C 0.0234375 31.65625 5.964844 31.273438 5.964844 31.273438 L 9.511719 31.273438 L 9.511719 26.273438 C 9.511719 26.273438 9.320312 20.308594 15.355469 20.308594 L 25.421875 20.308594 C 25.421875 20.308594 31.078125 20.398438 31.078125 14.820312 L 31.078125 5.59375 C 31.078125 5.59375 31.9375 0.0117188 20.820312 0.0117188 Z M 15.226562 3.238281 C 16.234375 3.238281 17.050781 4.058594 17.050781 5.070312 C 17.050781 6.085938 16.234375 6.90625 15.226562 6.90625 C 14.214844 6.90625 13.398438 6.085938 13.398438 5.070312 C 13.398438 4.058594 14.214844 3.238281 15.226562 3.238281 Z M 15.226562 3.238281 "/>
<path style=" stroke:none;fill-rule:nonzero;fill:url(#linear1);" d="M 21.125 41.855469 C 31.761719 41.855469 31.097656 37.226562 31.097656 37.226562 L 31.085938 32.429688 L 20.933594 32.429688 L 20.933594 30.988281 L 35.117188 30.988281 C 35.117188 30.988281 41.921875 31.761719 41.921875 20.988281 C 41.921875 10.214844 35.980469 10.59375 35.980469 10.59375 L 32.4375 10.59375 L 32.4375 15.59375 C 32.4375 15.59375 32.628906 21.558594 26.589844 21.558594 L 16.523438 21.558594 C 16.523438 21.558594 10.867188 21.46875 10.867188 27.046875 L 10.867188 36.273438 C 10.867188 36.273438 10.007812 41.855469 21.125 41.855469 Z M 26.722656 38.628906 C 25.710938 38.628906 24.894531 37.8125 24.894531 36.796875 C 24.894531 35.78125 25.710938 34.964844 26.722656 34.964844 C 27.730469 34.964844 28.546875 35.78125 28.546875 36.796875 C 28.546875 37.8125 27.730469 38.628906 26.722656 38.628906 Z M 26.722656 38.628906 "/>
</g>
</svg>
