<?xml version="1.0" encoding="UTF-8"?>
<svg xmlns="http://www.w3.org/2000/svg" xmlns:xlink="http://www.w3.org/1999/xlink" width="px" height="40px" viewBox="0 0 33 39" version="1.1">
<g id="surface1">
<path style=" stroke:none;fill-rule:nonzero;fill:rgb(93.333334%,29.803923%,17.254902%);fill-opacity:1;" d="M 28.136719 11.335938 C 34.621094 17.664062 34.621094 27.8125 28.136719 34.183594 C 21.789062 40.511719 11.34375 40.511719 4.863281 34.183594 C -1.621094 27.855469 -1.621094 17.664062 4.863281 11.335938 L 16.476562 0 L 16.476562 5.667969 L 15.398438 6.722656 L 7.699219 14.234375 C 2.835938 18.894531 2.835938 26.539062 7.699219 31.285156 C 12.46875 36.027344 20.304688 36.027344 25.167969 31.285156 C 30.027344 26.625 30.027344 18.980469 25.167969 14.234375 Z M 22.332031 10.632812 C 21.136719 10.632812 20.167969 9.6875 20.167969 8.523438 C 20.167969 7.359375 21.136719 6.414062 22.332031 6.414062 C 23.523438 6.414062 24.492188 7.359375 24.492188 8.523438 C 24.492188 9.6875 23.523438 10.632812 22.332031 10.632812 Z M 22.332031 10.632812 "/>
</g>
</svg>
