<?xml version="1.0" encoding="UTF-8"?>
<svg xmlns="http://www.w3.org/2000/svg" xmlns:xlink="http://www.w3.org/1999/xlink" width="px" height="40px" viewBox="0 0 40 40" version="1.1">
<defs>
<clipPath id="clip1">
  <path d="M 4 7 L 37 7 L 37 33 L 4 33 Z M 4 7 "/>
</clipPath>
<clipPath id="clip2">
  <path d="M 38.042969 19.992188 C 38.042969 10.027344 29.964844 1.949219 20 1.949219 C 10.035156 1.949219 1.960938 10.027344 1.960938 19.992188 C 1.960938 29.957031 10.035156 38.03125 20 38.03125 C 29.964844 38.03125 38.042969 29.957031 38.042969 19.992188 Z M 38.042969 19.992188 "/>
</clipPath>
</defs>
<g id="surface1">
<path style=" stroke:none;fill-rule:nonzero;fill:rgb(0%,32.941177%,65.098041%);fill-opacity:1;" d="M 20 1.949219 C 10.035156 1.949219 1.960938 10.027344 1.960938 19.992188 C 1.960938 22.980469 2.703125 25.921875 4.125 28.554688 C 4.226562 28.578125 4.328125 28.617188 4.425781 28.664062 C 4.773438 28.824219 5.105469 29.058594 5.300781 29.386719 C 5.398438 29.554688 5.460938 29.742188 5.46875 29.933594 C 5.476562 30.125 5.429688 30.320312 5.324219 30.480469 C 8.710938 35.21875 14.175781 38.03125 20 38.03125 C 29.964844 38.03125 38.042969 29.957031 38.042969 19.992188 C 38.042969 10.027344 29.964844 1.949219 20 1.949219 Z M 20 1.949219 "/>
<path style=" stroke:none;fill-rule:evenodd;fill:rgb(0%,32.941177%,65.098041%);fill-opacity:1;" d="M 36.683594 13.210938 L 37.605469 12.78125 L 38.226562 11.082031 L 38.878906 11.308594 L 38.320312 12.828125 L 39.871094 13.367188 L 39.636719 14.003906 L 37.902344 13.394531 L 36.945312 13.835938 "/>
<g clip-path="url(#clip1)" clip-rule="nonzero">
<g clip-path="url(#clip2)" clip-rule="evenodd">
<path style=" stroke:none;fill-rule:evenodd;fill:rgb(100%,100%,100%);fill-opacity:1;" d="M 26.707031 22.359375 C 25.464844 20.660156 23.007812 19.671875 20.902344 19.207031 C 18.796875 18.742188 17.515625 18.386719 16.492188 17.832031 C 15.320312 17.199219 14.402344 15.332031 14.761719 13.714844 C 15.324219 11.179688 17.589844 9.351562 20.179688 9.714844 C 21.472656 9.898438 22.566406 10.582031 23.289062 11.546875 L 26.15625 15.308594 C 27.792969 17.417969 29.636719 18.046875 31.636719 17.050781 L 32.613281 16.589844 C 32.695312 16.550781 32.792969 16.476562 32.949219 16.527344 C 33.109375 16.578125 33.1875 16.714844 33.277344 16.875 C 33.367188 17.035156 33.460938 17.183594 33.628906 17.222656 C 33.796875 17.261719 34.027344 17.234375 34.136719 17.132812 C 34.882812 16.425781 36.386719 14.984375 36.386719 14.984375 C 36.792969 14.632812 36.675781 14.3125 36.675781 14.3125 L 36.113281 13.035156 C 36.113281 13.035156 35.960938 12.730469 35.429688 12.800781 L 32.3125 13.085938 C 32.128906 13.113281 31.96875 13.234375 31.898438 13.417969 C 31.855469 13.523438 31.851562 13.636719 31.882812 13.738281 L 31.996094 14.097656 C 32.019531 14.171875 32.019531 14.257812 31.988281 14.332031 C 31.949219 14.429688 31.878906 14.496094 31.792969 14.53125 L 30.910156 14.90625 C 29.894531 15.25 28.9375 15.101562 28.238281 14.242188 L 27.4375 13.179688 L 25.15625 10.152344 C 24.074219 8.71875 22.441406 7.695312 20.515625 7.425781 C 16.652344 6.882812 13.070312 9.558594 12.511719 13.394531 C 12.226562 15.328125 12.492188 16.964844 13.953125 18.636719 C 15.414062 20.308594 18.257812 20.945312 20.71875 21.507812 C 20.984375 21.570312 21.722656 21.753906 22.164062 21.914062 C 22.566406 22.058594 23.503906 22.402344 24.261719 23.023438 C 25.167969 23.945312 25.648438 25.265625 25.445312 26.644531 C 25.101562 29 22.902344 30.640625 20.535156 30.308594 C 19.347656 30.144531 18.34375 29.515625 17.683594 28.632812 L 14.945312 25 C 14.386719 24.261719 13.542969 23.730469 12.546875 23.589844 C 11.550781 23.449219 10.585938 23.726562 9.839844 24.285156 L 4.121094 28.554688 C 4.363281 29.242188 4.667969 29.929688 5.324219 30.484375 L 11.21875 26.066406 C 11.488281 25.878906 11.824219 25.796875 12.171875 25.84375 C 12.539062 25.898438 12.855469 26.089844 13.0625 26.367188 L 15.957031 30.257812 C 16.976562 31.507812 18.457031 32.394531 20.191406 32.640625 C 23.84375 33.148438 27.230469 30.621094 27.761719 26.992188 C 28.003906 25.300781 27.59375 23.671875 26.707031 22.359375 "/>
</g>
</g>
</g>
</svg>
