<svg xmlns="http://www.w3.org/2000/svg" width="40" height="40"><path d="M20 0C8.953 0 0 8.953 0 20s8.953 20 20 20 20-8.953 20-20a19 19 0 0 0-5.54-14.46A19 19 0 0 0 20 0m0 0" style="stroke:none;fill-rule:nonzero;fill:#fff;fill-opacity:1"/><path d="M16 12c.55 0 1-.45 1-1s-.45-1-1-1-1 .45-1 1 .45 1 1 1m-2 1c.55 0 1-.45 1-1s-.45-1-1-1-1 .45-1 1 .45 1 1 1m-1 0c.55 0 1-.45 1-1s-.45-1-1-1-1 .45-1 1v1c.309.18.691.18 1 0m4-2 1-1c0-.55-.45-1-1-1s-1 .45-1 1 .45 1 1 1m-6 1a1 1 0 0 0 0-1 1 1 0 0 0 0 1m-1 3c.55 0 1-.45 1-1a1.001 1.001 0 0 0-.5-1.867A1.001 1.001 0 0 0 10 14Zm1-5a1.12 1.12 0 0 0-1-2v1c0 .55.45 1 1 1m2 1a1 1 0 0 0 0-1h-1v1c.309.18.691.18 1 0m10-2a1.001 1.001 0 0 0 1.867-.5A1.001 1.001 0 1 0 23 9M9 13v-1H8v1Zm1 0v-1Zm-2-2a1.001 1.001 0 0 0 1.867-.5A1.001 1.001 0 1 0 8 11m2 0v-1Zm5-1V9a1 1 0 0 0-1 0c0 .55.45 1 1 1m4 1 1-1h-1Zm2-2c.309.18.691.18 1 0V8a1 1 0 0 0-1 0 1 1 0 0 0 0 1m-5 0V8h-1c0 .55.45 1 1 1m-8 6v-1Zm0 0" style="stroke:none;fill-rule:nonzero;fill:#afdad2;fill-opacity:1"/><path d="M24 10c.55 0 1-.45 1-1s-.45-1-1-1l-1 1c0 .55.45 1 1 1m-7-1c.55 0 1-.45 1-1h-1c-.55 0-1 .45-1 1Zm-8 1c.55 0 1-.45 1-1H9V8Zm3-2c.55 0 1-.45 1-1s-.45-1-1-1-1 .45-1 1 .45 1 1 1m14 1h1V8h-1ZM10 7h1c0-.55-.45-1-1-1a1 1 0 0 0 0 1m3 3 1-1h-1Zm1-1 1-1h-1Zm-7 1a1 1 0 0 0 0-1 1 1 0 0 0-1 0c0 .55.45 1 1 1m1-2V7H7Zm11 1h-1ZM6 12c.309.18.691.18 1 0 0-.55-.45-1-1-1a1 1 0 0 0 0 1m-1-1v-1l-1 1Zm15-2V8l-1 1ZM9 12c.55 0 1-.45 1-1s-.45-1-1-1H8c-.55 0-1 .45-1 1s.45 1 1 1Zm16-4c.309.18.691.18 1 0V7h-1a1 1 0 0 0 0 1M7 15H6Zm10-8h1a1 1 0 0 0 0-1h-1Zm13 1V7a1 1 0 0 0-1 0c0 .55.45 1 1 1m-8-1h-1Zm-11 7c.55 0 1-.45 1-1s-.45-1-1-1-1 .45-1 1Zm12-6 1-1-1-1Zm5 0V7h-1c0 .55.45 1 1 1m4 1h1ZM15 6h1V5h-1Zm4-1 1-1h-2c0 .55.45 1 1 1m13 3a1.001 1.001 0 0 0 1.867-.5A1.001 1.001 0 0 0 32 7a1.001 1.001 0 0 0-1.867.5A1.001 1.001 0 0 0 32 8M18 8h1a1 1 0 0 0 0-1 1 1 0 0 0-1 0 1 1 0 0 0 0 1m3-2c.55 0 1-.45 1-1s-.45-1-1-1a1 1 0 0 0-1 0v1c0 .55.45 1 1 1m6 1V6c0-.55-.45-1-1-1a1.12 1.12 0 0 0 1 2m7 4h1v-1a1.001 1.001 0 0 0-.5-1.867A1.001 1.001 0 0 0 34 10ZM19 3V2h-1Zm0 0" style="stroke:none;fill-rule:nonzero;fill:#afdad2;fill-opacity:1"/><path d="M25 7h1V6a1 1 0 0 0-1 0 1 1 0 0 0-1 0c0 .55.45 1 1 1m-1-1c.55 0 1-.45 1-1a1 1 0 0 0-1 0 1.001 1.001 0 0 0-1.867.5A1.001 1.001 0 0 0 24 6m-2-2V3h-1v1Zm-8 3a1 1 0 0 0 0-1c-.55 0-1 .45-1 1 .309.18.691.18 1 0M9 6V5Zm2 0c.55 0 1-.45 1-1a1 1 0 0 0-1 0 1 1 0 0 0 0 1m11 0V5Zm-8 0c.55 0 1-.45 1-1a1 1 0 0 0-1 0h-1ZM4 14a1 1 0 0 0 0-1 1 1 0 0 0-1 0c0 .55.45 1 1 1m1 1c.55 0 1-.45 1-1v-1H5Zm6-7c.309.18.691.18 1 0a1 1 0 0 0-1 0m-7 5c.55 0 1-.45 1-1s-.45-1-1-1-1 .45-1 1 .45 1 1 1m5-5c.55 0 1-.45 1-1a1 1 0 0 0-1 0 1 1 0 0 0 0 1m0 0" style="stroke:none;fill-rule:nonzero;fill:#afdad2;fill-opacity:1"/><path d="M7 14a1 1 0 0 0 0-1 1 1 0 0 0 0-1c-.55 0-1 .45-1 1s.45 1 1 1m24-5c.55 0 1-.45 1-1s-.45-1-1-1-1 .45-1 1 .45 1 1 1m3 0a1 1 0 0 0 0-1 1 1 0 0 0-1 0v1ZM16 8c.55 0 1-.45 1-1s-.45-1-1-1a1 1 0 0 0 0 1 1 1 0 0 0 0 1m12-1h1V6h-1Zm0-1h1c.55 0 1-.45 1-1s-.45-1-1-1a1 1 0 0 0-1 0c-.55 0-1 .45-1 1s.45 1 1 1m-9 1c.55 0 1-.45 1-1a1 1 0 0 0-1 0 1 1 0 0 0-1 0v1Zm14 3h1c0-.55-.45-1-1-1a1 1 0 0 0 0 1M5 16h1v-1H5Zm8-10a1 1 0 0 0 0-1h-1c0 .55.45 1 1 1m4-1V4Zm14 1V5c-.55 0-1 .45-1 1ZM16 4l1-1a1 1 0 0 0-1 0h-1v1Zm0 0" style="stroke:none;fill-rule:nonzero;fill:#afdad2;fill-opacity:1"/><path d="M27 5h1V4a1 1 0 0 0-1 0 1 1 0 0 0 0 1M13 4V3h-1v1Zm1 0c.55 0 1-.45 1-1h-1a1 1 0 0 0-1 0Zm9-1h1a1 1 0 0 0 0-1h-2Zm-3 0h1c0-.55-.45-1-1-1a1 1 0 0 0 0 1m4 1h1V3h-1Zm0 0" style="stroke:none;fill-rule:nonzero;fill:#afdad2;fill-opacity:1"/><path d="M23 4h1c0-.55-.45-1-1-1l-1 1c.309.18.691.18 1 0m3 0 1-1a1 1 0 0 0-1 0ZM2 16a1.001 1.001 0 0 0 1.867-.5A1.001 1.001 0 1 0 2 16M17 4h1V3h-1Zm13 1V4Zm-8-2a1 1 0 0 0 0-1 1 1 0 0 0-1 0v1ZM7 13l1-1v-1a1 1 0 0 0-1 0 1 1 0 0 0 0 1Zm0 0" style="stroke:none;fill-rule:nonzero;fill:#afdad2;fill-opacity:1"/><path d="M27 9h-3l-1 1h-3l-1 1h-1l-1 1h-1l-2 1h-1v1h-3v1H8v1H4l-1 1H1a19.1 19.1 0 0 0 0 5v1l1-1 2-1h1l1-1h2l1-1h2v-1h7l1 1h2l1 1h2l1 1h1l1 1h2v1h2v1h3v1h3l1 1v-1l1-5-1-7-1-1h-1l-1-1h-1l-1-1h-3l-1-1Zm-1 0h1l1 1h4l1 1h1l1 1h2v1l2 7-1 5h-3l-1-1h-2v-1h-2l-1-1h-2l-2-1-1-1h-1l-1-1h-2l-1-1h-8l-1 1H8l-1 1H6l-1 1H4l-1 1H1a19.1 19.1 0 0 1 0-5h4l1-1h2l1-1h2v-1h3v-1h2v-1h2l1-1h1l1-1h4Zm0 0" style="stroke:none;fill-rule:nonzero;fill:#fff;fill-opacity:1"/><path d="M26 9h2l1 1h3l1 1h1l1 1h2v1l2 7-1 5h-3l-1-1h-2v-1h-3v-1h-2l-1-1h-1l-1-1h-1l-1-1h-2l-1-1h-8l-1 1H8l-1 1H6l-1 1H4l-1 1H1a19.1 19.1 0 0 1 0-5h4l1-1h2v-1h3v-1h2v-1h1l2-1h2l1-1h1l1-1h3l1-1Zm0 0" style="stroke:none;fill-rule:nonzero;fill:#7db0bc;fill-opacity:1"/><path d="M15 18h3l1 1h2l1 1h2v1h2l1 1h1l1 1h2l1 1h2v1h3l1 1-1 1a19 19 0 0 1-19.852 10.828A19 19 0 0 1 1 22h2l1-1h2v-1h2v-1h3l1-1Zm0 0" style="stroke:none;fill-rule:nonzero;fill:#5c7da2;fill-opacity:1"/><path d="M16 23v2h5v4h4v2h4v1h5v1h-1a19 19 0 0 1-15.992 5.445A19 19 0 0 1 3 29v-2h5v-3h4v-1Zm0 0" style="stroke:none;fill-rule:nonzero;fill:#444876;fill-opacity:1"/><path d="M17 23v2h4v4h4v2h5v1h4v1-1h-4v4h-1v-5h-4v7-9h-4v10-13h-4v12h-1V23h-4v14-13H8v10-7H4v2H3v-3h5v-3Zm0 0" style="stroke:none;fill-rule:nonzero;fill:#fff;fill-opacity:1"/><path d="M20 0c11.047 0 20 8.953 20 20s-8.953 20-20 20S0 31.047 0 20 8.953 0 20 0m0 1C9.508 1 1 9.508 1 20s8.508 19 19 19 19-8.508 19-19S30.492 1 20 1m0 0" style="stroke:none;fill-rule:nonzero;fill:#444876;fill-opacity:1"/></svg>