<svg xmlns="http://www.w3.org/2000/svg" width="68.719" height="40" style="max-height:500px"><path d="M56.758 34.043c9.035-9.074 10.539-22.273 3.355-29.484s-20.332-5.704-29.37 3.367c-9.036 9.07-6.423 26.402-3.352 29.484 2.476 2.488 20.332 5.703 29.367-3.367m0 0" style="stroke:none;fill-rule:nonzero;fill:#f89939;fill-opacity:1"/><path d="M19.676 20.934c-5.242-5.262-12.871-6.141-17.043-1.954-4.168 4.184-3.293 11.844 1.949 17.106 5.242 5.266 15.262 3.742 17.04 1.953 1.44-1.441 3.3-11.844-1.946-17.105m0 0" style="stroke:none;fill-rule:nonzero;fill:#3499cd;fill-opacity:1"/><path d="M37.766 31.816q-1.39 1.285-2.438 1.895t-1.996.61q-1.096.002-1.766-.852-.668-.85-.668-2.285 0-2.155.93-5.172c.621-2.012 1.371-3.864 2.258-5.563l2.598-.965a.6.6 0 0 1 .183-.039q.296 0 .485.434.19.438.191 1.176c0 1.398-.32 2.746-.965 4.054q-.959 1.958-3.004 4.184c-.054.71-.082 1.203-.082 1.469q0 .89.328 1.414.33.525.867.523.556 0 1.176-.398.626-.399 1.903-1.664Zm-3.914-4.007a12.7 12.7 0 0 0 2.105-3.247c.54-1.199.805-2.23.805-3.093q.001-.38-.11-.614c-.074-.152-.172-.23-.285-.23q-.38 0-1.101 1.89-.719 1.891-1.414 5.294m0 0" style="stroke:none;fill-rule:nonzero;fill:#010101;fill-opacity:1"/><path d="M45.41 31.816q-1.295 1.285-2.328 1.895-1.036.61-2.281.61-1.388 0-2.242-.891-.856-.895-.856-2.352c0-1.45.504-2.762 1.504-3.933q1.502-1.758 3.332-1.758.949 0 1.523.492.57.491.57 1.293c0 1.414-1.495 2.562-4.495 3.445q.409 2.002 2.136 2 .676 0 1.286-.363.615-.364 1.851-1.613Zm-5.355-1.894c1.742-.496 2.617-1.402 2.617-2.73q0-.985-.715-.985-.675 0-1.289 1.031-.614 1.032-.613 2.684m0 0" style="stroke:none;fill-rule:nonzero;fill:#010101;fill-opacity:1"/><path d="M56.324 31.816q-1.635 1.563-2.34 2.036-.703.468-1.347.468-1.617 0-1.524-2.86-1.02 1.466-1.886 2.165-.862.696-1.782.695-.9 0-1.53-.843-.627-.849-.626-2.079c0-1.027.277-2.003.84-2.933a6.96 6.96 0 0 1 2.164-2.258q1.32-.862 2.328-.863 1.279 0 1.79 1.18l2.089-1.157h.574l-.902 3.004q-.696 2.267-.695 3.11c0 .585.207.882.62.882q.4.001.88-.425.48-.43 1.347-1.301Zm-7.48.567q1.021.001 1.926-1.75.907-1.748.906-3.227-.001-.575-.254-.898a.84.84 0 0 0-.688-.32c-.68 0-1.328.578-1.933 1.742q-.92 1.746-.918 3.21c0 .372.09.669.273.9a.83.83 0 0 0 .688.343m0 0" style="stroke:none;fill-rule:nonzero;fill:#010101;fill-opacity:1"/><path d="M63.96 31.816q-2.566 2.527-3.956 2.528c-.414 0-.766-.18-1.05-.528-.286-.355-.43-.789-.43-1.312q0-1.442 1.542-3.875a5.7 5.7 0 0 1-1.656.543q-.662 1.231-2.086 2.644h-.234v-.921a13.5 13.5 0 0 0 1.441-1.786q-.879-.386-.879-1.16c0-.527.18-1.086.535-1.687q.539-.896 1.481-.895c.531 0 .797.27.797.82q-.002.644-.461 1.844 1.693-.18 2.965-2.605l.93-.04-.954 2.626a52 52 0 0 0-.765 2.261 4 4 0 0 0-.172 1.063q0 .432.199.687a.64.64 0 0 0 .535.258q.369-.001.703-.254.339-.25 1.516-1.39Zm0 0" style="stroke:none;fill-rule:nonzero;fill:#010101;fill-opacity:1"/><path d="M73.996 31.816q-2.36 2.506-4.047 2.504-.684 0-1.105-.48c-.278-.32-.418-.754-.418-1.293 0-.73.3-1.852.898-3.356.32-.804.48-1.32.48-1.539q0-.327-.253-.328-.143.002-.38.145c-.144.093-.308.23-.5.402q-.257.235-.573.57-.278.293-.59.66l-.574.665c-.25.308-.41.632-.47.976a15 15 0 0 0-.206 1.602q-.03.539-.031 1.465l-2.258.535q-.112-1.39-.114-2.063 0-1.651.387-3.129c.254-.988.664-2.093 1.23-3.324l2.493-.484q-.786 2.126-1.031 3.343 1.676-1.876 2.66-2.597c.656-.485 1.238-.723 1.75-.723q.52-.001.867.395.346.391.348.988 0 .979-.88 3.242-.604 1.546-.605 2.008 0 .621.504.621c.496 0 1.305-.66 2.418-1.98Zm0 0" style="stroke:none;fill-rule:nonzero;fill:#010101;fill-opacity:1"/></svg>