<svg xmlns="http://www.w3.org/2000/svg" xmlns:xlink="http://www.w3.org/1999/xlink" width="50" height="35"><defs><clipPath id="b"><path d="M0 0h50v35H0z"/></clipPath><clipPath id="c"><path d="M0 0h50v35H0z"/></clipPath><clipPath id="d"><path d="M0 0h50v35H0z"/></clipPath><clipPath id="e"><path d="M0 0h50v35H0z"/></clipPath><clipPath id="f"><path d="M0 0h50v35H0z"/></clipPath><clipPath id="g"><path d="M0 0h50v35H0z"/></clipPath><clipPath id="h"><path d="M0 0h50v35H0z"/></clipPath><clipPath id="i"><path d="M0 0h50v35H0z"/></clipPath><clipPath id="j"><path d="M0 0h50v35H0z"/></clipPath><mask id="l"><g filter="url(#a)"><path d="M0 0h50v35H0z" style="fill:#000;fill-opacity:.486275;stroke:none"/></g></mask><mask id="n"><g filter="url(#a)"><path d="M0 0h50v35H0z" style="fill:#000;fill-opacity:.501961;stroke:none"/></g></mask><mask id="p"><g filter="url(#a)"><path d="M0 0h50v35H0z" style="fill:#000;fill-opacity:.521569;stroke:none"/></g></mask><mask id="r"><g filter="url(#a)"><path d="M0 0h50v35H0z" style="fill:#000;fill-opacity:.419608;stroke:none"/></g></mask><mask id="t"><g filter="url(#a)"><path d="M0 0h50v35H0z" style="fill:#000;fill-opacity:.501961;stroke:none"/></g></mask><mask id="v"><g filter="url(#a)"><path d="M0 0h50v35H0z" style="fill:#000;fill-opacity:.498039;stroke:none"/></g></mask><mask id="x"><g filter="url(#a)"><path d="M0 0h50v35H0z" style="fill:#000;fill-opacity:.47451;stroke:none"/></g></mask><mask id="z"><g filter="url(#a)"><path d="M0 0h50v35H0z" style="fill:#000;fill-opacity:.54902;stroke:none"/></g></mask><mask id="B"><g filter="url(#a)"><path d="M0 0h50v35H0z" style="fill:#000;fill-opacity:.478431;stroke:none"/></g></mask><g id="k" clip-path="url(#b)"><path d="M49.902 7.098v.972q-3.709 1.157-7.558.485c-4.64-1.504-9.36-2.801-14.145-3.887a24.6 24.6 0 0 0-8.14.582A383 383 0 0 0 9.785 8.168a84 84 0 0 1-7.75 1.457V5.348A45 45 0 0 0 9.594 3.89 128 128 0 0 1 20.25.973a47 47 0 0 1 5.43-.68q4.313.415 8.527 1.457a78 78 0 0 0 10.367 2.82 30 30 0 0 0 3.778-.586 51 51 0 0 1 1.55 3.114m0 0" style="stroke:none;fill-rule:evenodd;fill:#000;fill-opacity:1"/></g><g id="m" clip-path="url(#c)"><path d="M33.816 34.902h-.386q-.096-3.21.195-6.418 1.391-1.772 1.645-4.082a37 37 0 0 0 0-5.445 40.5 40.5 0 0 1-5.329 5.25 86 86 0 0 0 5.72-6.223 220 220 0 0 1-.196 6.614q-.256 2.307-1.649 4.082a29.4 29.4 0 0 0-.093 5.836c3.093-2.262 4.84-5.309 5.23-9.141.692-1.172 1.692-1.953 3.004-2.332q-4.551-3.019-.195-6.418a20.5 20.5 0 0 1 6.785-3.207c.332-.102.594-.297.773-.586a72 72 0 0 1-1.453-3.207q-2.426.574-4.941.293a180 180 0 0 0-14.34-3.89 29.8 29.8 0 0 0-8.914.581 342 342 0 0 0-10.66 2.918 55 55 0 0 1-6.782 1.266v3.691q2.123.406 4.262.875a179 179 0 0 0 12.598 3.5q5.518.99 11.047.684a14.5 14.5 0 0 1-2.907 2.723 44 44 0 0 1 2.52-2.625 38 38 0 0 1-11.047-.586 217 217 0 0 1-12.406-3.5q-2.128-.47-4.262-.875v-4.082q3.423-.452 6.781-1.266 6.686-2.104 13.567-3.5a53 53 0 0 1 6.394 0 182 182 0 0 1 14.344 3.89 13.7 13.7 0 0 0 4.746-.292 24.5 24.5 0 0 1 1.844 3.695 29.8 29.8 0 0 0-7.754 3.695q-4.435 3.556.582 6.32-2.197.54-3.39 2.43a17 17 0 0 1-1.844 5.637 23.5 23.5 0 0 1-3.489 3.695M21.414 9.625q-.515 2.132.969 3.695 0 .581.582.582c1.469 1.336 3.082 1.496 4.844.489q.66-.419.968-1.07.257.036.391-.196.985-1.654.676-3.5 4.394 1.326 8.625 3.016c-5.63 2.93-11.57 3.77-17.828 2.527q-5.268-1.176-10.465-2.723 4.082-1.095 8.137-2.336a13 13 0 0 1 3.101-.484m0 0" style="stroke:none;fill-rule:evenodd;fill:#000;fill-opacity:1"/></g><g id="o" clip-path="url(#d)"><path d="M22.383 13.32q-1.483-1.563-.969-3.695c-1.05.035-2.086.2-3.102.484a241 241 0 0 1-8.136 2.336 156 156 0 0 0 10.465 2.723q9.385 1.865 17.828-2.527a105 105 0 0 0-8.625-3.016q.31 1.846-.676 3.5-.134.232-.39.195.684-1.23.972-2.625a13 13 0 0 1-.39-1.07q.191-.098.39-.195a58 58 0 0 1 9.105 3.21 16.2 16.2 0 0 1-4.07 1.942 25.1 25.1 0 0 1-12.207 1.168A81 81 0 0 1 9.98 12.64q-.386-.197 0-.39 4.02-1.06 7.946-2.332c1.285-.29 2.574-.52 3.875-.684a4.8 4.8 0 0 1-.387 1.461 15.3 15.3 0 0 0 .969 2.625m-.969-3.695q-.515 2.132.969 3.695 0 .581.582.582c1.469 1.336 3.082 1.496 4.844.489q.66-.419.968-1.07.257.036.391-.196.985-1.654.676-3.5 4.394 1.326 8.625 3.016c-5.63 2.93-11.57 3.77-17.828 2.527q-5.268-1.176-10.465-2.723 4.082-1.095 8.137-2.336a13 13 0 0 1 3.101-.484m0 0" style="stroke:none;fill-rule:evenodd;fill:#000;fill-opacity:1"/></g><g id="q" clip-path="url(#e)"><path d="M22.383 13.32q.388.196.582.582-.581 0-.582-.582m0 0" style="stroke:none;fill-rule:evenodd;fill:#000;fill-opacity:1"/></g><g id="s" clip-path="url(#f)"><path d="M28.777 13.32a2.54 2.54 0 0 1-.968 1.07c-1.762 1.008-3.375.848-4.844-.488q1.235.639 2.617.973a5.72 5.72 0 0 0 3.195-1.555m0 0" style="stroke:none;fill-rule:evenodd;fill:#000;fill-opacity:1"/></g><g id="u" clip-path="url(#g)"><path d="M3.973 24.207q.527-1.089 1.746-1.164.386 3.689 3.68 2.234c1.628-2.355 1.18-4.172-1.356-5.445q-4.377-.814-6.879 2.82-2.21 6.58 3.777 9.82 6.1 2.128 12.211 0a52.5 52.5 0 0 0 9.106-5.152q-5.584 4.965-12.985 6.32c-3.394.403-6.62-.117-9.687-1.558C.668 29.91-.336 27.027.582 23.43q1.107-3.152 4.36-3.79 2.975-.983 5.136 1.262 1.353 2.93-1.066 4.957c-1.219.45-2.223.157-3.004-.875a9.3 9.3 0 0 0-.68-1.75q-.757.429-1.355.973m0 0" style="stroke:none;fill-rule:evenodd;fill:#000;fill-opacity:1"/></g><g id="w" clip-path="url(#h)"><path d="M27.23 22.266a16.3 16.3 0 0 1-2.52 2.43q-2.524 1.758-5.038 3.5-6.321 3.461-13.375 1.75a3.37 3.37 0 0 1-1.547-1.071q.862.435 1.742.875a20.8 20.8 0 0 0 8.914 0 37.3 37.3 0 0 0 5.621-2.723 163 163 0 0 0 6.203-4.761m0 0" style="stroke:none;fill-rule:evenodd;fill:#000;fill-opacity:1"/></g><g id="y" clip-path="url(#i)"><path d="M3.973 24.207q-.992 2.592.777 4.668-1.738-1.411-1.262-3.695.029-.627.485-.973m0 0" style="stroke:none;fill-rule:evenodd;fill:#000;fill-opacity:1"/></g><g id="A" clip-path="url(#j)"><path d="M29.941 24.207a34 34 0 0 1-2.71 2.625 3.7 3.7 0 0 1-.973.488 21.3 21.3 0 0 1 3.683-3.113m0 0" style="stroke:none;fill-rule:evenodd;fill:#000;fill-opacity:1"/></g><filter id="a" width="100%" height="100%" x="0%" y="0%" filterUnits="objectBoundingBox"><feColorMatrix in="SourceGraphic" values="0 0 0 0 1 0 0 0 0 1 0 0 0 0 1 0 0 0 1 0"/></filter></defs><use xlink:href="#k" mask="url(#l)"/><path d="M24.129.484c3.336.184 6.633.672 9.883 1.461a69.6 69.6 0 0 0 10.562 2.82c1.133-.124 2.262-.257 3.39-.39q.465.148.68.582c.383.867.735 1.742 1.067 2.625a.8.8 0 0 1-.195.39 15.3 15.3 0 0 1-6.977.387 164 164 0 0 0-14.148-3.886 17.3 17.3 0 0 0-5.813 0q-2.226.515-4.457.972a127 127 0 0 1-15.7 3.985 19.6 19.6 0 0 1-.19-3.887 77.8 77.8 0 0 0 14.726-3.598q3.598-.85 7.172-1.46m0 0" style="stroke:none;fill-rule:evenodd;fill:#fec90d;fill-opacity:1"/><use xlink:href="#m" mask="url(#n)"/><path d="M29.941 24.207a21.3 21.3 0 0 0-3.683 3.113 52.5 52.5 0 0 1-9.106 5.153q-6.111 2.127-12.21 0-5.988-3.24-3.778-9.82 2.502-3.635 6.879-2.821c2.535 1.273 2.984 3.09 1.355 5.445q-3.292 1.456-3.68-2.234-1.218.074-1.745 1.164-.456.345-.485.973c-.316 1.523.102 2.754 1.262 3.695.406.5.926.855 1.547 1.07q7.054 1.712 13.375-1.75 2.513-1.741 5.039-3.5a16.3 16.3 0 0 0 2.52-2.43 14.5 14.5 0 0 0 2.906-2.722 47.5 47.5 0 0 1-11.047-.684 179 179 0 0 1-12.598-3.5 159 159 0 0 0-4.262-.875v-3.691c2.286-.281 4.547-.7 6.782-1.266a342 342 0 0 1 10.66-2.918q4.407-.961 8.914-.582a180 180 0 0 1 14.34 3.891q2.515.281 4.941-.293.692 1.63 1.453 3.207c-.18.29-.441.484-.773.586a20.5 20.5 0 0 0-6.785 3.207q-4.356 3.4.195 6.418c-1.312.379-2.312 1.16-3.004 2.332-.39 3.832-2.137 6.879-5.23 9.14a29.4 29.4 0 0 1 .093-5.835c.93-1.184 1.477-2.543 1.649-4.082q.147-3.31.195-6.614a86 86 0 0 1-5.719 6.223M21.414 9.625q-.515 2.132.969 3.695 0 .581.582.582c1.469 1.336 3.082 1.496 4.844.489q.66-.419.968-1.07.257.036.391-.196.985-1.654.676-3.5 4.394 1.326 8.625 3.016c-5.63 2.93-11.57 3.77-17.828 2.527q-5.268-1.176-10.465-2.723 4.082-1.095 8.137-2.336a13 13 0 0 1 3.101-.484m0 0" style="stroke:none;fill-rule:evenodd;fill:#fec90d;fill-opacity:1"/><use xlink:href="#o" mask="url(#p)"/><use xlink:href="#q" mask="url(#r)"/><use xlink:href="#s" mask="url(#t)"/><use xlink:href="#u" mask="url(#v)"/><use xlink:href="#w" mask="url(#x)"/><use xlink:href="#y" mask="url(#z)"/><use xlink:href="#A" mask="url(#B)"/></svg>