<?xml version="1.0" encoding="UTF-8"?>
<svg xmlns="http://www.w3.org/2000/svg" xmlns:xlink="http://www.w3.org/1999/xlink" width="33px" height="40px" viewBox="0 0 33 40" version="1.1">
<g id="surface1">
<path style="fill:none;stroke-width:15;stroke-linecap:butt;stroke-linejoin:miter;stroke:rgb(87.450981%,42.352942%,12.54902%);stroke-opacity:1;stroke-miterlimit:4;" d="M 205.004109 50.008903 C 205.004109 30.672575 166.935928 15.0007 120.004109 15.0007 C 73.049564 15.0007 35.004109 30.672575 35.004109 50.008903 C 35.004109 69.322184 73.049564 84.994059 120.004109 84.994059 C 166.935928 84.994059 205.004109 69.322184 205.004109 50.008903 Z M 205.004109 50.008903 " transform="matrix(0.171875,0,0,0.169492,-4.110081,-0.917492)"/>
<path style="fill:none;stroke-width:15;stroke-linecap:butt;stroke-linejoin:miter;stroke:rgb(87.450981%,42.352942%,12.54902%);stroke-opacity:1;stroke-miterlimit:4;" d="M 35.004109 50.008903 L 35.004109 199.997966 C 36.6632 219.357341 76.049564 235.052262 122.981382 235.052262 C 169.935928 235.052262 206.6632 219.357341 205.004109 199.997966 L 205.004109 50.008903 M 35.004109 99.997575 C 36.6632 119.35695 76.049564 135.051872 122.981382 135.051872 C 169.935928 135.051872 206.6632 119.35695 205.004109 99.997575 M 35.004109 150.009294 C 36.6632 169.368669 76.049564 185.063591 122.981382 185.063591 C 169.935928 185.063591 206.6632 169.368669 205.004109 150.009294 " transform="matrix(0.171875,0,0,0.169492,-4.110081,-0.917492)"/>
<path style="fill:none;stroke-width:15;stroke-linecap:butt;stroke-linejoin:miter;stroke:rgb(87.450981%,42.352942%,12.54902%);stroke-opacity:1;stroke-miterlimit:4;" d="M 300.004109 99.997575 C 300.004109 86.192497 288.799564 74.991716 275.004109 74.991716 C 261.185928 74.991716 250.004109 86.192497 250.004109 99.997575 C 249.731382 107.9257 252.481382 115.485075 257.4132 120.417106 C 262.345019 125.349137 268.867746 127.054606 275.004109 125.003434 C 280.322291 124.957341 285.435928 127.561637 289.208655 132.2632 C 292.958655 136.941716 295.049564 143.3257 295.004109 150.009294 C 293.617746 163.814372 281.299564 173.885856 267.504109 172.503044 C 253.685928 171.120231 243.617746 158.8132 245.004109 145.008122 " transform="matrix(0.171875,0,0,0.169492,-4.110081,-0.917492)"/>
</g>
</svg>
