<svg xmlns="http://www.w3.org/2000/svg" xmlns:xlink="http://www.w3.org/1999/xlink" width="48" height="30"><defs><clipPath id="b"><path d="M0 0h48v30H0z"/></clipPath><clipPath id="c"><path d="M0 0h48v30H0z"/></clipPath><clipPath id="d"><path d="M0 0h48v30H0z"/></clipPath><clipPath id="e"><path d="M0 0h48v30H0z"/></clipPath><clipPath id="f"><path d="M0 0h48v30H0z"/></clipPath><mask id="h"><g filter="url(#a)"><path d="M0 0h48v30H0z" style="fill:#000;fill-opacity:.917647;stroke:none"/></g></mask><mask id="j"><g filter="url(#a)"><path d="M0 0h48v30H0z" style="fill:#000;fill-opacity:.937255;stroke:none"/></g></mask><mask id="l"><g filter="url(#a)"><path d="M0 0h48v30H0z" style="fill:#000;fill-opacity:.917647;stroke:none"/></g></mask><mask id="n"><g filter="url(#a)"><path d="M0 0h48v30H0z" style="fill:#000;fill-opacity:.94902;stroke:none"/></g></mask><mask id="p"><g filter="url(#a)"><path d="M0 0h48v30H0z" style="fill:#000;fill-opacity:.886275;stroke:none"/></g></mask><g id="g" clip-path="url(#b)"><path d="M13.656.418c.48.203.867.539 1.156 1a215 215 0 0 1-2.316 4.75q-1.072.124-1.656-.836Q7.63 3.094 4.219 5q-.812.574-.824 1.582c.164.832.464 1.61.91 2.336q.827 1.74 2.234.414a32 32 0 0 1 2.813-2.664q1.806-.509 3.308.664 2.507 2.179 1.574 5.418-1.312 3.072-4.386 4.25a19 19 0 0 1-7.614-.832 1.7 1.7 0 0 0-1.242.082L.746 16a21 21 0 0 0 2.316-3.668C.156 10.785-.64 8.477.66 5.418q2.811-3.165 6.871-4.25a4.9 4.9 0 0 1 1.82 0c1.032.395 2.055.809 3.063 1.25a.72.72 0 0 0 .66-.336 4.2 4.2 0 0 0 .582-1.664m-4.469 9q2.496.939 2.067 3.664-.815 1.349-2.399 1.168-2.708.088-4.8-1.582.762-.212 1.488-.5A21 21 0 0 0 7.863 10a7 7 0 0 1 1.324-.582m0 0" style="stroke:none;fill-rule:evenodd;fill:#404040;fill-opacity:1"/></g><g id="i" clip-path="url(#c)"><path d="M25.902.582q7.605.702 6.703 8.336-1.31 7.402-8.77 8c-3.554-.86-6.034-2.969-7.448-6.336-.543-2.637.199-4.828 2.234-6.582q3.186-2.73 7.281-3.418m-2.976 3.336q8.032-.328 5.875 7.5-.886 2.554-3.559 2.25c-2.574-.754-4.312-2.39-5.215-4.918-.547-2.574.422-4.184 2.899-4.832m0 0" style="stroke:none;fill-rule:evenodd;fill:#404040;fill-opacity:1"/></g><g id="k" clip-path="url(#d)"><path d="M47.918 11.582v1.5c-.242 1.328-.488 2.66-.746 4a25 25 0 0 0-4.633-.332q-3.897.054-7.781.332a1.04 1.04 0 0 1-.496-.164 2.76 2.76 0 0 1 0-1.336q.68-.192 1.406-.25.451-.447.582-1.082.165-5.168 0-10.332a1.24 1.24 0 0 0-.746-.75 26 26 0 0 1-1.656-.418c.136-.445.277-.887.414-1.332a93 93 0 0 1 8.195 0q.036.668-.086 1.332a5.1 5.1 0 0 0-2.152 1.168 128 128 0 0 0-.246 6.25q-1.15 6.008 4.632 4.332a3.56 3.56 0 0 0 1.575-1.082q.493-1.119.91-2.25.48.014.828.414m0 0" style="stroke:none;fill-rule:evenodd;fill:#404040;fill-opacity:1"/></g><g id="m" clip-path="url(#e)"><path d="M20.277 20.582q-.011.65.496 1a39 39 0 0 0 2.567 5.336 2.63 2.63 0 0 0 1.406.832 4.1 4.1 0 0 1 0 1.668q-3.724-.3-7.45 0V27.75q.75.04 1.49-.082.516-.031.663-.5a59 59 0 0 0-1.324-2.75 26 26 0 0 0-5.875 0c-.46.867-.875 1.758-1.242 2.664.14.285.363.477.66.586q.743.123 1.492.082.116.971-.5 1.668a36 36 0 0 0-5.129-.086q-.177-.613-.332-1.25.498-.399 1.16-.582c.211-.234.407-.484.579-.75 1.988-4.332 3.972-8.668 5.96-13a42 42 0 0 1 1.985 0 96 96 0 0 0 3.394 6.832m-5.297-2.164a35 35 0 0 1 2.153 4 11.9 11.9 0 0 1-3.973 0zm0 0" style="stroke:none;fill-rule:evenodd;fill:#d61e00;fill-opacity:1"/></g><g id="o" clip-path="url(#f)"><path d="M20.773 21.582q-.508-.35-.496-1A15.4 15.4 0 0 1 22.426 18a2.74 2.74 0 0 1 1.656-.582c.797.09 1.57.281 2.316.582a166 166 0 0 0 9.106 4.082 2.12 2.12 0 0 0 1.324-.664A9.3 9.3 0 0 0 37.82 19q.49-.123.992-.082.198 3.033-1.984 5.082-2.179.847-4.305-.168a111 111 0 0 1-7.28-3.664q-2.655-1.148-4.141 1.332a.39.39 0 0 1-.329.082m0 0" style="stroke:none;fill-rule:evenodd;fill:#404040;fill-opacity:1"/></g><filter id="a" width="100%" height="100%" x="0%" y="0%" filterUnits="objectBoundingBox"><feColorMatrix in="SourceGraphic" values="0 0 0 0 1 0 0 0 0 1 0 0 0 0 1 0 0 0 1 0"/></filter></defs><use xlink:href="#g" mask="url(#h)"/><use xlink:href="#i" mask="url(#j)"/><use xlink:href="#k" mask="url(#l)"/><use xlink:href="#m" mask="url(#n)"/><use xlink:href="#o" mask="url(#p)"/></svg>