<?xml version="1.0" encoding="UTF-8"?>
<svg xmlns="http://www.w3.org/2000/svg" xmlns:xlink="http://www.w3.org/1999/xlink" width="51px" height="30px" viewBox="0 0 51 30" version="1.1">
<defs>
<filter id="alpha" filterUnits="objectBoundingBox" x="0%" y="0%" width="100%" height="100%">
  <feColorMatrix type="matrix" in="SourceGraphic" values="0 0 0 0 1 0 0 0 0 1 0 0 0 0 1 0 0 0 1 0"/>
</filter>
<mask id="mask0">
  <g filter="url(#alpha)">
<rect x="0" y="0" width="51" height="30" style="fill:rgb(0%,0%,0%);fill-opacity:0.992157;stroke:none;"/>
  </g>
</mask>
<clipPath id="clip1">
  <rect x="0" y="0" width="52" height="30"/>
</clipPath>
<g id="surface5" clip-path="url(#clip1)">
<path style=" stroke:none;fill-rule:evenodd;fill:rgb(74.509805%,24.313726%,25.098041%);fill-opacity:1;" d="M 24.734375 -0.0859375 C 25.1875 -0.0859375 25.640625 -0.0859375 26.09375 -0.0859375 C 28.875 4.011719 31.652344 8.101562 34.425781 12.1875 C 34.398438 12.367188 34.429688 12.539062 34.511719 12.699219 C 37.347656 16.933594 40.210938 21.136719 43.09375 25.3125 C 42.996094 25.636719 42.828125 25.921875 42.585938 26.164062 C 34.332031 21.96875 26.113281 17.679688 17.933594 13.296875 C 17.351562 13.007812 16.84375 12.636719 16.40625 12.1875 C 19.179688 8.101562 21.957031 4.011719 24.734375 -0.0859375 Z M 24.734375 -0.0859375 "/>
</g>
<mask id="mask1">
  <g filter="url(#alpha)">
<rect x="0" y="0" width="51" height="30" style="fill:rgb(0%,0%,0%);fill-opacity:0.984314;stroke:none;"/>
  </g>
</mask>
<clipPath id="clip2">
  <rect x="0" y="0" width="52" height="30"/>
</clipPath>
<g id="surface8" clip-path="url(#clip2)">
<path style=" stroke:none;fill-rule:evenodd;fill:rgb(99.607843%,28.627452%,28.627452%);fill-opacity:1;" d="M 16.40625 12.1875 C 16.84375 12.636719 17.351562 13.007812 17.933594 13.296875 C 26.113281 17.679688 34.332031 21.96875 42.585938 26.164062 C 42.21875 26.546875 41.765625 26.804688 41.226562 26.933594 C 38.625 27.234375 36.019531 27.460938 33.40625 27.613281 C 28.136719 27.726562 22.863281 27.726562 17.59375 27.613281 C 14.796875 27.503906 12.019531 27.21875 9.265625 26.761719 C 8.5 26.449219 7.960938 25.910156 7.648438 25.140625 C 5.117188 18.570312 2.539062 12.035156 -0.0859375 5.539062 C -0.0859375 5.140625 -0.0859375 4.746094 -0.0859375 4.347656 C 0.222656 4.105469 0.5625 4.019531 0.933594 4.089844 C 6.101562 6.792969 11.257812 9.492188 16.40625 12.1875 Z M 16.40625 12.1875 "/>
</g>
<mask id="mask2">
  <g filter="url(#alpha)">
<rect x="0" y="0" width="51" height="30" style="fill:rgb(0%,0%,0%);fill-opacity:0.988235;stroke:none;"/>
  </g>
</mask>
<clipPath id="clip3">
  <rect x="0" y="0" width="52" height="30"/>
</clipPath>
<g id="surface11" clip-path="url(#clip3)">
<path style=" stroke:none;fill-rule:evenodd;fill:rgb(49.411765%,19.607843%,21.960784%);fill-opacity:1;" d="M 50.914062 4.347656 C 50.914062 4.800781 50.914062 5.253906 50.914062 5.710938 C 48.308594 12.246094 45.703125 18.777344 43.09375 25.3125 C 40.210938 21.136719 37.347656 16.933594 34.511719 12.699219 C 34.429688 12.539062 34.398438 12.367188 34.425781 12.1875 C 39.625 9.578125 44.78125 6.882812 49.894531 4.089844 C 50.292969 3.964844 50.632812 4.046875 50.914062 4.347656 Z M 50.914062 4.347656 "/>
</g>
</defs>
<g id="surface1">
<use xlink:href="#surface5" mask="url(#mask0)"/>
<use xlink:href="#surface8" mask="url(#mask1)"/>
<use xlink:href="#surface11" mask="url(#mask2)"/>
</g>
</svg>
