<svg xmlns="http://www.w3.org/2000/svg" xmlns:xlink="http://www.w3.org/1999/xlink" width="36px" height="39px" viewBox="0 0 36 39" version="1.1">
<g id="surface1">
<path style=" stroke:none;fill-rule:nonzero;fill:#987979;fill-opacity:1;" d="M 16.851562 0.128906 C 16.808594 0.199219 16.5625 0.300781 16.300781 0.355469 C 15.839844 0.441406 14.117188 0.957031 12.800781 1.386719 C 12.410156 1.527344 11.789062 1.671875 11.429688 1.730469 C 11.066406 1.785156 10.097656 1.972656 9.257812 2.128906 C 8.421875 2.300781 7.292969 2.5 6.757812 2.570312 C 6.207031 2.644531 5.703125 2.742188 5.628906 2.800781 C 5.414062 2.929688 2.941406 3.316406 1.597656 3.414062 C 0.917969 3.472656 0.28125 3.558594 0.191406 3.613281 C 0.046875 3.699219 0.00390625 5.128906 0.00390625 9.972656 C 0.0195312 15.542969 0.046875 16.359375 0.292969 17.5 C 0.4375 18.203125 0.671875 19.332031 0.800781 20.003906 C 1.609375 24.058594 3.273438 28.03125 5.082031 30.160156 C 7.148438 32.605469 8.566406 34.105469 9.273438 34.574219 C 9.679688 34.847656 10.242188 35.273438 10.53125 35.519531 C 11.414062 36.261719 13.871094 37.761719 15.273438 38.417969 C 16.589844 39.03125 16.589844 39.03125 18.023438 38.976562 C 19.582031 38.933594 19.960938 38.789062 22.054688 37.5625 C 22.621094 37.234375 23.589844 36.675781 24.226562 36.316406 C 25.148438 35.789062 25.886719 35.175781 28 33.117188 C 29.445312 31.703125 30.703125 30.390625 30.816406 30.175781 C 30.917969 29.960938 31.152344 29.589844 31.308594 29.359375 C 32.207031 28.117188 33.101562 26.1875 33.839844 23.929688 C 34.839844 20.875 35.15625 19.6875 35.285156 18.460938 C 35.359375 17.703125 35.503906 16.488281 35.589844 15.789062 C 35.664062 15.074219 35.792969 14.015625 35.863281 13.429688 C 36.039062 11.972656 36.039062 4.542969 35.863281 4.085938 C 35.707031 3.65625 35.242188 3.515625 33.191406 3.285156 C 32.394531 3.1875 31.324219 3.027344 30.804688 2.914062 C 30.285156 2.800781 29.082031 2.585938 28.128906 2.429688 C 25.511719 2 23.632812 1.601562 22.417969 1.230469 C 18.976562 0.144531 18.425781 0 17.703125 0 C 17.285156 0 16.910156 0.0585938 16.851562 0.128906 Z M 19.335938 2.613281 C 20.855469 3.1875 21.808594 3.457031 23.355469 3.773438 C 23.992188 3.902344 24.992188 4.101562 25.570312 4.214844 C 26.132812 4.328125 27.085938 4.527344 27.667969 4.65625 C 28.230469 4.773438 29.070312 4.945312 29.503906 5.015625 C 29.9375 5.085938 30.585938 5.214844 30.949219 5.285156 C 31.308594 5.359375 31.933594 5.414062 32.335938 5.414062 C 32.84375 5.429688 33.191406 5.515625 33.421875 5.699219 L 33.769531 5.972656 L 33.753906 9.53125 C 33.753906 11.472656 33.667969 13.515625 33.578125 14.074219 C 33.492188 14.617188 33.320312 15.957031 33.191406 17.042969 C 32.683594 21.34375 31.308594 25.402344 29.402344 28.21875 C 27.957031 30.347656 24.441406 33.660156 22.546875 34.675781 C 22.214844 34.859375 21.851562 35.074219 21.738281 35.175781 C 21.363281 35.476562 19.726562 36.316406 18.484375 36.832031 C 17.933594 37.074219 17.761719 37.089844 17.472656 36.945312 C 17.296875 36.859375 16.792969 36.632812 16.359375 36.445312 C 15.433594 36.0625 12.875 34.519531 11.804688 33.703125 C 11.398438 33.402344 10.878906 33.003906 10.632812 32.832031 C 9.792969 32.1875 7.871094 30.203125 7.003906 29.074219 C 6.078125 27.847656 5.210938 26.515625 5.210938 26.289062 C 5.210938 26.21875 5.023438 25.816406 4.804688 25.402344 C 4.214844 24.300781 3.878906 23.273438 3.054688 19.859375 C 2.246094 16.558594 1.839844 12.558594 1.914062 8.742188 C 1.972656 5.429688 1.914062 5.515625 3.851562 5.386719 C 4.515625 5.34375 5.296875 5.230469 5.601562 5.15625 C 5.90625 5.070312 7.003906 4.84375 8.03125 4.65625 C 9.070312 4.457031 10.53125 4.15625 11.285156 4 C 12.035156 3.828125 12.886719 3.65625 13.164062 3.613281 C 13.710938 3.542969 16.996094 2.484375 17.355469 2.273438 C 17.71875 2.070312 17.992188 2.113281 19.335938 2.613281 Z M 19.335938 2.613281 "/>
<path style=" stroke:none;fill-rule:nonzero;fill:#987979;fill-opacity:1;" d="M 17.210938 3.214844 C 14.679688 4.144531 10.460938 5.1875 8.523438 5.34375 C 8.074219 5.386719 7.523438 5.484375 7.292969 5.570312 C 7.074219 5.65625 6.453125 5.785156 5.933594 5.859375 C 4.023438 6.113281 3.113281 6.300781 2.925781 6.488281 C 2.78125 6.628906 2.738281 7.5 2.738281 10.34375 C 2.738281 12.371094 2.78125 14.074219 2.824219 14.144531 C 2.867188 14.203125 2.953125 15.042969 3.042969 16.015625 C 3.128906 16.988281 3.273438 18.101562 3.390625 18.503906 C 3.503906 18.886719 3.734375 19.800781 3.894531 20.53125 C 4.386719 22.589844 5.28125 25.1875 5.773438 26.003906 C 5.847656 26.117188 6.152344 26.632812 6.453125 27.144531 C 6.960938 28.015625 7.652344 28.945312 8.320312 29.644531 C 8.476562 29.816406 8.710938 30.074219 8.839844 30.230469 C 9.417969 30.933594 12.554688 33.574219 12.800781 33.574219 C 12.859375 33.574219 13.292969 33.847656 13.785156 34.175781 C 14.636719 34.746094 17.644531 36.289062 17.90625 36.289062 C 17.976562 36.289062 18.714844 35.960938 19.539062 35.546875 C 23.023438 33.816406 26.871094 30.71875 28.476562 28.359375 C 28.75 27.960938 29.082031 27.515625 29.214844 27.359375 C 29.460938 27.058594 30.527344 24.84375 30.976562 23.644531 C 32.292969 20.230469 33.277344 12.859375 33.03125 8.257812 C 32.957031 6.785156 32.886719 6.429688 32.699219 6.34375 C 32.453125 6.242188 31.65625 6.101562 29.878906 5.859375 C 29.242188 5.773438 28.636719 5.644531 28.503906 5.585938 C 28.375 5.515625 27.855469 5.414062 27.332031 5.359375 C 25.308594 5.144531 20.625 4.058594 20.175781 3.714844 C 20.046875 3.613281 18.933594 3.300781 18.007812 3.085938 C 17.847656 3.058594 17.488281 3.101562 17.210938 3.214844 Z M 28.027344 9.886719 C 28.300781 10.160156 28.257812 12.914062 27.96875 13.203125 C 27.78125 13.386719 27.304688 13.429688 24.933594 13.429688 C 22.144531 13.429688 22.113281 13.429688 21.996094 13.746094 C 21.941406 13.929688 21.882812 17.246094 21.867188 21.117188 C 21.851562 26.316406 21.808594 28.21875 21.679688 28.375 C 21.417969 28.675781 18.195312 28.660156 17.878906 28.347656 C 17.675781 28.144531 17.644531 27.289062 17.644531 21.003906 C 17.644531 17.085938 17.601562 13.789062 17.558594 13.660156 C 17.488281 13.457031 17.054688 13.429688 14.292969 13.429688 C 12.382812 13.429688 11.007812 13.371094 10.835938 13.289062 C 10.589844 13.144531 10.5625 12.972656 10.5625 11.644531 C 10.5625 10.828125 10.605469 10.074219 10.648438 9.945312 C 10.734375 9.742188 11.628906 9.714844 19.292969 9.714844 C 25.757812 9.714844 27.898438 9.757812 28.027344 9.886719 Z M 15.941406 14.816406 C 16.15625 15 16.199219 15.273438 16.199219 16.445312 C 16.199219 17.460938 16.140625 17.886719 15.996094 18.042969 C 15.722656 18.300781 14.261719 18.472656 13.308594 18.34375 C 12.210938 18.203125 12.007812 17.917969 12.007812 16.558594 C 12.007812 15.375 12.195312 14.773438 12.570312 14.671875 C 12.699219 14.628906 13.453125 14.601562 14.234375 14.585938 C 15.390625 14.574219 15.722656 14.617188 15.941406 14.816406 Z M 16.171875 24.015625 L 16.199219 28.402344 L 15.882812 28.488281 C 15.332031 28.632812 12.585938 28.589844 12.28125 28.433594 C 12.019531 28.289062 12.007812 28.089844 12.007812 24.074219 C 12.007812 20.230469 12.019531 19.859375 12.265625 19.730469 C 12.410156 19.644531 13.265625 19.585938 14.320312 19.617188 L 16.128906 19.644531 Z M 16.171875 24.015625 "/>
</g>
</svg>