<svg xmlns="http://www.w3.org/2000/svg" width="36" height="40"><path d="M17 1h1v1h-1Zm0 0" style="stroke:none;fill-rule:evenodd;fill:#43429a;fill-opacity:1"/><path d="M19 3h2l-1 1zm0 0" style="stroke:none;fill-rule:evenodd;fill:#c4e0e2;fill-opacity:1"/><path d="M25 4v2l-1-1-1 1q0-1.5 0 0l-1-1v2l-1 1V7v1-1h-1 1V6h1l-1-1h2V4v1h1V4Zm0 0" style="stroke:none;fill-rule:evenodd;fill:#f5bad5;fill-opacity:1"/><path d="m27 5 1 1h-1zh-1v1h-3v1h-1V5l1 1q0-1.5 0 0l1-1 1 1V5Zm0 0" style="stroke:none;fill-rule:evenodd;fill:#d2bbda;fill-opacity:1"/><path d="M27 6h1l1 1 1-1 1 1h-3Zm0 0-1 1V5h1Zm0 0" style="stroke:none;fill-rule:evenodd;fill:#c5c2df;fill-opacity:1"/><path d="M29 6h1l-1 1zm0 0" style="stroke:none;fill-rule:evenodd;fill:#5ba2d7;fill-opacity:1"/><path d="M27 6h2v1l-1-1zm0 0" style="stroke:none;fill-rule:evenodd;fill:#ada3d0;fill-opacity:1"/><path d="M26 6v1l1-1 1 1h2l-1 1V7h-2V6v1h-1v1h-2V6q0 1.5 0 0Zm0 0" style="stroke:none;fill-rule:evenodd;fill:#f7d0df;fill-opacity:1"/><path d="M22 7h1v3h-1l-1-1h-1v2h1-1v-1h-1V9h1-1V8h2V7v1Zm0 0" style="stroke:none;fill-rule:evenodd;fill:#f7d6de;fill-opacity:1"/><path d="M30 7v1h-2l-1 1h-1V8h-2 2V7h1V6v1h2v1zm0 0" style="stroke:none;fill-rule:evenodd;fill:#fadce0;fill-opacity:1"/><path d="M31 8v1q0-1.5 0 0h-3V8h1v1l1-1Zm0 0" style="stroke:none;fill-rule:evenodd;fill:#a7dce4;fill-opacity:1"/><path d="M26 9v1h-1V9l-1-1h2Zm0 0" style="stroke:none;fill-rule:evenodd;fill:#e4b3d0;fill-opacity:1"/><path d="M21 8h-2v1h1-1v1h1-1V9h-1l1 1v1-1h-1V9h1V8l1-1h1zm0 0" style="stroke:none;fill-rule:evenodd;fill:#e2c1dc;fill-opacity:1"/><path d="M24 6q0 1.5 0 0v2l1 1v2h1l1 1v-2h1-1v2l-1-1v2h-1l-1 1h-1v-1 1-1h1v-1l1 1v-2l-1-1h1V9q0 1.5 0 0h-1l-1 1q1.5 0 0 0V6Zm0 0" style="stroke:none;fill-rule:evenodd;fill:#d1d4df;fill-opacity:1"/><path d="M28 8v1h-1l1 1v1l-1 1h-1v-1l1 1v-2h1-2Zm0 0" style="stroke:none;fill-rule:evenodd;fill:#a9c5df;fill-opacity:1"/><path d="M20 10v1Zm0 0-1 1h-1v-1 1h-1V9h1v1h1v1-1l-1-1h1v1Zm0 0" style="stroke:none;fill-rule:evenodd;fill:#b1abd6;fill-opacity:1"/><path d="M23 10v1h-1v-1zm0 0" style="stroke:none;fill-rule:evenodd;fill:#9ac6e5;fill-opacity:1"/><path d="M20 11q-1.5 0 0 0h-1v1l-2-1h1v-1 1h1l1-1Zm0 0" style="stroke:none;fill-rule:evenodd;fill:#8c9acf;fill-opacity:1"/><path d="M23 10h-1v1q-.5.012-1 0h-1V9h1l1 1Zm0 0" style="stroke:none;fill-rule:evenodd;fill:#c6c2e0;fill-opacity:1"/><path d="M31 10v1q0-1.5 0 0l-1-1v1-1 1h-1q1.5 0 0 0v1-1q0-1.5 0 0l1-1Zm0 0" style="stroke:none;fill-rule:evenodd;fill:#2394cb;fill-opacity:1"/><path d="M31 8h-1l-1 1V8h-1l-2 2h1v2l-1-1h-1v-1h1V9h1l1-1h2V7Zm0 0" style="stroke:none;fill-rule:evenodd;fill:#e4d3e0;fill-opacity:1"/><path d="m24 10 1 1q0 1.5 0 0v1h-2l1-1V9h1q0 1.5 0 0v1Zm0 0" style="stroke:none;fill-rule:evenodd;fill:#78cadd;fill-opacity:1"/><path d="M30 11v1Zm0 0 1 1h-1 1l-1 1v-1 1-1l-1 1 1-1h-1v-1q1.5 0 0 0Zm0 0v-1Zm0 0" style="stroke:none;fill-rule:evenodd;fill:#2a84c5;fill-opacity:1"/><path d="M24 9v2l-1 1h2v-1q0 1.5 0 0l-1-1 1 1v2l-1-1v1h-1v-1 1-3q1.5 0 0 0Zm0 0" style="stroke:none;fill-rule:evenodd;fill:#afdae5;fill-opacity:1"/><path d="M31 11h1v1h-1 1-1v1q1.5 0 0 0v1-1h-3v-1h2l-1 1 1-1v1-1 1l1-1h-1 1l-1-1v1-2Zm0 0" style="stroke:none;fill-rule:evenodd;fill:#3f6db5;fill-opacity:1"/><path d="M29 12h-1v2-1h-1l1-1Zm0 0" style="stroke:none;fill-rule:evenodd;fill:#60afdd;fill-opacity:1"/><path d="M29 12h-1v1h3v1h-1l1 1h-1v1-1l-1-1v2h-1v-1h1v-1h1v-1l-1 1h-1 1-1v-2zm0 0" style="stroke:none;fill-rule:evenodd;fill:#3880c2;fill-opacity:1"/><path d="M28 16v1q0-1.5 0 0l-1-1h-1Zm0 0v-2h1-1 1l1-1v1h-1v1h-1Zm0 0" style="stroke:none;fill-rule:evenodd;fill:#25a1d5;fill-opacity:1"/><path d="M26 11v1h1v1l-1 1q0-1.5 0 0h-1q0 1.5 0 0v1-1h-1l-1 1v-1h1l1-1h1zm0 0" style="stroke:none;fill-rule:evenodd;fill:#a3dae4;fill-opacity:1"/><path d="M27 12v1h1v3-1l-1 1v-1h-1v1-1h-1q-1.5 0 0 0h-2l1-1h1v1-1q0 1.5 0 0h1q0-1.5 0 0l1-1zm0 0" style="stroke:none;fill-rule:evenodd;fill:#5ac7d5;fill-opacity:1"/><path d="M30 15v1l1 1h-1v-1h-1v-2Zm0 0" style="stroke:none;fill-rule:evenodd;fill:#2b63af;fill-opacity:1"/><path d="M28 16h-4l-1-1h2q-1.5 0 0 0h1v1-1h1v1l1-1Zm0 0" style="stroke:none;fill-rule:evenodd;fill:#3ec2d9;fill-opacity:1"/><path d="M4 15v1H3v1l-1-1v1-1h1v-1Zm0 0" style="stroke:none;fill-rule:evenodd;fill:#4175ba;fill-opacity:1"/><path d="M31 9h1q-1.5 0 0 0zv1h-1l-1 1q0-1.5 0 0s0 1 0 0v1h-1l-1 1h1v3h-3l-1 1v-1 1h-1l-1-1 1-1 1 1h4v-3h-1v-1l1-1v-1l-1-1Zm0 0" style="stroke:none;fill-rule:evenodd;fill:#40c1e0;fill-opacity:1"/><path d="m31 13 1 2v1l1 1v1h-1v-1q0 1.5 0 0v1-1h-1v-1h-1v-1 1-1h1l-1-1h1Zm0 0" style="stroke:none;fill-rule:evenodd;fill:#2d378e;fill-opacity:1"/><path d="M29 16h1v1h-2v-1Zm0 0" style="stroke:none;fill-rule:evenodd;fill:#3d96d1;fill-opacity:1"/><path d="M3 15v1H2v1-1l1 1H2v1l-1-1v-1zm0 0" style="stroke:none;fill-rule:evenodd;fill:#3864af;fill-opacity:1"/><path d="M26 16h1l1 1q0-1.5 0 0h2v1h-1v-1h-2q0-1.5 0 0v-1Zm0 0" style="stroke:none;fill-rule:evenodd;fill:#367bbf;fill-opacity:1"/><path d="M4 15h1Zm0 0v1h1l-1 1v-1l-1 1v1-1H2h1v-1h1Zm0 0" style="stroke:none;fill-rule:evenodd;fill:#3152a4;fill-opacity:1"/><path d="M11 17h2v1-1zm0 0" style="stroke:none;fill-rule:evenodd;fill:#aa9ccd;fill-opacity:1"/><path d="M26 16h-1v1h-1v1q-1.5 0 0 0h-1v-1q0 1.5 0 0l-1-1 1 1h1v-1 1l1-1zm0 0" style="stroke:none;fill-rule:evenodd;fill:#3eb0e1;fill-opacity:1"/><path d="M22 16v1h1v1q0-1.5 0 0h-1v-1h-1Zm0 0" style="stroke:none;fill-rule:evenodd;fill:#144f9a;fill-opacity:1"/><path d="M4 17h2v1H3v-1Zm0 0H3l1-1Zm0 0" style="stroke:none;fill-rule:evenodd;fill:#272973;fill-opacity:1"/><path d="M30 15v1h1v1h1v1h-1v-1h-1l1 1-1 1v-2h1l-1-1zm0 0" style="stroke:none;fill-rule:evenodd;fill:#3756a7;fill-opacity:1"/><path d="M27 17h2v1-1h-1v1-1l-1 1Zm0 0 1 1v1h-1v-1 1-1l-1-1q1.5 0 0 0Zm0 0" style="stroke:none;fill-rule:evenodd;fill:#284d9f;fill-opacity:1"/><path d="M11 17h1l-1 1h1-1Zm0 0h-1v1H9v-1 1-1Zm0 0" style="stroke:none;fill-rule:evenodd;fill:#7e67ad;fill-opacity:1"/><path d="M13 17h3v1q0-1.5 0 0h-1 1v1h-1v-1 1l-1-1h-2 1-1v-1Zm0 0v1Zm0 0" style="stroke:none;fill-rule:evenodd;fill:#6775b8;fill-opacity:1"/><path d="M5 15v1h1l1 2 1-1v1l1-1H8h1v1H8h1l-1 1v-1H7v3-1H6h1l-1-1-2-1v1H3l-1 1h1v1-1H2l1-1H2h1-2v-1 1-1h1v1-2h1v1-1h1-1v1h3v-1H4l1-1H4v-1Zm0 0" style="stroke:none;fill-rule:evenodd;fill:#333992;fill-opacity:1"/><path d="M8 17h1l-1 1zl-1 1v-1Zm0 0" style="stroke:none;fill-rule:evenodd;fill:#29256f;fill-opacity:1"/><path d="m22 16 1 1q0 1.5 0 0v1h1q-1.5 0 0 0v-1h1-1v1h1-1 1v-1 2l-1-1v1h-1v-1q0-1.5 0 0v-1h-1zm0 0" style="stroke:none;fill-rule:evenodd;fill:#2e8dc9;fill-opacity:1"/><path d="m1 17 1 1v1-1H1v1-1 1H0v-1 1-1h1Zm0 0" style="stroke:none;fill-rule:evenodd;fill:#3f4fa3;fill-opacity:1"/><path d="M16 17h2v1h1v1l-1 1h-1v-1l-1 1 1-1h-1 1l-1-1Zm0 0" style="stroke:none;fill-rule:evenodd;fill:#84adda;fill-opacity:1"/><path d="M26 16h1v1q0-1.5 0 0h-1q1.5 0 0 0l1 1v1-1 1h1-2v-1 1h-1v-1q1.5 0 0 0v-1 1h-1 1-1v-1h1v-1Zm0 0" style="stroke:none;fill-rule:evenodd;fill:#2869b1;fill-opacity:1"/><path d="M21 17h1v1h1q0 1.5 0 0v1h1-1v1-1q0 1.5 0 0h-1l1 1h-1v-1l1-1h-4v-1Zm0 0" style="stroke:none;fill-rule:evenodd;fill:#2067b0;fill-opacity:1"/><path d="M19 18v1l-1-1-1 1 1 1q0-1.5 0 0v-1h1l-1 1h-1q1.5 0 0 0v-2zm0 0" style="stroke:none;fill-rule:evenodd;fill:#b1b5d6;fill-opacity:1"/><path d="M12 18v1h-2v-1 1H9h1-1v1-1 1H8v-1 2-1 3-2H7v-1 1-3h1v1l1-1H8h1v-1 1h1v-1h1v1Zm0 0" style="stroke:none;fill-rule:evenodd;fill:#635ea9;fill-opacity:1"/><path d="M31 21h-1l-1-1h1v-1h-1 2Zm0 0" style="stroke:none;fill-rule:evenodd;fill:#2e2f7f;fill-opacity:1"/><path d="M15 19v1h-1v-1Zm0 0" style="stroke:none;fill-rule:evenodd;fill:#fdfefe;fill-opacity:1"/><path d="M25 19h1l-1 1q0-1.5 0 0l-1-1 1 1h-1v-1 1h-1l1-1v-1Zm0 0" style="stroke:none;fill-rule:evenodd;fill:#6673b7;fill-opacity:1"/><path d="M32 19v1l-1-1Zm0 0h-1v-1Zm0 0h-1Zm0 0" style="stroke:none;fill-rule:evenodd;fill:#6361ac;fill-opacity:1"/><path d="M19 17v1h2v1h1v-1q0 1.5 0 0h1l-1 1v1h1l-1-1h1q0 1.5 0 0v1l1 1-1-1v1l-3-1v1-3h-1Zm0 0" style="stroke:none;fill-rule:evenodd;fill:#3e81c3;fill-opacity:1"/><path d="M22 18q0 1.5 0 0v1h-1v-1Zm0 0" style="stroke:none;fill-rule:evenodd;fill:#269ed5;fill-opacity:1"/><path d="M19 19h-1v1q0-1.5 0 0l-1-1 1-1Zm0 0" style="stroke:none;fill-rule:evenodd;fill:#f2d1c4;fill-opacity:1"/><path d="M18 18v1h-1v-1zm0 0" style="stroke:none;fill-rule:evenodd;fill:#fdf8dd;fill-opacity:1"/><path d="M32 18v1h-1 1l-1-1v1l1 1v1q0-1.5 0 0h-1v-2h-2 1-1v-1 1l-1 1h1-1v1-2q0 1.5 0 0h-1 1v-1l-1-1v1l1-1v1-1h1q0 1.5 0 0v1h1v1l1-1-1-1h1v1zm0 0" style="stroke:none;fill-rule:evenodd;fill:#363993;fill-opacity:1"/><path d="M19 17v1h1v2h-1 1-1v-1h1-1v-1h-1v-1zm0 0" style="stroke:none;fill-rule:evenodd;fill:#3698d1;fill-opacity:1"/><path d="M9 20h1l-1 1h1l1 2H9h1v-1H9l1-1H9Zm0 0H8v1-2 1Zm0 0v-1zm0 0" style="stroke:none;fill-rule:evenodd;fill:#724398;fill-opacity:1"/><path d="M11 19v1H9v-1h1-1 1v-1 1Zm0 0" style="stroke:none;fill-rule:evenodd;fill:#8c79b7;fill-opacity:1"/><path d="M26 19v1h-1l-1-1 1 1q0-1.5 0 0zm0 0" style="stroke:none;fill-rule:evenodd;fill:#4d51a3;fill-opacity:1"/><path d="M27 19v1q1.5 0 0 0Zm0 0 1 1h-2v-2 1Zm0 0" style="stroke:none;fill-rule:evenodd;fill:#3b3892;fill-opacity:1"/><path d="M27 19h1q0 1.5 0 0v2-1zv1q1.5 0 0 0Zm0 0" style="stroke:none;fill-rule:evenodd;fill:#7268af;fill-opacity:1"/><path d="M29 19h1v1h-2Zm0 0v-1Zm0 0" style="stroke:none;fill-rule:evenodd;fill:#487abd;fill-opacity:1"/><path d="M10 20v1H9zH9Zm0 0" style="stroke:none;fill-rule:evenodd;fill:#ae6dae;fill-opacity:1"/><path d="m6 19 1 1H6v2q-1.5 0 0 0l-1 1v-1l1-2zm0 0" style="stroke:none;fill-rule:evenodd;fill:#4c77bd;fill-opacity:1"/><path d="m18 20 1 2h-1v-1h-1v2h2l-1 1h-2v-4Zm0 0" style="stroke:none;fill-rule:evenodd;fill:#fcfdfe;fill-opacity:1"/><path d="M23 21v3h-3v-4Zm0 0" style="stroke:none;fill-rule:evenodd;fill:#fcfcfd;fill-opacity:1"/><path d="M26 20v1l-1 1v2h-1v-4h1v1-1Zm0 0" style="stroke:none;fill-rule:evenodd;fill:#fdfdfd;fill-opacity:1"/><path d="M26 20h1v2h-1l1-1h-1 1zh-1v1-1h-1Zm0 0" style="stroke:none;fill-rule:evenodd;fill:#7a4fa0;fill-opacity:1"/><path d="m29 20 1 1v3h-1v-3h-1v3h-1v-4h1v1-1ZM9 21v3H6v-4h1v3h1v-3h1Zm1-1h1v2l1 1v-3h1v3l-1 1h-1v-1l-1-2Zm0 0" style="stroke:none;fill-rule:evenodd;fill:#fdfcfd;fill-opacity:1"/><path d="M15 20v4h-1v-4Zm0 0" style="stroke:none;fill-rule:evenodd;fill:#fdfdfe;fill-opacity:1"/><path d="M17 20h-1v4h-1v-4 1l1-1Zm0 0" style="stroke:none;fill-rule:evenodd;fill:#6fa0d4;fill-opacity:1"/><path d="M16 17v1l1 1h-1 1l-1 1 1-1v1h-1l-1 1v-1h-1 1v-2 1h1v-1h-1 1q0-1.5 0 0zm0 0" style="stroke:none;fill-rule:evenodd;fill:#608fca;fill-opacity:1"/><path d="M19 18v1h1-1v1h1-1 1v1h-1l-1-1 1-1Zm0 0" style="stroke:none;fill-rule:evenodd;fill:#49addb;fill-opacity:1"/><path d="M12 17v1h1-1 2l1 1h-1v1h1-1v2h-1v-2h-1v1h-1v-2h1-1 1v-1h-1zm0 0" style="stroke:none;fill-rule:evenodd;fill:#486eb5;fill-opacity:1"/><path d="m24 19-1 1h1zv2h-1v-1l1 1-1-1v-1Zm0 0" style="stroke:none;fill-rule:evenodd;fill:#5557a6;fill-opacity:1"/><path d="M4 19v2l-1 1v-2H2l1-1Zm0 0" style="stroke:none;fill-rule:evenodd;fill:#3b4fa2;fill-opacity:1"/><path d="M6 20h1v2-2Zm0 0v3Zm0 0" style="stroke:none;fill-rule:evenodd;fill:#cecee3;fill-opacity:1"/><path d="M8 22v-1H7v1Zm0 0H7Zm0 0H7v-2 1h1Zm0 0" style="stroke:none;fill-rule:evenodd;fill:#363892;fill-opacity:1"/><path d="M18 21v2-1l1 1h-2v-2Zm0 0" style="stroke:none;fill-rule:evenodd;fill:#6ba3d6;fill-opacity:1"/><path d="M11 19h1Zm0 0v2h1v1h-1q-.04-1.5 0-3m0 0" style="stroke:none;fill-rule:evenodd;fill:#9da1d0;fill-opacity:1"/><path d="M24 21v2h-1v-2Zm0 0" style="stroke:none;fill-rule:evenodd;fill:#473693;fill-opacity:1"/><path d="M9 23v-2h1l-1 1h1v1zm0 0" style="stroke:none;fill-rule:evenodd;fill:#393083;fill-opacity:1"/><path d="M22 21v2h-1 1-1v-1Zm0 0" style="stroke:none;fill-rule:evenodd;fill:#9876b5;fill-opacity:1"/><path d="m26 20 1 1h-1 1l-1 1h1-2l1-1Zm0 0" style="stroke:none;fill-rule:evenodd;fill:#a861a7;fill-opacity:1"/><path d="M32 21v1h-1v1h-1v1-3Zm0 0" style="stroke:none;fill-rule:evenodd;fill:#774a9d;fill-opacity:1"/><path d="M20 21v2h-1l-1-1v1-2 1l1-1zm0 0" style="stroke:none;fill-rule:evenodd;fill:#7476b8;fill-opacity:1"/><path d="M28 22h1v1h-1Zm0 0" style="stroke:none;fill-rule:evenodd;fill:#cbb1d4;fill-opacity:1"/><path d="M12 22v1l-1-1Zm0 0" style="stroke:none;fill-rule:evenodd;fill:#cea5cc;fill-opacity:1"/><path d="M30 24h-1v-1h-1 1v-1h-1v-1h1v3Zm0 0" style="stroke:none;fill-rule:evenodd;fill:#884b9e;fill-opacity:1"/><path d="M8 22v1H7v-1Zm0 0H7Zm0 0H7v-1h1zm0 0" style="stroke:none;fill-rule:evenodd;fill:#332b7a;fill-opacity:1"/><path d="M27 21v2h-1 1-1v-1h1Zm0 0" style="stroke:none;fill-rule:evenodd;fill:#edabcc;fill-opacity:1"/><path d="M22 21v2h-1 1Zm0 0" style="stroke:none;fill-rule:evenodd;fill:#7b58a5;fill-opacity:1"/><path d="M13 21v1h1v2-1 1l-1-1v1Zm0 0" style="stroke:none;fill-rule:evenodd;fill:#7d9dd1;fill-opacity:1"/><path d="M26 22v1h1-1 1v1h-1v-1q-1.5 0 0 0h-1v-1Zm0 0" style="stroke:none;fill-rule:evenodd;fill:#d782b6;fill-opacity:1"/><path d="M11 23h-1v1l-1 1 1-1H9v-1zm0 0" style="stroke:none;fill-rule:evenodd;fill:#d89dc6;fill-opacity:1"/><path d="M2 19h1l-1 1h1v2l1-1v1H3h1-1l1 1-1 1v1q0-1.5 0 0H2v-1h1-2v-2H0h1v-1H0h1v-1H0v-1Zm0 0" style="stroke:none;fill-rule:evenodd;fill:#292c7b;fill-opacity:1"/><path d="M4 22v2H3l1-1-1-1Zm0 0H3zm0 0" style="stroke:none;fill-rule:evenodd;fill:#4e60ad;fill-opacity:1"/><path d="M28 22v1h1-1 1v1h-1 1-1v1Zm0 0" style="stroke:none;fill-rule:evenodd;fill:#9f4a9c;fill-opacity:1"/><path d="M8 24v1H7h1zm0 0" style="stroke:none;fill-rule:evenodd;fill:#8d5ea7;fill-opacity:1"/><path d="M19 23h1v1h1-1l-1 1 1-1v-1Zm0 0" style="stroke:none;fill-rule:evenodd;fill:#6b8fc8;fill-opacity:1"/><path d="M24 22v3l-1-1v1-2h1Zm0 0" style="stroke:none;fill-rule:evenodd;fill:#82479c;fill-opacity:1"/><path d="M25 23h1q-1.5 0 0 0v1h2v1-1 1l-2-1v1h-1Zm0 0" style="stroke:none;fill-rule:evenodd;fill:#bb6ead;fill-opacity:1"/><path d="M8 24v1H7v-1Zm0 0" style="stroke:none;fill-rule:evenodd;fill:#a39acb;fill-opacity:1"/><path d="M31 23v2h-1v-2Zm0 0" style="stroke:none;fill-rule:evenodd;fill:#aa82bb;fill-opacity:1"/><path d="M29 24h1l-1 1Zm0 0v1h-1 1-1q1.5 0 0 0v1-1l-1 1v-1h1v-1Zm0 0h-1Zm0 0" style="stroke:none;fill-rule:evenodd;fill:#9a5ea6;fill-opacity:1"/><path d="M4 24v2q0-1.5 0 0v-1q0-1.5 0 0H3h1-1v1H2v-1h1q0-1.5 0 0v-1Zm0 0" style="stroke:none;fill-rule:evenodd;fill:#394a9e;fill-opacity:1"/><path d="M15 22v2h2v1h-1l-1 1q-1.5 0 0 0v1l-1 1v-2h-1v-1l1-1v-1 1h1Zm0 0" style="stroke:none;fill-rule:evenodd;fill:#b5bbdc;fill-opacity:1"/><path d="M20 23v1l-1 1-1-1 1-1Zm0 0" style="stroke:none;fill-rule:evenodd;fill:#73cbe0;fill-opacity:1"/><path d="M20 23v1h-1Zm0 0" style="stroke:none;fill-rule:evenodd;fill:#d2ecef;fill-opacity:1"/><path d="M13 23v1Zm0 0 1 1-1 1h-1v1-2Zm0 0" style="stroke:none;fill-rule:evenodd;fill:#a1bbdf;fill-opacity:1"/><path d="m18 24 1 1h1v1l-1-1v1h-1v-1c-1 1-1 1 0 0h-1v-1Zm0 0" style="stroke:none;fill-rule:evenodd;fill:#60aed4;fill-opacity:1"/><path d="M25 24v1h1v-1l2 1h-2l-1 1v1h-1l1-2Zm0 0" style="stroke:none;fill-rule:evenodd;fill:#bd86bb;fill-opacity:1"/><path d="M21 24v1h-1v1-1h-1l1-1Zm0 0" style="stroke:none;fill-rule:evenodd;fill:#606bb1;fill-opacity:1"/><path d="M8 25H7v1-1Zm0 0" style="stroke:none;fill-rule:evenodd;fill:#a981ba;fill-opacity:1"/><path d="M21 24v2h-1v-1 1-1 1-1h1Zm0 0" style="stroke:none;fill-rule:evenodd;fill:#8c82bd;fill-opacity:1"/><path d="M30 24v1h1v1h-1v1h-1v-1l1 1h-1l1-1h-1 1l-1-1v1-2 1zm0 0" style="stroke:none;fill-rule:evenodd;fill:#816cb0;fill-opacity:1"/><path d="M23 24v1l-1-1v1l1 1v-1h1q1.5 0 0 0v-1h1v1l-1 2v-1h-1v1h1v1h-1v-1h-1 1v-1h-1q-1.5 0 0 0h-1 1v1l-1-1v1h1-2 1v-2h1q-1.5 0 0 0h-1v-1zm0 0" style="stroke:none;fill-rule:evenodd;fill:#9962a9;fill-opacity:1"/><path d="M24 24v1q1.5 0 0 0h-1v1l-1-1v-1l1 1v-1 1-1l1 1Zm0 0" style="stroke:none;fill-rule:evenodd;fill:#b27db7;fill-opacity:1"/><path d="m31 24 1 1h-1 1v1h-1q0 1.5 0 0v1h-1v-1h1Zm0 0" style="stroke:none;fill-rule:evenodd;fill:#6852a3;fill-opacity:1"/><path d="M11 23v1q1.5 0 0 0l1 1h-2v1-1 1H8l1-1-1-1v1-1h1v1l1-1v-1Zm0 0" style="stroke:none;fill-rule:evenodd;fill:#d5b2d1;fill-opacity:1"/><path d="M9 25v-1h1Zm0 0" style="stroke:none;fill-rule:evenodd;fill:#de84b2;fill-opacity:1"/><path d="M32 25h1l-1 1zv1Zm0 0h-1Zm0 0" style="stroke:none;fill-rule:evenodd;fill:#723696;fill-opacity:1"/><path d="M29 25v1zl1 1h-1 1l-1 1h1l-1-1h-1 1-1v-1 1-1q1.5 0 0 0zh-1Zm0 0" style="stroke:none;fill-rule:evenodd;fill:#7a4a9d;fill-opacity:1"/><path d="M11 24h1v2h-2v-1h2zq1.5 0 0 0m0 0" style="stroke:none;fill-rule:evenodd;fill:#d4d6e6;fill-opacity:1"/><path d="M15 26h1v1h-1v1h-1l1-1zq-1.5 0 0 0m0 0" style="stroke:none;fill-rule:evenodd;fill:#9ac3dd;fill-opacity:1"/><path d="M7 25v1h1v1l-2-2Zm0 0" style="stroke:none;fill-rule:evenodd;fill:#c76fad;fill-opacity:1"/><path d="M17 25h1c-1 0 0 1 0 0v1h1v-1l1 1h-1v1h1-1 1-3zh-1Zm0 0" style="stroke:none;fill-rule:evenodd;fill:#83cada;fill-opacity:1"/><path d="M33 25h2-1l1 1h-2v1h1-3v1-1q-1.5 0 0 0h-1 1v-1q0 1.5 0 0h1v-1 1zm0 0" style="stroke:none;fill-rule:evenodd;fill:#3d3490;fill-opacity:1"/><path d="M13 25v1h1-1 1v1-1 1h-2v-1h1-1v-1Zm0 0" style="stroke:none;fill-rule:evenodd;fill:#c3b0d4;fill-opacity:1"/><path d="M27 26q1.5 0 0 0v1-2Zm0 0" style="stroke:none;fill-rule:evenodd;fill:#944c9d;fill-opacity:1"/><path d="M17 25h-1zv2h2q-1 .046-2 0h-1l-1 1v-1h1v-1h-1l1-1zv-1Zm-1 2" style="stroke:none;fill-rule:evenodd;fill:#b3d9e2;fill-opacity:1"/><path d="M21 25h1q-1.5 0 0 0zv2h-1v-1h1Zm0 0" style="stroke:none;fill-rule:evenodd;fill:#b098c7;fill-opacity:1"/><path d="M22 27h-1Zm0 0h-1v-1Zm0 0v-1h-1 1q-1.5 0 0 0h1v1zm0 0" style="stroke:none;fill-rule:evenodd;fill:#8c4ea0;fill-opacity:1"/><path d="M20 26v1h-1v-1zv-1Zm0 0" style="stroke:none;fill-rule:evenodd;fill:#afb3ce;fill-opacity:1"/><path d="M7 25H6l2 2H6v-2Zm0 0" style="stroke:none;fill-rule:evenodd;fill:#973292;fill-opacity:1"/><path d="M28 26v-1 3l-1-1v-1l1-1Zm0 0" style="stroke:none;fill-rule:evenodd;fill:#753595;fill-opacity:1"/><path d="M29 26v1h1-1 1v1h-2v-2Zm0 0h-1zm0 0" style="stroke:none;fill-rule:evenodd;fill:#502e8b;fill-opacity:1"/><path d="M8 26v1l2 2H9v-1H8Zm0 0" style="stroke:none;fill-rule:evenodd;fill:#8459a3;fill-opacity:1"/><path d="M34 25h1v1h1v4-1 2l-1 1v2h-2v-2h1l-1-1 1-1v-1q0-1.5 0 0v-2h-1v-1h2Zm0 0h1Zm0 0" style="stroke:none;fill-rule:evenodd;fill:#2f3185;fill-opacity:1"/><path d="M27 27v1q0-1.5 0 0-1.5 0 0 0l-1 1q0-1.5 0 0v-2 1-1 1-3l1 1h-1 1l-1 1 1-1Zm0 0" style="stroke:none;fill-rule:evenodd;fill:#b47fb9;fill-opacity:1"/><path d="M11 27v1h1-1v2-2q0-1.5 0 0H9v-1H8v-1h1v1-1l1 1Zm0 0" style="stroke:none;fill-rule:evenodd;fill:#f5e3e9;fill-opacity:1"/><path d="M24 27h1l-1 1h1l-1 1h-1v-2 1h1Zm0 0h-1v-1h1Zm0 0" style="stroke:none;fill-rule:evenodd;fill:#a278b6;fill-opacity:1"/><path d="M27 25v1Zm0 0v2-1l-1 1 1-1h-1 1l-1-1v3-1 1-1 2l-1-1h-1l1-1v-1l1-1Zm0 0" style="stroke:none;fill-rule:evenodd;fill:#a96bad;fill-opacity:1"/><path d="M6 28v1Zm0 0H5Zm0 0" style="stroke:none;fill-rule:evenodd;fill:#ab2f8e;fill-opacity:1"/><path d="M34 28h1v1h-1l1-1Zm0 0" style="stroke:none;fill-rule:evenodd;fill:#6167b0;fill-opacity:1"/><path d="M6 27h1v1H6Zm0 0" style="stroke:none;fill-rule:evenodd;fill:#7c388f;fill-opacity:1"/><path d="M8 26v1h1v1h1v1l-2-2zm0 0" style="stroke:none;fill-rule:evenodd;fill:#b899c7;fill-opacity:1"/><path d="M8 27v1h1v1l-1 1v-1H7v-1 1H6v-1h1v-1H6zm0 0" style="stroke:none;fill-rule:evenodd;fill:#542d7f;fill-opacity:1"/><path d="M10 26h3-1v1h2v-1 2h1v1h-2v-1h-1 1v-1l-1 1v-1h-2l-1-1v1-1H7v-1h1v-1l1 1-1 1Zm0 0v-1Zm0 0" style="stroke:none;fill-rule:evenodd;fill:#d8bfd7;fill-opacity:1"/><path d="M7 29H6Zm0 0v-1Zm0 0" style="stroke:none;fill-rule:evenodd;fill:#8e2989;fill-opacity:1"/><path d="M11 29v1l-1 1v1-2h1zh-1zm0 0" style="stroke:none;fill-rule:evenodd;fill:#ec9bc4;fill-opacity:1"/><path d="m10 31 1-1v-1 1-2h1v2l-1 1h1Zm0 0" style="stroke:none;fill-rule:evenodd;fill:#f9d7df;fill-opacity:1"/><path d="M13 29v1h-1v2h3l-1 1v1-1h-2l-2-1v-1l1 1v-1h1-1l1-1v-2h-1v-1h1v1l1-1v1h-1 1zm0 0" style="stroke:none;fill-rule:evenodd;fill:#f5c4d7;fill-opacity:1"/><path d="M5 29v1H4v-1Zm0 0" style="stroke:none;fill-rule:evenodd;fill:#8f257a;fill-opacity:1"/><path d="M7 29h1v1H7h1zm0 0" style="stroke:none;fill-rule:evenodd;fill:#8f2d90;fill-opacity:1"/><path d="M25 28v1h1v1l-1-1v1l-1-1h1zl-1 1v1h-1v1-2h1Zm0 0" style="stroke:none;fill-rule:evenodd;fill:#998cc2;fill-opacity:1"/><path d="m25 28 1 1v-1 2q-1.5 0 0 0h-1v1h-1v-2Zm0 0v1h-1l1 1v-1l1 1v-1h-1zm0 0" style="stroke:none;fill-rule:evenodd;fill:#786bb0;fill-opacity:1"/><path d="M5 28v1h1q-1.5 0 0 0l1 1H5v1l-1-1v1H3v1H2l1-2v-1q0 1.5 0 0h1v1h1Zm0 0v1Zm0 0" style="stroke:none;fill-rule:evenodd;fill:#bd2285;fill-opacity:1"/><path d="M10 29h1v1h-1v1H9h1zm0 0" style="stroke:none;fill-rule:evenodd;fill:#aa52a0;fill-opacity:1"/><path d="M24 30v1h1v1h-1v-1 1-1h-1v-1Zm0 0" style="stroke:none;fill-rule:evenodd;fill:#6886c1;fill-opacity:1"/><path d="M10 30v1H9v-1Zm0 0" style="stroke:none;fill-rule:evenodd;fill:#5d2e87;fill-opacity:1"/><path d="M5 28h1v1h1l1 1H7h1-1v1H4l1 1H4v1l-1-1h1v1-1q0-1.5 0 0H3v-1h1v-1l1 1v-1h2l-1-1H5zv1Zm0 0" style="stroke:none;fill-rule:evenodd;fill:#d22287;fill-opacity:1"/><path d="M13 30v1q0-1.5 0 0v1q1.5 0 0 0h1-2v-2Zm0 0" style="stroke:none;fill-rule:evenodd;fill:#f5accb;fill-opacity:1"/><path d="M24 32h1l-1 1q0-1.5 0 0Zm0 0h-2v1h1-1v-1l1-1h1zv-1Zm0 0" style="stroke:none;fill-rule:evenodd;fill:#90bfe0;fill-opacity:1"/><path d="M3 32v2h1v3-2H3v-2l-1-1zv-1l1 1v-1 2-1Zm0 0" style="stroke:none;fill-rule:evenodd;fill:#ad217b;fill-opacity:1"/><path d="M24 33v1h-2v-1h1-1v-1h2zm0 0" style="stroke:none;fill-rule:evenodd;fill:#cedbed;fill-opacity:1"/><path d="M5 31v2q0-1.5 0 0H4v1q0-1.5 0 0H3v-2l1 1v-1h1zH4Zm0 0" style="stroke:none;fill-rule:evenodd;fill:#d8147e;fill-opacity:1"/><path d="M15 32v2h-1c1 0 0-1 0 0v-1zm0 0" style="stroke:none;fill-rule:evenodd;fill:#e5c9d1;fill-opacity:1"/><path d="M15 32h1Zm0 0v3l-1-1h1zm0 0" style="stroke:none;fill-rule:evenodd;fill:#d1cfd5;fill-opacity:1"/><path d="M16 33v2h-1v-1h1-1v-1Zm0 0" style="stroke:none;fill-rule:evenodd;fill:#7c9fb8;fill-opacity:1"/><path d="M24 34v1l-1-1v2-1h-1l1-1h-1Zm0 0" style="stroke:none;fill-rule:evenodd;fill:#69b2dd;fill-opacity:1"/><path d="M16 34h1v1h-1 1q-1.5 0 0 0h-1 1l-2 2v-1h1-1 1v-1c0 1 0 0 0 0Zm0 0" style="stroke:none;fill-rule:evenodd;fill:#6784a7;fill-opacity:1"/><path d="M24 35h-1v1-2Zm0 0" style="stroke:none;fill-rule:evenodd;fill:#3484c5;fill-opacity:1"/><path d="M17 35v1h-1v1-1Zm0 0h-1Zm0 0q-1.5 0 0 0h-1Zm0 0" style="stroke:none;fill-rule:evenodd;fill:#7170a4;fill-opacity:1"/><path d="M16 33h-1v1h1-1v1h1v1h-1 1-2l1-1v-3h1Zm0 0" style="stroke:none;fill-rule:evenodd;fill:#aac3cf;fill-opacity:1"/><path d="M23 35v3-1h-1 1v-1l-1 1v-1h1-1 1-1v-1Zm0 0" style="stroke:none;fill-rule:evenodd;fill:#3f6eb6;fill-opacity:1"/><path d="M17 36v1h-1v-1Zm0 0" style="stroke:none;fill-rule:evenodd;fill:#644e92;fill-opacity:1"/><path d="M16 36v1h-1Zm0 0" style="stroke:none;fill-rule:evenodd;fill:#b4aacc;fill-opacity:1"/><path d="M2 35v2h1-1q-1.5 0 0 0v2-1l-1-1v-1Zm0 0v-1Zm0 0" style="stroke:none;fill-rule:evenodd;fill:#472d83;fill-opacity:1"/><path d="M2 33v1Zm0 0 1 1v1H2l1 1v1l-1 1h1v1H2v-1h1-1v-1h1v-1H2v-2 1Zm0 0" style="stroke:none;fill-rule:evenodd;fill:#892b87;fill-opacity:1"/><path d="M3 38H2v-1q-1.5 0 0 0h1-1v-2 1h1v1H2v1zm0 0" style="stroke:none;fill-rule:evenodd;fill:#702d8a;fill-opacity:1"/><path d="M22 34h1l-1 1h1-1v1h1-1 1-1v1l1-1v1h-1 1q0 1.5 0 0v1h1v1h-1v-1q0 1.5 0 0h1-1c-1-1-1-1 0 0h-1v1-1l-1-1v1-2l1-1Zm0 0" style="stroke:none;fill-rule:evenodd;fill:#29499d;fill-opacity:1"/><path d="M23 38q1.5 0 0 0v1h-1v-1Zm0 0c-1-1-1-1 0 0h1Zm0 0" style="stroke:none;fill-rule:evenodd;fill:#3165b1;fill-opacity:1"/><path d="M23 38q0 1.5 0 0 1.5 0 0 0m0 0" style="stroke:none;fill-rule:evenodd;fill:#76c2e6;fill-opacity:1"/><path d="m2 32 1 1v2h1v4H3v-1H2l1-1v-1l-1-1h1v-1l-1-1v1Zm0 0" style="stroke:none;fill-rule:evenodd;fill:#a7298c;fill-opacity:1"/><path d="M4 38h1v2-1H4v1H2v-2 1h2Zm0 0" style="stroke:none;fill-rule:evenodd;fill:#742d89;fill-opacity:1"/><path d="M24 35v3h1v1-1 2h1-4v-1h1v-1 1h1v-1h-1v-3m0 0" style="stroke:none;fill-rule:evenodd;fill:#2a368d;fill-opacity:1"/><path d="M5 40H4v-1h1zm0 0" style="stroke:none;fill-rule:evenodd;fill:#af2e90;fill-opacity:1"/></svg>