<?xml version="1.0" encoding="UTF-8"?>
<svg xmlns="http://www.w3.org/2000/svg" xmlns:xlink="http://www.w3.org/1999/xlink" width="40px" height="40px" viewBox="0 0 40 40" version="1.1">
<defs>
<filter id="alpha" filterUnits="objectBoundingBox" x="0%" y="0%" width="100%" height="100%">
  <feColorMatrix type="matrix" in="SourceGraphic" values="0 0 0 0 1 0 0 0 0 1 0 0 0 0 1 0 0 0 1 0"/>
</filter>
<mask id="mask0">
  <g filter="url(#alpha)">
<rect x="0" y="0" width="40" height="40" style="fill:rgb(0%,0%,0%);fill-opacity:0.25098;stroke:none;"/>
  </g>
</mask>
<linearGradient id="linear0" gradientUnits="userSpaceOnUse" x1="93" y1="375.737701" x2="93" y2="471.240295" gradientTransform="matrix(0.416667,0,0,0.416667,-18.75,-156.4375)">
<stop offset="0" style="stop-color:rgb(100%,100%,100%);stop-opacity:1;"/>
<stop offset="1" style="stop-color:rgb(100%,100%,100%);stop-opacity:0;"/>
</linearGradient>
<clipPath id="clip1">
  <rect x="0" y="0" width="40" height="40"/>
</clipPath>
<g id="surface5" clip-path="url(#clip1)">
<path style=" stroke:none;fill-rule:evenodd;fill:url(#linear0);" d="M 28.707031 39.832031 C 29.25 39.957031 29.832031 39.875 30.332031 39.667969 L 38.582031 35.707031 C 39.457031 35.292969 40 34.417969 40 33.457031 L 40 6.582031 C 40 5.625 39.457031 4.75 38.582031 4.332031 L 30.332031 0.375 C 29.75 0.0820312 29.082031 0.0429688 28.457031 0.25 C 28.082031 0.375 27.75 0.582031 27.5 0.875 L 14.207031 15.542969 L 6.457031 9.167969 L 5.792969 8.582031 C 5.375 8.207031 4.832031 8.082031 4.292969 8.25 C 4.207031 8.25 4.125 8.292969 4.082031 8.332031 L 1.042969 9.582031 C 0.457031 9.832031 0.0820312 10.375 0 11 C 0 11.042969 0 11.082031 0 11.125 L 0 28.917969 C 0 28.957031 0 29 0 29.042969 C 0.0429688 29.667969 0.457031 30.207031 1.042969 30.457031 L 4.082031 31.707031 C 4.167969 31.75 4.207031 31.75 4.292969 31.792969 C 4.832031 31.917969 5.375 31.792969 5.792969 31.457031 L 6.457031 30.917969 L 14.207031 24.5 L 27.5 39.207031 C 27.832031 39.5 28.25 39.75 28.707031 39.832031 Z M 30 11.542969 L 19.667969 20 L 30 28.5 Z M 5 14.292969 L 10.167969 20 L 5 25.75 Z M 5 14.292969 "/>
</g>
</defs>
<g id="surface1">
<path style=" stroke:none;fill-rule:nonzero;fill:rgb(32.156864%,12.941177%,54.11765%);fill-opacity:1;" d="M 5.792969 31.417969 C 5.332031 31.832031 4.667969 31.917969 4.082031 31.707031 L 1.042969 30.417969 C 0.417969 30.167969 0 29.582031 0 28.917969 L 0 11.125 C 0 10.457031 0.417969 9.832031 1.042969 9.582031 L 4.082031 8.332031 C 4.667969 8.082031 5.332031 8.207031 5.792969 8.625 L 6.457031 9.167969 C 6.042969 8.875 5.457031 8.957031 5.167969 9.375 C 5.042969 9.542969 5 9.75 5 9.917969 L 5 30.082031 C 5 30.582031 5.417969 31 5.917969 31 C 6.125 31 6.292969 30.957031 6.457031 30.832031 Z M 5.792969 31.417969 "/>
<path style=" stroke:none;fill-rule:nonzero;fill:rgb(42.352942%,20%,68.627453%);fill-opacity:1;" d="M 1.042969 30.417969 C 0.417969 30.167969 0 29.582031 0 28.917969 L 0 28.792969 C 0 29.332031 0.457031 29.75 0.957031 29.75 C 1.207031 29.75 1.457031 29.625 1.667969 29.457031 L 27.5 0.875 C 28.25 0.125 29.375 -0.0820312 30.332031 0.375 L 38.582031 4.332031 C 39.457031 4.75 40 5.625 40 6.582031 L 40 6.667969 C 40 5.792969 39.292969 5.082031 38.417969 5.082031 C 38.042969 5.082031 37.707031 5.207031 37.417969 5.457031 L 6.457031 30.832031 L 5.792969 31.417969 C 5.332031 31.832031 4.667969 31.917969 4.082031 31.707031 Z M 1.042969 30.417969 "/>
<path style=" stroke:none;fill-rule:nonzero;fill:rgb(52.156866%,29.803923%,78.039217%);fill-opacity:1;" d="M 1.042969 9.582031 C 0.417969 9.875 0 10.457031 0 11.125 L 0 11.25 C 0 10.707031 0.457031 10.292969 0.957031 10.292969 C 1.207031 10.292969 1.457031 10.417969 1.667969 10.582031 L 27.5 39.167969 C 28.25 39.917969 29.375 40.125 30.332031 39.667969 L 38.582031 35.707031 C 39.457031 35.292969 40 34.417969 40 33.457031 L 40 33.375 C 40 34.25 39.292969 34.957031 38.417969 34.957031 C 38.042969 34.957031 37.707031 34.832031 37.417969 34.582031 L 6.457031 9.167969 L 5.792969 8.582031 C 5.292969 8.167969 4.625 8.082031 4.082031 8.332031 Z M 1.042969 9.582031 "/>
<path style=" stroke:none;fill-rule:nonzero;fill:rgb(69.411767%,47.450981%,94.509804%);fill-opacity:1;" d="M 30.332031 39.667969 C 29.375 40.125 28.25 39.917969 27.5 39.167969 C 28.082031 39.75 29 39.75 29.582031 39.167969 C 29.875 38.875 30 38.542969 30 38.125 L 30 1.875 C 30 1.082031 29.332031 0.417969 28.542969 0.417969 C 28.167969 0.417969 27.792969 0.582031 27.5 0.832031 C 28.25 0.0820312 29.375 -0.125 30.332031 0.332031 L 38.582031 4.292969 C 39.457031 4.707031 40 5.582031 40 6.542969 L 40 33.417969 C 40 34.375 39.457031 35.25 38.582031 35.667969 Z M 30.332031 39.667969 "/>
<use xlink:href="#surface5" mask="url(#mask0)"/>
</g>
</svg>
