<?xml version="1.0" encoding="UTF-8"?>
<svg xmlns="http://www.w3.org/2000/svg" xmlns:xlink="http://www.w3.org/1999/xlink" width="40px" height="39px" viewBox="0 0 39 39" version="1.1">
<g id="surface1">
<path style=" stroke:none;fill-rule:nonzero;fill:rgb(14.117648%,53.725493%,79.215688%);fill-opacity:1;" d="M 0.371094 13.601562 C 0.371094 13.601562 -0.578125 12.90625 0.5625 11.984375 L 3.21875 9.582031 C 3.21875 9.582031 3.976562 8.777344 4.78125 9.480469 L 29.289062 28.230469 L 29.289062 37.222656 C 29.289062 37.222656 29.277344 38.632812 27.484375 38.480469 Z M 0.371094 13.601562 "/>
<path style=" stroke:none;fill-rule:nonzero;fill:rgb(6.27451%,43.921569%,70.19608%);fill-opacity:1;" d="M 6.6875 19.398438 L 0.371094 25.199219 C 0.371094 25.199219 -0.277344 25.6875 0.371094 26.558594 L 3.304688 29.253906 C 3.304688 29.253906 4 30.007812 5.03125 29.148438 L 11.726562 24.019531 Z M 6.6875 19.398438 "/>
<path style=" stroke:none;fill-rule:nonzero;fill:rgb(3.137255%,46.666667%,72.549021%);fill-opacity:1;" d="M 17.777344 19.445312 L 29.363281 10.507812 L 29.289062 1.5625 C 29.289062 1.5625 28.792969 -0.390625 27.140625 0.625 L 11.726562 14.804688 Z M 17.777344 19.445312 "/>
<path style=" stroke:none;fill-rule:nonzero;fill:rgb(23.529412%,60.000002%,83.137256%);fill-opacity:1;" d="M 27.480469 38.492188 C 28.152344 39.1875 28.96875 38.960938 28.96875 38.960938 L 38 34.464844 C 39.15625 33.667969 38.992188 32.679688 38.992188 32.679688 L 38.992188 5.832031 C 38.992188 4.652344 37.796875 4.246094 37.796875 4.246094 L 29.972656 0.433594 C 28.261719 -0.632812 27.140625 0.625 27.140625 0.625 C 27.140625 0.625 28.582031 -0.421875 29.289062 1.5625 L 29.289062 37.0625 C 29.289062 37.304688 29.234375 37.542969 29.132812 37.761719 C 28.925781 38.179688 28.480469 38.574219 27.40625 38.40625 Z M 27.480469 38.492188 "/>
</g>
</svg>
